<svg xmlns="http://www.w3.org/2000/svg" width="194" height="170" viewBox="0 0 194 170" fill="none">
  <g style="mix-blend-mode:overlay">
    <path d="M193.787 98.7435L185.285 80.4773L176.252 61.0701V60.8688C176.252 60.8688 176.252 60.8501 176.252 60.8389C176.252 60.7271 176.244 60.6152 176.225 60.5071C176.225 60.5071 176.225 60.5071 176.225 60.5034C176.211 60.399 176.184 60.2983 176.154 60.1976C176.147 60.1752 176.143 60.1566 176.136 60.1342C176.102 60.0373 176.064 59.9441 176.02 59.8509C176.012 59.8322 176.001 59.8173 175.993 59.8024C175.952 59.7204 175.903 59.6383 175.851 59.5638C175.843 59.5488 175.832 59.5377 175.825 59.5227C175.765 59.437 175.697 59.3587 175.626 59.2804C175.615 59.2655 175.6 59.2543 175.585 59.2394C175.514 59.1648 175.435 59.0977 175.357 59.0343C175.353 59.0343 175.349 59.0268 175.345 59.0268C175.263 58.9635 175.169 58.9038 175.076 58.8516C175.057 58.8404 175.035 58.8292 175.016 58.818C174.922 58.7696 174.821 58.7211 174.716 58.6838L140.638 46.4877C144.747 39.7204 146.836 32.9456 146.836 26.3162C146.836 11.8046 134.979 0 120.402 0C112.017 0 104.208 3.956 99.2567 10.5295C94.2942 3.956 86.4891 0 78.0997 0C63.5232 0 51.6657 11.8046 51.6657 26.3162C51.6657 32.2222 53.3174 38.2438 56.5832 44.2729L53.9316 45.2983C53.9316 45.2983 53.9316 45.2983 53.9278 45.2983L19.4939 58.6092C19.2655 58.6987 19.0557 58.818 18.876 58.9672C18.876 58.9672 18.8722 58.9672 18.8685 58.9709C18.8086 59.0194 18.7524 59.0679 18.6999 59.1201C18.6887 59.1312 18.6812 59.1424 18.67 59.1536C18.625 59.1984 18.5838 59.2431 18.5464 59.2916C18.5314 59.3102 18.5164 59.3289 18.5014 59.3512C18.4677 59.3922 18.4378 59.4333 18.4078 59.4743C18.3891 59.5004 18.3741 59.5265 18.3591 59.5526C18.3367 59.5899 18.3104 59.6309 18.288 59.6719C18.273 59.7017 18.258 59.7315 18.243 59.7614C18.2243 59.8024 18.2056 59.8397 18.1868 59.8807C18.1831 59.8919 18.1756 59.9031 18.1719 59.9142C18.1644 59.9329 18.1606 59.9553 18.1531 59.9739C18.1382 60.0149 18.1232 60.0559 18.1119 60.1007C18.1007 60.1305 18.0932 60.1641 18.0857 60.1976C18.0745 60.2424 18.0632 60.2871 18.0558 60.3318C18.0483 60.3617 18.0445 60.3915 18.0408 60.4251C18.0333 60.4735 18.0295 60.5183 18.0221 60.5667C18.0221 60.5966 18.0183 60.6227 18.0146 60.6525C18.0146 60.701 18.0146 60.7494 18.0146 60.8016C18.0146 60.8315 18.0146 60.8576 18.0146 60.8837C18.0146 60.9321 18.0221 60.9806 18.0258 61.0291C18.0258 61.0589 18.0333 61.0887 18.037 61.1186C18.0445 61.1633 18.052 61.2081 18.0632 61.2528C18.0707 61.2864 18.0782 61.3199 18.0857 61.3497C18.097 61.3908 18.1082 61.4318 18.1232 61.4691C18.1344 61.4989 18.1419 61.5324 18.1531 61.5623L0.228333 98.7136C-0.0488165 99.2916 -0.0750333 99.959 0.157173 100.556C0.243314 100.779 0.366907 100.988 0.512972 101.171C0.760159 101.477 1.08225 101.719 1.45678 101.868L18.3966 108.699V137.834C18.3966 138.792 18.9883 139.653 19.8872 139.996L97.3653 169.847C97.3841 169.855 97.4065 169.858 97.4253 169.866C97.4665 169.881 97.5077 169.896 97.5526 169.907C97.5826 169.914 97.6125 169.922 97.6425 169.929C97.6837 169.94 97.7249 169.952 97.7661 169.959C97.7961 169.966 97.8298 169.97 97.8597 169.974H97.8747C97.8747 169.974 97.8747 169.974 97.8784 169.974C97.9122 169.978 97.9459 169.985 97.9833 169.989C98.0545 169.996 98.1294 170 98.2005 170C98.2005 170 98.2043 170 98.208 170C98.208 170 98.2268 170 98.2343 170C98.2567 170 98.2792 170 98.2979 169.996C98.3466 169.996 98.399 169.993 98.4477 169.989C98.4814 169.989 98.5151 169.981 98.5489 169.974C98.5489 169.974 98.5526 169.974 98.5563 169.974C98.5938 169.966 98.6312 169.963 98.665 169.955C98.7061 169.948 98.7436 169.937 98.7811 169.925C98.8148 169.918 98.8447 169.911 98.8784 169.899C98.9196 169.888 98.9608 169.873 98.9983 169.858C99.017 169.851 99.0395 169.847 99.0582 169.84L174.776 139.993C175.664 139.642 176.248 138.788 176.248 137.834V108.389L192.54 101.868C193.132 101.629 193.6 101.16 193.836 100.57C194.072 99.9776 194.053 99.3177 193.783 98.7398L193.787 98.7435ZM168.952 65.9284L172.716 64.5153L182.214 84.918L188.525 98.4787L160.881 109.545L120.14 125.854L108.369 105.097L100.68 91.5623L118.346 84.9292L168.948 65.9321L168.952 65.9284ZM23.0557 110.578L44.5422 119.228L73.5567 130.913C73.7515 130.992 73.95 131.04 74.1522 131.063C74.1597 131.063 74.1635 131.063 74.171 131.063C74.2271 131.07 74.2833 131.074 74.3395 131.074C74.3545 131.074 74.3695 131.074 74.3807 131.074C74.3957 131.074 74.4107 131.074 74.4256 131.074C74.4481 131.074 74.4706 131.074 74.493 131.07C74.5492 131.07 74.6017 131.066 74.6578 131.059C74.6916 131.059 74.7215 131.051 74.7552 131.048C74.8339 131.037 74.9125 131.022 74.9912 131.003C75.0174 130.996 75.0436 130.988 75.0698 130.981C75.1298 130.962 75.1897 130.943 75.2458 130.921C75.2721 130.91 75.2983 130.902 75.3245 130.891C75.4032 130.858 75.4781 130.824 75.5492 130.783C75.5642 130.776 75.5792 130.764 75.5942 130.757C75.6578 130.72 75.7178 130.682 75.7777 130.641C75.7889 130.634 75.8001 130.626 75.8114 130.619C75.8189 130.611 75.8264 130.608 75.8339 130.6C75.905 130.548 75.9724 130.492 76.0361 130.429C76.0436 130.421 76.0473 130.418 76.0548 130.41C76.1148 130.354 76.1672 130.291 76.2196 130.227C76.2346 130.209 76.2496 130.19 76.2646 130.172C76.3207 130.101 76.3732 130.026 76.4219 129.944L84.8262 115.992L89.9647 107.465L95.0658 98.9821L95.1481 106.271V106.417L95.8223 164.273L23.0482 136.238V110.57L23.0557 110.578ZM100.493 164.284L99.8222 106.693V106.23H99.8185L99.7398 99.3251L104.313 107.379L117.088 129.907C117.137 129.989 117.189 130.067 117.245 130.145C117.26 130.164 117.275 130.183 117.286 130.201C117.343 130.272 117.399 130.339 117.459 130.399C117.459 130.399 117.466 130.406 117.47 130.41C117.537 130.477 117.605 130.537 117.68 130.593C117.687 130.6 117.695 130.608 117.702 130.611C117.71 130.619 117.721 130.623 117.728 130.63C117.796 130.679 117.867 130.727 117.938 130.768C117.946 130.772 117.953 130.776 117.961 130.779C118.039 130.824 118.118 130.861 118.2 130.899C118.223 130.906 118.245 130.917 118.268 130.925C118.335 130.951 118.406 130.977 118.477 130.996C118.496 130.999 118.511 131.007 118.53 131.01C118.612 131.033 118.698 131.048 118.781 131.059C118.807 131.063 118.837 131.066 118.867 131.07C118.931 131.078 118.998 131.081 119.062 131.081C119.08 131.081 119.099 131.085 119.118 131.085C119.129 131.085 119.137 131.085 119.148 131.085C119.163 131.085 119.178 131.085 119.193 131.085C119.249 131.085 119.305 131.081 119.365 131.074C119.575 131.051 119.781 131.003 119.987 130.921L155.394 116.745L171.589 110.261V136.26L100.493 164.284ZM93.8935 91.9202L85.9723 105.086L78.2271 117.946L73.4556 125.865L46.501 115.011L21.6325 104.996C21.6325 104.996 21.625 104.996 21.6212 104.993L21.5988 104.981L5.5054 98.4937L21.8984 64.5116L54.0814 76.7524L84.4742 88.3296L93.8935 91.9202ZM78.0997 4.63833C86.0547 4.63833 93.3729 8.95973 97.2043 15.9135C97.6125 16.6555 98.3953 17.1178 99.2492 17.1178C100.103 17.1178 100.882 16.6555 101.294 15.9135C105.126 8.95973 112.444 4.63833 120.399 4.63833C132.402 4.63833 142.17 14.3624 142.17 26.3125C142.17 51.9426 105.968 72.9679 99.2492 76.648C92.5265 72.9717 56.3323 51.965 56.3323 26.3125C56.3323 14.3624 66.0999 4.63833 78.1035 4.63833H78.0997ZM59.1263 48.4787C63.0026 54.2953 68.3808 60.1156 75.1185 65.7755C86.5041 75.343 97.7137 81.1074 98.1818 81.346C98.5151 81.5175 98.8784 81.6033 99.2455 81.6033C99.6125 81.6033 99.9758 81.5175 100.309 81.346C100.781 81.1037 111.991 75.343 123.372 65.7755C129.327 60.7718 134.222 55.6413 137.953 50.4996C138.342 50.7867 138.822 50.962 139.342 50.962H139.361L168.147 61.264L165.596 62.2222L138.518 72.3863L114.871 81.264L96.7923 88.05L87.755 84.6085L55.7443 72.4124L25.9545 61.085L29.5387 59.698L55.2836 49.7465C55.6132 49.6943 55.9203 49.5712 56.1862 49.396L59.0102 48.3035C59.0476 48.3594 59.0813 48.4191 59.1188 48.475L59.1263 48.4787Z" fill="#fdd803"/>
  </g>
</svg>