<svg xmlns="http://www.w3.org/2000/svg" width="183" height="173" viewBox="0 0 183 173" fill="none">
  <g style="mix-blend-mode:overlay">
    <path d="M109.77 122.148C111.113 122.16 112.506 122.016 113.854 121.876C115.169 121.74 116.432 121.609 117.633 121.609C118.153 121.609 118.663 121.634 119.16 121.694C121.043 121.919 122.577 122.971 124.201 124.085C125.604 125.047 127.194 126.138 129.118 126.734C130.227 127.077 131.294 127.089 132.277 126.767C134.746 125.958 136.347 123.177 136.906 118.724C137.545 113.63 134.807 109.37 132.391 105.611C131.518 104.253 130.694 102.971 130.048 101.703C129.773 101.164 129.279 100.771 128.692 100.627C127.713 100.387 127.044 100.817 126.033 101.539C124.679 102.507 123.608 103.15 122.776 103.15H122.707C122.286 103.15 121.927 102.841 121.864 102.421C121.84 102.258 121.821 102.078 121.808 101.884C121.74 100.839 120.871 100.012 119.829 100C119.804 100 119.779 100 119.755 100C117.77 100 115.391 100.859 112.685 102.554C110.542 103.896 108.253 105.733 106.242 107.728C103.787 110.163 102.098 114.79 103.52 118.321C104.488 120.725 106.766 122.12 109.771 122.149L109.77 122.148ZM109.059 110.597C111.775 107.902 114.978 105.602 117.417 104.594C117.824 104.425 118.292 104.596 118.496 104.988C118.803 105.577 119.214 106.058 119.717 106.415C120.79 107.181 121.985 107.181 122.776 107.181C124.023 107.181 125.343 106.75 126.81 105.864C127.209 105.623 127.726 105.748 127.972 106.144C128.312 106.691 128.664 107.24 129.006 107.77L129.023 107.797C131.266 111.287 133.384 114.582 132.928 118.218C132.594 120.877 131.873 122.316 131.309 122.776C131.157 122.9 130.967 122.968 130.772 122.968C130.749 122.968 130.726 122.967 130.703 122.965C130.582 122.955 130.446 122.927 130.299 122.881C128.955 122.465 127.745 121.635 126.463 120.756C124.603 119.48 122.494 118.033 119.636 117.691C119.005 117.615 118.35 117.578 117.634 117.578C116.226 117.578 114.813 117.725 113.446 117.867L113.353 117.876C112.091 118.007 110.897 118.131 109.807 118.117C108.409 118.104 107.592 117.688 107.238 116.807C106.574 115.161 107.443 112.2 109.06 110.597H109.059Z" fill="#fdd803"/>
    <path d="M79.1208 4C79.1782 4 79.2363 3.99787 79.2944 3.99361C80.186 3.9283 81.0901 3.87434 81.9833 3.83458C83.1537 3.78134 84.0555 2.88114 83.9973 1.82262C83.9384 0.764815 82.9408 -0.0494827 81.7712 0.00234272C80.8348 0.044939 79.8859 0.101024 78.9512 0.169178C77.7831 0.25508 76.9127 1.18013 77.007 2.23652C77.0973 3.23966 78.0258 4 79.12 4H79.1208Z" fill="#fdd803"/>
    <path d="M17.8905 132.834C17.2341 131.968 15.9125 131.739 14.938 132.323C13.9643 132.907 13.7069 134.081 14.3634 134.946C14.9419 135.709 15.5433 136.473 16.151 137.219C16.5674 137.729 17.216 138 17.8748 138C18.3069 138 18.7438 137.883 19.1208 137.641C20.0724 137.029 20.2842 135.847 19.5954 135.002C19.0161 134.292 18.4423 133.562 17.8897 132.835L17.8905 132.834Z" fill="#fdd803"/>
    <path d="M156.162 134.191C155.264 133.551 154.017 133.759 153.375 134.656C136.883 157.708 110.139 170.501 81.8336 168.877C68.9635 168.139 56.9407 164.651 46.0996 158.512C46.0907 158.506 46.0818 158.503 46.0737 158.498C45.1605 157.955 43.9723 158.222 43.383 159.117L39.7518 164.633L32.6683 142.873L55.4989 140.71L47.9059 152.245C47.3004 153.165 47.5569 154.401 48.4797 155.006C49.4018 155.61 50.641 155.354 51.2466 154.434L54.4356 149.589C54.8039 149.778 55.1728 149.964 55.5425 150.145C63.9762 154.281 73.0487 156.654 82.5079 157.196C83.8802 157.275 85.2489 157.314 86.6146 157.314C99.498 157.314 112.019 153.824 123.057 147.121C128.937 143.549 134.255 139.147 138.862 134.035C143.507 128.88 147.348 123.094 150.277 116.838C150.744 115.84 150.311 114.654 149.312 114.188C148.312 113.722 147.123 114.153 146.656 115.151C135.098 139.839 110.008 154.78 82.7364 153.216C73.8125 152.704 65.2561 150.467 57.3045 146.567C57.0835 146.458 56.8616 146.348 56.6405 146.236L61.1236 139.426C61.545 138.785 61.5613 137.96 61.165 137.303C60.7686 136.647 60.03 136.275 59.2647 136.347L29.809 139.138C29.2056 139.195 28.6607 139.523 28.328 140.029C27.9952 140.534 27.9102 141.163 28.098 141.739L37.2371 169.813C37.4744 170.542 38.1096 171.071 38.8711 171.173C38.9599 171.185 39.0493 171.191 39.1373 171.191C39.8043 171.191 40.4343 170.857 40.8069 170.291L45.707 162.847C50.8406 165.607 56.2901 167.841 61.9347 169.49C68.2566 171.337 74.875 172.47 81.6044 172.856C83.2732 172.952 84.9413 173 86.6072 173C92.4366 173 98.2373 172.415 103.912 171.252C110.991 169.802 117.877 167.453 124.38 164.27C137.184 158.002 148.335 148.562 156.628 136.971C157.269 136.075 157.061 134.831 156.162 134.191Z" fill="#fdd803"/>
    <path d="M161.813 124.258C160.72 123.69 159.359 124.091 158.774 125.153C158.3 126.014 157.805 126.881 157.301 127.728C156.681 128.771 157.049 130.105 158.122 130.707C158.476 130.906 158.862 131 159.243 131C160.018 131 160.774 130.609 161.189 129.91C161.717 129.022 162.237 128.113 162.735 127.21C163.319 126.148 162.907 124.826 161.813 124.258Z" fill="#fdd803"/>
    <path d="M182.853 90.9311C182.561 90.2175 181.886 89.7355 181.117 89.691L172.314 89.1831C172.695 78.2321 171.041 67.4905 167.386 57.225C163.641 46.707 157.967 37.1283 150.52 28.7564C143.073 20.3852 134.228 13.6395 124.232 8.7072C113.881 3.6019 102.744 0.673133 91.1302 0.00331785C90.0259 -0.0598022 89.0808 0.785264 89.0171 1.89172C88.9534 2.99818 89.797 3.94647 90.8998 4.01033C112.817 5.27421 132.929 15.011 147.532 31.4282C162.137 47.8476 169.486 68.9891 168.226 90.9578C168.223 90.9927 168.223 91.0269 168.223 91.0611C168.216 92.0197 168.888 92.8403 169.806 93.0356C169.905 93.0564 170.005 93.0705 170.109 93.0765L176.725 93.4581L161.351 110.572L148.036 91.8037L161.869 92.6012C162.973 92.6651 163.918 91.82 163.982 90.7135C164.045 89.6071 163.202 88.6588 162.099 88.5949L156.581 88.2771C156.843 79.4544 155.488 70.8018 152.542 62.5278C149.483 53.9324 144.846 46.1055 138.76 39.2647C132.675 32.4248 125.447 26.9125 117.277 22.8825C108.819 18.7106 99.718 16.3173 90.2258 15.77C85.2576 15.4833 80.2664 15.7202 75.3907 16.4732C74.2982 16.6418 73.5494 17.6665 73.7176 18.7619C73.8857 19.8572 74.9078 20.6079 76.0002 20.4394C80.5989 19.7295 85.3079 19.5059 89.9962 19.7762C107.416 20.781 123.424 28.4059 135.175 41.2727C134.466 43.6438 134.98 45.8099 135.407 47.601C135.932 49.8043 136.279 51.2598 134.912 52.9529C132.475 55.9715 130.157 55.8906 127.703 55.8044C125.71 55.7346 123.233 55.6485 121.572 57.8688C120.463 59.3518 121.004 61.5045 122.471 65.2108C122.625 65.5992 122.477 66.0425 122.122 66.2616C121.833 66.4398 121.523 66.6217 121.274 66.7688L121.263 66.7754C120.263 67.3636 119.13 68.0297 118.256 68.8153C116.403 70.4787 116.468 72.1184 116.671 72.9471C116.696 73.0473 116.737 73.1988 116.817 73.4966C117.103 74.5563 117.339 75.4704 117.516 76.2145C117.579 76.4766 117.516 76.7529 117.345 76.9615C117.174 77.1702 116.916 77.2853 116.647 77.2749C115.926 77.2459 115.192 77.1323 114.466 76.9385C111.545 76.1581 108.973 74.1493 106.822 70.9681C106.371 70.3005 105.654 69.9092 104.853 69.8943H104.803C103.359 69.8943 102.044 71.1144 100.388 73.0837C99.1536 74.5526 97.8167 76.3786 96.8406 77.7115C96.6784 77.9328 96.4213 78.0628 96.1488 78.0628C96.1347 78.0628 96.1214 78.0628 96.1073 78.062C95.8199 78.0479 95.5585 77.8905 95.4111 77.6432C95.1467 77.1977 94.8645 76.6853 94.5727 76.1202C93.7254 74.4776 92.9714 72.7369 92.5204 71.6966L92.5115 71.6758C92.3345 71.2674 92.2174 70.9971 92.1308 70.8159C91.7064 69.9292 91.3057 69.0916 90.2755 68.2814C89.457 67.6376 88.3024 67.0532 86.1789 66.0625C85.9975 65.9779 85.5716 65.7789 82.5327 64.8306C81.8491 64.6175 81.1218 64.394 80.5374 64.2187C80.2641 64.1363 80.0368 64.0694 79.8783 64.0241C79.7849 63.9974 79.7116 63.9766 79.6613 63.9633C78.4851 63.6499 77.78 64.3063 77.5312 64.6026C76.9468 65.2999 76.9023 66.3128 77.423 67.065C77.7163 67.4891 79.3746 70.2262 80.016 71.3216C80.2027 71.6409 80.1656 72.0434 79.9234 72.3226C79.6901 72.5914 78.7591 73.5322 76.5913 74.358C74.7197 75.0709 72.9762 75.2655 72.2222 75.0902C72.1215 75.0672 72.0259 75.0256 71.94 74.9677C71.4378 74.632 69.6699 73.2716 67.6902 71.4166C65.7112 69.5624 64.7439 68.3564 64.281 67.6717C64.0899 67.3888 64.084 67.019 64.2654 66.7294C64.4195 66.4843 64.5809 66.1999 64.7594 65.8591C65.1283 65.1536 65.5238 64.284 65.8748 63.4108C67.2865 59.8924 67.0999 58.6864 66.6873 57.9067C65.9215 56.4572 63.8936 56.1973 61.7057 56.0413C59.9015 55.9128 57.7388 55.895 56.0013 55.8802C55.1184 55.8727 54.1193 55.8646 53.5749 55.8393C53.369 55.8297 53.1735 55.7465 53.0239 55.6039C52.5817 55.1836 51.9951 54.3326 51.4322 53.4979C50.5797 52.2341 49.8443 51.1432 48.8444 50.5944C47.6816 49.9558 46.4521 49.8496 45.2893 50.2855C44.4213 50.6115 43.7325 51.1692 43.0659 51.7098C42.7867 51.9355 42.5237 52.1494 42.2482 52.3462C41.8808 52.6091 41.4868 52.9551 41.0306 53.3561C38.6079 55.4859 36.4349 57.1195 34.361 55.5364C34.0189 55.275 33.9226 54.8004 34.1352 54.4262C34.4877 53.8054 35.2335 52.9655 35.9675 52.1591C37.451 50.5283 38.8523 48.9875 38.6227 47.0664C38.4057 45.2552 36.9748 44.0938 35.6439 43.0839C39.8226 38.1561 44.7338 33.8097 50.2687 30.2378C50.6109 30.0165 50.9575 29.799 51.3063 29.5836L55.0525 37.0496C55.3925 37.7276 56.085 38.1546 56.8397 38.1546C56.8523 38.1546 56.8649 38.1546 56.8775 38.1546C57.647 38.1405 58.3402 37.6845 58.6602 36.9828L70.9853 9.95921C71.2379 9.40524 71.226 8.76661 70.9527 8.22304C70.6794 7.67946 70.175 7.28886 69.581 7.16188L40.5929 0.973139C39.8404 0.81274 39.0619 1.09938 38.5916 1.70979C38.1213 2.32094 38.0428 3.14818 38.3887 3.83731L42.3904 11.8112C30.6726 18.724 20.6702 28.3977 13.3904 39.8848C9.53604 45.9659 6.45644 52.5252 4.23523 59.38C1.95034 66.4338 0.573476 73.8107 0.14316 81.3064C-0.77302 97.2832 2.72135 113.138 10.2493 127.159C10.6107 127.833 11.3003 128.215 12.0135 128.215C12.3335 128.215 12.6586 128.138 12.9601 127.975C13.9333 127.45 14.2977 126.233 13.7733 125.257C6.59642 111.891 3.26499 96.7723 4.13895 81.5374C5.75875 53.3019 21.3612 28.215 45.8759 14.4296C45.8981 14.417 45.9203 14.4036 45.9418 14.3902C46.9187 13.8875 47.3098 12.689 46.8158 11.7036L43.8376 5.76878L66.3066 10.5607L56.753 31.5069L50.5249 19.0968C50.028 18.1069 48.8251 17.7081 47.8379 18.2064C46.8506 18.7047 46.4529 19.9106 46.9498 20.9005L49.4991 25.9806C49.0288 26.2687 48.5615 26.562 48.1008 26.8591C38.9545 32.7626 31.1852 40.8242 25.631 50.1719C22.7981 54.9408 20.5324 60.0431 18.8986 65.3378C17.2166 70.7876 16.1967 76.4662 15.8664 82.2139C14.842 100.075 20.5384 117.497 31.9065 131.272C32.3021 131.752 32.8738 132 33.4493 132C33.8989 132 34.3507 131.849 34.724 131.54C35.5757 130.833 35.695 129.568 34.9899 128.715C24.2683 115.722 18.8956 99.2904 19.8614 82.4448C20.6206 69.2111 25.34 56.6287 33.1182 46.2436C33.3908 46.45 33.7263 46.7062 33.9974 46.9364C34.3529 47.2372 34.4048 47.7674 34.1144 48.1313C33.7811 48.5493 33.319 49.0573 32.982 49.4278C31.4518 51.1098 29.7172 53.016 29.8742 55.3292C29.9312 56.1668 30.2808 57.4002 31.6229 58.523C33.7456 60.2986 36.3489 60.6936 38.9538 59.6354C40.9121 58.8394 42.583 57.3705 43.6888 56.3978C44.1102 56.0272 44.4013 55.774 44.5894 55.6388C44.9642 55.3708 45.3019 55.0967 45.6004 54.8547C45.7433 54.7388 45.9211 54.5947 46.0885 54.4663C46.2707 54.3267 46.5003 54.2658 46.7284 54.297C46.9558 54.3282 47.1609 54.4499 47.2979 54.6341C47.5535 54.9764 47.8601 55.4309 48.0838 55.7628C49.2829 57.5413 50.5227 59.38 52.4284 59.7802C52.9824 59.8968 53.9127 59.9087 55.9642 59.9258C57.3093 59.9369 59.8134 59.9577 61.628 60.0899C61.8976 60.1092 62.1427 60.2555 62.2886 60.4842C62.4345 60.7129 62.4642 60.9966 62.3694 61.2506C61.9376 62.4031 60.4141 65.0407 60.2956 65.2123C60.1156 65.4722 59.8075 65.6118 59.4942 65.5769C57.8884 65.395 55.7465 65.3356 53.112 65.2761C50.3353 65.2138 47.2705 65.1239 46.0499 64.8462C45.9055 64.8135 45.7722 64.7437 45.6633 64.6442C44.939 63.9855 43.7517 63.5348 42.1349 63.3038C40.5892 63.0833 38.8627 63.087 37.2748 63.3142C34.0011 63.7828 31.8036 65.161 31.0874 67.195C30.1216 69.9396 29.0758 72.0939 28.1441 73.2597C27.8448 73.634 27.5478 73.9756 27.2331 74.3365C25.9547 75.8053 24.6327 77.3239 24.2571 80.0344C23.8187 83.2052 25.1185 87.4662 27.419 90.3965C29.0669 92.4958 31.0667 93.7188 33.2027 93.9319C34.5832 94.0693 35.8831 93.7158 36.9274 93.4314C37.0348 93.4017 37.1422 93.3727 37.2496 93.3438C38.225 93.0831 39.493 92.7972 40.7506 92.7972C41.4453 92.7972 42.1371 92.8841 42.7755 93.1114C46.1033 94.295 46.2299 99.2422 46.0736 104.209C46.0648 104.495 46.0559 104.763 46.0492 105.022C45.9648 108.163 45.9196 111.514 46.3618 114.917C46.7706 118.063 47.906 120.459 49.7354 122.04C51.2389 123.338 52.8439 123.996 54.5052 123.996C54.7629 123.996 55.0214 123.98 55.2754 123.947C57.667 123.64 59.9363 121.953 62.019 118.932C62.7923 117.811 63.4189 116.637 64.0247 115.501C64.715 114.207 65.3675 112.985 66.1815 111.929C66.5348 111.472 66.9614 111.016 67.4132 110.532C68.7397 109.115 70.2402 107.512 70.6172 105.098C70.875 103.447 70.4106 102.041 70.0002 100.802C69.5736 99.5117 69.3677 98.8078 69.7373 98.1469C69.7536 98.1179 69.7714 98.0897 69.7914 98.0629C70.0232 97.7414 70.6846 97.0203 71.5934 96.0372L71.5993 96.0305C75.3781 91.9418 77.8304 89.0917 77.5089 86.8216C77.3926 86.0011 76.9216 85.2867 76.2165 84.8619C74.9589 84.1038 73.5828 84.3481 72.9954 84.4528C72.1948 84.5953 71.503 84.7186 70.7476 84.276C70.1573 83.93 69.641 83.3136 68.6204 82.0639L68.5552 81.9844C68.4419 81.8463 68.3264 81.7037 68.2064 81.5589C67.7168 80.9648 67.3087 79.9052 66.8829 78.1229C66.7977 77.7658 66.334 76.1937 66.6429 75.9962C66.9517 75.7986 67.9642 77.0202 68.2508 77.2489C68.9959 77.843 69.6292 78.3056 69.9869 78.5187C71.7704 79.5784 74.3827 79.2064 76.2609 78.7081C78.6547 78.0732 80.8552 76.9586 82.298 75.6523C83.7941 74.2979 84.4806 72.682 84.2325 71.1025C84.1829 70.7869 83.2949 69.6478 83.5504 69.4569C83.8059 69.2661 87.4188 71.1812 87.781 71.4656C88.0587 71.6839 88.1565 71.8733 88.4861 72.5632C88.5372 72.6701 88.6409 72.9092 88.8068 73.2909L88.8142 73.3072C89.3778 74.609 90.4258 77.0291 91.5783 79.0876C92.273 80.3284 92.9025 81.2581 93.5032 81.9309C94.4031 82.9386 95.3422 83.4495 96.294 83.4495C96.5561 83.4495 96.8213 83.4109 97.0813 83.3337C97.8241 83.1146 98.2537 82.5577 98.7514 81.9124C99.0951 81.4668 99.5284 80.8757 100.029 80.191L100.035 80.1829C100.829 79.0987 102.478 76.8457 103.768 75.3405C103.931 75.1496 104.169 75.0405 104.419 75.0405H104.42C104.67 75.0405 104.908 75.1504 105.071 75.3412C106.52 77.0388 108.14 78.4022 109.886 79.3935C111.804 80.4829 113.846 81.12 115.956 81.2871C117.325 81.3955 118.422 81.276 119.1 81.1572C120.734 80.8705 121.155 80.4205 121.357 80.2044C122.317 79.1782 121.957 77.5704 121.577 75.8677C121.328 74.7531 121.01 73.5501 120.761 72.627C120.674 72.3033 120.782 71.958 121.039 71.7426C121.616 71.2584 122.671 70.6376 123.302 70.2671C124.142 69.7733 124.935 69.3062 125.561 68.7893C127.202 67.4363 127.077 66.0781 126.856 65.389C126.743 65.0348 126.56 64.5751 126.328 63.9937C126.087 63.3907 125.525 61.9791 125.224 60.9379C125.152 60.6855 125.198 60.4137 125.35 60.1998C125.501 59.9859 125.742 59.853 126.004 59.8389C126.491 59.8129 127.107 59.8345 127.557 59.8501C128.924 59.8976 130.624 59.9577 132.438 59.4312C134.576 58.8104 136.41 57.525 138.045 55.5C140.662 52.2578 139.923 49.1545 139.329 46.6602C139.286 46.4775 139.244 46.2993 139.203 46.1233C148.315 58.1792 153.005 72.8209 152.579 88.0469L144.099 87.5583C143.33 87.513 142.605 87.9155 142.233 88.5905C141.86 89.2662 141.907 90.0957 142.353 90.7247L159.533 114.939C159.884 115.435 160.442 115.744 161.049 115.779C161.087 115.781 161.126 115.782 161.164 115.782C161.729 115.782 162.27 115.542 162.651 115.118L182.486 93.0386C183.001 92.4653 183.142 91.6462 182.85 90.9326L182.853 90.9311ZM68.6671 87.7432C69.4048 88.185 70.1817 88.4509 71.0438 88.5556C71.3556 88.5934 71.6223 88.7991 71.7378 89.0925C71.8541 89.385 71.8008 89.7185 71.6 89.9606C70.6668 91.0848 69.5907 92.2499 68.6412 93.2777C67.3154 94.7124 66.6636 95.426 66.3207 95.9911C64.9202 98.2976 65.643 100.482 66.1704 102.076C66.4622 102.958 66.7377 103.79 66.631 104.471C66.4466 105.652 65.5327 106.629 64.4743 107.76C63.9758 108.293 63.4618 108.842 62.9908 109.451C61.9687 110.775 61.2051 112.206 60.4666 113.591C59.8889 114.675 59.3431 115.697 58.7002 116.63C56.9515 119.166 55.5954 119.825 54.7651 119.931C54.7014 119.94 54.6074 119.951 54.4852 119.951C54.0778 119.951 53.3549 119.819 52.3743 118.972C51.0619 117.838 50.5597 115.856 50.3694 114.393C49.965 111.28 50.0087 108.111 50.0894 105.131C50.0961 104.877 50.1042 104.613 50.1131 104.342C50.1879 101.955 50.2813 98.9927 49.6717 96.2636C48.6696 91.7769 46.1048 89.9977 44.1287 89.2952C43.1074 88.9321 41.9719 88.7479 40.7543 88.7479C38.9738 88.7479 37.3096 89.1385 36.2119 89.4318C36.0986 89.4623 35.9853 89.4927 35.872 89.5239C35.0373 89.7511 34.2485 89.9665 33.6086 89.9026C32.322 89.7742 31.26 88.7383 30.5956 87.8917C28.8151 85.6238 28.01 82.398 28.2603 80.5891C28.4603 79.1418 29.0899 78.3621 30.2786 76.9972C30.5949 76.634 30.9481 76.2279 31.2985 75.789C32.5294 74.2481 33.73 71.8406 34.8662 68.6319C34.9136 68.499 34.9921 68.3802 35.0958 68.2844C35.5365 67.8804 36.7667 67.3599 38.7849 67.221C40.4655 67.1051 42.0023 67.316 42.7185 67.5596C42.8474 67.6034 42.9644 67.6777 43.0592 67.7757C44.305 69.0671 47.1735 69.1881 53.0254 69.3195C55.5947 69.3775 58.7928 69.4495 60.1008 69.7614C60.2993 69.8089 60.4748 69.9255 60.5948 70.0904C60.7851 70.351 61.0792 70.8864 61.4013 71.9565C61.7524 73.1216 62.0242 74.5125 62.3123 75.9858C62.913 79.0586 63.5337 82.2361 65.0949 84.132C65.2312 84.2976 65.3631 84.4587 65.4904 84.6154L65.4979 84.625C66.5422 85.9038 67.4435 87.0088 68.6663 87.741L68.6671 87.7432Z" fill="#fdd803"/>
  </g>
</svg>