<svg xmlns="http://www.w3.org/2000/svg" width="188" height="173" viewBox="0 0 188 173" fill="none">
  <g style="mix-blend-mode:overlay">
    <path d="M186.771 92.5578L137.743 43.5169C136.96 42.7335 135.69 42.7237 134.893 43.494L117.642 60.2001C117.244 60.5852 117.022 61.114 117.025 61.6689C117.025 62.2206 117.254 62.7494 117.655 63.1313L120.76 66.0886L116.647 69.7934L72.1953 71.4451L63.9565 64.0257L65.5103 62.3511C66.2676 61.5384 66.2284 60.2653 65.4221 59.4983L48.6247 43.4842C48.233 43.1088 47.7075 42.9065 47.1624 42.9228C46.6205 42.9391 46.1048 43.1741 45.7359 43.5691L0.543495 92.2248C-0.184415 93.0082 -0.181151 94.2225 0.553288 95.0026L16.5281 111.924C16.9133 112.329 17.4454 112.561 18.0035 112.561H18.0133C18.5748 112.561 19.1101 112.322 19.492 111.911L28.9287 101.746L44.8154 118.472L42.5501 120.737C40.7613 122.526 39.7756 124.909 39.7756 127.442C39.7756 129.975 40.7613 132.358 42.5501 134.143C43.9733 135.566 45.7425 136.438 47.59 136.764L47.0808 137.274C45.2594 139.095 44.254 141.517 44.254 144.096C44.254 146.674 45.2561 149.093 47.0808 150.918L47.4137 151.251C49.2939 153.131 51.7649 154.071 54.2358 154.071C55.3261 154.071 56.413 153.888 57.4543 153.523C57.4739 155.964 58.414 158.403 60.2746 160.263L60.6075 160.596C62.4289 162.418 64.8509 163.423 67.4296 163.423C68.6178 163.423 69.7733 163.207 70.8537 162.796C70.795 165.342 71.7318 167.911 73.674 169.853L74.0037 170.18C75.8838 172.06 78.3548 173 80.8258 173C83.2967 173 85.7677 172.06 87.6479 170.18L94.6822 163.145L98.4294 166.893C100.179 168.642 102.51 169.609 104.987 169.609C107.465 169.609 109.799 168.646 111.548 166.893C112.886 165.554 113.765 163.88 114.104 162.058L114.473 162.427C116.36 164.311 118.834 165.254 121.311 165.254C123.789 165.254 126.263 164.311 128.15 162.427C130.849 159.728 131.613 155.817 130.448 152.429C132.909 152.351 135.213 151.355 136.963 149.606C138.788 147.778 139.796 145.352 139.796 142.767C139.796 141.533 139.565 140.339 139.127 139.226C141.406 139.089 143.645 138.155 145.381 136.418C149.151 132.648 149.151 126.515 145.381 122.745L141.836 119.2L158.125 101.671L168.181 111.248C168.573 111.624 169.079 111.81 169.582 111.81C170.085 111.81 170.623 111.611 171.018 111.213L186.768 95.4335C187.561 94.6403 187.558 93.3542 186.768 92.5643L186.771 92.5578ZM17.997 107.557L4.81629 93.5958L47.3125 47.8452L61.1689 61.0553L17.997 107.557ZM45.4258 131.271C44.4042 130.252 43.8427 128.891 43.8427 127.442C43.8427 125.993 44.4074 124.632 45.4291 123.61L54.6047 114.434C55.6264 113.413 56.9875 112.848 58.4336 112.848C59.8796 112.848 61.2407 113.413 62.2657 114.438C63.2874 115.456 63.8488 116.817 63.8488 118.266C63.8488 119.716 63.2874 121.074 62.2624 122.095L61.4627 122.895L53.0575 131.3C50.9456 133.383 47.5247 133.373 45.4226 131.271H45.4258ZM50.2927 148.378L49.9598 148.045C48.9054 146.991 48.3244 145.587 48.3244 144.096C48.3244 142.604 48.9054 141.2 49.9598 140.146L55.9234 134.182C55.9234 134.182 55.9365 134.169 55.943 134.163L62.8141 127.289L65.8302 124.272C66.8845 123.218 68.2881 122.637 69.7798 122.637C71.2715 122.637 72.6751 123.218 73.7229 124.266L74.0624 124.609C75.1167 125.663 75.6978 127.067 75.6978 128.558C75.6978 130.05 75.1167 131.454 74.0624 132.508L58.192 148.378C57.1377 149.433 55.7341 150.014 54.2424 150.014C52.7506 150.014 51.347 149.433 50.2927 148.378ZM63.4832 157.724L63.1503 157.391C60.9731 155.214 60.9731 151.669 63.1503 149.491L74.5749 138.067C75.6292 137.013 77.0328 136.431 78.5245 136.431C80.0163 136.431 81.4166 137.013 82.4742 138.067L82.8071 138.4C84.9843 140.577 84.9843 144.122 82.8071 146.299L71.3825 157.724C70.3282 158.778 68.9246 159.359 67.4329 159.359C65.9412 159.359 64.5376 158.778 63.4832 157.724ZM92.1786 159.911L84.7787 167.311C82.6015 169.488 79.0599 169.488 76.8761 167.304L76.5464 166.978C74.3692 164.8 74.3692 161.256 76.5464 159.078L83.9496 151.678C85.0398 150.588 86.4695 150.046 87.8992 150.046C89.3289 150.046 90.7586 150.591 91.8456 151.678L92.1818 152.015C93.2361 153.069 93.8172 154.473 93.8172 155.964C93.8172 156.963 93.5528 157.916 93.0664 158.755C92.9097 158.925 92.7857 159.111 92.6976 159.31C92.5409 159.519 92.3711 159.721 92.1818 159.911H92.1786ZM142.512 133.546C140.328 135.73 136.78 135.733 134.593 133.556L120.175 119.138C119.382 118.345 118.096 118.345 117.303 119.138C116.51 119.931 116.51 121.217 117.303 122.01L118.928 123.636C118.928 123.636 118.938 123.646 118.941 123.652L131.711 136.422C131.711 136.422 131.724 136.435 131.731 136.441L134.097 138.808C136.284 140.995 136.284 144.553 134.097 146.74C133.039 147.797 131.629 148.382 130.131 148.382C128.633 148.382 127.226 147.797 126.165 146.74L109.371 129.946C109.299 129.874 109.224 129.812 109.146 129.753L106.91 127.517C106.117 126.724 104.83 126.724 104.037 127.517C103.244 128.31 103.244 129.596 104.037 130.39L125.281 151.629C127.467 153.816 127.467 157.374 125.281 159.561C124.223 160.619 122.813 161.203 121.315 161.203C119.816 161.203 118.409 160.619 117.349 159.561L96.1054 138.318C95.3122 137.525 94.0261 137.525 93.2329 138.318C92.4397 139.111 92.4397 140.397 93.2329 141.191L93.9477 141.906C93.9934 141.961 94.0424 142.016 94.0914 142.069L108.676 156.653C110.709 158.687 110.709 161.993 108.676 164.027C107.693 165.009 106.381 165.551 104.987 165.551C103.593 165.551 102.288 165.009 101.302 164.027L97.0813 159.806C97.6003 158.608 97.8745 157.309 97.8745 155.964C97.8745 153.386 96.8724 150.964 95.0478 149.142L94.7148 148.806C92.8085 146.9 90.2951 145.96 87.7915 145.989C89.2049 142.503 88.4998 138.354 85.6763 135.531L85.3434 135.198C83.6264 133.481 81.3807 132.492 78.975 132.384C79.4875 131.192 79.7617 129.9 79.7617 128.565C79.7617 125.989 78.7596 123.567 76.9414 121.749L76.6019 121.407C74.7805 119.585 72.3585 118.58 69.7798 118.58C69.14 118.58 68.5133 118.642 67.8997 118.763C67.9094 118.599 67.9127 118.436 67.9127 118.273C67.9127 115.737 66.9269 113.357 65.1382 111.572C63.3461 109.78 60.9666 108.794 58.4368 108.794C55.9071 108.794 53.5243 109.78 51.7355 111.572L47.6977 115.606L46.725 114.581C43.5979 104.188 48.8793 95.1985 48.9642 95.0549C49.5452 94.0985 49.2417 92.8483 48.2853 92.2673C47.3289 91.683 46.0787 91.9865 45.4944 92.9429C45.279 93.2955 41.1889 100.144 41.6949 109.283L31.7065 98.7662L61.195 67.0058L70.0899 75.0161C70.4653 75.3523 70.9484 75.5384 71.4478 75.5384C71.4739 75.5384 71.4968 75.5384 71.5229 75.5384L82.8724 75.1173L66.248 91.0138C64.8411 92.3587 64.0316 94.2486 64.0316 96.1973C64.0316 100.154 67.2501 103.369 71.203 103.369H73.3084C79.1708 103.369 84.6808 100.783 88.4248 96.2724L91.7705 92.2412L106.988 93.6252C109.508 93.8536 111.881 94.9667 113.667 96.7555L129.743 112.848L142.512 125.617C144.699 127.804 144.699 131.362 142.512 133.546ZM138.964 116.324L132.615 109.975L131.143 108.5C134.89 90.4654 125.45 82.4356 125.039 82.0961C124.174 81.3813 122.888 81.502 122.176 82.367C121.461 83.232 121.582 84.5083 122.447 85.2232C122.761 85.4876 129.504 91.3925 127.634 104.984L116.542 93.883C114.084 91.4218 110.82 89.8942 107.357 89.5776L91.0753 88.0957C90.4094 88.0336 89.7565 88.3046 89.3289 88.8203L85.3009 93.6741C82.3306 97.2517 77.9598 99.3048 73.3117 99.3048H71.2063C69.4926 99.3048 68.0955 97.911 68.0955 96.1941C68.0955 95.3486 68.4448 94.5293 69.0552 93.945L88.9862 74.8856L117.531 73.8247C118.008 73.8084 118.462 73.6223 118.814 73.3057L123.707 68.8991L155.18 98.8674L138.961 116.324H138.964ZM169.549 106.936L159.424 97.2941L121.99 61.6526L136.287 47.8093L182.469 94.0005L169.552 106.94L169.549 106.936Z" fill="#fdd803"/>
    <path d="M50.5407 29.2981C50.5407 29.37 50.5505 29.4385 50.5603 29.5103L50.7399 30.7376C50.7856 31.1457 50.8802 31.5047 50.9651 31.8246C50.9977 31.9487 51.0304 32.0727 51.0532 32.1804C51.1707 32.7647 51.3601 33.2968 51.5298 33.7505C52.2414 35.7481 53.2141 37.5173 54.4121 39.0058C55.672 40.5824 57.167 41.9435 58.8448 43.0403C60.5683 44.1828 62.4484 44.9988 64.4102 45.4623C66.2022 45.9062 68.053 46.0793 70.4032 46.027L87.6642 46.0205C90.4877 46.0303 93.3536 46.0009 96.1216 45.9715C96.9703 45.9617 97.819 45.952 98.6579 45.9454L99.4086 47.2641C99.4935 47.4535 99.5816 47.6428 99.6665 47.8321C99.8656 48.2662 100.052 48.6808 100.225 49.0921L100.558 50.0615C100.6 50.1954 100.649 50.3259 100.695 50.4598C100.76 50.6491 100.825 50.8254 100.858 50.9559L101.119 52.007C101.152 52.1441 101.188 52.2812 101.22 52.4183C101.269 52.6011 101.312 52.7741 101.331 52.9014C101.331 52.9144 101.335 52.9275 101.338 52.9405L101.511 54.0047C101.53 54.1483 101.556 54.2919 101.579 54.4355C101.612 54.6183 101.641 54.7913 101.648 54.9154C101.648 54.9317 101.648 54.9447 101.651 54.9611L101.746 56.0317C101.756 56.1753 101.769 56.319 101.782 56.4593C101.801 56.6519 101.818 56.838 101.818 56.9914C101.821 57.2427 101.827 57.4941 101.831 57.7454C101.834 57.9772 101.84 58.2122 101.844 58.4439C101.857 59.2763 102.376 60.0173 103.153 60.3143C103.388 60.4024 103.632 60.4449 103.871 60.4449C104.432 60.4449 104.981 60.2131 105.372 59.7822C105.633 59.4983 105.885 59.2077 106.139 58.9172C106.319 58.7116 106.495 58.5092 106.678 58.3068C107.083 57.8694 107.429 57.4255 107.762 56.9979C107.925 56.789 108.085 56.5801 108.238 56.394C108.663 55.8881 109.015 55.3821 109.355 54.8925C109.479 54.713 109.606 54.5302 109.733 54.3539C109.74 54.3441 109.746 54.3376 109.753 54.3278L109.896 54.1222C110.086 53.8545 110.298 53.5542 110.494 53.2115L111.111 52.193C111.32 51.8536 111.555 51.4717 111.757 51.0375L112.26 50.0452C112.465 49.6633 112.648 49.2586 112.831 48.7722L113.239 47.7538C113.402 47.3914 113.494 47.052 113.569 46.7778C113.595 46.6799 113.621 46.5819 113.653 46.484C113.66 46.4644 113.667 46.4448 113.673 46.4253L113.817 45.9324H120.596C120.622 45.9324 120.649 45.9324 120.678 45.9324C120.685 45.9324 120.701 45.9324 120.707 45.9324L121.814 45.8769C122.248 45.8671 122.617 45.8116 122.894 45.7626L123.632 45.6484C123.655 45.6451 123.678 45.6419 123.701 45.6353C124.125 45.5537 124.523 45.4493 124.908 45.3448C125.062 45.3024 125.218 45.2632 125.372 45.224C125.457 45.2012 125.542 45.1751 125.626 45.1424C125.79 45.0771 125.953 45.0217 126.116 44.9629C126.462 44.8389 126.857 44.7018 127.259 44.5092C127.275 44.5027 127.291 44.4929 127.308 44.4863C127.438 44.4211 127.569 44.359 127.702 44.297C128.071 44.124 128.486 43.9282 128.907 43.6507L129.557 43.2557C129.579 43.2427 129.605 43.2264 129.628 43.21C129.824 43.0795 129.994 42.9522 130.144 42.8379C130.213 42.7857 130.278 42.7335 130.337 42.691C131.45 41.8946 132.357 40.9317 133.02 40.1809C133.039 40.158 133.059 40.1352 133.075 40.1123C133.395 39.7174 133.718 39.2865 134.123 38.7185C134.162 38.6598 134.201 38.601 134.237 38.5423C134.319 38.3987 134.407 38.2616 134.492 38.1212C134.694 37.798 134.926 37.4325 135.119 36.9983C135.161 36.9102 135.204 36.8221 135.246 36.7339C135.445 36.3259 135.67 35.8624 135.84 35.3336L136.104 34.6187C136.127 34.5535 136.15 34.4882 136.166 34.4196L136.362 33.6493C136.65 32.5852 136.803 31.4362 136.852 30.0326V29.951C136.865 29.8759 136.868 29.8008 136.868 29.7258V29.7192C136.868 29.6996 136.868 29.6768 136.868 29.6572C136.868 29.6474 136.868 29.6376 136.868 29.6278C136.868 29.6278 136.868 29.6213 136.868 29.618C136.868 29.5887 136.868 29.5593 136.862 29.5332L136.793 28.1818C136.793 28.1296 136.787 28.0774 136.78 28.0251C136.705 27.4506 136.62 26.9251 136.529 26.3963C136.522 26.3506 136.512 26.3049 136.503 26.2625C136.16 24.836 135.794 23.7654 135.328 22.809L134.978 22.0811C134.962 22.0484 134.946 22.0158 134.929 21.9831C134.831 21.8036 134.727 21.6306 134.619 21.4576C134.577 21.3891 134.538 21.3238 134.495 21.2552C134.201 20.7264 133.859 20.276 133.558 19.8745L133.467 19.7504C133.193 19.3587 132.902 19.0487 132.641 18.7712C132.53 18.6537 132.419 18.5362 132.315 18.4121C132.272 18.3632 132.227 18.3142 132.181 18.2685C131.786 17.8833 131.352 17.4884 130.892 17.0934C130.865 17.0706 130.836 17.0477 130.81 17.0281C130.02 16.421 128.953 15.6507 127.716 15.0794L127.001 14.7367C126.942 14.7073 126.88 14.6845 126.821 14.6616L126.106 14.4005C125.61 14.1981 125.134 14.0773 124.713 13.9696C124.598 13.9402 124.484 13.9108 124.37 13.8815C123.906 13.7476 123.475 13.6889 123.097 13.6367C122.934 13.6138 122.77 13.5942 122.61 13.5616C122.561 13.5518 122.509 13.5453 122.46 13.5387C122.062 13.4963 121.687 13.4767 121.324 13.4637C121.145 13.4571 120.962 13.4473 120.782 13.4343C120.688 13.4277 120.596 13.4277 120.502 13.4343L119.193 13.5289L119.101 13.1568C119.01 12.6933 118.844 12.3147 118.719 12.0339C118.684 11.9491 118.644 11.8675 118.612 11.7793C118.599 11.7434 118.582 11.7043 118.566 11.6684C118.543 11.6161 118.52 11.5606 118.498 11.5052C118.435 11.3517 118.37 11.1983 118.298 11.0514C118.269 10.9894 118.233 10.9274 118.197 10.8686L117.887 10.366C117.871 10.3398 117.854 10.3137 117.838 10.2909C117.789 10.2191 117.747 10.144 117.704 10.0689C117.551 9.80452 117.345 9.44546 117.016 9.0962L116.294 8.24098C116.239 8.1757 116.18 8.11368 116.115 8.05492C116.059 8.0027 115.991 7.93741 115.922 7.86887C115.671 7.62405 115.387 7.34986 115.086 7.1279C114.78 6.87329 114.421 6.61543 113.99 6.34124C113.627 6.10948 113.223 5.89404 112.704 5.64923C110.996 4.86257 109.08 4.47739 107.174 4.54268C107.151 4.54268 107.132 4.54268 107.109 4.54268L107.008 4.5492C106.636 4.57205 106.214 4.59817 105.767 4.67651C105.32 4.732 104.922 4.83319 104.566 4.92458L104.413 4.96375C104.36 4.97681 104.311 4.99313 104.259 5.00945L104.05 5.078C103.737 5.17919 103.381 5.2967 103.012 5.46317C102.803 5.54478 102.611 5.63617 102.435 5.72431C102.435 5.72431 102.431 5.71778 102.428 5.71778C102.124 5.36525 101.811 5.00292 101.459 4.68304L100.711 3.99756C100.45 3.74948 100.205 3.57648 100.026 3.44918C99.9668 3.40674 99.9081 3.36757 99.8493 3.32188C99.3564 2.92038 98.8211 2.60049 98.3511 2.31978C98.2564 2.26102 98.1585 2.20553 98.0638 2.14678C97.77 1.95745 97.4958 1.83341 97.2739 1.73223C97.1988 1.69958 97.1237 1.66694 97.0519 1.62777C97.016 1.61145 96.9834 1.59187 96.9475 1.57881C96.8756 1.54617 96.8038 1.51026 96.7353 1.47762C96.5101 1.36664 96.2326 1.22954 95.8931 1.12183C95.299 0.903126 94.6266 0.658313 93.8987 0.498369C93.3438 0.338424 92.8085 0.260084 92.3352 0.191537C92.1687 0.168687 92.0022 0.142574 91.8358 0.116461C91.7999 0.109932 91.7607 0.103404 91.7248 0.10014C91.4571 0.0707623 91.2058 0.0577057 90.9871 0.0479131C90.8826 0.0413848 90.7782 0.0381206 90.6835 0.0315923C90.3473 0.00547893 89.9066 -0.0173703 89.4333 0.0185356L88.49 0.0674982C88.4247 0.0707623 88.3594 0.0772907 88.2941 0.0870832L87.3704 0.224178C86.9917 0.269877 86.5935 0.348217 86.1594 0.468991C86.0549 0.495105 85.9505 0.521218 85.846 0.547331C85.6241 0.602822 85.4021 0.658313 85.1801 0.720332C85.1279 0.736653 85.0757 0.752974 85.0234 0.772559C84.8537 0.837843 84.6807 0.896598 84.511 0.955353C84.0605 1.11203 83.548 1.2883 83.029 1.55922C82.9474 1.59839 82.8658 1.63756 82.781 1.67347C82.5721 1.76813 82.337 1.87911 82.0857 2.01621C82.0694 2.026 82.0498 2.03579 82.0335 2.04559L81.2403 2.52215C80.8747 2.72453 80.5744 2.94976 80.3296 3.13582L80.2186 3.22069C80.137 3.28271 80.0554 3.34473 79.9705 3.40348C79.791 3.53405 79.5853 3.6842 79.3764 3.86046C79.3536 3.88005 79.3307 3.89963 79.3111 3.91922L78.2862 4.85604C78.234 4.905 78.1817 4.95396 78.136 5.00945L77.1078 6.1715C77.1078 6.1715 77.0882 6.19435 77.0785 6.20414C76.8695 6.45222 76.7129 6.68071 76.5888 6.8635C76.5431 6.92879 76.5007 6.99407 76.4517 7.05935C76.0209 7.61753 75.6879 8.22466 75.3941 8.76325L75.3223 8.89708C75.0775 9.31816 74.9013 9.73597 74.7478 10.1146C73.1288 9.6152 71.4216 9.33448 69.6655 9.28552L68.7777 9.25614C68.7124 9.25614 68.6471 9.25614 68.5818 9.2594L68.1412 9.28878C67.9812 9.30184 67.8213 9.31163 67.6581 9.32142C67.3284 9.34101 66.9856 9.36386 66.6429 9.40303C66.6005 9.40629 66.5613 9.41282 66.5189 9.41935L65.2556 9.64458C64.8868 9.70986 64.5473 9.81105 64.247 9.89592C64.1132 9.93509 63.9761 9.97426 63.8422 10.0069C63.8161 10.0134 63.7933 10.02 63.7672 10.0265C61.8348 10.5944 60.0362 11.4464 58.4205 12.5595C56.8961 13.6073 55.4696 14.9848 54.1574 16.6789C52.9105 18.3305 51.9737 20.0997 51.3698 21.9407C50.779 23.7589 50.4657 25.7761 50.4624 27.7705C50.4624 27.7999 50.4624 27.826 50.4624 27.8554L50.5212 29.2949L50.5407 29.2981ZM55.2509 23.2039C55.7112 21.7938 56.4424 20.4229 57.402 19.1498C58.44 17.8083 59.5629 16.718 60.7413 15.9085C61.9947 15.0468 63.3918 14.3842 64.8998 13.937C65.0663 13.8945 65.2295 13.8456 65.396 13.7999C65.6212 13.7346 65.8366 13.6726 65.9901 13.6432L67.1815 13.431C67.4067 13.4082 67.6646 13.3918 67.9355 13.3723C68.1183 13.3592 68.2978 13.3494 68.4578 13.3364L68.7711 13.3168L69.5643 13.3429C71.1866 13.3886 72.7436 13.6791 74.1929 14.2014L75.2342 14.5767C76.2689 14.9521 77.4114 14.4331 77.8162 13.4114L78.1981 12.442C78.3058 12.207 78.3972 11.9817 78.4853 11.763C78.6126 11.4464 78.7334 11.1494 78.864 10.9274C78.8737 10.9111 78.8835 10.8915 78.8933 10.8752L78.9815 10.712C79.2295 10.2615 79.4613 9.8339 79.6996 9.52707C79.7094 9.51401 79.7224 9.49769 79.7322 9.48463C79.8171 9.37039 79.8954 9.25288 79.9738 9.13863C80.0554 9.01785 80.1207 8.91993 80.1859 8.84485L81.126 7.784L82.04 6.94837C82.1412 6.86677 82.262 6.77537 82.3925 6.68397C82.5002 6.60563 82.6047 6.52729 82.6928 6.46201L82.7973 6.38367C82.9638 6.25963 83.1204 6.13886 83.2314 6.0801C83.2608 6.06378 83.2869 6.04746 83.3163 6.03114L84.1127 5.55131C84.2172 5.49581 84.351 5.4338 84.4947 5.36525C84.6187 5.30976 84.7427 5.251 84.8635 5.19225C84.8831 5.18245 84.9027 5.17266 84.919 5.16287C85.1671 5.02904 85.5 4.91479 85.8493 4.79402C86.0353 4.72873 86.2214 4.66672 86.4042 4.59817C86.5413 4.559 86.6816 4.52636 86.822 4.49371C86.9558 4.46107 87.0864 4.42843 87.2202 4.39252C87.23 4.39252 87.2366 4.38926 87.2463 4.386C87.4912 4.31745 87.6968 4.27501 87.8731 4.25543C87.8992 4.25543 87.9253 4.2489 87.9481 4.24564L88.8099 4.11507L89.6782 4.06937C89.6977 4.06937 89.7141 4.06937 89.7336 4.06611C89.9393 4.04979 90.1808 4.06611 90.3995 4.07916C90.5334 4.08896 90.6672 4.09549 90.8043 4.10201C90.961 4.10854 91.1079 4.11507 91.2352 4.12813C91.4114 4.1575 91.5877 4.18362 91.764 4.20973C92.1557 4.26522 92.5278 4.32071 92.8215 4.40885C92.877 4.42517 92.9358 4.44149 92.9946 4.45454C93.4711 4.55573 93.9836 4.74179 94.5222 4.94091L94.5516 4.9507C94.5907 4.96375 94.6266 4.97681 94.6658 4.98987C94.718 5.00619 94.8584 5.07474 94.9596 5.1237C95.0575 5.17266 95.1554 5.21836 95.2566 5.26406C95.3741 5.32281 95.4949 5.3783 95.6124 5.43053C95.7071 5.47297 95.8376 5.53172 95.8768 5.55783C95.8964 5.57089 95.916 5.58395 95.9388 5.597C96.0531 5.66555 96.1673 5.7341 96.2816 5.80265C96.67 6.0344 97.0389 6.2531 97.2967 6.46854C97.3033 6.47507 97.3131 6.48159 97.3196 6.48812C97.4404 6.58605 97.5611 6.67418 97.6852 6.75905C97.8092 6.84718 97.881 6.89614 97.93 6.94511C97.9398 6.9549 97.9528 6.96796 97.9626 6.97775L98.7362 7.68607C98.9125 7.84602 99.141 8.11042 99.3629 8.36829C99.5392 8.57066 99.7155 8.77631 99.8917 8.96563L100.492 9.60867C101.096 10.255 102.046 10.4378 102.846 10.0591L103.593 9.7066C103.616 9.6968 103.636 9.68701 103.659 9.67395C103.779 9.6152 103.897 9.54992 104.018 9.4879C104.207 9.38671 104.387 9.29205 104.524 9.24308C104.573 9.2235 104.618 9.20391 104.667 9.18433C104.843 9.10272 105.079 9.02438 105.327 8.94604L105.581 8.87097C105.849 8.80242 106.103 8.73714 106.303 8.71429C106.348 8.70776 106.391 8.70123 106.436 8.6947C106.675 8.65227 106.968 8.63268 107.279 8.6131H107.35C108.623 8.57066 109.89 8.82527 111.006 9.34101C111.352 9.50422 111.613 9.64131 111.816 9.77188C112.119 9.96773 112.358 10.1375 112.547 10.2974C112.596 10.3398 112.638 10.3725 112.691 10.4084C112.775 10.4704 112.991 10.6826 113.108 10.7936C113.167 10.8523 113.226 10.9045 113.278 10.9568L113.967 11.7761C113.999 11.812 114.032 11.8512 114.065 11.8838C114.097 11.9262 114.159 12.0339 114.205 12.1156C114.277 12.2396 114.365 12.393 114.473 12.5562L114.698 12.9218C114.721 12.9708 114.74 13.023 114.76 13.0752C114.786 13.1372 114.812 13.1993 114.838 13.2613C114.891 13.4016 114.953 13.542 115.011 13.6791C115.057 13.7835 115.119 13.9272 115.129 13.9631C115.135 14.0055 115.145 14.0447 115.155 14.0871L115.436 15.2296C115.442 15.2524 115.449 15.2785 115.455 15.3014L115.723 16.2415C115.987 17.1652 116.865 17.7789 117.822 17.7103L120.668 17.508C120.831 17.5178 120.995 17.5243 121.158 17.5308C121.442 17.5439 121.713 17.5569 121.961 17.5798C122.173 17.6157 122.375 17.6451 122.558 17.6712C122.829 17.7071 123.087 17.743 123.27 17.7952C123.283 17.7985 123.296 17.8017 123.309 17.805C123.449 17.8442 123.593 17.8801 123.737 17.916C124.06 17.9976 124.366 18.0759 124.598 18.1706C124.628 18.1836 124.66 18.1967 124.69 18.2065L125.356 18.448L125.995 18.7549C125.995 18.7549 126.012 18.7647 126.021 18.7679C126.877 19.1629 127.689 19.7472 128.313 20.2238C128.669 20.5273 129.002 20.8309 129.305 21.1247C129.442 21.2846 129.579 21.4315 129.703 21.5621C129.889 21.7579 130.062 21.944 130.167 22.0974C130.183 22.1235 130.203 22.1464 130.219 22.1725L130.343 22.3357C130.591 22.6621 130.823 22.9722 130.983 23.2594C130.993 23.279 131.003 23.2953 131.016 23.3149C131.071 23.4096 131.13 23.5042 131.189 23.5989C131.251 23.7001 131.313 23.8013 131.371 23.9057L131.701 24.5912C132.034 25.2702 132.302 26.0634 132.566 27.1536C132.641 27.6073 132.713 28.0251 132.772 28.4756L132.834 29.7029L132.827 29.8465C132.827 29.8465 132.827 29.8759 132.827 29.889C132.791 30.989 132.677 31.854 132.471 32.6178C132.471 32.6276 132.468 32.6341 132.465 32.6439L132.292 33.3261L132.05 33.9855C132.041 34.0149 132.028 34.0443 132.021 34.0769C131.936 34.3413 131.789 34.6481 131.633 34.9713C131.58 35.079 131.528 35.1867 131.476 35.2944C131.469 35.3108 131.463 35.3271 131.453 35.3401C131.375 35.5197 131.234 35.7416 131.087 35.9734C130.986 36.1333 130.885 36.2965 130.79 36.4597C130.477 36.9004 130.226 37.2333 129.984 37.5337C129.465 38.1179 128.773 38.8524 127.996 39.4105C127.902 39.4791 127.81 39.5476 127.716 39.6195C127.627 39.688 127.536 39.7566 127.445 39.8186L126.795 40.2103C126.766 40.2299 126.736 40.2462 126.707 40.2658C126.531 40.3833 126.276 40.504 126.005 40.6313C125.842 40.7064 125.682 40.7848 125.522 40.8664C125.316 40.9643 125.062 41.0524 124.794 41.1471C124.628 41.2058 124.458 41.2646 124.291 41.3299C124.161 41.3625 124.027 41.3984 123.896 41.4343C123.58 41.5192 123.276 41.6008 123.005 41.653L122.277 41.764C122.258 41.764 122.238 41.7705 122.222 41.7738C122.052 41.8064 121.905 41.826 121.749 41.8293C121.726 41.8293 121.7 41.8293 121.677 41.8293L120.809 41.8717L112.332 41.8848C111.431 41.8848 110.637 42.4789 110.383 43.3439L109.818 45.2697C109.769 45.4199 109.73 45.57 109.688 45.7202C109.645 45.8769 109.599 46.0401 109.563 46.1184C109.55 46.1511 109.534 46.1804 109.521 46.2131L109.087 47.2935C109.087 47.2935 109.077 47.3229 109.071 47.336C108.95 47.6624 108.836 47.917 108.712 48.1389C108.702 48.1585 108.692 48.1781 108.682 48.1977L108.153 49.2455C108.144 49.2651 108.134 49.2847 108.124 49.3043C108.016 49.536 107.853 49.8004 107.683 50.0811L107.04 51.142C107.03 51.1616 107.017 51.1779 107.008 51.1975C106.91 51.3737 106.766 51.5761 106.613 51.7883L106.463 52.0005C106.322 52.193 106.188 52.3889 106.051 52.5847C105.878 52.8328 105.712 53.0744 105.539 53.3061L105.376 52.304C105.327 51.9678 105.248 51.6675 105.18 51.4064C105.154 51.3019 105.124 51.2007 105.101 51.0963C105.101 51.0832 105.095 51.0669 105.092 51.0538L104.824 49.9734C104.742 49.6535 104.641 49.3663 104.553 49.1149C104.517 49.0105 104.478 48.9028 104.445 48.7983C104.442 48.7852 104.439 48.7755 104.432 48.7624L104.07 47.7146C104.057 47.6754 104.041 47.6363 104.027 47.5971C103.822 47.1009 103.603 46.6211 103.391 46.1543C103.296 45.9422 103.198 45.7332 103.104 45.5211C103.078 45.4623 103.048 45.4036 103.016 45.3448L101.628 42.9065C101.266 42.2732 100.594 41.8815 99.8624 41.8815H99.2063C98.1715 41.8913 97.1368 41.9011 96.102 41.9142C93.3471 41.9435 90.4975 41.9729 87.6935 41.9631L70.4032 41.9697C70.4032 41.9697 70.3738 41.9697 70.3575 41.9697C68.3435 42.0154 66.8616 41.8815 65.3895 41.5159C63.8749 41.1569 62.4354 40.5302 61.1003 39.6456C59.7751 38.7806 58.6 37.7099 57.6044 36.4663C56.6839 35.3238 55.9332 33.9463 55.375 32.3763C55.375 32.3665 55.3685 32.3599 55.3652 32.3502C55.2444 32.0237 55.1204 31.681 55.0551 31.3611C55.0159 31.1718 54.967 30.9825 54.9147 30.7899C54.8658 30.6071 54.8103 30.3982 54.8005 30.2905C54.8005 30.2578 54.794 30.2252 54.7874 30.1925L54.6177 29.0272L54.5655 27.7379C54.572 26.2004 54.8233 24.5912 55.2738 23.2072L55.2509 23.2039Z" fill="#fdd803"/>
    <path d="M78.6714 30.222C80.7768 30.222 82.484 28.5149 82.484 26.4095C82.484 24.3041 80.7768 22.5969 78.6714 22.5969C76.566 22.5969 74.8589 24.3041 74.8589 26.4095C74.8589 28.5149 76.566 30.222 78.6714 30.222Z" fill="#fdd803"/>
    <path d="M93.9964 30.2116C96.0948 30.038 97.6552 28.1961 97.4815 26.0977C97.3079 23.9992 95.466 22.4389 93.3676 22.6125C91.2691 22.7861 89.7088 24.628 89.8824 26.7264C90.056 28.8249 91.8979 30.3853 93.9964 30.2116Z" fill="#fdd803"/>
    <path d="M108.695 30.222C110.801 30.222 112.508 28.5149 112.508 26.4095C112.508 24.3041 110.801 22.5969 108.695 22.5969C106.59 22.5969 104.883 24.3041 104.883 26.4095C104.883 28.5149 106.59 30.222 108.695 30.222Z" fill="#fdd803"/>
  </g>
</svg>