<svg width="113" height="56" viewBox="0 0 113 56" fill="none" xmlns="http://www.w3.org/2000/svg">
<g clip-path="url(#clip0_2586_5)">
<path d="M84.3601 0H57.577V27.1347H84.3601V0Z" fill="#1B5EAC"/>
<path d="M64.349 4.45032V15.1126C64.349 20.7682 67.1249 22.8697 70.7855 22.8697C74.6596 22.8697 77.5575 20.6137 77.5575 15.0508V4.45032H75.2087V15.2053C75.2087 19.192 73.4699 20.9536 70.8465 20.9536C68.4671 20.9536 66.6674 19.2229 66.6674 15.2053V4.45032H64.349Z" fill="white"/>
<path d="M112.79 0H86.0073V27.1347H112.79V0Z" fill="#1B5EAC"/>
<path d="M94.8536 22.6225V14.8653C94.8536 11.8675 94.8231 9.67325 94.7011 7.38628L94.7926 7.35537C95.6773 9.30239 96.8669 11.373 98.1176 13.4128L103.791 22.6225H106.14V4.51211H103.975V12.1148C103.975 14.9271 104.036 17.1214 104.249 19.532L104.127 19.5629C103.303 17.6777 102.236 15.7925 100.955 13.66L95.2502 4.4812H92.6878V22.5916H94.8536V22.6225Z" fill="white"/>
<path d="M112.79 28.8036H86.0073V55.9382H112.79V28.8036Z" fill="#1B5EAC"/>
<path d="M103.181 38.6623C103.181 36.2517 101.504 35.0773 98.9718 35.0773C97.9651 35.0773 97.2025 35.17 96.806 35.2627V42.3091C97.294 42.4327 97.9651 42.4945 98.7277 42.4945C101.504 42.5254 103.181 41.1038 103.181 38.6623ZM105.5 38.415C105.5 40.053 105.012 41.351 104.097 42.2782C102.876 43.5762 100.894 44.2561 98.6362 44.2561C97.9346 44.2561 97.294 44.2252 96.7754 44.1016V51.3951H94.4571V33.5011C95.5858 33.2848 97.0195 33.1302 98.8803 33.1302C101.168 33.1302 102.846 33.6556 103.883 34.6446C104.92 35.479 105.5 36.808 105.5 38.415Z" fill="white"/>
<path d="M84.3295 28.8345H57.5464V55.9691H84.3295V28.8345Z" fill="#1B5EAC"/>
<path d="M76.4899 41.9382C76.5204 37.6115 74.1105 34.9537 69.2298 34.9537C68.0401 34.9537 67.1249 35.0464 66.5148 35.2009V49.5409C67.0944 49.6336 67.9486 49.6336 68.8637 49.6336C73.8055 49.6645 76.4899 46.8521 76.4899 41.9382ZM78.9302 41.8764C78.9302 44.8433 78.0151 47.2539 76.3678 48.9228C74.6596 50.6225 71.9142 51.5188 68.4366 51.5188C66.7589 51.5188 65.4167 51.457 64.227 51.3025V33.4702C65.6607 33.2539 67.3385 33.0994 69.1687 33.0994C72.4938 33.0994 74.8426 33.8411 76.4289 35.3245C77.9846 36.808 78.9302 38.9404 78.9302 41.8764Z" fill="white"/>
<path d="M56.1128 0H0.838318V56H56.1128V0Z" fill="#1B5EAC"/>
<path d="M42.5382 39.8985C41.2875 40.2384 39.9148 40.3621 38.6946 40.7947C40.7689 38.9713 40.6774 36.1899 42.0501 34.0265C42.5077 33.4084 42.8737 32.7903 43.3618 32.2031C42.5077 33.9338 42.8737 36.159 41.8976 37.8279C41.5315 38.4769 40.9824 39.1259 40.4028 39.6513C40.5859 39.6513 40.7689 39.4658 40.9214 39.3731C42.5077 37.766 44.582 37.3334 46.2902 36.0354C46.9613 35.4791 47.6019 34.7682 47.907 33.9647C47.6019 36.6226 44.9785 39.095 42.5382 39.8985Z" fill="white"/>
<path d="M48.2426 29.1744C47.48 30.287 46.5343 31.3378 45.8327 32.4504C45.9242 31.5541 46.0157 30.4415 45.6802 29.6071C45.0701 27.7837 44.5515 25.9294 44.399 23.9206L44.4295 23.1479C44.8871 25.1877 46.8699 26.6093 46.7478 28.8963C46.7783 29.4526 46.6258 29.9162 46.5343 30.4106L46.5648 30.4415L46.6563 30.3488C46.9614 29.2362 47.0834 28.0309 47.541 26.9802C48.1816 25.4658 49.0052 23.9206 48.6696 22.0972C49.6153 24.2605 49.3102 27.1347 48.2426 29.1744Z" fill="white"/>
<path d="M47.0224 17.5541C48.3341 19.3466 48.6086 22.1898 47.663 24.2605C47.2969 25.1258 47.0529 26.053 46.9308 27.011C46.8698 26.8565 46.8393 26.6093 46.7783 26.4238C46.2597 24.415 44.3684 22.9934 43.6058 21.0773C43.3618 20.4592 43.1483 19.8102 43.0262 19.1302C43.8499 20.6755 45.8937 21.479 46.4428 23.1788C46.6563 23.6115 46.6563 24.1369 46.8088 24.6004C46.8393 24.6004 46.8698 24.5695 46.8698 24.5386C46.6258 22.777 46.6868 20.9536 46.9308 19.223C46.9308 18.2958 46.8393 17.3687 46.3207 16.6578C46.6258 16.8742 46.7783 17.245 47.0224 17.5541Z" fill="white"/>
<path d="M46.0767 17.1832C46.4123 18.7594 45.9242 20.2738 46.2292 21.8499C45.3751 20.181 43.6058 19.3775 42.3552 18.0486C41.6535 17.2451 41.318 16.287 41.1655 15.2362C41.8671 16.9669 43.7584 17.3378 44.8565 18.7903C45.2226 19.1303 45.3446 19.5938 45.5886 19.9647L45.6192 19.9338C44.9786 18.574 44.765 17.0596 44.338 15.6071C44.1244 14.989 43.6669 14.3709 43.0873 13.9691C44.5515 14.3091 45.8022 15.8234 46.0767 17.1832Z" fill="white"/>
<path d="M42.2636 13.5983C43.3313 14.5872 43.8194 15.8543 44.1549 17.1523L44.3379 17.585C42.7822 16.4415 41.3485 14.8963 40.3418 13.2892L39.1216 12.0221C40.1893 12.4857 41.3485 12.7638 42.2636 13.5983Z" fill="white"/>
<path d="M17.4939 12.2384C16.3957 13.1965 15.6636 14.4327 14.8705 15.5452C14.1384 16.4415 13.2232 17.0596 12.3996 17.8322C12.8267 16.9051 12.8572 15.7925 13.4673 14.9581C14.3824 13.3819 16.0297 12.8256 17.4939 12.2384Z" fill="white"/>
<path d="M11.576 15.5761C12.0945 14.9271 12.7656 14.4635 13.5283 14.2472C12.064 15.2671 12.1556 17.0905 11.698 18.6048C11.5455 19.1611 11.3014 19.6865 11.1794 20.2428L11.2099 20.2737C11.4539 19.6247 11.881 19.0066 12.3996 18.4812C13.4367 17.5231 14.962 16.905 15.4806 15.4834C15.4501 17.4613 13.8028 19.0375 12.2471 20.1501C11.6065 20.7373 10.9659 21.3863 10.6303 22.128C10.5998 21.6335 10.6913 21.1081 10.6608 20.5827C10.5083 18.852 10.3558 16.8741 11.576 15.5761Z" fill="white"/>
<path d="M8.61698 21.5408C8.58648 19.7793 9.28809 18.3267 10.3252 17.0287C10.3557 17.0287 10.3863 16.9978 10.4168 16.9978C9.28808 18.7285 10.2337 20.8918 10.1727 22.8698L10.0202 24.8786C10.0507 24.8786 10.0507 24.9404 10.0812 24.9404C10.1422 24.7241 10.1727 24.4768 10.2032 24.2605C10.4778 22.6534 11.8505 21.479 13.0707 20.3665C13.3147 20.0883 13.5587 19.7793 13.6808 19.4393C13.5892 20.2428 13.3452 21.0464 13.0097 21.819C12.064 23.6733 10.3252 25.2186 9.98969 27.351C9.86767 25.2495 8.49496 23.7042 8.61698 21.5408Z" fill="white"/>
<path d="M7.79337 24.0441C7.91539 23.4878 8.0069 22.9315 8.25094 22.4061C7.79337 24.724 9.34911 26.4238 9.86769 28.4326C10.0812 29.1743 10.1422 30.0088 10.4473 30.7196C10.4778 30.7196 10.5083 30.7196 10.5083 30.6887C9.74567 28.5253 10.8438 26.5474 11.942 24.8785C12.2165 24.415 12.3691 23.9205 12.4911 23.3951C12.6131 24.3531 12.3691 25.4966 12.2165 26.4856C11.942 27.7836 11.5454 28.9889 11.2099 30.2251C10.9964 30.9977 11.0269 31.894 11.1489 32.6975L11.0269 32.6048C10.2337 31.0905 8.617 29.947 8.15943 28.2781C7.76287 26.9801 7.51883 25.4657 7.79337 24.0441Z" fill="white"/>
<path d="M7.70184 28.5872C7.88487 31.0596 10.5083 32.3576 11.7285 34.3973C12.003 34.83 12.2775 35.2627 12.6436 35.6335C12.5826 35.3863 12.3386 35.139 12.247 34.8918C11.82 34.0265 11.6675 33.0066 11.759 31.9867C11.881 30.7196 12.3996 29.5452 12.186 28.2163C13.2537 30.5651 12.9181 33.4702 13.5282 36.0044C13.6808 36.5607 13.9858 37.0552 14.1993 37.5805C12.003 36.0662 9.01355 34.6137 8.0374 31.8631C7.67134 30.8741 7.61033 29.6998 7.70184 28.5872Z" fill="white"/>
<path d="M9.01355 34.2737C10.2337 37.0861 13.3147 37.3024 15.3585 39.0331C15.7246 39.3731 16.1211 39.6512 16.5482 39.8675L16.5787 39.8366C16.1211 39.404 15.5721 38.9095 15.2365 38.3532C14.0468 36.6534 14.4434 34.2737 13.5587 32.4503C14.3824 33.4393 15.1145 34.4591 15.6026 35.6026C16.3347 37.426 16.6092 39.5276 18.3175 40.8874C16.4872 40.2693 14.3214 40.4547 12.7046 39.3112C10.9353 38.1987 9.3491 36.3135 9.01355 34.2737Z" fill="white"/>
<path d="M12.1555 39.4967C14.1078 41.7527 17.3108 41.011 19.9342 41.5982C20.3003 41.66 20.6358 41.8145 21.0324 41.7527C20.7273 41.5364 20.3003 41.5673 19.9647 41.3819C17.9209 40.6401 17.6159 38.415 16.4872 36.9006C17.9209 37.8587 19.1106 39.1567 20.4223 40.3929C21.3679 41.2273 22.4966 41.6291 23.6863 41.8764C23.4117 41.9691 23.0152 41.9382 22.7101 42.0309C20.5748 42.5563 18.1649 43.4525 15.9076 42.649C14.4434 42.1545 12.9181 40.9801 12.1555 39.4967Z" fill="white"/>
<path d="M38.7861 44.7815C36.5898 45.6159 34.2715 44.7506 32.5327 43.4217C31.8311 42.9581 31.221 42.3091 30.3058 42.3709C29.9703 42.3709 29.6652 42.3709 29.3907 42.4636C31.0685 43.2671 32.6242 44.3488 34.0579 45.7396C33.8139 46.0177 33.5088 46.2649 33.2038 46.5122C31.8311 44.9978 30.3058 43.5762 28.5976 42.7418C28.262 42.7727 27.957 42.989 27.6519 43.1435C26.2792 44.0398 24.9065 45.1833 23.8694 46.574L22.9847 45.8323C24.3879 44.3797 25.9742 43.2671 27.6824 42.4636C26.0047 41.9382 24.9065 43.3599 23.6253 44.0707C22.1306 45.1215 19.9953 45.6159 18.1955 44.9051C17.2193 44.5343 16.3042 43.978 15.6026 43.1126C17.0058 44.1016 19.1106 44.1943 20.7274 43.5453C22.8932 42.5872 25.1201 41.3819 27.7129 41.9691C28.1095 41.9691 28.5061 42.4018 28.9026 42.0309C30.8244 41.5365 33.0208 41.8764 34.6985 42.7727L36.4068 43.4526C37.993 44.0398 40.0673 43.8853 41.4095 42.8963C40.7384 43.7616 39.7928 44.4106 38.7861 44.7815Z" fill="white"/>
<path d="M41.1655 42.4636C38.6946 43.4216 36.1932 42.2472 33.8138 41.8455L33.3563 41.7836C34.4849 41.5364 35.5831 41.1655 36.4982 40.362C37.8404 39.064 39.0301 37.7351 40.4944 36.7152C39.3962 38.1368 39.2742 40.1766 37.4744 41.1037C37.0168 41.4128 36.4677 41.4437 35.9797 41.6909C36.6508 41.6909 37.2609 41.4746 37.9015 41.4128C40.3418 41.011 43.1178 41.4128 44.826 39.3112C44.1854 40.702 42.5992 41.9382 41.1655 42.4636Z" fill="white"/>
<path d="M45.6802 35.3864C44.704 36.0354 43.6974 36.6535 42.7517 37.3643V37.2716C44.1854 34.8301 43.4838 31.4923 44.3685 28.8345L44.704 27.9382C44.521 29.6071 45.2226 31.0287 45.1921 32.6976C45.1311 33.7175 44.826 34.6137 44.3074 35.4173H44.399C45.1006 34.4901 45.6497 33.4702 46.4733 32.574C47.7545 31.3069 49.0662 30.0398 49.2187 28.3091C49.6458 31.1833 48.0595 33.7484 45.6802 35.3864Z" fill="white"/>
<path d="M42.4772 26.3312C42.3246 29.8234 41.0434 32.8521 38.7861 35.4482L38.7251 35.5718C38.2675 35.0464 37.6574 34.3974 37.0778 33.9338C37.4134 33.7175 37.6879 33.2848 37.932 32.9758C39.3352 31.0287 40.1588 28.8345 40.2808 26.3621L40.2198 26.1457L40.3418 26.2384H42.4467L42.5687 26.1766L42.4772 26.3312ZM28.9636 39.9912L28.8111 40.0839C28.8721 39.3113 28.8721 38.5078 28.8111 37.7351C29.1771 37.8588 29.5737 37.7351 29.9702 37.7351L31.0989 37.5188C31.648 37.6424 32.0446 38.5387 32.6852 37.9824C32.8987 37.7351 33.2648 37.7351 33.4173 37.3952C33.7833 37.2716 33.8748 36.9007 34.1189 36.6535C34.3629 35.9426 35.156 35.8499 35.6136 35.3554C35.9492 35.0464 36.4067 34.7682 36.6203 34.3665L36.6508 34.5519L38.2065 36.0663C35.5831 38.4769 32.5021 39.8367 28.9636 39.9912ZM28.9331 35.2318C29.2076 35.3554 29.6652 35.1082 29.8177 35.4173C29.7262 35.6027 29.6042 35.7572 29.6652 35.9426C29.7872 36.2208 29.9397 36.5916 30.2753 36.6226C30.3668 36.7462 30.4888 36.7771 30.6108 36.808C30.0313 36.9007 29.3907 36.8698 28.8416 37.0552C28.9026 36.4371 28.8416 35.819 28.8416 35.2009L28.7196 35.0464C28.8111 35.0773 28.8721 35.17 28.9331 35.2318ZM28.384 31.4305C28.2315 31.4614 28.079 31.4305 27.9569 31.3687C27.8959 31.3687 27.9264 31.276 27.8959 31.2451C28.1095 31.2451 28.201 30.9978 28.445 31.0287C28.567 30.9051 28.5975 30.7197 28.7806 30.627C28.7196 30.4415 28.9636 30.5652 28.9941 30.4415C29.0551 30.3797 29.1466 30.3179 29.2381 30.3797C29.3907 30.5961 29.6957 30.5033 29.8482 30.7506C29.9092 30.7815 29.9397 30.6888 29.9397 30.6579V30.5652C30.1838 30.5343 30.3058 30.8742 30.5498 30.6579C30.6108 30.5961 30.5803 30.5033 30.5498 30.4415C30.5193 30.4415 30.4888 30.4106 30.4888 30.3797C30.6719 30.287 30.7634 30.627 30.9769 30.5343C31.1599 30.3797 31.2514 30.2252 31.4955 30.2252L31.5565 30.287C31.587 30.7197 31.2209 30.9978 30.8854 31.2142C30.6719 31.3069 30.2753 31.276 30.3058 31.6159C30.0618 31.8323 29.8482 31.4923 29.5432 31.585C29.3907 31.5232 29.5432 31.3069 29.3296 31.276C28.9941 31.3687 28.628 31.0905 28.384 31.4305ZM26.6147 39.8985C23.6558 39.4967 21.0629 38.1987 18.775 36.1899L20.3003 34.6446L20.3308 34.5519C22.4356 36.5916 24.9675 37.6424 27.8349 37.8279L28.0485 37.766L27.9874 37.8897V39.8985L28.1095 40.0839C27.6214 39.9294 27.0723 39.9912 26.6147 39.8985ZM16.2432 32.8212C15.1755 30.8124 14.5654 28.649 14.4434 26.2694H16.4872L16.7007 26.2075C16.6702 26.3312 16.6702 26.4548 16.6702 26.6402V26.6093C16.6092 26.6402 16.7007 26.6711 16.7007 26.7329C16.7312 27.5365 16.8838 28.2782 17.0668 28.989L17.1583 29.1435C17.0058 28.989 16.9448 28.8345 16.8227 28.6799C16.6397 28.7109 16.4567 28.7418 16.3347 28.8654C16.4262 29.0817 16.2126 29.0199 16.1211 29.0817C16.0906 29.0199 16.0296 28.9581 15.9686 28.9272C15.8161 28.9272 15.6636 28.9581 15.572 29.1126C15.6026 29.2362 15.4805 29.2671 15.4195 29.3599C15.389 29.6998 15.267 30.1325 15.511 30.4106C15.511 30.6579 15.6331 30.8742 15.8161 31.0287C15.8771 31.0287 15.9381 30.9978 15.9686 30.9669C16.1821 31.1214 16.2737 31.4923 16.5787 31.3996C16.6702 31.3687 16.6397 31.276 16.6702 31.1833C16.8227 31.3378 16.8837 31.6468 17.1888 31.6159C17.2498 31.6777 17.3108 31.8323 17.4328 31.8323C17.7379 31.7395 17.6464 32.2031 17.8599 32.3267C18.0429 32.4504 18.1344 32.6976 18.3785 32.574L18.47 32.4504C18.5615 32.5122 18.47 32.6667 18.5615 32.7285C18.6835 32.9758 18.9276 33.1303 19.1716 33.1921C19.3851 33.4393 19.5987 33.7175 19.8427 33.9029L19.6597 33.9647L18.1955 35.51C17.5243 34.7064 16.7617 33.8102 16.2432 32.8212ZM14.5349 24.106C14.9009 21.0155 16.2126 18.3267 18.3175 15.9471L18.3785 16.1634C18.8666 16.6579 19.3851 17.1833 19.8732 17.6468C19.4461 17.925 19.2326 18.4195 18.8971 18.7903C17.5854 20.6755 16.8227 22.808 16.7007 25.1877L16.7617 25.4658C16.0296 25.404 15.2365 25.404 14.4739 25.4658C14.5044 25.0022 14.4434 24.5387 14.5349 24.106ZM20.0257 14.4327C22.3746 12.7329 24.998 11.7131 27.9569 11.5894L27.8654 11.7749L27.8959 13.5674L27.9569 13.7528C25.0895 13.8764 22.5881 14.989 20.4223 16.9669L20.3918 17.0596C19.9037 16.5343 19.3546 15.9162 18.775 15.4835H18.714C19.1716 15.2053 19.5682 14.7418 20.0257 14.4327ZM27.9874 19.7175C27.5909 19.6248 27.2553 19.8102 26.8893 19.8411C26.0657 20.0574 25.3335 20.521 24.6319 21.0155C24.6014 21.0773 24.5709 21.1391 24.5099 21.17C23.9913 20.7064 23.5033 20.0883 22.9542 19.6866C24.3879 18.5122 26.0046 17.7086 27.8654 17.585L27.9874 17.5232C27.8959 18.234 27.8959 19.0067 27.9874 19.7175ZM27.4079 22.1281C27.3774 22.0354 27.4994 21.9117 27.3774 21.8499C27.0418 22.0045 27.1638 22.3753 26.9503 22.6226C26.9198 22.808 26.6757 22.7153 26.5537 22.8389C26.4622 22.6844 26.2792 22.7153 26.1572 22.7771C25.9741 22.7771 25.9436 22.4062 25.7606 22.5916C25.6996 22.6535 25.7301 22.7771 25.6081 22.7462C25.5776 22.6844 25.5166 22.6844 25.4861 22.6535C25.4861 22.5298 25.6691 22.5607 25.6081 22.4371C25.4861 22.1899 25.181 22.2208 24.998 22.0663H24.815C25.6691 21.1391 26.7673 20.7373 27.9569 20.5519C27.9569 21.0773 27.8959 21.6954 28.079 22.1899C27.8959 21.9426 27.6214 22.2208 27.4079 22.1281ZM25.364 28.1855C25.4861 28.0618 25.6081 27.8764 25.6691 27.691L25.9131 27.8146C25.6691 27.8455 25.5471 28.0928 25.364 28.1855ZM27.7129 30.4415C27.6214 30.627 27.6824 30.8742 27.6519 31.0596C26.6757 30.8742 25.7911 30.4724 24.998 29.8234C25.4556 29.329 26.0351 28.8654 26.3707 28.34C26.4012 28.5872 26.7062 28.6799 26.8893 28.8036C27.2858 28.989 27.7434 29.2671 28.201 29.0817C28.1705 29.1126 28.14 29.1435 28.1095 29.1744C28.2315 29.298 28.0179 29.4217 28.1705 29.5453C28.201 29.638 28.079 29.638 28.079 29.6998C28.14 29.8234 28.0485 30.0707 28.262 30.1325C28.323 30.1943 28.262 30.3179 28.1705 30.3179C27.9874 30.287 27.8044 30.287 27.7129 30.4415ZM23.1677 22.4062C22.9542 22.5298 22.8017 22.7462 22.6796 22.9316C22.4966 23.0552 22.2831 23.0243 22.1306 23.2407C22.1306 23.3334 22.2221 23.4261 22.1306 23.4879C21.9475 23.6424 21.612 23.457 21.5205 23.766C21.49 24.0442 21.1544 24.1987 21.1849 24.5078C21.0019 24.6314 21.0324 24.8477 21.0629 25.0331C21.1544 25.1568 21.0324 25.3731 21.1849 25.4658C20.9104 25.4349 20.5138 25.3731 20.2698 25.4967C20.4223 25.1568 20.3613 24.755 20.4528 24.3841C20.7273 22.8389 21.4289 21.4791 22.4356 20.2429C22.9542 20.7373 23.5033 21.3554 24.0523 21.7881C23.6253 21.7881 23.6253 22.4062 23.1677 22.4062ZM22.1611 31.2142L22.1 30.7506C21.673 30.3797 21.8255 29.6998 21.734 29.2362C21.4289 28.989 21.673 28.6181 21.4594 28.34C21.4594 27.9073 20.7883 27.7528 21.0019 27.2892C20.9104 27.1656 20.8189 27.0111 20.9104 26.8565C21.0324 26.702 21.3374 26.8565 21.4289 26.6402L21.49 26.2384C21.6425 26.1457 21.856 26.3621 21.9475 26.1457C22.1 25.7749 21.3984 25.3113 22.0085 25.1259C22.2221 25.095 22.4661 25.0641 22.5576 25.3113C22.5881 25.5894 22.6796 25.8985 22.5576 26.1766C22.7406 26.2384 22.5881 26.4239 22.5881 26.5475C22.4661 26.6093 22.3746 26.7329 22.2221 26.6711C22.1611 26.5784 22.0695 26.393 21.917 26.4239C21.795 26.5784 21.9475 26.7329 21.9475 26.9184C21.917 27.0111 21.9475 27.1347 21.8865 27.2274C21.8255 27.1965 21.795 27.1656 21.7035 27.1656C21.5815 27.2274 21.673 27.3819 21.7035 27.4437C21.8255 27.5365 21.917 27.6601 22.1 27.6601L22.1611 27.5674C22.1306 27.3201 22.2526 27.1347 22.2526 26.9184L22.4661 27.042C22.6491 27.9691 23.0762 28.8036 23.5948 29.6071L23.8693 29.8852C23.1982 30.4724 22.5576 31.1833 21.978 31.8323C21.978 31.8014 21.9475 31.6777 21.856 31.7395C21.795 31.4614 22.2526 31.5541 22.1611 31.2142ZM26.8588 33.872L27.2248 34.0265C25.9436 33.7175 24.5709 33.2539 23.4728 32.3267C23.2897 32.2031 23.1677 31.9559 22.9237 31.9559C23.4423 31.5232 23.9608 30.9669 24.3879 30.4415C24.5709 30.8124 24.998 30.9978 25.303 31.2451C25.8521 31.4923 26.4317 31.9868 27.1028 31.8632C26.8893 31.925 26.7062 32.0486 26.5537 32.234C26.4622 32.4504 26.4927 32.7285 26.2182 32.8212C26.2182 33.1921 26.5842 33.563 26.8588 33.872ZM24.6624 28.0309C24.6624 28.0928 24.754 28.1855 24.8455 28.1237C24.937 28 24.6624 27.8146 24.8455 27.7528C24.9675 27.8764 24.9065 28.1237 24.9675 28.2782C25.0285 28.3709 25.059 28.4636 25.0285 28.5563C24.815 28.8036 24.5404 29.0199 24.4184 29.2981C24.2964 28.9581 23.9913 28.6799 23.8693 28.34C23.6558 27.9382 23.5338 27.5056 23.3507 27.1347C23.5338 27.351 23.9913 27.1038 23.9913 27.5365C24.0218 27.5674 24.0523 27.5365 24.1134 27.5365C24.154 27.4953 24.2049 27.485 24.2659 27.5056C24.2964 27.5674 24.4794 27.6292 24.3269 27.691C24.3574 27.8455 24.5099 28 24.6624 28.0309ZM27.9569 16.7815C27.5604 16.6888 27.1943 16.8433 26.7978 16.8742C25.1505 17.2142 23.6253 17.925 22.3746 19.1303L22.3136 18.9758C21.8255 18.5122 21.3679 17.925 20.8189 17.585C21.2764 17.3069 21.7035 16.8742 22.1611 16.5652C23.8693 15.3908 25.7911 14.7418 27.9264 14.6181C27.8654 15.329 27.9264 16.0707 27.9569 16.7815ZM19.5987 25.4658L19.4156 25.404L17.4023 25.4349C17.5854 23.1479 18.1955 21.0464 19.5072 19.2539L20.3003 18.234V18.0795C20.7578 18.6358 21.3069 19.1612 21.856 19.6557C20.3918 21.2318 19.6597 23.1479 19.5072 25.2495C19.5377 25.3422 19.5377 25.4349 19.5987 25.4658ZM18.1039 28.9272C17.8904 28.9581 17.9514 29.1744 17.8904 29.2981C17.9209 28.7727 17.6769 28.2782 17.6159 27.7528L17.4633 26.393L17.3718 26.2694C18.0124 26.3621 18.7445 26.3003 19.4156 26.3312L19.5682 26.2694C19.5072 26.6093 19.5072 27.0729 19.7207 27.351C19.6292 27.2583 19.5071 27.0111 19.3241 27.0111C18.9581 27.042 18.9276 27.5365 18.531 27.5365C18.226 27.7837 18.1649 28.1546 18.1039 28.5254C18.2565 28.6181 18.0124 28.7727 18.1039 28.9272ZM20.3308 26.3621L20.2393 26.1766C20.4528 26.3312 20.6968 26.3003 20.9409 26.2384C20.5748 26.3621 20.7273 26.7947 20.5748 27.0729C20.5443 27.1965 20.7578 27.2583 20.7273 27.3819C20.5443 27.4746 20.5138 27.6601 20.4528 27.8146C20.5443 27.3201 20.3613 26.8565 20.3308 26.3621ZM28.0485 37.117L27.8349 36.9625C25.0895 36.808 22.7406 35.6645 20.6968 33.872C21.0324 33.8411 21.1544 34.2738 21.5205 34.1811C21.917 34.1501 22.2221 33.8102 22.6491 33.872C22.8627 33.872 23.1067 33.872 23.2287 33.6557C23.2897 33.4393 23.0457 33.3157 23.0152 33.1303C24.4184 34.181 25.9741 34.861 27.7739 34.9228L27.9569 34.861V36.8389L28.0485 37.117ZM28.384 23.2716L28.506 23.3334C28.3535 23.3334 28.1705 23.2407 28.0485 23.3643C27.9569 23.4261 28.0179 23.5497 28.0485 23.6424C28.323 23.7351 28.384 24.1987 28.7196 24.0133C28.8721 24.0442 29.0551 24.0751 29.1161 24.2296C29.3296 24.3223 29.3602 24.6932 29.6347 24.6005C29.6347 24.755 29.5737 25.0022 29.7567 25.095C29.7262 25.2186 29.5432 25.2804 29.5432 25.4349C29.5127 25.4658 29.4822 25.5585 29.5127 25.6203C29.7872 25.6513 29.7567 25.9603 29.9092 26.1457C29.8482 26.3621 29.9092 26.5784 30.1228 26.702C30.0923 26.9493 29.9702 27.1656 29.8787 27.3819C29.6042 27.5365 29.1161 27.1656 29.0246 27.691C28.8721 27.8764 28.9941 28.2782 28.6891 28.2782C28.079 28.3091 27.5299 28.1855 27.0723 27.8455C27.3774 27.691 27.8959 27.9073 27.9874 27.4437C28.079 27.3819 28.1095 27.2583 28.0485 27.1656C28.201 27.0111 28.2315 26.8256 28.323 26.6711C28.201 26.5475 28.262 26.4857 28.2925 26.3621C27.9874 26.053 27.5909 26.2075 27.1943 26.2075C26.9503 26.3312 27.1943 26.6093 27.0418 26.7638C26.7368 26.7947 26.7368 27.1038 26.5232 27.2583C26.4012 27.1965 26.3097 27.042 26.3097 26.9184H26.3402C26.3097 26.9802 26.3707 27.042 26.4012 27.042C26.6757 27.0729 26.5842 26.7638 26.6757 26.6093C26.7062 26.4239 27.1333 26.1766 26.7978 26.053C26.7673 25.9912 26.8283 25.8676 26.7368 25.8367C26.6452 25.8676 26.4622 25.8676 26.4622 26.053C26.5232 26.1766 26.4622 26.3312 26.3402 26.4239H26.2792C26.3097 26.3312 26.2487 26.2694 26.1877 26.2384C26.0046 26.2384 25.8826 26.3621 25.6996 26.3312C25.4556 26.393 25.2115 26.4239 24.9675 26.4239C24.937 26.2694 25.1505 26.3312 25.2115 26.2075C25.181 25.9912 25.3335 25.8367 25.4251 25.6822C25.4861 25.6203 25.6081 25.6513 25.6691 25.6822C25.7301 25.744 25.7911 25.8058 25.8826 25.7749L25.9436 25.6513C26.1572 25.7749 26.0351 26.4239 26.4622 26.1457C26.5232 25.8676 26.4622 25.5276 26.5842 25.2804C26.4927 25.0332 26.7368 24.9404 26.7978 24.7859C27.0113 24.8168 27.0113 24.5387 27.1028 24.415C27.4384 24.3223 27.8044 24.2296 28.0485 23.8588C27.9569 23.6733 28.0179 23.3952 27.8654 23.2407C28.0179 23.2097 28.262 23.1479 28.384 23.2716ZM29.6347 14.6799C30.9159 14.8345 32.0751 15.2053 33.2037 15.7307C33.3868 15.978 33.6918 16.1325 33.7528 16.4415C33.5698 16.9051 34.3629 16.8742 33.9969 17.3378C33.9664 17.4923 34.0884 17.5541 34.1494 17.6777C34.1799 17.8014 34.1189 17.9868 34.2714 18.0795C34.5459 18.1413 34.6375 17.7705 34.912 17.8632C35.2476 18.1104 35.3391 18.5431 35.3391 18.9139C35.3696 19.1612 35.5831 19.3157 35.7966 19.4084C36.2237 19.2848 36.0407 19.7793 36.3152 19.9029C36.6508 19.9338 36.8338 20.3974 37.1999 20.3356C37.5354 20.5828 37.7184 20.9537 38.0235 21.2318C38.0235 21.2936 38.054 21.3554 38.115 21.3863C38.298 21.4173 38.3895 21.2936 38.5421 21.2936C39.1216 22.468 39.3962 23.766 39.4877 25.1568L39.5487 25.3113C38.8471 25.3113 38.115 25.3113 37.3829 25.3731C37.3524 24.9404 37.3829 24.5078 37.1693 24.1678C37.2914 23.9515 37.3219 23.6424 37.2914 23.3952C37.2609 23.2716 37.1388 23.3952 37.1083 23.3952C36.8643 23.6115 36.8338 23.9515 36.7118 24.2296C36.4982 24.5078 36.4677 24.9713 36.5898 25.2804L36.6813 25.3731H35.8576C36.0712 25.2495 35.6746 25.0022 35.8882 24.7859L36.2542 24.7241C36.3762 24.446 36.6813 24.2605 36.6508 23.9206C36.8033 23.7042 36.9558 23.457 36.8338 23.1788C36.6508 22.7771 37.1388 22.3444 36.7728 21.9735C36.8033 21.8499 36.7423 21.6954 36.5898 21.6954C36.4677 21.6645 36.3457 21.6954 36.3457 21.5409C36.4067 21.4482 36.5898 21.3245 36.5287 21.17C36.4372 21.0464 36.3152 21.17 36.1932 21.1391C36.1627 20.9537 36.4982 20.7682 36.1932 20.6137C35.9797 20.5828 35.8882 20.8301 35.6746 20.7373C35.5831 20.6755 35.5221 20.521 35.6136 20.4283L35.1865 19.872C35.156 19.8102 35.0035 19.9029 35.0035 19.8102C35.034 19.3775 34.5154 19.1303 34.4849 18.6976C34.3324 18.5431 34.4544 18.2649 34.2409 18.1413C34.1189 18.0486 33.9969 17.9559 33.8138 18.0177C33.6308 17.7396 33.4173 17.4923 33.1732 17.2451C33.1122 17.2142 33.0512 17.276 33.0207 17.3069C33.0512 17.5232 33.2953 17.6468 33.2953 17.8632C33.2648 17.8632 33.2342 17.8632 33.2037 17.8941C33.2342 18.1104 33.4173 18.2958 33.5393 18.4195C32.3801 17.5232 31.0074 17.0596 29.5737 16.8124C29.2991 16.8124 28.9941 16.6888 28.7196 16.7815C28.7806 16.1325 28.7501 15.3908 28.7501 14.7109L28.6891 14.5563C29.0246 14.7109 29.3296 14.6181 29.6347 14.6799ZM30.2143 11.6822C33.1732 12.0839 35.7966 13.2892 38.0235 15.4217L37.7794 15.5144C37.3829 15.9471 36.8948 16.3179 36.6813 16.8124C36.6508 16.6579 36.4372 16.5652 36.3762 16.4415C36.3457 16.0398 35.9492 15.638 35.5831 15.4217C35.3086 15.3599 35.217 14.9272 34.8815 15.0508C34.5765 14.8036 34.2104 14.989 33.9359 15.1126V15.1435C32.5326 14.34 30.9769 13.8455 29.2991 13.7219C29.2076 13.7219 29.1771 13.7837 29.0856 13.7837C29.1771 13.7219 29.1161 13.5365 29.1161 13.4437C29.0856 13.3819 28.9941 13.2892 28.8721 13.351C28.8416 13.4128 28.8111 13.4747 28.8111 13.5365C28.8416 12.8875 28.8721 12.053 28.7806 11.4658C29.2076 11.6513 29.7262 11.5894 30.2143 11.6822ZM31.587 30.936C32.2276 30.9978 32.8377 31.1524 33.4173 31.3687C33.5698 31.3687 33.7223 31.3687 33.8138 31.2451C33.7833 30.9978 34.0579 30.8742 34.0274 30.627C34.1494 30.4106 34.0579 30.1325 34.2409 29.9471C34.2714 29.6998 34.2409 29.3908 34.0579 29.2053C33.9053 29.1126 33.7528 29.2362 33.6003 29.2671C33.4173 29.3908 33.4783 29.7925 33.1732 29.6998C33.1122 29.7925 32.9597 29.7925 32.8682 29.7616C32.8377 29.7307 32.8072 29.7307 32.8072 29.6689C33.0207 29.5453 33.4173 29.638 33.4478 29.2671C33.6003 29.1126 33.8748 29.1744 34.0274 29.0199C34.1494 28.8345 34.1799 28.6799 34.3324 28.5254C34.3324 28.4636 34.3629 28.3709 34.3629 28.3091C34.3934 28.4018 34.3934 28.5563 34.5459 28.6181C34.729 28.6799 34.79 28.5254 34.851 28.4018C34.851 28.34 34.8815 28.2473 34.9425 28.3091C35.1255 28.4636 35.3696 28.34 35.5831 28.34C35.7661 28.2782 35.9797 28.2473 36.1627 28.2473C35.9797 29.0817 35.5831 29.8234 35.095 30.5652C34.912 30.7815 34.7595 31.0287 34.5459 31.276C34.4849 31.0905 34.4849 30.8742 34.3324 30.7197L34.2409 30.7506C34.1189 30.9978 33.8748 31.1833 33.9053 31.4614C33.7223 31.7396 33.2953 31.4923 33.0207 31.6468C32.7157 31.7396 32.5326 31.4305 32.2886 31.3687C32.0141 31.2451 31.6785 31.2451 31.4345 31.0905C31.4955 30.9978 31.526 30.936 31.587 30.936ZM33.6003 19.872C33.2037 20.3047 32.7157 20.7373 32.3801 21.2009L32.3191 21.0464C31.343 20.2429 30.2448 19.8411 29.0246 19.6866L28.8416 19.7175V17.7086L28.7806 17.5541C29.6042 17.6777 30.3973 17.8014 31.1599 18.0486C32.1056 18.3886 32.9902 18.9139 33.8138 19.5939L33.9969 19.6557L33.6003 19.872ZM36.6813 26.2075C36.5593 26.6093 36.5593 27.0729 36.4677 27.4747C36.4372 27.5365 36.4372 27.6292 36.4067 27.691C36.2847 27.4437 36.1627 27.1038 35.8882 26.9493C35.6441 26.8256 35.7966 26.4857 35.5831 26.3312L35.3696 26.1148C35.7051 26.2694 36.2237 26.2384 36.6813 26.2075ZM35.3696 22.2517C35.6136 22.3135 35.7661 22.5916 36.0102 22.6535C36.2237 22.9934 36.3152 23.3952 36.4372 23.766C36.2237 23.9824 36.2237 24.4769 35.7966 24.415C35.7051 24.1678 35.9797 24.0442 35.9187 23.7969C35.9797 23.7351 36.1017 23.7042 36.1322 23.5806C36.1017 23.3643 35.8271 23.3952 35.7966 23.1788C35.7051 23.0552 35.5526 23.0552 35.4306 23.0243C35.156 22.9007 34.8815 23.6115 34.8205 23.0243C34.912 22.9625 34.973 22.8389 34.8815 22.7462C34.6375 22.6226 34.607 22.2826 34.3629 22.1281C33.9969 22.1281 33.6613 21.9735 33.3258 22.0663C33.1122 22.0045 32.8377 21.8499 32.6547 22.0972C32.6547 22.2826 32.5326 22.4371 32.5021 22.6226C32.4106 22.5916 32.3496 22.4989 32.2886 22.4062C32.9292 21.6645 33.6918 20.9228 34.3629 20.212L34.3934 20.1192C34.729 20.5519 35.1255 20.9846 35.3696 21.4482C35.4611 21.7572 34.912 22.0663 35.3696 22.2517ZM31.2209 29.3908C31.2209 29.6689 30.8244 29.638 30.6413 29.8234C30.5498 29.7925 30.6108 29.6689 30.6413 29.6071C30.8244 29.5144 30.9464 29.3599 31.2209 29.3908ZM30.5803 23.2097C30.4583 23.2407 30.3363 23.3334 30.2143 23.2716C30.0923 23.1479 29.9397 22.9625 29.7262 22.9316C29.5737 22.9625 29.4822 23.1479 29.3296 23.0552C29.6042 22.7771 30.0618 22.7153 30.2753 22.3135C30.3363 22.1281 30.3973 21.9117 30.3668 21.7263C30.3058 21.6336 30.1838 21.5409 30.0923 21.6336C29.9397 21.8808 29.6042 21.9426 29.4517 22.1899L28.9331 22.0045C28.8416 21.51 28.9636 20.8919 28.8416 20.4592C29.1161 20.5519 29.4212 20.5828 29.7262 20.6446C30.4888 20.8301 31.1599 21.2009 31.831 21.6027C31.6785 21.6645 31.526 21.8499 31.404 21.9735C31.404 22.0972 31.5565 22.0663 31.587 22.159L31.7395 22.0972C31.4345 22.6844 30.6719 22.5916 30.5803 23.2097ZM34.6985 34.7992C34.3019 34.4283 34.9425 34.1501 35.0645 33.8102C35.0035 33.4702 34.607 33.2539 34.3324 33.1612C34.1799 33.0685 34.2409 32.9139 34.2409 32.7903C34.3629 32.6667 34.5154 32.5431 34.5765 32.3576L34.6375 32.5122L35.5526 33.4702C35.5526 33.6866 35.5831 33.872 35.7966 33.9647C35.8882 33.9956 36.0102 33.9338 36.1017 33.9647H36.0407C35.6441 34.3974 35.1865 34.7373 34.729 35.0773L34.6375 35.2318C34.5459 35.0464 34.8205 34.9537 34.6985 34.7992ZM36.4372 32.6358C36.2542 32.4504 36.2542 32.1104 35.9187 32.1104C35.7966 32.1104 35.7661 32.2031 35.7661 32.2958C35.7661 32.3577 35.7966 32.4195 35.7356 32.4504L35.0645 31.8632C35.3696 31.7086 35.6136 31.276 35.8576 30.9669C36.4677 30.1016 36.8338 29.1126 37.1388 28.1237C37.2304 28.2164 37.3829 28.2164 37.4744 28.1546C37.5659 28.0618 37.5964 27.9073 37.5354 27.8146L37.3219 27.5056C37.3524 27.042 37.4744 26.6093 37.4134 26.1766L37.5659 26.2384C38.237 26.2384 38.9386 26.2694 39.6097 26.2075L39.5182 26.3312C39.3352 29.0199 38.42 31.4614 36.5593 33.4393C36.6508 33.1612 36.4067 32.9139 36.4372 32.6358ZM42.4467 24.5696C42.4772 24.8168 42.4161 25.1259 42.5687 25.3422L40.4333 25.3731C40.3723 25.404 40.3113 25.4349 40.2503 25.4349L40.3113 25.3422C40.2808 23.6424 39.8233 22.1281 39.1827 20.7064C39.1521 20.0574 38.5421 19.6248 38.298 19.0685C37.8405 18.7285 37.6879 18.1722 37.1388 17.8632C37.0473 17.7396 36.9863 17.5541 36.8338 17.5232L37.0778 17.4614C37.5964 16.936 38.1455 16.4106 38.5421 15.8543C40.7689 18.3886 42.1721 21.2318 42.4467 24.5696ZM41.745 19.2848C39.3352 14.0618 34.0274 10.755 28.4755 10.755C26.0351 10.7859 23.8083 11.3422 21.7645 12.3621C18.1344 14.1237 15.1755 17.925 14.1688 21.6954C12.5521 28.0618 14.7484 34.4901 20.1172 38.2296C23.9913 41.042 30.1533 41.5674 34.5154 39.4349C38.3895 37.7969 41.684 33.7484 42.6907 29.7616C43.6973 26.4239 43.2703 22.2826 41.745 19.2848Z" fill="white"/>
<path d="M35.0035 14.5872C35.0035 14.6799 35.0035 14.7417 35.0645 14.8035C35.3696 14.9272 35.4001 15.3598 35.7967 15.2671C35.9187 15.1435 35.7357 14.989 35.7662 14.8035C35.7051 14.649 35.5831 14.5872 35.4306 14.5254C35.2476 14.7108 35.1256 14.4327 35.0035 14.5872Z" fill="white"/>
<path d="M29.1161 13.3201C29.5127 13.8146 30.1838 13.5365 30.6719 13.4437C31.0379 13.5983 31.3735 13.4128 31.6175 13.1965V13.1347C31.3735 12.7638 30.8854 12.7329 30.4583 12.702L29.3907 13.1656C29.2992 13.1347 29.1466 13.0729 29.0856 13.1965C29.0551 13.2583 29.0856 13.2892 29.1161 13.3201Z" fill="white"/>
</g>
<defs>
<clipPath id="clip0_2586_5">
<rect width="111.952" height="56" fill="white" transform="translate(0.838318)"/>
</clipPath>
</defs>
</svg>
