<svg width="248" height="43" viewBox="0 0 248 43" fill="none" xmlns="http://www.w3.org/2000/svg">
<path d="M1.34863 21.2C1.34863 10.15 10.1379 1.19995 20.9893 1.19995C31.8408 1.19995 40.6301 10.15 40.6301 21.2C40.6301 32.25 31.8408 41.2 20.9893 41.2C10.1379 41.2 1.34863 32.25 1.34863 21.2Z" fill="white"/>
<path d="M20.9501 42.44C9.44063 42.45 0.101471 32.95 0.101471 21.23C0.101471 9.51 9.42099 0 20.9304 0C32.4399 0 41.7692 9.49 41.7791 21.21C41.7692 32.92 32.4497 42.41 20.9501 42.43V42.44ZM20.9501 1.24C10.0986 1.24 1.30937 10.19 1.30937 21.24C1.30937 32.29 10.0986 41.24 20.9501 41.24C31.8016 41.24 40.5908 32.29 40.5908 21.24C40.5908 10.19 31.8016 1.24 20.9501 1.24Z" fill="#00AB4E"/>
<path d="M33.0979 29.1001C33.0979 29.1001 33.1371 29.0201 33.0979 28.9901L32.7836 27.9901L32.1944 29.0201C32.0274 29.3501 31.6641 29.1101 31.8114 28.8101C31.8114 28.8101 32.5577 27.3301 32.7934 26.8101L34.1584 27.4401C34.1093 27.6401 33.9915 27.8001 33.9031 28.1101L34.0897 28.4601C34.0897 28.4601 34.0995 28.5301 34.0897 28.5601L33.638 29.5601L32.2042 29.8701C31.9096 29.9701 31.8605 29.4201 32.2042 29.3501L33.0979 29.1101V29.1001Z" fill="#00AB4E"/>
<path d="M32.106 29.95C31.9587 29.95 31.8409 29.82 31.8409 29.67C31.8212 29.53 31.8703 29.4 31.9685 29.3C31.8703 29.3 31.782 29.25 31.7329 29.16C31.6739 29.05 31.6739 28.91 31.7329 28.8C31.7329 28.8 32.4792 27.31 32.7149 26.8V26.71L34.2567 27.42V27.5C34.237 27.59 34.1978 27.69 34.1487 27.77C34.1487 27.88 34.0505 28 33.9915 28.17L34.1781 28.44C34.2076 28.5 34.2076 28.57 34.1781 28.63L33.6675 29.63L32.1453 29.95H32.106ZM32.7935 27.77L33.1764 28.95C33.1764 28.95 33.2255 29.08 33.1764 29.15C33.1273 29.22 32.3712 29.36 32.1944 29.42C32.0176 29.48 32.0667 29.57 32.0766 29.65C32.0864 29.73 32.0766 29.77 32.1551 29.77V29.86V29.76L33.5496 29.46L33.9915 28.52L33.7951 28.15C33.8246 27.98 33.8835 27.82 33.9523 27.66C33.9817 27.61 34.0112 27.55 34.0308 27.49L32.8229 26.93C32.5872 27.53 31.9391 28.82 31.9096 28.88C31.8802 28.94 31.8802 29 31.9096 29.06C31.9096 29.14 32.0667 29.13 32.1355 29.01L32.8131 27.77H32.7935ZM32.7935 28.23L32.3123 29.1C32.3123 29.1 32.2632 29.19 32.2239 29.22L33.1175 29.01H33.0586L32.8131 28.23H32.7935Z" fill="#231F20"/>
<path d="M8.5666 29.1C8.5666 29.1 8.52732 29.02 8.5666 28.99L8.88085 27.99L9.47007 29.02C9.63701 29.35 10.0004 29.11 9.85306 28.81C9.85306 28.81 9.0969 27.31 8.87103 26.72L7.49619 27.35C7.59439 27.59 7.69259 27.85 7.80061 28.08L7.61403 28.43C7.61403 28.43 7.60421 28.5 7.61403 28.53L8.06576 29.53L9.49953 29.84C9.79414 29.94 9.84324 29.39 9.54863 29.32L8.5666 29.11V29.1Z" fill="#00AB4E"/>
<path d="M9.55847 29.9499H9.46027L7.97739 29.5799L7.52566 28.5799C7.49619 28.5199 7.49619 28.4499 7.52566 28.3899L7.6926 28.0899L7.48637 27.5999L7.36853 27.3199L8.95943 26.6299V26.7199C9.20494 27.2999 9.94147 28.7799 9.94147 28.7999C10.0004 28.9099 10.0004 29.0499 9.94147 29.1599C9.89236 29.2499 9.80398 29.2999 9.70578 29.2999C9.80398 29.3999 9.85308 29.5299 9.83344 29.6699C9.83344 29.8199 9.7156 29.9399 9.56829 29.9499H9.55847ZM8.1247 29.4599L9.55847 29.7699C9.62721 29.7699 9.63703 29.6599 9.63703 29.6499C9.63703 29.6399 9.63703 29.4399 9.51919 29.4199L8.53715 29.1899C8.42913 29.0799 8.43895 28.9699 8.53715 28.9099L8.89069 27.7699L9.54865 29.0099C9.61739 29.1299 9.72542 29.1399 9.77452 29.0599C9.80398 28.9999 9.80398 28.9399 9.77452 28.8799C9.77452 28.8199 9.07727 27.5099 8.79248 26.8799L7.58458 27.4299L7.6435 27.5499C7.71224 27.7299 7.78099 27.9099 7.85955 28.0699L7.6435 28.4599L8.08542 29.4599H8.1247ZM8.64518 29.0099L9.47991 29.2099C9.47991 29.2099 9.41117 29.1299 9.39152 29.0899L8.95943 28.2299L8.64518 29.0099Z" fill="#231F20"/>
<path d="M11.3654 10.43L12.2689 10.92L12.809 10.5C13.1527 10.34 13.3295 10.7 13.1527 10.84C12.5831 11.28 12.043 11.76 11.5324 12.28L10.5503 11.15C10.6485 11.05 10.786 10.94 10.894 10.84L11.277 10.45C11.277 10.45 11.336 10.42 11.3654 10.43Z" fill="#00AB4E"/>
<path d="M11.5323 12.4201L10.3834 11.1501L10.4521 11.0801L10.6387 10.9101C10.6387 10.8601 10.7467 10.8201 10.786 10.7701L11.1788 10.3801C11.1788 10.3801 11.2574 10.3201 11.3065 10.3201H11.4145L12.2591 10.7701L12.7599 10.3801C13.0447 10.2401 13.2313 10.3801 13.3 10.5501C13.3393 10.6601 13.3 10.7901 13.2116 10.8701C12.6421 11.3101 12.1019 11.7901 11.6011 12.3101L11.5323 12.3801V12.4201ZM10.6387 11.1501L11.5323 12.1501C12.0234 11.6601 12.5438 11.1901 13.0938 10.7701C13.1233 10.7301 13.1233 10.6901 13.0938 10.6501C13.0938 10.5801 12.9661 10.5201 12.8188 10.5801L12.2492 11.0301L11.2672 10.5101L10.8646 10.9101L10.7074 11.0501L10.5896 11.1501H10.6387Z" fill="#231F20"/>
<path d="M12.2689 10.92L11.3654 10.43C11.3654 10.43 11.277 10.39 11.2377 10.43L10.8351 10.81L10.9628 10.16L11.6306 9.54995C11.6306 9.54995 11.7091 9.52995 11.7386 9.54995L12.1019 9.66995L12.7795 9.19995L13.575 10.52L13.1527 10.84C13.3295 10.7 13.1527 10.34 12.809 10.5L12.2689 10.92Z" fill="#00AB4E"/>
<path d="M10.6878 11.0901L10.8744 10.1601L11.6011 9.4801H11.6993L12.0921 9.6001C12.2296 9.4901 12.4064 9.3801 12.5635 9.2701L12.809 9.1001L13.6928 10.5701L13.2018 10.9501L13.0938 10.8001C13.0938 10.8001 13.1233 10.7201 13.0938 10.6801C13.0938 10.6101 12.9661 10.5501 12.8188 10.6101L12.2492 11.0601L11.2672 10.5401L10.6387 11.1201L10.6878 11.0901ZM11.3065 10.3201H11.4145L12.2591 10.7701L12.7599 10.3801C13.0447 10.2401 13.2313 10.3801 13.3 10.5501L13.4473 10.4301L12.7501 9.2801L12.6715 9.3301C12.4948 9.4501 12.3082 9.5701 12.1609 9.6901L11.7484 9.5501L11.061 10.1601V10.4901L11.2672 10.2901C11.2672 10.2901 11.3458 10.2301 11.3949 10.2301L11.3065 10.3201Z" fill="#231F20"/>
<path d="M30.3481 10.29L30.0044 11.29L30.5053 11.77C30.7017 12.09 30.3776 12.33 30.2205 12.17C29.7196 11.65 29.1697 11.17 28.6001 10.73L29.5822 9.53003L29.9259 9.79003L30.3678 10.17C30.3678 10.17 30.3874 10.26 30.3481 10.29Z" fill="#00AB4E"/>
<path d="M30.3384 12.2899C30.2696 12.2899 30.2009 12.2599 30.1518 12.2099C29.6411 11.7099 29.1108 11.2399 28.5412 10.8099L28.4626 10.7499L29.5233 9.3999H29.592L29.8277 9.5899L30.3776 10.0399C30.4464 10.0999 30.466 10.1999 30.4267 10.2799L30.1125 11.1999L30.5642 11.6399C30.6624 11.7599 30.6821 11.9299 30.6133 12.0699C30.5642 12.1799 30.4562 12.2399 30.3384 12.2399V12.2899ZM28.7278 10.7199C29.2777 11.1399 29.7884 11.5899 30.2794 12.0799H30.3384C30.3875 12.0799 30.4366 12.0499 30.4562 11.9999C30.4955 11.9299 30.4955 11.8399 30.4562 11.7699L29.9259 11.2699L30.2892 10.2699L29.7393 9.7899L29.5822 9.6599L28.7573 10.7199H28.7278Z" fill="#231F20"/>
<path d="M30.0045 11.27L30.3482 10.27C30.3482 10.27 30.3776 10.18 30.3482 10.15L29.9062 9.76001L30.5642 9.82001L31.2516 10.41C31.2516 10.41 31.2615 10.48 31.2516 10.51L31.1829 10.9L31.7623 11.51L30.5937 12.51L30.2107 12.13C30.3678 12.29 30.6919 12.05 30.4955 11.73L30.0045 11.27Z" fill="#00AB4E"/>
<path d="M30.5642 12.6599L30.1125 12.2099L30.2401 12.0799C30.3481 12.0799 30.3874 12.0799 30.4169 12.0299C30.4562 11.9599 30.4562 11.8699 30.4169 11.7999L29.8866 11.2999L30.2499 10.2999L29.5822 9.65991L30.5642 9.74991L31.3007 10.3599C31.3007 10.3599 31.3793 10.4699 31.3695 10.5399L31.3105 10.8899L31.8605 11.4699L31.9194 11.5399L30.5642 12.6599ZM30.4267 12.2599L30.574 12.3999L31.556 11.5199L31.1338 11.0099L31.2025 10.5699L30.5151 9.96991H30.1812L30.4169 10.1699C30.4856 10.2299 30.5053 10.3299 30.466 10.4099L30.1517 11.3299L30.6035 11.7699C30.7017 11.8899 30.7213 12.0599 30.6526 12.1999C30.6231 12.2699 30.574 12.3199 30.5053 12.3399L30.4267 12.2599Z" fill="#231F20"/>
<path d="M20.9403 7.86001C22.3249 7.86001 23.4445 6.72001 23.4445 5.31001C23.4445 3.90001 22.3249 2.76001 20.9403 2.76001C19.5556 2.76001 18.4361 3.90001 18.4361 5.31001C18.4361 6.71001 19.5556 7.85001 20.9305 7.85001C20.9305 7.85001 20.9305 7.85001 20.9403 7.85001V7.86001Z" fill="#00AB4E"/>
<path d="M20.9403 7.94992C19.5065 7.94992 18.3477 6.76992 18.3477 5.30992C18.3477 3.84992 19.5065 2.66992 20.9403 2.66992C22.374 2.66992 23.5328 3.84992 23.5328 5.30992C23.5328 6.75992 22.3642 7.93992 20.9403 7.93992V7.94992ZM20.9403 2.85992C19.6047 2.85992 18.5245 3.94992 18.5146 5.30992C18.5146 6.66992 19.5851 7.76992 20.9206 7.77992C22.2562 7.77992 23.3364 6.68992 23.3462 5.32992C23.3462 3.97992 22.266 2.87992 20.9403 2.86992V2.85992Z" fill="#231F20"/>
<path d="M36.9965 21.4899C38.3812 21.4899 39.5007 20.3499 39.5007 18.9399C39.5007 17.5299 38.3812 16.3899 36.9965 16.3899C35.6119 16.3899 34.4923 17.5299 34.4923 18.9399C34.4923 20.3399 35.6119 21.4799 36.9867 21.4799C36.9867 21.4799 36.9867 21.4799 36.9965 21.4799V21.4899Z" fill="#00AB4E"/>
<path d="M36.9965 21.5901C35.5628 21.5901 34.404 20.4101 34.404 18.9501C34.404 17.4901 35.5628 16.3101 36.9965 16.3101C38.4303 16.3101 39.5891 17.4901 39.5891 18.9501C39.5891 20.4101 38.4303 21.5901 36.9965 21.5901ZM36.9965 16.5001C35.6708 16.5001 34.5905 17.6001 34.5905 18.9501C34.5905 20.3001 35.6708 21.4001 36.9965 21.4001C38.3223 21.4001 39.4025 20.3001 39.4025 18.9501C39.4025 17.6001 38.3223 16.5001 36.9965 16.5001Z" fill="#231F20"/>
<path d="M4.91344 21.4899C6.29811 21.4899 7.41763 20.3499 7.41763 18.9399C7.41763 17.5299 6.29811 16.3899 4.91344 16.3899C3.52876 16.3899 2.40924 17.5299 2.40924 18.9399C2.40924 20.3399 3.52876 21.4799 4.90362 21.4799C4.90362 21.4799 4.90362 21.4799 4.91344 21.4799V21.4899Z" fill="#00AB4E"/>
<path d="M4.91344 21.5901C3.47966 21.5901 2.32086 20.4101 2.32086 18.9501C2.32086 17.4901 3.47966 16.3101 4.91344 16.3101C6.34721 16.3101 7.50601 17.4901 7.50601 18.9501C7.50601 20.4101 6.34721 21.5901 4.91344 21.5901ZM4.91344 16.5001C3.58769 16.5001 2.50745 17.6001 2.50745 18.9501C2.50745 20.3001 3.58769 21.4001 4.91344 21.4001C6.23919 21.4001 7.31943 20.3001 7.31943 18.9501C7.31943 17.6001 6.23919 16.5101 4.91344 16.5001Z" fill="#231F20"/>
<path d="M36.3288 21.9C36.2895 23.94 35.8377 25.96 34.9932 27.81L34.129 27.44L32.764 26.81L32.2042 26.53C32.9309 24.95 33.2943 23.22 33.2746 21.47C33.2746 18.34 32.1453 15.32 30.0732 13.01L30.6035 12.56L31.7721 11.56L32.4203 11.02C33.7951 12.54 34.8361 14.35 35.4744 16.31C34.5513 16.86 33.9915 17.87 34.0112 18.95C34.0308 20.36 34.9834 21.57 36.3288 21.9Z" fill="#00AB4E"/>
<path d="M35.0325 27.9299L34.0996 27.5299L32.0766 26.5299L32.1257 26.4499C32.8426 24.8899 33.2059 23.1799 33.1863 21.4499C33.2059 18.3299 32.0668 15.3199 30.0045 13.0099H29.9456L32.4301 10.8999L32.489 10.9699C33.8737 12.5099 34.9147 14.3399 35.5432 16.3199V16.3799H35.4941C34.5906 16.8999 34.0406 17.8899 34.0701 18.9499C34.0996 20.3199 35.0227 21.4899 36.3288 21.8099H36.3975V21.8799C36.3681 23.9399 35.9163 25.9699 35.0521 27.8299V27.9099L35.0325 27.9299ZM32.3221 26.4899L34.1683 27.3599L34.9441 27.6899C35.7494 25.9099 36.1913 23.9699 36.2306 22.0099C34.8852 21.6499 33.9326 20.4299 33.9032 19.0099C33.8639 17.9199 34.4236 16.8899 35.3467 16.3299C34.7281 14.4199 33.7264 12.6699 32.4006 11.1799L30.2107 13.0099C32.2533 15.3399 33.3827 18.3599 33.3729 21.4899C33.3827 23.2099 33.0291 24.9199 32.3221 26.4899Z" fill="#231F20"/>
<path d="M23.8373 6.00995C26.096 6.45995 28.2172 7.40995 30.0634 8.80995L29.5822 9.52995L28.6002 10.73L28.2073 11.28C26.0861 9.64995 23.4936 8.77995 20.8421 8.79995C18.3477 8.79995 15.9221 9.57995 13.8696 11.01L13.5946 10.55L12.7992 9.22995L12.2689 8.35995C13.9973 7.16995 15.9417 6.34995 17.9942 5.94995C18.3182 7.31995 19.4869 8.30995 20.8715 8.37995C22.2955 8.41995 23.5427 7.41995 23.8373 6.00995Z" fill="#00AB4E"/>
<path d="M28.2171 11.4099L28.1484 11.3499C23.9355 8.15991 18.2004 8.03991 13.8696 11.0599H13.791L12.1216 8.29991H12.2001C13.9482 7.10991 15.9122 6.29991 17.9745 5.90991H18.0629V5.98991C18.387 7.30991 19.5163 8.26991 20.8519 8.33991C22.2464 8.37991 23.4641 7.39991 23.7391 6.00991V5.90991H23.8274C26.0959 6.35991 28.2368 7.32991 30.0928 8.73991H30.1714L29.5822 9.57991L28.2171 11.4099ZM20.8322 8.70991C23.4739 8.69991 26.0468 9.54991 28.1779 11.1499L28.5216 10.6799L29.5036 9.46991L29.975 8.80991C28.1877 7.46991 26.1254 6.53991 23.9453 6.09991C23.5918 7.50991 22.3347 8.48991 20.9108 8.46991C19.5163 8.39991 18.328 7.42991 17.9647 6.05991C15.981 6.44991 14.0955 7.22991 12.4162 8.35991L13.8696 10.8499C15.9319 9.44991 18.3575 8.69991 20.8322 8.70991Z" fill="#231F20"/>
<path d="M11.9055 12.6599L11.552 12.2799L10.57 11.1499L9.87273 10.3799C8.27202 12.0199 7.04447 13.9999 6.27849 16.1799C7.781 16.8199 8.49788 18.5699 7.86938 20.0999C7.44711 21.1399 6.49453 21.8399 5.39465 21.9399C5.45358 23.9599 5.88567 25.9399 6.68112 27.7899L7.54531 27.3799L8.92016 26.7499L9.46028 26.4999C7.46675 21.8099 8.42914 16.3499 11.9055 12.6599Z" fill="#00AB4E"/>
<path d="M6.57306 27.91V27.83C5.77761 25.97 5.34551 23.98 5.28659 21.95V21.86H5.32587C6.72037 21.64 7.76133 20.45 7.82025 19.01C7.84971 17.84 7.21138 16.77 6.18024 16.25H6.1115V16.17C6.88731 13.97 8.12468 11.97 9.74504 10.31L9.81379 10.24L12.0135 12.67L11.9448 12.73C8.48803 16.39 7.51582 21.8 9.48971 26.47V26.55L6.5436 27.91H6.57306ZM5.4339 22.01C5.49282 23.95 5.91509 25.87 6.67126 27.65L9.28348 26.45C7.32923 21.76 8.30145 16.34 11.7582 12.65L9.79414 10.5C8.26216 12.11 7.0739 14.02 6.32755 16.13C7.83989 16.91 8.44875 18.8 7.67294 20.34C7.23103 21.23 6.39629 21.85 5.4339 22.01Z" fill="#231F20"/>
<path d="M17.4737 18.0501V11.6201H24.4363V18.0501H30.7508V25.1401H24.4363V31.5801H17.4737V25.1401H11.1494V18.0501H17.4737Z" fill="#00AB4E"/>
<path d="M24.5247 31.67H17.3853V25.23H11.061V18.01H17.3853V11.52H24.5247V18.01H30.849V25.28H24.5247V31.72V31.67ZM17.5621 31.48H24.3381V25.01H30.6624V18.11H24.3381V11.71H17.5621V18.15H11.2476V25.01H17.5621V31.48Z" fill="#231F20"/>
<path d="M8.50767 30.8901L7.85953 32.5601L9.05761 31.5601L9.33258 31.9201L7.59438 33.3501L7.31941 33.0101L7.97737 31.3101L6.75964 32.3101L6.47485 31.9501L8.22288 30.5601L8.50767 30.8901Z" fill="#231F20"/>
<path d="M8.95942 34.25C8.85139 34.15 8.78265 34.01 8.77283 33.86C8.81211 33.39 9.16564 33.02 9.6272 32.96C9.77451 32.96 9.92181 33.03 10.02 33.14C10.128 33.24 10.1968 33.38 10.2066 33.53C10.2066 33.76 10.1084 33.97 9.94145 34.13C9.79415 34.3 9.58792 34.41 9.36205 34.43C9.20493 34.43 9.06744 34.36 8.95942 34.25ZM10.2557 34.44C10.4816 34.2 10.6191 33.89 10.6289 33.56C10.6289 33.28 10.5012 33.02 10.3048 32.84C10.1182 32.64 9.85307 32.53 9.5781 32.53C9.25403 32.56 8.9496 32.71 8.73355 32.95C8.49786 33.18 8.36038 33.5 8.35056 33.83C8.40948 34.38 8.85139 34.81 9.40133 34.83C9.70576 34.8 9.99055 34.66 10.2066 34.44H10.2557Z" fill="#231F20"/>
<path d="M11.3163 34.34L11.8073 34.71C11.9743 34.83 11.9743 34.95 11.8859 35.08C11.8172 35.22 11.6404 35.28 11.5029 35.21C11.4931 35.21 11.4833 35.2 11.4734 35.19L10.9726 34.82L11.3163 34.34ZM9.87274 35.58L10.2361 35.86L10.7566 35.14L11.1788 35.45C11.3065 35.55 11.3556 35.67 11.2672 35.8C11.1788 35.93 11.061 36.07 11.0021 36.17C10.9628 36.23 10.9432 36.3 10.9333 36.37L11.3261 36.66L11.3752 36.6V36.39C11.3752 36.28 11.6011 36.06 11.6502 35.97C11.719 35.85 11.719 35.69 11.6502 35.57C11.8073 35.61 11.9645 35.57 12.0921 35.47C12.21 35.37 12.2984 35.24 12.3376 35.09C12.4162 34.87 12.3376 34.62 12.1412 34.49L11.1592 33.76L9.87274 35.58Z" fill="#231F20"/>
<path d="M13.5652 36.15C13.6536 35.99 13.5652 35.77 13.3393 35.62C13.1135 35.47 12.9661 35.5 12.8679 35.62C12.7992 35.69 12.7894 35.8 12.8483 35.87C12.8483 35.87 12.8581 35.88 12.8679 35.89C12.9956 36.04 13.1331 36.17 13.2902 36.28C13.4473 36.39 13.5652 36.55 13.6339 36.73C13.683 37.11 13.4179 37.47 13.0447 37.53C12.809 37.53 12.5733 37.46 12.3671 37.33C12.2002 37.24 12.0627 37.1 11.9743 36.93C11.8761 36.72 11.8761 36.48 11.9743 36.27L12.3671 36.48C12.3376 36.56 12.3376 36.65 12.3671 36.73C12.4162 36.87 12.5242 36.99 12.6617 37.05C12.7697 37.11 12.8876 37.14 13.0152 37.13C13.1527 37.1 13.2411 36.96 13.2018 36.82C13.2018 36.82 13.2018 36.81 13.2018 36.8C13.1527 36.59 12.7697 36.38 12.5733 36.16C12.3671 35.96 12.3475 35.64 12.5144 35.41C12.7501 35.1 13.1822 35.04 13.4964 35.27C13.7518 35.39 13.9384 35.61 14.0071 35.88C14.0267 36.04 14.0071 36.2 13.9187 36.33L13.5652 36.15Z" fill="#231F20"/>
<path d="M14.5276 35.8799L14.94 36.0499L14.5865 36.9699L15.7453 36.3699L16.2461 36.5699L15.0873 37.1599L15.5194 38.6999L15.0088 38.4999L14.7043 37.3199L14.3999 37.4799L14.1347 38.1499L13.7223 38.0099L14.5276 35.8799Z" fill="#231F20"/>
<path d="M18.7798 37.14L18.711 37.52L17.6406 37.3L17.5424 37.81L18.5244 38L18.4459 38.38L17.4638 38.19L17.2773 39.19L16.8157 39.01L17.2478 36.79L18.7798 37.14Z" fill="#231F20"/>
<path d="M19.7618 39.16C19.6145 39.16 19.477 39.09 19.369 38.98C19.2315 38.8 19.1628 38.57 19.1923 38.34C19.1923 38.11 19.2905 37.89 19.4476 37.73C19.5654 37.64 19.7127 37.6 19.86 37.61C20.0073 37.61 20.1546 37.68 20.2528 37.79C20.3903 37.97 20.4591 38.19 20.4296 38.42C20.4296 38.65 20.3314 38.87 20.1743 39.03C20.0564 39.12 19.9091 39.17 19.7618 39.16ZM20.8617 38.46C20.901 38.13 20.8028 37.79 20.5966 37.53C20.4198 37.33 20.1645 37.21 19.8895 37.2C19.6243 37.17 19.3494 37.25 19.1432 37.43C18.9173 37.67 18.7798 37.98 18.7602 38.31C18.7307 38.64 18.8191 38.97 19.0253 39.23C19.4181 39.63 20.0368 39.67 20.4787 39.33C20.7144 39.1 20.8519 38.79 20.8617 38.46Z" fill="#231F20"/>
<path d="M21.6473 37.26L21.7259 39.13L22.7767 39.06V39.45L21.2741 39.54L21.1465 37.29L21.6473 37.26Z" fill="#231F20"/>
<path d="M22.924 37.1701L23.3659 37.0901L23.5426 38.0901L24.2104 36.9601L24.7407 36.8601L24.0631 37.9801L25.2318 39.0101L24.6916 39.1101L23.8176 38.2801L23.6408 38.5801L23.7685 39.2901L23.3266 39.3701L22.924 37.1701Z" fill="#231F20"/>
<path d="M26.4888 36.25L26.6066 36.62L25.5264 36.98L25.6737 37.47L26.6557 37.14L26.7736 37.51L25.7915 37.83L25.9683 38.39L27.0976 38.01L27.2155 38.37L25.654 38.9L24.9666 36.75L26.4888 36.25Z" fill="#231F20"/>
<path d="M26.7637 36.1501L27.1664 35.9501L27.5297 36.7201L28.3154 36.3401L27.952 35.5701L28.3645 35.3701L29.3465 37.3701L28.934 37.5701L28.5019 36.6401L27.7163 37.0301L28.1484 37.9501L27.7458 38.1401L26.7637 36.1501Z" fill="#231F20"/>
<path d="M29.6804 34.53L30.5642 36.01C30.6428 36.14 30.6722 36.28 30.6428 36.43C30.6035 36.61 30.4955 36.77 30.3384 36.87C30.2107 36.97 30.0732 37.03 29.9161 37.05C29.6902 37.05 29.484 36.93 29.3661 36.73L29.2286 36.51L29.6116 36.27L29.7393 36.46C29.7393 36.54 29.8866 36.73 30.1027 36.57C30.2107 36.5 30.2401 36.35 30.1616 36.24L29.2777 34.81L29.6804 34.54V34.53Z" fill="#231F20"/>
<path d="M31.2222 33.3101L31.4579 33.6101L30.5642 34.3401L30.8785 34.7401L31.7034 34.0701L31.9391 34.3701L31.124 35.0401L31.4775 35.4901L32.4596 34.7401L32.6953 35.0401L31.4088 36.0401L29.975 34.3201L31.2222 33.3101Z" fill="#231F20"/>
<path d="M31.7721 32.75L33.0782 34.07L33.8148 33.31L34.0897 33.58L33.0291 34.67L31.4579 33.08L31.7721 32.75Z" fill="#231F20"/>
<path d="M33.2353 31.69L33.53 31.3C33.5889 31.19 33.7264 31.14 33.8442 31.18C33.9424 31.22 34.0308 31.3 34.0799 31.39C34.1388 31.48 34.1388 31.61 34.0799 31.7L33.7656 32.11L33.2353 31.69ZM34.404 33.2L34.6888 32.84L34.0603 32.34L34.3941 31.91C34.5807 31.7 34.6102 31.4 34.4629 31.16C34.3352 30.96 34.1486 30.81 33.9326 30.74C33.6674 30.68 33.3925 30.79 33.255 31.03L32.6559 31.82L34.404 33.2Z" fill="#231F20"/>
<path d="M55.2723 19.3799C56.2739 21.0099 57.0792 22.6399 57.0792 22.6399C57.0792 22.6399 56.9712 20.1299 56.9712 18.6399V14.3899H59.7111V27.1399H56.9712L54.0251 22.2299C53.3278 21.0499 52.1297 18.7999 52.1297 18.7999C52.1297 18.7999 52.2574 20.9199 52.2574 22.9599V27.1399H49.4586V14.3899H52.277L55.2723 19.3799Z" fill="#231F20"/>
<path d="M66.3398 18.0101C68.7261 17.8201 70.808 19.6301 71.0044 22.0501C71.0241 22.2801 71.0241 22.5101 71.0044 22.7401C71.0044 25.7401 69.0993 27.3901 66.3398 27.3901C63.5802 27.3901 61.7046 25.7601 61.7046 22.7401C61.5081 20.3301 63.266 18.2101 65.6327 18.0101C65.8684 17.9901 66.1041 17.9901 66.3398 18.0101ZM66.3398 25.3101C67.5771 25.3101 68.3038 24.3101 68.3038 22.7001C68.3038 21.0901 67.6262 20.0701 66.3398 20.0701C65.0533 20.0701 64.3757 21.0701 64.3757 22.7001C64.3757 24.3301 65.1122 25.2901 66.3398 25.2901V25.3101Z" fill="#231F20"/>
<path d="M75.3942 18.2199V19.4399C75.8852 18.5199 76.8476 17.9599 77.8689 18.0099C77.9769 18.0099 78.0751 18.0099 78.1832 18.0099V20.6299C77.8984 20.5599 77.6136 20.5299 77.319 20.5199C76.5039 20.4299 75.7477 20.9699 75.5611 21.7799C75.4727 22.1699 75.4236 22.5799 75.4335 22.9799V27.1199H72.7918V18.2199H75.3942Z" fill="#231F20"/>
<path d="M86.4421 23.69C86.2653 22.79 86.0394 21.61 85.8529 20.69C85.6466 21.6 85.46 22.8 85.244 23.77L84.5075 27.18H81.1391L78.9295 18.26H81.6988L82.3961 22.12C82.563 23.04 82.7103 23.94 82.8969 24.86C83.1032 23.98 83.2701 23.15 83.5254 22.06L84.4485 18.26H87.3259L88.3079 22.1C88.6026 23.28 88.7106 23.94 88.9168 24.86C89.1034 23.96 89.2114 23.34 89.4471 22.05L90.164 18.26H92.8155L90.4684 27.14H87.159L86.4421 23.69Z" fill="#231F20"/>
<path d="M102.076 25.25C101.114 26.64 99.5326 27.43 97.873 27.37C95.4768 27.49 93.444 25.61 93.3163 23.18C93.3163 23 93.3163 22.82 93.3163 22.64C93.1985 20.21 95.0349 18.14 97.4212 18.01C97.5489 18.01 97.6864 18.01 97.8141 18.01C100.701 18.01 102.174 20.13 102.174 22.85C102.184 23.04 102.184 23.22 102.174 23.41H95.9187C96.0169 24.5 96.9597 25.32 98.0301 25.23C98.9238 25.25 99.7487 24.79 100.21 24.01L102.066 25.25H102.076ZM95.9285 21.63H99.5915C99.6112 20.69 98.8747 19.91 97.9417 19.89C97.8926 19.89 97.8435 19.89 97.8042 19.89C96.8222 19.86 95.9875 20.63 95.9285 21.63Z" fill="#231F20"/>
<path d="M106.269 27.2899C106.417 28.0799 106.839 28.6999 108.233 28.6999C109.628 28.6999 110.197 28.0799 110.197 26.6999V26.0699C109.51 26.7599 108.567 27.1299 107.605 27.0699C105.169 27.0699 103.588 25.2099 103.588 22.5299C103.441 20.1999 105.179 18.1899 107.467 18.0399C107.526 18.0399 107.575 18.0399 107.634 18.0399C108.597 17.9899 109.53 18.3599 110.217 19.0399V18.2699H112.908V26.2699C112.908 29.4799 111.651 30.7899 108.174 30.7899C105.022 30.7899 103.952 29.3499 103.804 27.5299L106.269 27.2999V27.2899ZM108.233 20.0699C107.035 20.0699 106.269 21.0699 106.269 22.5299C106.269 23.9899 106.986 25.0099 108.233 25.0099C109.481 25.0099 110.197 24.0099 110.197 22.5299C110.345 21.3299 109.51 20.2299 108.332 20.0799C108.292 20.0799 108.253 20.0799 108.224 20.0699H108.233Z" fill="#231F20"/>
<path d="M117.887 17.0699H115.176V14.3899H117.887V17.0699ZM117.887 27.1399H115.176V18.2199H117.887V27.1399Z" fill="#231F20"/>
<path d="M127.707 24.9101C127.707 25.4701 127.776 25.6601 128.159 25.6601H128.296V27.2401C127.884 27.3201 127.462 27.3501 127.039 27.3501C126.264 27.3501 125.547 27.2001 125.36 26.5401C124.692 27.1501 123.799 27.4601 122.895 27.3701C120.931 27.3701 119.733 26.3701 119.733 24.5201C119.684 23.6801 120.116 22.8901 120.833 22.4701C121.501 22.1101 122.237 21.8801 122.993 21.8001L124.683 21.5201C125.164 21.4401 125.232 21.3901 125.232 21.1101V21.0101C125.232 20.3301 124.869 19.9501 123.946 19.9501C123.023 19.9501 122.493 20.3501 122.493 21.2501H120.008C120.008 19.1901 121.53 18.1001 124.054 18.1001C126.303 18.1001 127.727 18.8101 127.727 20.8401L127.707 24.9101ZM125.203 23.0901C124.889 23.2101 124.555 23.3101 124.221 23.3701L123.612 23.5101C123.308 23.5501 123.013 23.6601 122.748 23.8101C122.502 23.9701 122.365 24.2501 122.385 24.5401C122.385 25.2701 122.915 25.5401 123.691 25.5401C124.467 25.5401 125.203 25.1201 125.203 24.1901V23.0901Z" fill="#231F20"/>
<path d="M138.49 27.14H135.799V22.64C135.799 21.27 135.799 20.32 134.424 20.32C133.295 20.32 132.814 21.22 132.814 22.44V27.14H130.133V18.22H132.784V19.32C133.383 18.45 134.375 17.95 135.416 18.01C136.271 17.94 137.105 18.26 137.714 18.87C138.274 19.51 138.49 20.13 138.49 22.1V27.14Z" fill="#231F20"/>
<path d="M148.251 22.53V27.14H145.462V14.39H150.255C151.256 14.34 152.248 14.48 153.201 14.8C154.703 15.38 155.656 16.87 155.577 18.5C155.676 19.86 154.998 21.16 153.829 21.84C152.68 22.4 151.404 22.64 150.127 22.53H148.251ZM148.251 16.87V20.01H150.441C150.952 20.05 151.463 19.97 151.944 19.78C152.494 19.58 152.828 19.02 152.759 18.43C152.838 17.82 152.494 17.24 151.934 17.02C151.443 16.87 150.932 16.81 150.422 16.84L148.251 16.87Z" fill="#231F20"/>
<path d="M164.926 25.25C163.974 26.63 162.393 27.43 160.733 27.37C158.337 27.5 156.294 25.63 156.167 23.19C156.167 23.01 156.167 22.82 156.167 22.64C156.049 20.21 157.885 18.14 160.272 18.01C160.399 18.01 160.537 18.01 160.664 18.01C163.561 18.01 165.034 20.13 165.034 22.85C165.044 23.04 165.044 23.22 165.034 23.41H158.789C158.887 24.5 159.83 25.32 160.9 25.23C161.784 25.25 162.609 24.78 163.061 24.01L164.917 25.25H164.926ZM158.779 21.63H162.442C162.461 20.69 161.725 19.91 160.792 19.89C160.743 19.89 160.694 19.89 160.655 19.89C159.673 19.86 158.838 20.63 158.779 21.63Z" fill="#231F20"/>
<path d="M171.054 18.0101C173.431 17.8101 175.523 19.6101 175.719 22.0301C175.739 22.2701 175.739 22.5 175.719 22.74C175.719 25.74 173.824 27.39 171.054 27.39C168.285 27.39 166.419 25.76 166.419 22.74C166.223 20.33 167.98 18.2101 170.347 18.0101C170.583 17.9901 170.819 17.9901 171.054 18.0101ZM171.054 25.31C172.292 25.31 173.018 24.3101 173.018 22.7001C173.018 21.0901 172.341 20.07 171.054 20.07C169.768 20.07 169.139 21.0701 169.139 22.7001C169.139 24.3301 169.827 25.2901 171.054 25.2901V25.31Z" fill="#231F20"/>
<path d="M180.148 26.34V30.52H177.467V18.22H180.148V19.01C180.835 18.34 181.758 17.98 182.711 18.01C185.215 18.01 186.796 19.89 186.796 22.7C186.796 25.51 185.156 27.39 182.711 27.39C181.749 27.44 180.816 27.05 180.148 26.34ZM182.112 25.34C183.369 25.34 184.076 24.34 184.076 22.73C184.076 21.12 183.389 20.1 182.112 20.1C180.835 20.1 180.148 21.17 180.148 22.73C180.148 24.29 180.884 25.29 182.083 25.29L182.112 25.34Z" fill="#231F20"/>
<path d="M191.235 27.1399H188.544V14.3899H191.235V27.1399Z" fill="#231F20"/>
<path d="M201.635 25.25C200.682 26.63 199.101 27.43 197.442 27.37C195.045 27.5 193.003 25.63 192.875 23.19C192.875 23.01 192.875 22.82 192.875 22.64C192.757 20.21 194.594 18.14 196.98 18.01C197.108 18.01 197.245 18.01 197.373 18.01C200.27 18.01 201.743 20.13 201.743 22.85C201.753 23.04 201.753 23.22 201.743 23.41H195.497C195.595 24.51 196.538 25.32 197.618 25.23C198.502 25.25 199.317 24.78 199.769 24.01L201.625 25.25H201.635ZM195.487 21.63H199.15C199.17 20.69 198.433 19.91 197.501 19.89C197.451 19.89 197.402 19.89 197.363 19.89C196.381 19.86 195.546 20.63 195.487 21.63Z" fill="#231F20"/>
<path d="M206.496 14.3899V16.2499C206.525 16.9999 206.457 17.7499 206.29 18.4799C205.926 19.7199 205.209 20.3399 203.569 20.3699V18.9299C204.434 18.8699 204.895 18.4999 204.895 17.5399H203.569V14.3899H206.496Z" fill="#231F20"/>
<path d="M213.861 20.94C213.213 20.32 212.369 19.97 211.485 19.94C210.876 19.94 210.346 20.15 210.346 20.6C210.346 21.05 210.748 21.2 211.652 21.39L213.036 21.69C214.45 21.99 215.737 22.57 215.737 24.27C215.737 26.35 213.95 27.35 211.868 27.35C210.149 27.42 208.499 26.68 207.38 25.35L209.069 24.01C209.746 24.88 210.778 25.39 211.868 25.38C212.771 25.38 213.233 25.08 213.233 24.6C213.233 24.12 212.702 24 212.113 23.88L210.729 23.6C209.933 23.48 209.187 23.16 208.558 22.66C208.057 22.23 207.782 21.59 207.802 20.92C207.802 18.8 209.766 18.03 211.544 18.03C212.958 18 214.333 18.53 215.374 19.51L213.861 20.94Z" fill="#231F20"/>
<path d="M223.691 27.1399H220.745L225.007 14.3899H228.376L232.559 27.1399H229.613L228.877 24.6099H224.477L223.691 27.1399ZM227.06 18.6899C226.844 17.8799 226.638 17.0399 226.638 17.0399C226.638 17.0399 226.421 17.8799 226.176 18.6999L225.115 22.2899H228.061L227.06 18.6899Z" fill="#231F20"/>
<path d="M236.595 17.0699H233.846V14.3899H236.556L236.595 17.0699ZM236.595 27.1399H233.846V18.2199H236.556L236.595 27.1399Z" fill="#231F20"/>
<path d="M244.903 19.0099V14.3899H247.594V27.1399H244.903V26.3199C244.216 27.0099 243.283 27.3899 242.321 27.3699C239.836 27.3699 238.255 25.4899 238.255 22.6799C238.255 19.8699 239.895 18.0099 242.34 18.0099C243.293 17.9399 244.236 18.3099 244.903 19.0099ZM242.939 20.0099C241.682 20.0099 240.975 21.0099 240.975 22.6199C240.975 24.2299 241.663 25.2499 242.939 25.2499C244.216 25.2499 244.903 24.1799 244.903 22.6199C244.903 21.0599 244.167 20.0699 242.969 20.0699L242.939 20.0099Z" fill="#231F20"/>
</svg>
