<svg width="120" height="64" viewBox="0 0 120 64" fill="none" xmlns="http://www.w3.org/2000/svg">
<g opacity="0.45">
<path d="M36.053 1.42212C29.4636 7.89251 25.4465 16.7093 25.376 25.2772C25.3055 33.8452 26.9617 43.1242 32.8464 48.9546V49.0613C26.6445 42.9108 23.896 32.9919 24.0017 23.7841C24.0722 15.6072 27.6312 7.64365 33.3397 1.49322" fill="#A7A9AC"/>
<path d="M71.467 31.4632C66.6042 14.0429 51.8043 1.67093 34.8197 1.52872C17.1303 1.38651 1.27334 19.3045 1.27334 35.8716C1.27334 44.5817 3.31713 53.6829 9.23708 59.4778V59.5845C2.99999 53.5052 0.180969 43.6218 0.180969 34.414C0.180969 16.9581 16.1437 0 34.8197 0C53.4957 0 69.7403 14.434 71.467 31.9253V31.4632Z" fill="#A7A9AC"/>
<path d="M36.934 1.42208C23.4027 6.04379 13.078 20.3 13.078 33.8451C13.078 42.5553 14.8047 51.692 20.7598 57.4514V57.5936C14.5228 51.4787 11.9857 41.5954 11.9857 32.3875C11.9857 19.3045 20.9713 6.68372 33.3397 1.17322" fill="#A7A9AC"/>
<path d="M49.3024 8.10571C46.9063 15.1449 39.154 21.6153 28.6883 24.7794C21.9579 26.8059 13.8885 26.4503 7.68665 23.9973C7.68665 23.9973 18.1875 26.5925 28.336 23.2507C45.0739 17.7402 49.3024 8.10571 49.3024 8.10571Z" fill="#A7A9AC"/>
<path d="M48.8091 19.7667C46.5891 26.1305 39.1539 32.9919 28.0541 36.2271C21.2884 38.1825 13.219 37.7558 7.01715 35.2317C7.01715 35.2317 17.518 37.9336 27.7017 34.6984C44.4748 29.3657 48.8091 19.7667 48.8091 19.7667Z" fill="#A7A9AC"/>
<path d="M48.8091 32.5653C45.7786 39.3557 37.4625 45.0084 26.7503 47.1415C19.8437 48.4924 11.8447 47.3192 5.88953 44.2618C5.88953 44.2618 16.1085 47.888 26.5388 45.5772C43.6996 41.7376 48.8091 32.5653 48.8091 32.5653Z" fill="#A7A9AC"/>
</g>
<path d="M68.049 34.9473H69.0709V39.6045H68.049V34.9473Z" fill="#11223D"/>
<path d="M71.7489 37.7558L70.9032 36.5471H70.8679C70.8679 36.9737 70.9032 37.4359 70.9032 37.898V39.6045H69.9165V34.9473H70.8679L72.2422 36.8315C72.5594 37.2581 72.806 37.6492 73.1232 38.0403V34.9473H74.0746V39.6045H73.1232L71.7489 37.7558Z" fill="#11223D"/>
<path d="M76.0831 35.8716H74.6031V34.9473H78.585V35.8716H77.105V39.6045H76.0831V35.8716Z" fill="#11223D"/>
<path d="M79.0783 34.9473H81.9326V35.8716H80.1002V36.7604H81.6859V37.6136H80.1002V38.7157H82.0031V39.6045H79.0783V34.9473Z" fill="#11223D"/>
<path d="M82.6374 34.9473H84.0821C84.5825 34.933 85.0794 35.0433 85.5269 35.2672C85.8898 35.5125 86.1048 35.9285 86.0907 36.3693C86.0977 36.963 85.7066 37.4892 85.1393 37.6492L86.4431 39.6045H85.2802L84.1174 37.7914H83.6593V39.6045H82.6374V34.9473ZM84.1526 37.0093C84.3676 37.0199 84.586 36.9844 84.7869 36.9026C84.9701 36.8279 85.0829 36.6395 85.0688 36.4404C85.0829 36.2413 84.9701 36.0529 84.7869 35.9783C84.5508 35.8894 84.2971 35.8538 84.0469 35.8716H83.6593V37.0093H84.1526Z" fill="#11223D"/>
<path d="M88.6278 37.7558L87.7821 36.5471H87.7468C87.7468 36.9737 87.7821 37.4359 87.7821 37.898V39.6045H86.7954V34.9473H87.7468L89.1211 36.8315L90.0021 38.0403V34.9473H90.9535V39.6045H90.0021L88.6278 37.7558Z" fill="#11223D"/>
<path d="M93.2792 34.9473H94.2306L96.0982 39.6045H95.0411L94.6535 38.6446H92.8211L92.4335 39.6045H91.4116L93.2792 34.9473ZM93.103 37.8269H94.3715L94.1601 37.3292C94.0192 36.9382 93.8782 36.476 93.7373 36.1205C93.6315 36.476 93.4554 36.9382 93.3144 37.3292L93.103 37.8269Z" fill="#11223D"/>
<path d="M97.1201 35.8716H95.6401V34.9473H99.622V35.8716H98.142V39.6045H97.1201V35.8716Z" fill="#11223D"/>
<path d="M100.151 34.9473H101.137V39.6045H100.151V34.9473Z" fill="#11223D"/>
<path d="M101.771 37.2937C101.771 35.957 102.843 34.8762 104.168 34.8762C105.493 34.8762 106.564 35.957 106.564 37.2937C106.564 38.6305 105.493 39.7112 104.168 39.7112C102.843 39.7112 101.771 38.6305 101.771 37.2937ZM105.577 37.2937C105.556 36.508 104.911 35.8894 104.132 35.9072C103.354 35.9285 102.741 36.5791 102.758 37.3648C102.776 38.1363 103.403 38.7513 104.168 38.7513C104.946 38.7513 105.577 38.115 105.577 37.3293C105.577 37.3186 105.577 37.3044 105.577 37.2937Z" fill="#11223D"/>
<path d="M109.066 37.7558L108.185 36.5471V39.6045H107.198V34.9473H108.15L109.559 36.8315L110.405 38.0403V34.9473H111.391V39.6045H110.44L109.066 37.7558Z" fill="#11223D"/>
<path d="M113.682 34.9473H114.668L116.536 39.6045H115.444L115.091 38.6446H113.224L112.836 39.6045H111.814L113.682 34.9473ZM113.541 37.8269H114.774L114.598 37.3292C114.457 36.9382 114.281 36.476 114.175 36.1205H114.14C114.034 36.476 113.858 36.9382 113.717 37.3292L113.541 37.8269Z" fill="#11223D"/>
<path d="M116.959 34.9473H117.981V38.7157H119.989V39.6045H116.959V34.9473Z" fill="#11223D"/>
<path d="M68.049 43.3374H69.4937C69.9976 43.2983 70.498 43.412 70.9384 43.6573C71.319 43.8671 71.541 44.2866 71.5022 44.7239C71.5199 45.3212 71.1252 45.8544 70.5508 46.0037L71.8546 47.9946H70.6918L69.5289 46.146H69.0708V47.9946H68.049V43.3374ZM69.5994 45.3994C69.8214 45.4136 70.0399 45.3638 70.2337 45.2572C70.4028 45.1683 70.5015 44.987 70.4803 44.795C70.4909 44.6066 70.3958 44.4288 70.2337 44.3328C69.9835 44.2511 69.7227 44.212 69.4585 44.2262H69.0708V45.3994H69.5994Z" fill="#11223D"/>
<path d="M72.207 43.3374H75.0612V44.2262H73.2289V45.1505H74.8146V46.0038H73.2289V47.1059H75.1317V47.9947H72.207V43.3374Z" fill="#11223D"/>
<path d="M75.766 43.3375H77.1403C77.6124 43.3019 78.0846 43.3872 78.5145 43.5863C78.9797 43.821 79.2686 44.3045 79.2545 44.8306C79.2616 45.3248 79.0043 45.787 78.585 46.0394C78.1269 46.2669 77.616 46.3665 77.105 46.3238H76.7879V47.9947H75.766V43.3375ZM77.1403 45.5061C77.4186 45.5345 77.697 45.4848 77.9507 45.3639C78.134 45.2679 78.2432 45.0724 78.2326 44.8662C78.2502 44.6386 78.1234 44.4253 77.9155 44.3329C77.6688 44.2334 77.4045 44.1942 77.1403 44.2262H76.7879V45.5061H77.1403Z" fill="#11223D"/>
<path d="M83.8002 45.7194C83.839 46.2775 83.7156 46.8321 83.4478 47.3192C83.0496 47.824 82.4295 48.1013 81.7917 48.0658C81.1433 48.1084 80.5196 47.8133 80.1355 47.2836C79.8677 46.8215 79.7443 46.2882 79.7831 45.7549V43.3374H80.805V45.7194C80.7662 46.0607 80.8297 46.4055 80.9812 46.7148C81.1574 47.0099 81.4851 47.177 81.8269 47.1414C82.1476 47.1628 82.4541 47.0134 82.6374 46.7504C82.7889 46.4304 82.8523 46.0713 82.8136 45.7194V43.3374H83.8002V45.7194Z" fill="#11223D"/>
<path d="M84.5754 43.3375H85.9145C86.3972 43.3019 86.88 43.3872 87.324 43.5863C87.6552 43.7712 87.8596 44.1267 87.8525 44.5107C87.8631 44.9479 87.5706 45.3355 87.1478 45.435C87.6799 45.5417 88.0569 46.0252 88.0287 46.5727C88.0393 47.1379 87.6834 47.6428 87.1478 47.817C86.7602 47.9414 86.3549 48.0018 85.9497 47.9947H84.5754V43.3375ZM86.1259 45.2572C86.5487 45.2572 86.8306 45.115 86.8306 44.724C86.8483 44.5604 86.7637 44.4076 86.6192 44.3329C86.4008 44.2262 86.1576 44.18 85.9145 44.1907H85.5973V45.2572H86.1259ZM85.9849 47.1059L86.7249 47.0348C86.9152 46.9459 87.028 46.7469 87.0068 46.5371C87.0068 46.146 86.7249 45.9683 86.1964 45.9683H85.5973V47.1059H85.9849Z" fill="#11223D"/>
<path d="M88.6277 43.3374H89.6496V47.1059H91.6582V47.9947H88.6277V43.3374Z" fill="#11223D"/>
<path d="M92.1516 43.3374H93.1735V47.9947H92.1516V43.3374Z" fill="#11223D"/>
<path d="M97.6839 47.7459C97.2575 47.9556 96.7853 48.0658 96.3096 48.0658C94.8296 48.0658 93.8077 47.0348 93.8077 45.6483C93.8077 44.2618 94.8296 43.2664 96.3096 43.2664C96.7607 43.2664 97.2047 43.3659 97.6134 43.5508V44.5818C97.2223 44.3365 96.7712 44.2014 96.3096 44.1907C95.5309 44.1516 94.8684 44.756 94.8296 45.5381C94.8296 45.5737 94.8296 45.6092 94.8296 45.6483C94.8296 46.4731 95.4921 47.1415 96.3096 47.1415C96.3343 47.1415 96.359 47.1415 96.3801 47.1415C96.8452 47.1237 97.2963 46.9779 97.6839 46.7149V47.7459Z" fill="#11223D"/>
<path d="M99.7982 43.3374H100.785L102.652 47.9947H101.56L101.208 46.9992H99.3401L98.9877 47.9947H97.9305L99.7982 43.3374ZM99.6572 46.2171H100.891L100.714 45.6838C100.573 45.3283 100.397 44.8661 100.291 44.5106L99.8334 45.7194L99.6572 46.2171Z" fill="#11223D"/>
<path d="M104.908 46.1104L104.062 44.9017V47.9947H103.075V43.3374H104.027L105.436 45.2216L106.282 46.3948V43.3374H107.269V47.9947H106.317L104.908 46.1104Z" fill="#11223D"/>
<path d="M68.049 51.6921H69.0709V56.3494H68.049V51.6921Z" fill="#11223D"/>
<path d="M71.7489 54.4652L70.9032 53.2564H70.8679C70.8679 53.683 70.9032 54.1452 70.9032 54.5718V56.3138H69.9165V51.6921H70.8679L72.2422 53.5764C72.5594 53.9674 72.806 54.3585 73.1232 54.7851V51.6921H74.0746V56.3494H73.1232L71.7489 54.4652Z" fill="#11223D"/>
<path d="M74.8498 55.0339C75.2867 55.3361 75.8012 55.5103 76.3298 55.5316C76.6822 55.5316 76.9641 55.3894 76.9641 55.0339C76.9641 54.6784 76.5412 54.5717 75.9422 54.3584C75.3431 54.1451 74.7441 53.8607 74.7441 53.043C74.7441 52.2253 75.3784 51.6209 76.365 51.6209C76.8478 51.6174 77.32 51.7382 77.7393 51.9764V52.9719C77.3235 52.6839 76.8337 52.5239 76.3298 52.5097C76.0126 52.5097 75.766 52.6519 75.766 52.9719C75.766 53.2919 76.1888 53.3985 76.7174 53.5763C77.246 53.754 77.986 54.1451 77.986 54.9628C77.986 55.7805 77.3164 56.4204 76.3298 56.4204C75.8153 56.4204 75.3079 56.2995 74.8498 56.0649V55.0339Z" fill="#11223D"/>
<path d="M79.7479 52.5809H78.2327V51.6921H82.2145V52.5809H80.7346V56.3494H79.7479V52.5809Z" fill="#11223D"/>
<path d="M82.7431 51.6921H83.765V56.3494H82.7431V51.6921Z" fill="#11223D"/>
<path d="M85.7383 52.5809H84.2583V51.6921H88.2402V52.5809H86.7602V56.3494H85.7383V52.5809Z" fill="#11223D"/>
<path d="M92.7153 54.1096C92.7153 54.7851 92.6449 55.3184 92.363 55.6739C91.9648 56.1788 91.3446 56.4561 90.7068 56.4205C90.069 56.4525 89.4523 56.1752 89.0506 55.6739C88.8004 55.194 88.6877 54.65 88.7335 54.1096V51.6921H89.7202V54.0741C89.699 54.4261 89.7589 54.778 89.8963 55.1051C90.0972 55.3682 90.4143 55.5175 90.742 55.4962C91.0627 55.5246 91.3728 55.3753 91.5525 55.1051C91.7216 54.7887 91.7956 54.4296 91.7639 54.0741V51.6921H92.7153V54.1096Z" fill="#11223D"/>
<path d="M94.6887 52.5809H93.2087V51.6921H97.1906V52.5809H95.6753V56.3494H94.6887V52.5809Z" fill="#11223D"/>
<path d="M97.6839 51.6921H100.538V52.5809H98.7058V53.5053H100.292V54.3585H98.7058V55.4606H100.609V56.3494H97.6839V51.6921Z" fill="#11223D"/>
<path d="M22.4865 56.527V55.6026C25.1998 55.2827 25.4817 55.1405 25.4817 52.2963V39.0356C25.4817 36.1559 25.1998 36.0492 22.4865 35.7293V34.8049H31.3312V35.7293C28.6179 36.0492 28.336 36.1559 28.336 39.0356V52.2963C28.336 55.176 28.6179 55.2827 31.3312 55.6026V56.527H22.4865Z" fill="#A51D37"/>
<path d="M54.271 56.7758H53.0377C50.6415 56.5981 49.3377 55.9581 47.8929 53.8961C46.4482 51.8341 45.4615 50.0921 44.4044 48.3856C43.7701 47.2835 43.3473 47.1058 41.6559 47.1058H40.493V52.3319C40.493 55.176 40.8454 55.3538 43.4882 55.6382V56.527H34.6788V55.6026C37.4273 55.2826 37.6387 55.1404 37.6387 52.2963V38.9645C37.6387 36.1203 37.2864 36.0492 34.6788 35.7293V34.8049H43.1006C45.4968 34.8049 47.1177 35.0893 48.3863 35.9426C49.6548 36.7958 50.6415 38.3245 50.6415 40.351C50.6415 43.2307 48.8091 45.0438 46.3777 46.1103C46.9768 47.1413 48.3863 49.3811 49.3729 50.8743C50.1623 52.083 51.0326 53.2349 51.9805 54.3228C52.6113 55.0587 53.4464 55.592 54.3767 55.8515L54.271 56.7758ZM42.0787 45.9326C43.8054 45.9326 44.8977 45.6482 45.7082 44.9727C46.5187 44.2972 47.5406 42.6618 47.5406 40.8487C47.5406 37.258 45.1796 35.9781 42.6425 35.9781C41.6911 35.9781 41.1273 36.0848 40.8806 36.2981C40.634 36.5114 40.493 36.8669 40.493 37.7557V45.9326H42.0787Z" fill="#A51D37"/>
<path d="M55.5395 56.527V55.6026C58.2528 55.2827 58.4995 55.1405 58.4995 52.2963V39.0356C58.4995 36.1559 58.2528 36.0492 55.5395 35.7293V34.8049H64.3842V35.7293C61.6356 36.0492 61.3889 36.1559 61.3889 39.0356V52.2963C61.3889 55.176 61.6356 55.2827 64.3842 55.6026V56.527H55.5395Z" fill="#A51D37"/>
<path d="M23.8607 59.6555H24.2484L25.5874 62.9263H25.1293L24.7769 62.0019H23.2969L22.9445 62.9263H22.4865L23.8607 59.6555ZM23.4731 61.6464H24.636L24.3541 60.9709L24.0369 60.1532L23.7198 60.9709L23.4731 61.6464Z" fill="#11223D"/>
<path d="M26.9617 60.6511C27.145 60.644 27.3247 60.6796 27.4903 60.7578V59.4424H27.9131V62.9264H27.4903V62.8198C27.3071 62.9584 27.0851 63.0331 26.856 63.0331C26.2534 63.0331 25.7636 62.5389 25.7636 61.931C25.7636 61.9203 25.7636 61.9061 25.7636 61.8954C25.7249 61.2484 26.2112 60.6938 26.8525 60.6511C26.8877 60.6511 26.9265 60.6511 26.9617 60.6511ZM26.9265 62.642C27.1309 62.6314 27.3282 62.5567 27.4903 62.4287V61.1489C27.3247 61.0635 27.145 61.0173 26.9617 61.0067C26.553 60.9853 26.2041 61.3017 26.183 61.7141C26.183 61.7497 26.183 61.7888 26.183 61.8243C26.1442 62.2332 26.4437 62.5994 26.849 62.6385C26.8736 62.6385 26.8983 62.6385 26.923 62.6385L26.9265 62.642Z" fill="#11223D"/>
<path d="M28.3359 60.6865H28.794L29.2169 61.7175C29.2944 61.9593 29.3896 62.1975 29.4988 62.4286L29.7807 61.682L30.2035 60.6865H30.6264L29.675 62.9263H29.2874L28.3359 60.6865Z" fill="#11223D"/>
<path d="M30.9788 62.8196C30.8343 62.6952 30.7568 62.5139 30.7674 62.3219C30.7533 62.105 30.8625 61.8988 31.0493 61.7886C31.2431 61.682 31.4616 61.6322 31.6836 61.6464H32.1417V61.5042C32.1487 61.3762 32.1135 61.2518 32.036 61.1487C31.9126 61.0598 31.7646 61.0101 31.6131 61.0065C31.3664 60.9994 31.1268 61.0883 30.9436 61.2554V60.8287C31.1656 60.6936 31.4263 60.6332 31.6836 60.651C31.9126 60.6403 32.1417 60.715 32.3179 60.8643C32.487 61.0029 32.5786 61.2127 32.5645 61.4331V62.393C32.5645 62.5352 32.5998 62.6419 32.7055 62.6419H32.8464V62.9618L32.635 63.0329C32.4588 63.0329 32.3002 62.937 32.2122 62.7841C32.0078 62.9405 31.7611 63.0294 31.5074 63.0329C31.3101 63.0294 31.1233 62.9512 30.9788 62.8196ZM32.1417 62.4286V62.0019H31.7188C31.4369 62.0019 31.155 62.073 31.155 62.3219C31.1726 62.5388 31.3629 62.6952 31.5743 62.6774C31.7822 62.6561 31.9796 62.5708 32.1382 62.4286H32.1417Z" fill="#11223D"/>
<path d="M33.3045 60.6866H33.6921V60.9711H33.7274C33.9353 60.7684 34.2137 60.6546 34.5026 60.6511C34.7211 60.6369 34.929 60.7293 35.0664 60.8999C35.225 61.0742 35.3025 61.3052 35.2778 61.5399V62.9264H34.855V61.6465C34.8761 61.483 34.8374 61.3195 34.7493 61.1844C34.6612 61.0848 34.5308 61.0315 34.3969 61.0422C34.122 61.0564 33.8683 61.1844 33.6921 61.3977V62.9264H33.3045V60.6866Z" fill="#11223D"/>
<path d="M37.674 62.8197C37.4696 62.937 37.2405 62.9975 37.0044 62.9975C36.3842 63.0366 35.8486 62.5602 35.8063 61.9345C35.8063 61.8989 35.8063 61.8598 35.8063 61.8243C35.824 61.1559 36.3772 60.6333 37.0397 60.6511C37.2476 60.6511 37.452 60.7008 37.6387 60.7933V61.2199C37.4696 61.0812 37.2581 61.0066 37.0397 61.0066C36.5921 61.0066 36.2292 61.3728 36.2292 61.8243C36.2081 62.2367 36.5217 62.5886 36.9304 62.61C36.9657 62.61 37.0044 62.61 37.0397 62.61C37.2687 62.6171 37.4942 62.5389 37.674 62.3967V62.8233V62.8197Z" fill="#11223D"/>
<path d="M38.4492 59.6556C38.5831 59.6343 38.7099 59.7268 38.7311 59.8618C38.7346 59.8867 38.7346 59.9152 38.7311 59.9401C38.7311 60.0965 38.6042 60.2245 38.4492 60.2245C38.3012 60.2102 38.1814 60.0894 38.1673 59.9401C38.1673 59.7836 38.2941 59.6556 38.4492 59.6556ZM38.273 60.6866H38.6606V62.9264H38.273V60.6866Z" fill="#11223D"/>
<path d="M39.3654 60.6866H39.7883V60.9711C39.9997 60.7755 40.2745 60.6618 40.5635 60.6511C40.789 60.6369 41.011 60.7293 41.1625 60.8999C41.2929 61.0884 41.3528 61.3123 41.3387 61.5399V62.9264H40.9511V61.6465C40.9722 61.483 40.9335 61.3195 40.8454 61.1844C40.7397 61.0848 40.6022 61.035 40.4578 61.0422C40.19 61.0493 39.9433 61.1808 39.7883 61.3977V62.9264H39.3654V60.6866Z" fill="#11223D"/>
<path d="M42.1844 63.3885C42.3923 63.5272 42.639 63.6018 42.8892 63.6018C43.238 63.6409 43.5516 63.3885 43.5904 63.0366C43.5939 63.001 43.5939 62.9619 43.5904 62.9264V62.7842C43.0865 63.1183 42.4099 62.9761 42.0787 62.4677C41.9554 62.2758 41.8919 62.0518 41.899 61.8243C41.8602 61.2163 42.3148 60.6902 42.9173 60.6511C42.9667 60.6511 43.016 60.6511 43.0618 60.6511C43.2486 60.6368 43.4353 60.6866 43.5904 60.7933L44.0132 60.7222V62.9264C44.0344 63.4952 43.5974 63.9751 43.0336 63.9965C42.9843 63.9965 42.935 63.9965 42.8856 63.9929C42.639 64 42.3958 63.936 42.1809 63.8151V63.3885H42.1844ZM43.0301 62.5708C43.231 62.5708 43.4283 62.5104 43.5939 62.3931V61.1843C43.4283 61.067 43.231 61.0066 43.0301 61.0066C42.6213 61.0244 42.3077 61.3763 42.3254 61.7887C42.2866 62.1798 42.5685 62.5282 42.9561 62.5673C42.9808 62.5673 43.0054 62.5708 43.0301 62.5708Z" fill="#11223D"/>
<path d="M45.8139 59.6556H46.6949C47.0966 59.6378 47.4983 59.7232 47.8577 59.9045C48.6118 60.3915 48.8268 61.4048 48.344 62.1656C48.2348 62.3362 48.0938 62.4891 47.9282 62.6064C47.53 62.8588 47.0578 62.969 46.5891 62.9264H45.8139V59.6556ZM46.6596 62.5353C47.0014 62.5637 47.3468 62.4891 47.6463 62.322C47.9916 62.098 48.1925 61.7034 48.1748 61.291C48.1748 60.8821 47.974 60.4982 47.6463 60.26C47.3432 60.0965 47.0014 60.0218 46.6596 60.0467H46.2368V62.5353H46.6596Z" fill="#11223D"/>
<path d="M49.3729 61.931C49.4082 62.3434 49.7711 62.6456 50.1763 62.6065C50.1763 62.6065 50.1799 62.6065 50.1834 62.6065C50.4618 62.6065 50.7331 62.5211 50.9586 62.3576V62.7842C50.7084 62.9122 50.4301 62.9869 50.1482 62.9975C49.528 63.0366 48.9923 62.5602 48.9501 61.9345C48.9501 61.899 48.9501 61.8599 48.9501 61.8243C48.9289 61.1951 49.4187 60.6725 50.0424 60.6511C50.053 60.6511 50.0671 60.6511 50.0777 60.6511C50.6239 60.6511 51.0643 61.0955 51.0679 61.643C51.0679 61.6679 51.0679 61.6928 51.0679 61.7177V61.931H49.3764H49.3729ZM49.3729 61.611H50.6767C50.6591 61.2733 50.3807 61.0066 50.0424 61.0066C49.6971 61.0066 49.4082 61.2662 49.3729 61.611Z" fill="#11223D"/>
<path d="M54.6938 61.611C54.7114 61.4617 54.6762 61.3088 54.5881 61.1844C54.4965 61.0884 54.3696 61.035 54.2357 61.0422C53.9679 61.0493 53.7213 61.1808 53.5662 61.3977V62.9264H53.1786V61.611C53.1786 61.3621 53.1434 61.2555 53.0729 61.1844C52.9813 61.0884 52.8544 61.035 52.7205 61.0422C52.4527 61.0493 52.206 61.1808 52.051 61.3977V62.9264H51.6634V60.6866H52.051V60.9711C52.2624 60.7755 52.5373 60.6618 52.8262 60.6511C53.1046 60.644 53.3618 60.7968 53.4957 61.0422C53.7142 60.804 54.0172 60.6618 54.3414 60.6511C54.5599 60.6369 54.7678 60.7293 54.9052 60.8999C55.0638 61.0742 55.1413 61.3052 55.1167 61.5399V62.9264H54.6938V61.611Z" fill="#11223D"/>
<path d="M56.8081 60.651C57.4494 60.6297 57.985 61.1416 58.0062 61.7887C58.0062 61.7993 58.0062 61.8136 58.0062 61.8242C57.9885 62.4784 57.4565 62.9974 56.8081 62.9974C56.1668 62.9974 55.6453 62.4713 55.6453 61.8242C55.6241 61.195 56.1139 60.6724 56.7376 60.651C56.7623 60.651 56.7869 60.651 56.8081 60.651ZM56.8081 62.6064C57.2168 62.6277 57.5622 62.3077 57.5833 61.8989C57.5833 61.874 57.5833 61.8491 57.5833 61.8242C57.6749 61.4012 57.4071 60.9852 56.9913 60.8928C56.5755 60.8003 56.1597 61.0705 56.0681 61.4901C56.0434 61.6003 56.0434 61.714 56.0681 61.8207C56.047 62.2331 56.3641 62.5815 56.7729 62.6028C56.7834 62.6028 56.7975 62.6028 56.8081 62.6028V62.6064Z" fill="#11223D"/>
<path d="M60.2614 62.8197C60.0535 62.9263 59.8244 62.9903 59.5919 62.9974C58.9717 63.0365 58.4361 62.5601 58.3938 61.9344C58.3938 61.8989 58.3938 61.8598 58.3938 61.8242C58.3938 61.1772 58.9118 60.651 59.5531 60.6475C59.5778 60.6475 59.6024 60.6475 59.6271 60.6475C59.835 60.6581 60.0358 60.7043 60.2261 60.7897V61.2163C60.0429 61.0776 59.8209 61.003 59.5919 61.003C59.162 61.003 58.8166 61.3514 58.8166 61.7851C58.8166 61.7958 58.8166 61.81 58.8166 61.8207C58.7955 62.2331 59.1091 62.585 59.5179 62.6064C59.5531 62.6064 59.5919 62.6064 59.6271 62.6064C59.8561 62.6135 60.0816 62.5352 60.2614 62.393V62.8197Z" fill="#11223D"/>
<path d="M60.8252 60.6865H61.2481V61.042C61.4031 60.8252 61.6498 60.6936 61.9176 60.6865H62.0585V61.1131H61.8823C61.6181 61.1274 61.3784 61.2731 61.2481 61.5042V62.9263H60.8252V60.6865Z" fill="#11223D"/>
<path d="M62.5166 62.8196C62.3475 62.713 62.2523 62.521 62.27 62.3219C62.2559 62.105 62.3651 61.8988 62.5519 61.7886C62.7457 61.682 62.9642 61.6322 63.1862 61.6464H63.6442V61.5042C63.6513 61.3762 63.6161 61.2518 63.5385 61.1487C63.4152 61.0598 63.2672 61.01 63.1157 61.0065C62.869 61.0065 62.6329 61.0954 62.4462 61.2553V60.8287C62.6717 60.6972 62.9289 60.6367 63.1862 60.651C63.4258 60.6474 63.6619 60.7221 63.8557 60.8643C64.0001 61.0171 64.0741 61.2233 64.0671 61.4331V62.393C64.0671 62.5352 64.1023 62.6418 64.2433 62.6418H64.349V62.9618L64.1376 63.0329C63.9614 63.0329 63.8028 62.9369 63.7147 62.7841C63.5244 62.9369 63.2883 63.0223 63.0452 63.0329C62.8479 63.04 62.6541 62.9618 62.5166 62.8196ZM63.6442 62.4285V62.0019H63.2214C62.9395 62.0019 62.6928 62.073 62.6928 62.3219C62.6928 62.5707 62.869 62.6774 63.1157 62.6774C63.313 62.6561 63.4998 62.5707 63.6442 62.4285Z" fill="#11223D"/>
<path d="M66.5337 62.8197C66.3258 62.9263 66.0967 62.9903 65.8642 62.9974C65.244 63.0365 64.7084 62.5601 64.6661 61.9344C64.6661 61.8989 64.6661 61.8598 64.6661 61.8242C64.6661 61.1772 65.1841 60.651 65.8254 60.6475C65.8501 60.6475 65.8747 60.6475 65.8994 60.6475C66.1073 60.6581 66.3082 60.7043 66.4985 60.7897V61.2163C66.3117 61.0812 66.0932 61.0065 65.8642 61.003C65.4166 61.003 65.0537 61.3692 65.0537 61.8207C65.0537 62.2544 65.399 62.6028 65.8289 62.6028C65.8395 62.6028 65.8536 62.6028 65.8642 62.6028C66.1038 62.6135 66.3434 62.5388 66.5337 62.3895V62.8161V62.8197Z" fill="#11223D"/>
<path d="M67.168 63.9573L67.767 62.713L66.8508 60.6865H67.3089L67.6966 61.5398C67.8023 61.7886 67.908 62.0019 67.9785 62.2152L68.2956 61.5398L68.6832 60.6865H69.1061L67.6261 63.9573H67.168Z" fill="#11223D"/>
<path d="M70.2336 59.6555H70.6917L71.2203 61.4331C71.326 61.7175 71.3965 62.0019 71.5022 62.2863C71.5727 62.0019 71.6784 61.7175 71.7489 61.4331L72.3127 59.6555H72.6298L73.1936 61.4331C73.2641 61.7175 73.3698 62.0019 73.4403 62.2863L73.7222 61.4331L74.2507 59.6555H74.6736L73.6869 62.9263H73.2288L72.7003 61.2553L72.4536 60.5088L72.2422 61.2553L71.7136 62.9263H71.2555L70.2336 59.6555Z" fill="#11223D"/>
<path d="M75.8365 60.6511C76.4602 60.6297 76.9782 61.1239 76.9993 61.7532C76.9993 61.778 76.9993 61.8029 76.9993 61.8243C76.9993 62.4713 76.4778 62.9975 75.8365 62.9975C75.1952 62.9975 74.6736 62.4713 74.6736 61.8243C74.6525 61.195 75.1423 60.6724 75.766 60.6511C75.7907 60.6511 75.8153 60.6511 75.8365 60.6511ZM75.8365 62.6064C76.2452 62.6277 76.5906 62.3078 76.6117 61.8989C76.6117 61.874 76.6117 61.8491 76.6117 61.8243C76.6329 61.3941 76.3016 61.0279 75.8717 61.0066C75.8611 61.0066 75.8471 61.0066 75.8365 61.0066C75.4066 61.0066 75.0613 61.355 75.0613 61.7887C75.0613 61.7994 75.0613 61.8136 75.0613 61.8243C75.0613 62.258 75.4066 62.6064 75.8365 62.6064Z" fill="#11223D"/>
<path d="M77.5631 60.6865H77.986V61.042C78.1375 60.8181 78.3877 60.6865 78.6555 60.6865H78.7964V61.1131H78.6203C78.356 61.1274 78.1163 61.2731 77.986 61.5042V62.9263H77.5631V60.6865Z" fill="#11223D"/>
<path d="M79.2193 59.4424H79.6422V62.9264H79.2193V59.4424Z" fill="#11223D"/>
<path d="M81.3688 60.6511C81.5521 60.644 81.7318 60.6796 81.8974 60.7578V59.4424H82.3203V62.9264H81.8974V62.8198C81.7142 62.9584 81.4922 63.0331 81.2631 63.0331C80.6782 63.0331 80.206 62.5567 80.2024 61.9701C80.2024 61.9452 80.2024 61.9203 80.2024 61.8954C80.1425 61.2697 80.5971 60.7151 81.2173 60.6547C81.2666 60.6511 81.316 60.6476 81.3653 60.6511H81.3688ZM81.3336 62.642C81.538 62.6314 81.7353 62.5567 81.8974 62.4287V61.1489C81.7353 61.06 81.5521 61.0102 81.3688 61.0067C80.9389 61.0067 80.5936 61.3551 80.5936 61.7888C80.5936 61.7995 80.5936 61.8137 80.5936 61.8243C80.5548 62.2332 80.8543 62.5994 81.2596 62.6385C81.2843 62.6385 81.3089 62.6385 81.3336 62.6385V62.642Z" fill="#11223D"/>
<path d="M82.7783 60.6865H83.2364L83.5535 61.682L83.7649 62.393H83.8002L84.0116 61.682L84.3992 60.6865H84.6811L85.0335 61.682C85.1322 61.9131 85.2132 62.1513 85.2802 62.393H85.3154C85.3471 62.1584 85.4211 61.9308 85.5268 61.7175L85.844 60.6865H86.2668L85.4916 62.9263H85.104L84.7516 61.9664L84.5402 61.362C84.4732 61.5682 84.3922 61.7709 84.2935 61.9664L83.9764 62.9263H83.5535L82.7783 60.6865Z" fill="#11223D"/>
<path d="M86.9364 59.6556C87.0703 59.6343 87.1971 59.7268 87.2182 59.8618C87.2218 59.8867 87.2218 59.9152 87.2182 59.9401C87.2182 60.0965 87.0914 60.2245 86.9364 60.2245C86.7884 60.2102 86.6686 60.0894 86.6545 59.9401C86.6545 59.7836 86.7813 59.6556 86.9364 59.6556ZM86.725 60.6866H87.1478V62.9264H86.725V60.6866Z" fill="#11223D"/>
<path d="M88.8744 60.6511C89.0576 60.6405 89.2373 60.6796 89.403 60.7578H89.4382V59.4424H89.8258V62.9264H89.4382V62.8198H89.403C89.2303 62.9549 89.0224 63.0295 88.8039 63.0331C88.2013 63.0331 87.7115 62.5389 87.7115 61.931C87.7115 61.9203 87.7115 61.9061 87.7115 61.8954C87.6516 61.2697 88.1062 60.7151 88.7264 60.6547C88.7757 60.6511 88.8251 60.6476 88.8744 60.6511ZM88.8392 62.642C89.0541 62.6314 89.262 62.5567 89.4382 62.4287V61.1489C89.262 61.0635 89.0682 61.0173 88.8744 61.0067C88.4656 61.0067 88.1344 61.3373 88.1309 61.7497C88.1309 61.7746 88.1309 61.7995 88.1309 61.8243C88.071 62.2119 88.3388 62.5745 88.7229 62.6349C88.7616 62.642 88.7969 62.642 88.8356 62.642H88.8392Z" fill="#11223D"/>
<path d="M90.7773 61.9309C90.8337 62.3504 91.2072 62.649 91.623 62.6064C91.8908 62.6064 92.148 62.5175 92.363 62.3575V62.7841C92.1269 62.9157 91.8591 62.9903 91.5877 62.9974C90.9676 63.0365 90.432 62.5601 90.3897 61.9344C90.3897 61.8989 90.3897 61.8598 90.3897 61.8242C90.3509 61.2163 90.809 60.6937 91.408 60.6546C91.4327 60.6546 91.4574 60.6546 91.482 60.6546C92.0282 60.6332 92.4863 61.0634 92.5074 61.6109C92.5074 61.6465 92.5074 61.6856 92.5074 61.7211C92.5074 61.7922 92.5074 61.8989 92.4722 61.9344H90.7808L90.7773 61.9309ZM90.8125 61.6109H92.1163C92.0987 61.2732 91.8203 61.0065 91.482 61.0065C91.1367 61.0065 90.8478 61.2661 90.8125 61.6109Z" fill="#11223D"/>
</svg>
