<svg width="82" height="39" viewBox="0 0 82 39" fill="none" xmlns="http://www.w3.org/2000/svg">
<path fill-rule="evenodd" clip-rule="evenodd" d="M52.7955 9.27317C53.2314 8.61595 53.6702 7.9299 54.1089 7.2208C56.1612 4.00098 55.4309 1.92843 58.9694 0H46.8055C47.7312 3.94333 49.7637 7.28998 52.7955 9.27317Z" fill="url(#paint0_linear_2586_313)"/>
<path fill-rule="evenodd" clip-rule="evenodd" d="M47.5529 18.9211C46.3101 18.7424 45.376 18.2956 44.4645 17.3991C43.352 16.3124 42.817 14.5713 42.8736 14.1245C42.9274 13.6777 44.8721 14.3061 45.8091 14.6434C43.2954 13.5451 39.7767 10.4723 39.8362 6.70482C39.8362 6.33585 40.0173 6.30991 40.1844 6.43962C41.2997 7.3188 41.345 7.32745 42.1376 8.01926C40.5014 5.34137 39.6748 2.49053 39.9069 0H31.3382L28.4621 7.32457C26.373 2.65771 21.7617 0 14.965 0H0.576233V38.4158H9.62903V26.3379H14.7159C17.2127 26.3379 19.4773 25.9776 21.405 25.2915L16.2502 38.4158H26.0079L28.1593 32.374H43.904C42.8255 26.015 44.5947 21.5673 47.5529 18.9182V18.9211ZM14.8037 17.7248H9.62903V8.61595H14.8037C18.3053 8.61595 20.1935 10.3195 20.1935 13.1704C20.1935 16.0212 18.3053 17.7219 14.8037 17.7219V17.7248ZM31.0721 24.3086L33.7642 16.8485C34.5738 14.652 35.5419 11.1958 35.5985 11.1958H35.6495C35.7061 11.1958 36.6742 14.652 37.4838 16.8485L40.1815 24.3086H31.0721Z" fill="url(#paint1_linear_2586_313)"/>
<path fill-rule="evenodd" clip-rule="evenodd" d="M68.4892 18.8231L80.5596 0H69.6753L65.1489 7.5177C64.7413 8.18069 63.5269 10.3945 63.074 11.2477C63.074 11.2477 62.8645 11.0286 62.1568 9.94481C61.4519 8.86097 61.6076 7.22656 61.8822 6.06777C61.3104 6.86336 61.1179 8.03368 61.3331 9.54125C61.3585 9.70267 61.3868 9.85833 61.418 10.0169C61.4746 10.2417 61.6048 10.9335 61.6048 10.9335C62.0492 13.7382 61.9105 15.462 60.4074 18.431C59.4393 20.3422 57.9927 22.1063 56.4273 23.6658C54.9525 25.1416 53.322 26.2774 51.7481 28.1568C49.9449 30.3072 47.1367 34.8501 45.9478 38.4187H55.8272L58.1315 34.8385L60.246 31.5582C60.7301 30.7886 62.9947 27.145 63.0485 27.145H63.1051C63.1561 27.145 65.4235 30.7886 65.9076 31.5582L70.3236 38.4216H81.1031L68.4921 18.8288L68.4892 18.8231Z" fill="url(#paint2_linear_2586_313)"/>
<defs>
<linearGradient id="paint0_linear_2586_313" x1="53.4494" y1="8.78891" x2="52.9328" y2="1.02452" gradientUnits="userSpaceOnUse">
<stop stop-color="#EF934C"/>
<stop offset="0.5" stop-color="#EB700D"/>
<stop offset="1" stop-color="#E64A1E"/>
</linearGradient>
<linearGradient id="paint1_linear_2586_313" x1="41.5941" y1="15.586" x2="22.3172" y2="17.9641" gradientUnits="userSpaceOnUse">
<stop stop-color="#EF934C"/>
<stop offset="0.5" stop-color="#EB700D"/>
<stop offset="1" stop-color="#E64A1E"/>
</linearGradient>
<linearGradient id="paint2_linear_2586_313" x1="58.1428" y1="16.9148" x2="67.7665" y2="21.081" gradientUnits="userSpaceOnUse">
<stop stop-color="#EF934C"/>
<stop offset="0.5" stop-color="#EB700D"/>
<stop offset="1" stop-color="#E64A1E"/>
</linearGradient>
</defs>
</svg>
