<svg width="199" height="41" viewBox="0 0 199 41" fill="none" xmlns="http://www.w3.org/2000/svg">
<path d="M0.690002 21.8169V21.3614C0.894346 21.1602 1.02438 20.8148 1.35505 20.811L13.5302 20.8566C14.3141 21.2703 14.0504 22.4205 13.1289 22.3635H1.44422C1.07268 22.3597 0.898061 22.0675 0.690002 21.8131V21.8169Z" fill="#01305B"/>
<path d="M24.4868 40.7242C23.9815 40.7166 23.4762 40.7356 22.9709 40.7242C21.8266 40.7014 20.4148 40.7432 19.2667 40.6369C18.2227 40.542 18.1782 39.1983 19.3559 39.0844C20.3553 38.9857 21.3993 39.1489 22.3876 39.1831C22.9784 39.2059 24.1821 39.0654 24.6688 39.221C25.3859 39.4488 25.1667 40.542 24.4868 40.7242Z" fill="#01305B"/>
<path d="M52.5635 29.086V9.72731C56.7545 9.96265 61.3021 8.92639 65.1029 11.1659C71.1069 14.7036 71.0474 24.1628 65.0694 27.7081C61.3429 29.9173 56.6839 28.8279 52.5635 29.0898V29.086ZM55.9482 26.1784H60.0909C60.3732 26.1784 61.2426 25.9507 61.5621 25.8596C67.8076 24.049 67.5661 14.2899 61.12 12.8589C59.4332 12.4831 57.661 12.6843 55.9482 12.6349V26.1784Z" fill="#01305B"/>
<path d="M198.019 22.4512H187.947C187.932 23.9012 188.698 25.2145 190.061 25.7042C191.198 26.1103 193.141 26.0914 194.055 25.1842C194.23 25.0133 194.62 24.2732 194.676 24.2732H197.93C197.135 29.4583 189.846 30.5325 186.61 27.0479C184.306 24.5692 184.128 19.5246 185.774 16.6436C188.111 12.5592 194.363 12.2784 196.934 16.245C198.153 18.1239 198.157 20.2838 198.019 22.455V22.4512ZM194.898 19.7258C194.798 18.3251 194.371 17.0687 192.996 16.5297C190.63 15.5959 187.858 16.9738 187.943 19.7258H194.895H194.898Z" fill="#01305B"/>
<path d="M113.525 29.0861H110.315C110.192 26.3265 110.478 23.4227 110.315 20.6783C110.244 19.4788 110.003 17.691 108.799 17.133C106.444 16.0398 104.166 17.877 104.166 20.405V29.0861H100.956V14.1798H104.166V16.0891L105.243 14.8707C107.279 13.3372 110.816 13.3637 112.455 15.5008C112.904 16.0854 113.525 17.6872 113.525 18.4084V29.0898V29.0861Z" fill="#01305B"/>
<path d="M162.01 13.8156V23.2216C162.01 23.457 162.281 24.3983 162.389 24.6526C163.206 26.5392 166.168 26.3759 167.267 24.8576C167.583 24.4211 167.981 23.2975 167.981 22.7661V13.8118H171.191V28.6269H167.981V26.8087L166.911 28.0385C162.671 30.5589 158.99 28.3498 158.711 23.4C158.533 20.2647 158.841 16.9623 158.711 13.8118H162.01V13.8156Z" fill="#01305B"/>
<path d="M127.431 18.0897H124.221C124.314 16.5334 122.798 16.0134 121.509 16.188C120.406 16.336 119.547 17.471 120.298 18.4997C121.004 19.4638 124.396 19.9155 125.674 20.743C128.423 22.5194 128.163 26.9909 125.217 28.4257C121.792 30.0959 116.408 28.5358 116.375 24.0909H119.674C119.432 26.2735 123.553 27.0175 124.136 25.1424C124.493 23.9922 124.021 23.4039 123.032 22.9863C120.811 22.0488 117.902 22.2765 117.025 19.3879C114.862 12.2593 127.602 11.1547 127.428 18.0973L127.431 18.0897Z" fill="#01305B"/>
<path d="M84.8278 9.72754V12.8173H78.9426V29.0862H75.558V12.8173H69.7657V9.72754H84.8278Z" fill="#01305B"/>
<path d="M152.922 9.54529V13.9978H156.043V16.9965H152.922L152.878 29.0862H149.757C149.757 29.0862 149.623 28.9609 149.623 28.9495V16.9965H147.394V13.9978H149.623V9.54529H152.922Z" fill="#01305B"/>
<path d="M179.658 9.54529V13.9978H182.779V17.0003H179.658L179.747 29.0862H176.452V17.0003H174.133V13.9978H176.452V9.54529H179.658Z" fill="#01305B"/>
<path d="M135.007 9.54529V13.9978H138.124V17.0003H135.007L135.096 29.0862H131.797V17.0003H129.479V13.9978H131.797V9.54529H135.007Z" fill="#01305B"/>
<path d="M96.8617 9.63647H93.4733V29.0901H96.8617V9.63647Z" fill="#01305B"/>
<path d="M144.277 14.1799H141.067V29.0861H144.277V14.1799Z" fill="#01305B"/>
<path d="M30.253 20.8338L42.2684 20.811C43.0783 20.9097 43.2752 21.8853 42.5545 22.2876C38.527 22.4508 34.455 22.3104 30.409 22.3597C29.5359 22.2534 29.4207 21.1223 30.253 20.83V20.8338Z" fill="#01305B"/>
<path d="M21.7003 0.0176449C22.239 -0.0962298 22.5734 0.359269 22.618 0.860318C22.9598 4.63337 22.3542 8.94163 22.6142 12.7716C22.6142 13.6636 21.4996 13.8496 21.1392 13.0943L21.0947 0.678118C21.0872 0.416206 21.4662 0.0669906 21.7003 0.0176449Z" fill="#01305B"/>
<path d="M36.1418 6.11012C36.8291 5.97347 37.3196 6.83133 36.8366 7.37033L28.4139 15.9603C27.5333 16.6056 26.7197 15.4858 27.4739 14.7266L35.6291 6.40999C35.7666 6.29991 35.9709 6.14428 36.1455 6.11012H36.1418Z" fill="#01305B"/>
<path d="M15.6405 27.0136C16.3279 26.8769 16.8183 27.7348 16.3353 28.2738L7.91265 36.8637C7.03212 37.509 6.21846 36.3893 6.97268 35.6301L15.1278 27.3134C15.2653 27.2034 15.4696 27.0477 15.6442 27.0136H15.6405Z" fill="#01305B"/>
<path d="M7.26244 6.10603C7.58196 6.0377 7.85318 6.20851 8.09096 6.4059L16.157 14.6314C16.9892 15.3527 16.2239 16.6243 15.3062 15.9524L6.88719 7.36244C6.43392 6.97907 6.75344 6.21231 7.26616 6.10223L7.26244 6.10603Z" fill="#01305B"/>
<path d="M27.76 27.0136C28.0795 26.9453 28.3507 27.1161 28.5885 27.3135L36.6545 35.539C37.4793 36.2527 36.7028 37.5243 35.8037 36.86L27.3848 28.27C26.9315 27.8867 27.251 27.1199 27.7637 27.0098L27.76 27.0136Z" fill="#01305B"/>
<path d="M17.7769 35.0154L25.8652 35.0913C26.6974 35.2242 26.6566 36.5831 25.7835 36.6324L17.7657 36.5337C16.9818 36.3098 17.0004 35.2735 17.7806 35.0116L17.7769 35.0154Z" fill="#01305B"/>
<path d="M17.9588 30.927C18.4493 30.8435 18.7614 30.9953 19.1812 30.9991C21.4067 31.0295 23.6359 30.965 25.8651 30.9991C26.7717 31.2269 26.7345 32.4264 25.7834 32.5402C24.0074 32.7528 21.3733 32.5213 19.5453 32.4453C19.0214 32.4226 18.2263 32.5364 17.7619 32.4453C17.0671 32.3125 16.9594 31.0978 17.9588 30.9232V30.927Z" fill="#01305B"/>
<path d="M142.382 8.56956C145.094 8.23553 145.429 12.2971 142.976 12.6273C140.231 12.9993 139.815 8.88841 142.382 8.56956Z" fill="#01305B"/>
</svg>
