<svg width="88" height="34" viewBox="0 0 88 34" fill="none" xmlns="http://www.w3.org/2000/svg">
<path d="M36.6466 0.286011H33.5879V22.0588H36.6466V0.286011Z" fill="#0033A0"/>
<path d="M63.7012 11.1408C63.7012 5.2977 59.2999 0 52.2169 0C45.1339 0 40.8269 5.45733 40.8269 11.2372C40.8269 17.3032 45.381 22.3481 52.0609 22.3481C58.7408 22.3481 63.7012 17.3996 63.7012 11.1441V11.1408ZM52.2494 19.4415C47.7864 19.4415 43.98 16.1858 43.98 11.2372C43.98 7.59902 46.3821 2.93652 52.3437 2.93652C57.8989 2.93652 60.5806 7.50258 60.5806 11.1075C60.5806 12.9898 59.8005 15.3544 58.458 16.8542C56.992 18.4838 54.5248 19.4415 52.2494 19.4415Z" fill="#0033A0"/>
<path d="M84.7941 0.286011L77.7436 9.22526L70.6607 0.286011H67.7904V22.0588H70.8492V5.10815L77.4641 13.5353H78.0232L84.5764 5.10815V22.0588H87.6351V0.286011H84.7941Z" fill="#0033A0"/>
<path d="M6.07174 30.3097C6.07174 31.0214 6.00672 31.4072 5.8702 31.6599C5.67841 32.0124 5.17132 32.6177 4.00436 32.6177C3.16571 32.6177 2.68787 32.3317 2.38231 32.0124C2.01174 31.64 1.92723 31.2675 1.92723 30.3097V26.1926H0.883789V30.3097C0.883789 30.7986 0.883789 31.64 1.28686 32.2785C1.85897 33.193 2.98367 33.5456 4.00436 33.5456C4.83326 33.5456 5.63941 33.3327 6.28627 32.7574C7.10217 32.0224 7.10217 31.0114 7.10217 30.3097V26.1926H6.07174V30.3097Z" fill="#0033A0"/>
<path d="M15.5699 31.8196L10.6875 26.1926H9.84888V33.4491H10.8273V27.8621L15.6642 33.4491H16.5548V26.1926H15.5699V31.8196Z" fill="#0033A0"/>
<path d="M26.5406 29.169L24.1319 26.1926H23.1534V33.4491H24.1936V27.7989L26.4431 30.6057H26.6349L28.8615 27.7989V33.4491H29.9017V26.1926H28.9363L26.5406 29.169Z" fill="#0033A0"/>
<path d="M33.8284 26.1926H32.7882V33.4491H33.8284V26.1926Z" fill="#0033A0"/>
<path d="M40.2581 30.7985H41.6493V32.3084C40.9602 32.5312 40.5994 32.6276 40.0695 32.6276C38.3175 32.6276 37.1635 31.4238 37.1635 29.8175C37.1635 28.1048 38.532 27.0173 39.9753 27.0173C40.3783 27.0173 41.3535 27.0805 42.5432 27.7722V26.708C41.7696 26.3788 41.0155 26.0895 39.998 26.0895C37.5146 26.0895 36.0844 27.9618 36.0844 29.8774C36.0844 31.5269 37.2416 33.5389 40.0403 33.5389C41.2495 33.5389 42.1402 33.1863 42.6927 32.9436V29.8807H40.2646V30.7952L40.2581 30.7985Z" fill="#0033A0"/>
<path d="M48.4365 30.0002C49.2231 29.691 49.6457 29.0524 49.6457 28.2111C49.6457 27.4761 49.2849 26.7544 48.5112 26.4219C48.0561 26.219 47.6108 26.1891 47.2695 26.1891H45.4557V33.4456H46.4861V30.2862H46.7624C47.2598 30.2862 47.6108 30.2862 48.3227 31.2008C48.5567 31.5101 49.5644 33.0964 49.8082 33.4456H51.0402C50.5428 32.7439 50.3608 32.4978 50.052 31.9989C49.4994 31.1043 49.0963 30.4359 48.4397 29.9969L48.4365 30.0002ZM47.8969 29.2553C47.6108 29.3617 47.0485 29.3617 46.8892 29.3617H46.4861V27.0737H46.8047C47.432 27.0737 47.7701 27.1169 48.0366 27.2433C48.3747 27.4029 48.5892 27.7954 48.5892 28.2111C48.5892 28.6035 48.3877 29.0624 47.9001 29.2553H47.8969Z" fill="#0033A0"/>
<path d="M55.2692 26.1494L52.1616 33.4491H53.2213L54.1347 31.3108H57.213L58.1785 33.4491H59.2382L56.0006 26.1494H55.2692ZM54.5378 30.3729L55.6202 27.7457L56.7872 30.3729H54.5378Z" fill="#0033A0"/>
<path d="M59.6249 27.1072H62.1051V33.4491H63.1453V27.1072H65.671V26.1926H59.6249V27.1072Z" fill="#0033A0"/>
<path d="M68.993 26.1926H67.9529V33.4491H68.993V26.1926Z" fill="#0033A0"/>
<path d="M75.0196 26.0961C72.5492 26.0961 71.1482 27.9152 71.1482 29.8407C71.1482 31.8627 72.6987 33.5421 74.9676 33.5421C77.2365 33.5421 78.9236 31.8926 78.9236 29.8075C78.9236 27.8587 77.4283 26.0928 75.0196 26.0928V26.0961ZM77.139 31.7131C76.6417 32.2551 75.803 32.5744 75.0261 32.5744C73.5081 32.5744 72.2144 31.4902 72.2144 29.8407C72.2144 28.6269 73.0303 27.0738 75.0586 27.0738C76.9472 27.0738 77.8606 28.597 77.8606 29.7975C77.8606 30.426 77.5941 31.2109 77.139 31.7131Z" fill="#0033A0"/>
<path d="M86.6371 31.8196L81.7548 26.1926H80.9161V33.4491H81.8946V27.8621L86.7314 33.4491H87.6221V26.1926H86.6371V31.8196Z" fill="#0033A0"/>
<path d="M11.8286 9.11887C12.0658 9.11887 12.2609 8.91933 12.2609 8.67656C12.2609 8.43379 12.0658 8.23425 11.8286 8.23425C11.5913 8.23425 11.3962 8.43379 11.3962 8.67656C11.3962 8.91933 11.5913 9.11887 11.8286 9.11887Z" fill="#0033A0"/>
<path d="M10.187 11.7793C10.2195 11.7992 10.252 11.8092 10.2845 11.8092C10.356 11.8092 10.4275 11.766 10.4568 11.6928L11.2272 9.83047L11.2824 11.6429L10.9931 13.9376C10.9834 14.0274 11.0289 14.1172 11.1134 14.1471C11.1361 14.1571 11.1556 14.1604 11.1784 14.1604C11.2727 14.1604 11.3507 14.0906 11.3637 13.9941L11.64 11.8092H12.0138L12.2901 13.9941C12.3031 14.0906 12.3811 14.1604 12.4754 14.1604C12.4981 14.1604 12.5176 14.1571 12.5404 14.1471C12.6217 14.1172 12.6704 14.0274 12.6607 13.9376L12.3714 11.6429L12.4266 9.83047L13.197 11.6928C13.2003 11.7028 13.2068 11.7128 13.2133 11.7227C13.2133 11.7227 13.2165 11.7294 13.2198 11.7294C13.223 11.736 13.2295 11.7427 13.236 11.7494C13.236 11.7494 13.2393 11.7527 13.2425 11.756C13.249 11.7627 13.2555 11.7693 13.262 11.7726C13.262 11.7726 13.262 11.7726 13.2653 11.776C13.275 11.7826 13.2848 11.7859 13.2945 11.7926C13.2945 11.7926 13.301 11.7926 13.3043 11.7926C13.3108 11.7926 13.3205 11.7992 13.327 11.7992C13.327 11.7992 13.3335 11.7992 13.3368 11.7992C13.3465 11.7992 13.3595 11.8026 13.3693 11.8026H13.5253L13.275 13.0962C13.2588 13.1893 13.2815 13.2825 13.34 13.3556C13.3758 13.4022 13.4213 13.4321 13.4766 13.4521V13.9975C13.4766 14.0839 13.5448 14.1571 13.6326 14.1571C13.7204 14.1571 13.7886 14.0873 13.7886 13.9975V13.4687C13.7886 13.4687 13.7984 13.4687 13.8049 13.4687H13.9056H14.0064C14.0064 13.4687 14.0162 13.4687 14.0227 13.4687V13.9975C14.0227 14.0839 14.0909 14.1571 14.1787 14.1571C14.2665 14.1571 14.3347 14.0873 14.3347 13.9975V13.4487C14.3867 13.4288 14.4322 13.3955 14.468 13.3523C14.5265 13.2791 14.5493 13.186 14.533 13.0929L14.2827 11.8026H14.4387C14.4387 11.8026 14.4615 11.8026 14.4712 11.7992C14.4712 11.7992 14.4777 11.7992 14.481 11.7992C14.4875 11.7992 14.4973 11.7959 14.5038 11.7926C14.5038 11.7926 14.5103 11.7926 14.5135 11.7926C14.5233 11.7893 14.533 11.7826 14.5428 11.776C14.5428 11.776 14.5428 11.776 14.546 11.7726C14.5525 11.766 14.559 11.7627 14.5655 11.756C14.5655 11.756 14.5688 11.7527 14.572 11.7494C14.5785 11.7427 14.5818 11.736 14.5883 11.7294C14.5883 11.7294 14.5915 11.7261 14.5948 11.7227C14.6013 11.7128 14.6045 11.7028 14.611 11.6928L15.4107 9.76396L15.5667 10.5488C15.5927 10.6752 15.5895 10.8115 15.5537 10.9412L14.8223 14.1604H17.0945L16.3631 10.9346C16.3306 10.8082 16.3273 10.6752 16.3533 10.5455L16.5126 9.75398L17.1302 11.307C17.1595 11.3802 17.2277 11.4268 17.3025 11.4268C17.3253 11.4268 17.3513 11.4234 17.374 11.4135C17.4683 11.3736 17.5138 11.2638 17.4748 11.164L16.7824 9.42807C16.7532 9.35491 16.6849 9.30835 16.6101 9.30835H15.3099C15.2351 9.30835 15.1669 9.35491 15.1376 9.42475L14.3087 11.4268H13.4896L12.6607 9.42475C12.6314 9.35491 12.5632 9.30835 12.4884 9.30835H11.1589C11.0841 9.30835 11.0159 9.35491 10.9866 9.42475L10.1122 11.5332C10.0764 11.6197 10.1025 11.7261 10.1805 11.776L10.187 11.7793Z" fill="#0033A0"/>
<path d="M15.96 9.12204C16.1973 9.12204 16.3923 8.9225 16.3923 8.67973C16.3923 8.43696 16.1973 8.23743 15.96 8.23743C15.7227 8.23743 15.5277 8.43696 15.5277 8.67973C15.5277 8.9225 15.7227 9.12204 15.96 9.12204Z" fill="#0033A0"/>
<path d="M13.9024 11.3304C14.0812 11.3304 14.2274 11.1808 14.2274 10.9978C14.2274 10.8149 14.0812 10.6653 13.9024 10.6653C13.7236 10.6653 13.5774 10.8149 13.5774 10.9978C13.5774 11.1808 13.7236 11.3304 13.9024 11.3304Z" fill="#0033A0"/>
<path d="M26.9274 10.5357C26.9274 7.07704 25.3768 3.20936 22.8577 0.32605H20.6115C21.1999 0.881427 22.019 1.84585 22.019 1.84585C24.1871 4.32676 25.4516 7.65237 25.4516 10.6288C25.4516 10.6654 25.4516 10.702 25.4516 10.7385H21.8565C21.3006 4.92537 16.7791 0.329375 11.2824 0.329375C5.41835 0.329375 0.666016 5.49073 0.666016 11.8593C0.666016 15.3179 2.21654 19.1856 4.73573 22.0689H6.98512C6.40002 21.5135 5.57763 20.5491 5.57763 20.5491C3.4095 18.0682 2.14828 14.7393 2.14828 11.7662C2.14828 11.7296 2.14828 11.693 2.14828 11.6564H5.74341C6.2895 17.4696 10.8143 22.0656 16.311 22.0656C22.175 22.0656 26.9274 16.9042 26.9274 10.5357ZM16.5418 20.5458V17.8254C18.0533 17.8953 19.4153 18.5205 20.4165 19.4949C19.2463 20.1367 17.933 20.5092 16.5418 20.5458ZM16.5418 17.2567V15.564H21.5217C20.8 16.5417 19.8541 17.3199 18.8432 17.7755C18.1346 17.4729 17.3577 17.2933 16.5418 17.2567ZM20.9268 19.1922C20.5172 18.7765 20.0492 18.4174 19.5388 18.1214C20.566 17.5494 21.5217 16.6515 22.2303 15.564H24.2391C23.446 17.0639 22.3018 18.3176 20.9301 19.1922H20.9268ZM25.4159 11.417C25.3281 12.6508 25.029 13.8214 24.561 14.8889H22.6236C23.1275 13.9178 23.433 12.8304 23.433 11.7063C23.433 11.6498 23.433 11.5101 23.433 11.417H25.4159ZM20.3645 10.7385H18.5214C18.5214 10.7219 18.5214 10.7053 18.5214 10.692C18.5214 9.56793 18.2158 8.48045 17.712 7.50937H19.5323C19.9679 8.50706 20.2572 9.59453 20.3645 10.7385ZM19.204 6.83427H17.3154C16.6068 5.7468 15.6511 4.84888 14.624 4.27688C15.118 3.9942 15.5699 3.64834 15.9664 3.25259C17.3057 4.1239 18.4239 5.36103 19.204 6.83427ZM11.718 1.85916C13.0604 1.929 14.3282 2.31477 15.4561 2.94663C14.4777 3.8778 13.1677 4.47641 11.718 4.56621V1.85916ZM11.718 5.13489C12.4981 5.09165 13.2425 4.91207 13.9251 4.62274C14.9328 5.07835 15.8819 5.85654 16.6036 6.83427H11.718V5.13821V5.13489ZM11.0516 1.84918V4.56953C9.54007 4.49969 8.17808 3.87448 7.17691 2.90007C8.34711 2.25823 9.66034 1.88576 11.0516 1.84918ZM11.0516 5.14154V6.83427H6.07171C6.79334 5.85654 7.73926 5.07835 8.75018 4.62274C9.45881 4.92537 10.2357 5.10495 11.0516 5.14154ZM6.66332 3.20603C7.07289 3.62173 7.54097 3.9809 8.05131 4.27688C7.02413 4.84888 6.06846 5.7468 5.35984 6.83427H3.35099C4.14413 5.33442 5.28833 4.08067 6.66007 3.20603H6.66332ZM2.17428 10.9813C2.26205 9.74751 2.5611 8.57689 3.02918 7.50937H4.96652C4.46268 8.48045 4.15713 9.56793 4.15713 10.692C4.15713 10.7485 4.15713 10.8882 4.15713 10.9813H2.17428ZM4.74548 10.9813C4.74548 10.8948 4.73898 10.7651 4.73898 10.692C4.73898 9.55795 5.07704 8.46382 5.62964 7.50937H17.0489C17.6015 8.46382 17.9395 9.55463 17.9395 10.692C17.9395 10.7053 17.9395 10.7219 17.9395 10.7385H17.933L17.9233 11.4136H22.8512C22.8512 11.5001 22.8577 11.6298 22.8577 11.703C22.8577 12.837 22.5196 13.9311 21.967 14.8856H10.5477C9.9984 13.9311 9.66034 12.8403 9.66034 11.703C9.66034 11.6897 9.66034 11.673 9.66034 11.6564L9.67009 10.9813H4.74223H4.74548ZM7.22892 11.6564H9.07199C9.07199 11.673 9.07199 11.6897 9.07199 11.703C9.07199 12.827 9.37754 13.9145 9.88138 14.8856H8.06106C7.62549 13.8912 7.33618 12.8037 7.22892 11.6564ZM8.38937 15.564H10.278C10.9866 16.6515 11.9422 17.5494 12.9694 18.1214C12.4753 18.4041 12.0235 18.7499 11.6269 19.1457C10.2877 18.2744 9.16951 17.0373 8.38937 15.564ZM15.8754 20.5391C14.5329 20.4693 13.2652 20.0835 12.134 19.4516C13.1124 18.5205 14.4224 17.9185 15.8754 17.8287V20.5358V20.5391ZM15.8754 17.2601C15.0953 17.3033 14.3509 17.4829 13.6683 17.7722C12.6574 17.3166 11.7115 16.5384 10.9931 15.5607H15.8754V17.2567V17.2601Z" fill="#0033A0"/>
</svg>
