<svg width="115" height="52" viewBox="0 0 115 52" fill="none" xmlns="http://www.w3.org/2000/svg">
<g clip-path="url(#clip0_2586_361)">
<path d="M114.973 0H0.222046V51.25H114.973V0Z" fill="white"/>
<path d="M32.59 29.69L33.8764 32.01C34.1514 32.47 34.2398 32.52 34.5442 32.52V32.74H33.6604L32.2364 30.12L31.7552 30.75V32C31.7552 32.49 31.7847 32.53 32.2463 32.53V32.75H30.6848V32.53C31.166 32.53 31.2053 32.49 31.2053 32.01V28.51C31.2053 28.02 31.166 27.98 30.6848 27.98V27.77H32.2266V27.98C31.7945 27.98 31.7651 28.03 31.7651 28.51V30.26H31.7847L33.0908 28.54C33.2676 28.31 33.3658 28.17 33.3658 28.08C33.3658 28 33.2774 27.97 33.0712 27.97V27.76H34.2889V27.97C34.0237 27.97 33.9354 28 33.6898 28.3L32.6096 29.68L32.59 29.69Z" fill="#231F20"/>
<path d="M35.87 29.33V32.07C35.87 32.51 35.8994 32.56 36.3217 32.56V32.75H34.8585V32.56C35.3102 32.56 35.3495 32.51 35.3495 32.06V30.22C35.3495 29.77 35.32 29.76 34.8585 29.76V29.6C35.2415 29.55 35.487 29.46 35.7914 29.28L35.8601 29.32L35.87 29.33ZM35.8994 28.45C35.8994 28.72 35.7423 28.87 35.5655 28.87C35.3888 28.87 35.2415 28.72 35.2415 28.45C35.2415 28.18 35.3888 28.03 35.5655 28.03C35.7718 28.03 35.8994 28.2 35.8994 28.45Z" fill="#231F20"/>
<path d="M37.6376 29.91C37.9519 29.52 38.3349 29.28 38.767 29.28C39.5035 29.28 39.7883 29.7 39.7883 30.38V32.06C39.7883 32.48 39.8178 32.55 40.1615 32.55V32.74H38.8946V32.55C39.2482 32.55 39.2776 32.5 39.2776 32.05V30.4C39.2776 29.77 39.0714 29.55 38.6295 29.55C38.3054 29.55 37.9519 29.83 37.6475 30.25V32.06C37.6475 32.5 37.6573 32.55 38.0206 32.55V32.74H36.7047V32.55C37.1073 32.55 37.1368 32.51 37.1368 32.05V30.23C37.1368 29.79 37.0975 29.75 36.7047 29.75V29.59C37.0386 29.53 37.2939 29.45 37.5394 29.27L37.618 29.32L37.6475 29.9H37.6573L37.6376 29.91Z" fill="#231F20"/>
<path d="M43.0486 29.66C43.2843 29.89 43.412 30.17 43.412 30.53C43.412 31.37 42.7737 31.78 42.0764 31.78C41.8407 31.78 41.6443 31.74 41.4283 31.65C41.2122 31.79 41.0944 31.91 41.0944 32.06C41.0944 32.26 41.3104 32.35 41.7032 32.35H42.4398C43.4513 32.35 43.7459 32.85 43.7459 33.31C43.7459 33.98 43.137 34.54 41.9782 34.54C41.0747 34.54 40.4561 34.24 40.4561 33.65C40.4561 33.2 40.8489 32.87 41.2319 32.7C40.9667 32.65 40.7114 32.49 40.7114 32.19C40.7114 31.89 40.9471 31.71 41.2122 31.55C40.8882 31.34 40.6819 30.98 40.6819 30.53C40.6819 29.74 41.281 29.28 42.0273 29.28C42.3612 29.28 42.6165 29.37 42.8031 29.48L43.7655 29.38V29.69L43.029 29.66H43.0486ZM41.5363 32.78C41.1533 33.02 40.9274 33.27 40.9274 33.59C40.9274 34.04 41.3792 34.32 42.0273 34.32C42.9111 34.32 43.3138 33.88 43.3138 33.44C43.3138 33.13 43.1567 32.78 42.3808 32.78H41.5265H41.5363ZM42.8915 30.53C42.8915 30.01 42.6165 29.52 42.0568 29.52C41.497 29.52 41.2319 30.01 41.2319 30.53C41.2319 31.13 41.5461 31.55 42.0666 31.55C42.5871 31.55 42.8817 31.11 42.8817 30.53H42.8915Z" fill="#231F20"/>
<path d="M46.5643 29.6601V28.4801C46.5643 28.0801 46.5349 28.0301 46.1322 28.0301V27.8701C46.5054 27.8201 46.7509 27.7301 47.0063 27.5601L47.075 27.6001V32.1601C47.075 32.5501 47.1339 32.5801 47.4678 32.5801V32.7401C47.1928 32.7401 46.9179 32.7401 46.6527 32.8401L46.6036 32.8001L46.584 32.4101H46.5742C46.417 32.5901 46.0831 32.8401 45.5921 32.8401C45.0422 32.8401 44.1976 32.5401 44.1976 31.0001C44.1976 30.1101 44.6494 29.3001 45.6707 29.3001C46.093 29.3001 46.3876 29.5001 46.5545 29.6701H46.5643V29.6601ZM46.5643 30.0401C46.3876 29.7701 46.093 29.5401 45.7492 29.5401C44.8065 29.5401 44.7378 30.5701 44.7378 31.0401C44.7378 32.0001 45.1404 32.5701 45.7001 32.5701C46.0733 32.5701 46.3778 32.3101 46.5643 32.0701V30.0401Z" fill="#231F20"/>
<path d="M47.9196 31.04C47.9196 30.13 48.3124 29.29 49.4614 29.29C50.4827 29.29 51.0031 29.96 51.0031 31.04C51.0031 32.01 50.6693 32.83 49.4614 32.83C48.44 32.83 47.9196 32.22 47.9196 31.04ZM48.4597 31.05C48.4597 32.4 49.0489 32.6 49.4614 32.6C50.2764 32.6 50.463 31.79 50.463 31.05C50.463 30.07 50.1488 29.52 49.4614 29.52C48.7739 29.52 48.4597 30.05 48.4597 31.05Z" fill="#231F20"/>
<path d="M54.3912 29.89C54.6661 29.57 55 29.29 55.4714 29.29C55.7267 29.29 55.9919 29.36 56.1588 29.57C56.3258 29.76 56.4141 30.01 56.4141 30.47V32.11C56.4141 32.52 56.4632 32.57 56.7873 32.57V32.76H55.5205V32.57C55.8446 32.57 55.8937 32.52 55.8937 32.15V30.53C55.8937 30.18 55.8446 29.58 55.3143 29.58C54.9509 29.58 54.6661 29.85 54.4403 30.21V32.12C54.4403 32.54 54.4697 32.58 54.8134 32.58V32.77H53.5564V32.58C53.9001 32.58 53.9198 32.53 53.9198 32.16V30.56C53.9198 30.24 53.9198 29.59 53.3404 29.59C53.0458 29.59 52.7708 29.82 52.4565 30.23V32.12C52.4565 32.54 52.486 32.58 52.8395 32.58V32.77H51.504V32.58C51.9066 32.58 51.9361 32.53 51.9361 32.08V30.26C51.9361 29.82 51.8968 29.78 51.504 29.78V29.62C51.8379 29.56 52.0834 29.48 52.3387 29.3L52.4074 29.35L52.4369 29.88C52.702 29.59 53.0556 29.3 53.468 29.3C54.0376 29.3 54.2733 29.62 54.3617 29.9H54.3813L54.3912 29.89Z" fill="#231F20"/>
<path d="M59.0362 31.04C59.0362 30.13 59.429 29.29 60.578 29.29C61.5993 29.29 62.1198 29.96 62.1198 31.04C62.1198 32.01 61.7859 32.83 60.578 32.83C59.5567 32.83 59.0362 32.22 59.0362 31.04ZM59.5763 31.05C59.5763 32.4 60.1655 32.6 60.578 32.6C61.3931 32.6 61.5797 31.79 61.5797 31.05C61.5797 30.07 61.2654 29.52 60.578 29.52C59.8906 29.52 59.5763 30.05 59.5763 31.05Z" fill="#231F20"/>
<path d="M62.6108 32.5601C63.0821 32.5601 63.1116 32.5101 63.1116 32.0601V29.6201H62.6206V29.3901H63.1116V28.9001C63.1116 27.8201 63.7107 27.5701 64.1526 27.5701C64.6829 27.5701 65.0168 27.9301 65.0168 28.2001C65.0168 28.3601 64.948 28.4401 64.8105 28.4401C64.6338 28.4401 64.5748 28.2801 64.5061 28.1101C64.4374 27.9601 64.3588 27.7901 64.1526 27.7901C63.6812 27.7901 63.6223 28.4601 63.6223 28.9201V29.3801H64.4374V29.6101H63.6223V32.0701C63.6223 32.5301 63.6517 32.5601 64.1722 32.5601V32.7501H62.601V32.5601H62.6108Z" fill="#231F20"/>
<path d="M66.6077 29.6101V29.4401C67.1281 29.4001 67.2853 29.1301 67.4228 28.4301H67.5995V29.3801H68.503V29.6101H67.5995V31.9901C67.5995 32.3901 67.737 32.5701 68.0218 32.5701C68.2182 32.5701 68.3753 32.5001 68.5619 32.3701L68.6699 32.5401C68.4441 32.7401 68.1887 32.8401 67.8745 32.8401C67.4817 32.8401 67.079 32.6801 67.079 32.0301V29.6201H66.5978L66.6077 29.6101Z" fill="#231F20"/>
<path d="M68.9253 32.5601C69.3279 32.5601 69.3574 32.5101 69.3574 32.0601V28.4701C69.3574 28.0701 69.3083 28.0301 68.9253 28.0301V27.8701C69.2788 27.8101 69.5243 27.7301 69.7993 27.5601L69.8779 27.6101V29.9001H69.8877C70.2019 29.5301 70.5849 29.3001 71.0465 29.3001C72.0285 29.3001 72.0285 30.1501 72.0285 30.5401V32.0801C72.0285 32.5201 72.058 32.5701 72.4213 32.5701V32.7601H71.1152V32.5701C71.4786 32.5701 71.508 32.5201 71.508 32.0701V30.5501C71.508 30.0501 71.4786 29.5701 70.8697 29.5701C70.5358 29.5701 70.1921 29.8501 69.868 30.2701V32.0801C69.868 32.5201 69.8975 32.5701 70.2412 32.5701V32.7601H68.9155V32.5701L68.9253 32.5601Z" fill="#231F20"/>
<path d="M74.3166 32.83C73.4132 32.83 72.8043 32.25 72.8043 30.98C72.8043 30.11 73.2757 29.29 74.2381 29.29C75.2594 29.29 75.5933 30.17 75.5933 30.99H73.3543C73.3543 31.44 73.4034 31.82 73.5998 32.13C73.7765 32.41 74.0613 32.57 74.3854 32.57C74.9844 32.57 75.2987 32.15 75.4067 31.92L75.6031 32.02C75.2496 32.68 74.7193 32.82 74.3461 32.82H74.3166V32.83ZM75.063 30.75C75.063 30.33 74.955 29.52 74.2381 29.52C73.9042 29.52 73.3935 29.76 73.3543 30.75H75.063Z" fill="#231F20"/>
<path d="M78.9813 27.77L81.348 32.03H81.3578V28.51C81.3578 28.02 81.3087 27.98 80.8275 27.98V27.77H82.1533V27.98C81.7114 27.98 81.6623 28.02 81.6623 28.51V32.81H81.2498L78.7358 28.32H78.726V32.01C78.726 32.49 78.7751 32.53 79.2366 32.53V32.75H77.9109V32.53C78.3823 32.53 78.4314 32.49 78.4314 32.01V28.51C78.4314 28.01 78.3921 27.98 77.9011 27.98V27.77H78.9813Z" fill="#231F20"/>
<path d="M84.1665 32.83C83.263 32.83 82.6639 32.25 82.6639 30.98C82.6639 30.11 83.1353 29.29 84.0977 29.29C85.119 29.29 85.4529 30.17 85.4529 30.99H83.2139C83.2139 31.44 83.263 31.82 83.4594 32.13C83.6263 32.41 83.9209 32.57 84.245 32.57C84.8441 32.57 85.1583 32.15 85.2663 31.92L85.4628 32.02C85.1092 32.68 84.5789 32.82 84.2057 32.82H84.1763L84.1665 32.83ZM84.9226 30.75C84.9226 30.33 84.8146 29.52 84.0977 29.52C83.7736 29.52 83.263 29.76 83.2139 30.75H84.9226Z" fill="#231F20"/>
<path d="M85.8556 29.6101V29.4401C86.3761 29.4001 86.5332 29.1301 86.6707 28.4301H86.8474V29.3801H87.7411V29.6101H86.8474V31.9901C86.8474 32.3901 86.9849 32.5701 87.2697 32.5701C87.4661 32.5701 87.6233 32.5001 87.8098 32.3701L87.9179 32.5401C87.692 32.7401 87.4367 32.8401 87.1224 32.8401C86.7296 32.8401 86.327 32.6801 86.327 32.0301V29.6201H85.8458L85.8556 29.6101Z" fill="#231F20"/>
<path d="M88.1732 32.5601C88.5758 32.5601 88.6053 32.5101 88.6053 32.0601V28.4701C88.6053 28.0701 88.5562 28.0301 88.1732 28.0301V27.8701C88.5267 27.8101 88.7722 27.7301 89.0472 27.5601L89.116 27.6101V29.9001H89.1258C89.44 29.5301 89.823 29.3001 90.2846 29.3001C91.2666 29.3001 91.2666 30.1501 91.2666 30.5401V32.0801C91.2666 32.5201 91.2961 32.5701 91.6594 32.5701V32.7601H90.3533V32.5701C90.7167 32.5701 90.7461 32.5201 90.7461 32.0701V30.5501C90.7461 30.0501 90.7167 29.5701 90.1078 29.5701C89.7739 29.5701 89.4302 29.8501 89.1061 30.2701V32.0801C89.1061 32.5201 89.1356 32.5701 89.4793 32.5701V32.7601H88.1536V32.5701L88.1732 32.5601Z" fill="#231F20"/>
<path d="M93.5645 32.83C92.6611 32.83 92.062 32.25 92.062 30.98C92.062 30.11 92.5432 29.29 93.4958 29.29C94.5171 29.29 94.851 30.17 94.851 30.99H92.612C92.612 31.44 92.6611 31.82 92.8575 32.13C93.0342 32.41 93.319 32.57 93.6431 32.57C94.2421 32.57 94.5564 32.15 94.6644 31.92L94.851 32.02C94.4975 32.68 93.9672 32.82 93.594 32.82H93.5645V32.83ZM94.3207 30.75C94.3207 30.33 94.2127 29.52 93.4958 29.52C93.1619 29.52 92.6611 29.76 92.612 30.75H94.3207Z" fill="#231F20"/>
<path d="M96.2651 29.86H96.275C96.5892 29.46 96.8249 29.29 97.1588 29.29C97.5221 29.29 97.7284 29.57 97.7284 29.77C97.7284 29.94 97.64 30.03 97.5123 30.03C97.4043 30.03 97.3159 29.96 97.257 29.81C97.1883 29.64 97.1392 29.57 97.0115 29.57C96.7758 29.57 96.5401 29.83 96.275 30.2V32.07C96.275 32.51 96.3044 32.56 96.7856 32.56V32.75H95.3224V32.56C95.7152 32.56 95.7545 32.51 95.7545 32.06V30.23C95.7545 29.81 95.7152 29.76 95.3224 29.76V29.6C95.6563 29.55 95.9018 29.47 96.1571 29.28L96.2259 29.33L96.2553 29.85L96.2651 29.86Z" fill="#231F20"/>
<path d="M98.0132 32.5601C98.4846 32.5601 98.5042 32.5101 98.5042 32.0601V28.4701C98.5042 28.0701 98.4846 28.0301 98.0132 28.0301V27.8701C98.406 27.8101 98.6515 27.7301 98.9559 27.5601L99.0149 27.6101V32.0801C99.0149 32.5201 99.0443 32.5701 99.4862 32.5701V32.7601H98.0132V32.5701V32.5601Z" fill="#231F20"/>
<path d="M101.941 30.2801C101.941 29.7901 101.755 29.5301 101.264 29.5301C100.871 29.5301 100.645 29.72 100.508 30.07C100.468 30.19 100.4 30.25 100.252 30.25C100.105 30.25 100.036 30.1501 100.036 30.0401C100.036 29.7401 100.478 29.3 101.293 29.3C101.961 29.3 102.452 29.5301 102.452 30.3601V32.09C102.452 32.43 102.521 32.59 102.678 32.59C102.756 32.59 102.825 32.5701 102.874 32.5401L102.923 32.71C102.796 32.77 102.668 32.8 102.472 32.8C102.197 32.8 102.049 32.67 101.981 32.42H101.961C101.706 32.67 101.391 32.85 100.9 32.85C100.409 32.85 99.9085 32.57 99.9085 31.98C99.9085 31.64 100.036 31.36 100.37 31.14C100.635 30.96 100.999 30.82 101.499 30.72L101.951 30.6V30.2901L101.941 30.2801ZM101.941 30.82C100.812 31.12 100.439 31.43 100.439 31.89C100.439 32.31 100.694 32.5401 101.116 32.5401C101.49 32.5401 101.755 32.3401 101.941 32.1501V30.82Z" fill="#231F20"/>
<path d="M104.171 29.91C104.485 29.52 104.868 29.28 105.3 29.28C106.036 29.28 106.321 29.7 106.321 30.38V32.06C106.321 32.48 106.36 32.55 106.694 32.55V32.74H105.428V32.55C105.781 32.55 105.811 32.5 105.811 32.05V30.4C105.811 29.77 105.604 29.55 105.162 29.55C104.838 29.55 104.485 29.83 104.18 30.25V32.06C104.18 32.5 104.19 32.55 104.554 32.55V32.74H103.228V32.55C103.63 32.55 103.66 32.51 103.66 32.05V30.23C103.66 29.79 103.621 29.75 103.228 29.75V29.59C103.562 29.53 103.817 29.45 104.063 29.27L104.141 29.32L104.171 29.9H104.18L104.171 29.91Z" fill="#231F20"/>
<path d="M109.474 29.6601V28.4801C109.474 28.0801 109.444 28.0301 109.041 28.0301V27.8701C109.415 27.8201 109.66 27.7301 109.915 27.5601L109.984 27.6001V32.1601C109.984 32.5501 110.043 32.5801 110.377 32.5801V32.7401C110.102 32.7401 109.827 32.7401 109.552 32.8401L109.503 32.8001L109.483 32.4101H109.474C109.316 32.5901 108.982 32.8401 108.491 32.8401C107.942 32.8401 107.097 32.5401 107.097 31.0001C107.097 30.1101 107.549 29.3001 108.57 29.3001C108.992 29.3001 109.287 29.5001 109.454 29.6701H109.464L109.474 29.6601ZM109.474 30.0401C109.297 29.7701 108.992 29.5401 108.658 29.5401C107.716 29.5401 107.647 30.5701 107.647 31.0401C107.647 32.0001 108.05 32.5701 108.609 32.5701C108.982 32.5701 109.287 32.3101 109.464 32.0701V30.0401H109.474Z" fill="#231F20"/>
<path d="M110.937 31.8C111.104 32.43 111.418 32.59 111.889 32.59C112.449 32.59 112.744 32.25 112.744 31.93C112.744 31.77 112.695 31.66 112.596 31.55C112.449 31.4 112.184 31.32 111.821 31.13C111.526 30.95 111.241 30.85 111.055 30.65C110.937 30.5 110.858 30.32 110.858 30.1C110.858 29.67 111.222 29.28 112.056 29.28C112.41 29.28 112.695 29.34 112.94 29.44C112.97 29.63 112.999 29.85 113.058 30.15L112.862 30.19C112.754 29.65 112.547 29.52 112.086 29.52C111.821 29.52 111.349 29.63 111.349 30.02C111.349 30.19 111.477 30.36 111.654 30.48C111.889 30.61 112.263 30.72 112.42 30.82C112.842 31.01 113.274 31.35 113.274 31.82C113.274 32.47 112.655 32.82 111.929 32.82C111.477 32.82 111.163 32.74 110.888 32.61C110.839 32.32 110.789 32.08 110.74 31.85L110.937 31.8Z" fill="#231F20"/>
<path d="M25.3818 1.73999H1.93079V49.51H25.3818V1.73999Z" fill="#174375"/>
<path d="M10.7495 39.5799C10.6906 39.4199 10.5334 39.3099 10.396 39.2499H9.78709V39.5999H9.29607V39.2399H9.43356V39.0599L9.08985 38.8899V38.7299H8.93272V38.8999H8.25512V38.5399H8.56937V37.6399L7.52841 36.9699H7.3811V36.7999H7.54805V36.2699H7.72482V36.0699H8.55955L9.59068 36.7899V36.9299H10.121V37.4799H9.59068V37.9999H9.44338V38.3499H9.6005V38.5299H10.1112V38.3499H10.2781V38.6799H10.612V38.5099H10.7888V38.8799H10.612V39.0099C10.9459 39.2699 10.7298 39.5799 10.7298 39.5799H10.7495Z" fill="white"/>
<path d="M19.9119 36.7899V36.9599H19.7646L18.7334 37.6299V38.5299H19.0379V38.8899H18.3701V38.7199H18.2031V38.8799L17.8594 39.0499V39.2299H18.0067V39.5899H17.5059V39.2299H16.9658C16.8283 39.3099 16.681 39.4099 16.6122 39.5799C16.6122 39.5799 16.4158 39.2999 16.6711 39.0399V38.8799H16.4846V38.5099H16.6711V38.6799H17.005V38.3499H17.172V38.5299H17.6826V38.3499H17.8398V37.9999H17.6925V37.4799H17.1622V36.9299H17.6925V36.7899L18.7138 36.0699H19.5682V36.2699H19.7449V36.7999H19.902L19.9119 36.7899Z" fill="white"/>
<path d="M9.52194 31.42C9.52194 31.42 9.49248 31.42 9.44338 31.41C9.39428 31.41 9.33536 31.41 9.25679 31.41C9.22733 31.41 9.18805 31.41 9.14877 31.41C9.10949 31.41 9.07021 31.41 9.04074 31.41C9.00146 31.42 8.972 31.43 8.93272 31.44C8.89344 31.45 8.85416 31.45 8.81488 31.46C8.7756 31.46 8.73631 31.46 8.70685 31.44C8.67739 31.42 8.63811 31.42 8.60865 31.4C8.57919 31.38 8.54973 31.35 8.52027 31.33C8.49081 31.3 8.47116 31.28 8.45152 31.25C8.45152 31.24 8.43188 31.23 8.42206 31.21H8.76578V31.03L7.72482 30.33H7.06685V30.15H6.69368V30.48H6.01608V30.85H6.19284V31.02H6.53655V31.21H6.01608V32.43H5.67236V32.76H6.1732V33.48H5.84913V33.64H6.69368V33.99H6.52673V34.35H6.71332V34.52H7.21416V34.19H7.56769V34.52H8.4417L8.7756 33.99H9.46302V33.64C9.08985 32.96 8.4417 32.6 8.4417 32.6H7.9114V32.43H7.57751V32.07H7.93104V32.26H8.27476V31.74H7.75428V31.37H8.3926C8.3926 31.37 8.41224 31.41 8.41224 31.43C8.4417 31.47 8.46134 31.51 8.50063 31.55C8.53991 31.59 8.57919 31.63 8.62829 31.66C8.67739 31.69 8.73631 31.72 8.78542 31.73C8.84434 31.75 8.90326 31.76 8.96218 31.77C9.0211 31.77 9.08003 31.78 9.12913 31.77C9.17823 31.76 9.23715 31.75 9.26661 31.73C9.30589 31.71 9.34518 31.68 9.38446 31.66C9.42374 31.64 9.44338 31.61 9.47284 31.58C9.49248 31.55 9.51212 31.53 9.53176 31.51C9.56122 31.47 9.57105 31.44 9.57105 31.44L9.5514 31.41L9.52194 31.42ZM7.8132 31.04C7.68554 31.04 7.57751 30.97 7.57751 30.88C7.57751 30.79 7.68554 30.73 7.8132 30.73C7.94087 30.73 8.04889 30.8 8.04889 30.88C8.04889 30.96 7.94087 31.04 7.8132 31.04Z" fill="white"/>
<path d="M21.6402 32.76V32.43H21.2965V31.21H20.776V31.02H21.1197V30.85H21.2965V30.48H20.6189V30.15H20.2457V30.33H19.5878L18.5468 31.03V31.21H18.8905C18.8905 31.21 18.8709 31.24 18.8611 31.25C18.8414 31.28 18.812 31.3 18.7923 31.33C18.7629 31.35 18.7334 31.38 18.7039 31.4C18.6745 31.42 18.6352 31.43 18.6057 31.44C18.5664 31.44 18.537 31.46 18.4977 31.46C18.4584 31.46 18.4191 31.46 18.3799 31.44C18.3406 31.44 18.3111 31.42 18.2718 31.41C18.2326 31.41 18.2031 31.41 18.1638 31.41C18.1245 31.41 18.0852 31.41 18.0558 31.41C17.987 31.41 17.9183 31.41 17.8692 31.41C17.8201 31.41 17.7906 31.42 17.7906 31.42L17.771 31.45C17.771 31.45 17.7808 31.48 17.8103 31.52C17.8299 31.54 17.8397 31.56 17.8692 31.59C17.8888 31.61 17.9183 31.65 17.9478 31.67C17.987 31.7 18.0165 31.72 18.0656 31.74C18.1049 31.77 18.154 31.77 18.2129 31.78C18.262 31.79 18.3209 31.78 18.3799 31.78C18.4388 31.78 18.4879 31.76 18.5468 31.74C18.6057 31.73 18.6548 31.69 18.7039 31.67C18.753 31.64 18.8021 31.6 18.8316 31.56C18.8709 31.52 18.9003 31.48 18.92 31.44C18.9298 31.42 18.9396 31.4 18.9494 31.38H19.5878V31.75H19.0673V32.27H19.411V32.08H19.7645V32.44H19.4306V32.61H18.9003C18.9003 32.61 18.2522 32.96 17.879 33.65V34H18.5664L18.9003 34.53H19.7743V34.2H20.1082V34.53H20.6189V34.36H20.8055V34H20.6287V33.65H21.4733V33.49H21.1492V32.77H21.65L21.6402 32.76ZM19.4994 31.04C19.3717 31.04 19.2637 30.97 19.2637 30.88C19.2637 30.79 19.3717 30.73 19.4994 30.73C19.627 30.73 19.7351 30.8 19.7351 30.88C19.7351 30.96 19.627 31.04 19.4994 31.04Z" fill="white"/>
<path d="M8.81487 42.02C8.81487 42.02 8.34349 42.23 8.41224 41.33C8.41224 41.33 6.93918 40.12 5.66254 41.49V42.45C5.66254 42.45 6.79188 41.74 8.4417 42.52C9.57104 42.93 9.97367 42.52 9.97367 42.52V41.68C9.97367 41.68 9.19786 41.5 8.81487 42.01V42.02Z" fill="white"/>
<path d="M18.5763 41.68V40.25C18.5763 40.25 18.6745 39.92 13.6661 39.85C8.65773 39.93 8.75594 40.25 8.75594 40.25V41.68C8.75594 41.68 8.80504 41.35 13.6661 41.35C18.5272 41.35 18.5763 41.68 18.5763 41.68Z" fill="white"/>
<path d="M18.9298 41.33C18.9888 42.23 18.5174 42.02 18.5174 42.02C18.1442 41.51 17.3586 41.69 17.3586 41.69V42.53C17.3586 42.53 17.7612 42.94 18.8906 42.53C20.5502 41.75 21.6697 42.46 21.6697 42.46V41.5C20.3931 40.13 18.92 41.34 18.92 41.34L18.9298 41.33Z" fill="white"/>
<path d="M13.8134 27.54V27.56H13.6661C13.7152 27.56 13.7643 27.56 13.8134 27.54Z" fill="white"/>
<path d="M13.6661 27.56H13.5188V27.54C13.5188 27.54 13.617 27.56 13.6661 27.56Z" fill="white"/>
<path d="M13.8134 26.2999V26.54C14.0295 26.61 14.1768 26.81 14.1768 27.04C14.1768 27.27 14.0197 27.47 13.8134 27.54C13.7643 27.55 13.7152 27.5599 13.6661 27.5599C13.617 27.5599 13.5679 27.56 13.5188 27.54C13.3126 27.47 13.1555 27.28 13.1555 27.04C13.1555 26.8 13.3126 26.6 13.5188 26.54V26.2999H12.9885V26H13.5188V25.45H13.8134V26H14.3437V26.2999H13.8134Z" fill="white"/>
<path d="M16.4158 29.06C16.1899 29.53 15.8953 29.85 15.6891 30.05V30.6C13.5482 30.0101 11.6529 30.6 11.6529 30.6V30.1101C11.4369 29.9201 11.103 29.58 10.8476 29.06C10.7003 28.73 10.5629 28.34 10.7985 28.13C11.044 27.91 11.4663 28.1401 11.6431 28.2501C11.7315 28.3101 11.7609 28.4301 11.7118 28.5201C11.6529 28.6101 11.5351 28.6401 11.4369 28.5901C11.3092 28.5101 11.1423 28.4401 11.0637 28.4401C11.0637 28.4901 11.0735 28.61 11.2012 28.88C11.4074 29.31 11.6824 29.6001 11.869 29.7701H12.36V29.6201H12.4091V29.23C12.0752 29 11.702 28.51 11.8002 27.97C11.8199 27.82 11.8886 27.3601 12.2421 27.2701C12.6349 27.1701 13.0376 27.7 13.1161 27.8C13.1751 27.89 13.1652 28.0101 13.0769 28.0801C12.9885 28.1501 12.8706 28.1301 12.8019 28.0401C12.6448 27.8201 12.4189 27.6401 12.3305 27.6601C12.3011 27.6601 12.2323 27.7601 12.1832 28.0301C12.1145 28.4501 12.4778 28.8301 12.6939 28.9401C12.7626 28.9701 12.8019 29.0401 12.8019 29.1201V29.6201H13.4697V29.05L13.0769 28.72L13.3224 28.41L13.6563 28.6901L13.9705 28.3701L14.2455 28.65L13.8527 29.05V29.6101H14.4615V29.1101C14.4615 29.0301 14.5008 28.9701 14.5696 28.9301C14.7856 28.8201 15.149 28.4301 15.0802 28.0201C15.0409 27.7401 14.9624 27.65 14.9329 27.65C14.8543 27.63 14.6187 27.8101 14.4615 28.0301C14.3928 28.1201 14.2749 28.14 14.1866 28.07C14.0982 28 14.0785 27.8801 14.1473 27.7901C14.2258 27.6901 14.6285 27.1701 15.0213 27.2601C15.365 27.3501 15.4337 27.8 15.4632 27.96C15.5516 28.51 15.1882 29 14.8445 29.22V29.6101H14.9722V29.76H15.3846C15.5712 29.59 15.8462 29.3001 16.0524 28.8701C16.1703 28.6001 16.1899 28.4801 16.1899 28.4301C16.1114 28.4301 15.9444 28.5 15.8167 28.58C15.7284 28.64 15.6007 28.6101 15.5516 28.5101C15.4927 28.4201 15.5221 28.3 15.6203 28.24C15.7971 28.13 16.2194 27.9001 16.4649 28.1201C16.6908 28.3301 16.5631 28.7201 16.4158 29.0401V29.06Z" fill="white"/>
<path d="M13.3617 28.02C13.3617 28.19 13.4992 28.33 13.6661 28.33C13.8331 28.33 13.9706 28.19 13.9706 28.02C13.9706 27.85 13.8331 27.71 13.6661 27.71C13.4992 27.71 13.3617 27.85 13.3617 28.02Z" fill="white"/>
<path d="M13.7742 32.5699C13.7054 32.5699 13.6563 32.5999 13.6563 32.6299C13.6563 32.6599 13.7054 32.6899 13.7742 32.6899C13.8429 32.6899 13.892 32.6599 13.892 32.6299C13.892 32.5999 13.8429 32.5699 13.7742 32.5699Z" fill="white"/>
<path d="M6.40885 39.4C6.40885 39.4 6.37939 39.44 6.36957 39.47C6.37939 39.44 6.38921 39.42 6.40885 39.4Z" fill="white"/>
<path d="M6.43833 39.3701C6.43833 39.3701 6.42851 39.3701 6.41869 39.3801C6.41869 39.3801 6.40887 39.3901 6.39905 39.4001C6.37941 39.4201 6.36959 39.4401 6.35977 39.4701C6.34995 39.5001 6.34013 39.5401 6.34013 39.5901L6.02588 39.5401C6.02588 39.5401 6.1339 39.4201 6.22229 39.3401C6.25175 39.3101 6.29103 39.3001 6.32049 39.2801C6.34013 39.2801 6.40887 39.2501 6.48744 39.2701C6.49726 39.2701 6.5169 39.2701 6.52672 39.2701C6.67402 39.3601 6.52672 39.2901 6.42851 39.3601L6.43833 39.3701Z" fill="white"/>
<path d="M23.5257 33.1299V33.2999H22.1705L21.4242 34.0599V34.7699L22.3768 35.8899V36.4099C22.3768 36.4099 21.8465 36.9699 21.2965 36.4099V35.7199L20.5404 34.6699H20.2556C20.2556 34.6699 19.8824 35.0099 19.4012 34.6999H18.7531L18.5468 34.3299H17.879L16.8479 35.0799V32.5399L17.7612 33.3399C18.0362 32.8399 18.4486 32.5999 18.4486 32.5999C17.7121 32.4399 17.1523 31.9699 16.8577 31.6699V31.4599C13.4402 30.5099 10.4843 31.4599 10.4843 31.4599V31.6699C10.4843 31.6699 10.4745 31.6699 10.4647 31.6699C10.1701 31.9699 9.6103 32.4499 8.87377 32.5999C8.87377 32.5999 9.27641 32.8399 9.5612 33.3399L10.4843 32.5299V35.0899L9.44335 34.3299H8.76575L8.55952 34.6999H7.91138C7.43018 35.0099 7.04719 34.6699 7.04719 34.6699H6.7624L6.00623 35.7199V36.4099C5.45629 36.9699 4.92599 36.4099 4.92599 36.4099V35.8899L5.87856 34.7699V34.0599L5.1224 33.2999H3.77701V33.1299H3.44312V33.8199H3.61988V33.9899H4.14036V34.4999H4.31713L4.63138 33.9699H4.82779V33.8099H5.33844V33.9799H5.51521V34.5099L4.46443 35.7399V36.7699H4.81796V37.1299H5.98659L5.51521 37.8099H4.99473V37.6399H4.80814V37.9999H4.97509V39.8999H4.6412V40.2299H4.99473V40.0899H5.32862V40.4399H5.15186V40.6199H5.51521V40.4399H6.50707V40.6199H6.68383V40.0999H7.06683L6.83114 39.7199L6.34994 39.5899C6.34994 39.5899 6.34994 39.4999 6.36958 39.4699C6.36958 39.4399 6.38922 39.4199 6.40886 39.3999C6.40886 39.3999 6.41868 39.3899 6.4285 39.3799C6.4285 39.3799 6.43832 39.3699 6.44814 39.3699C6.55617 39.2999 6.69365 39.3699 6.54635 39.2799C6.53653 39.2799 6.51689 39.2799 6.50707 39.2699C6.4285 39.2599 6.36958 39.2699 6.34012 39.2899C6.31066 39.2999 6.27138 39.3199 6.24192 39.3499C6.14371 39.4299 6.06515 39.5299 6.04551 39.5499H5.68216C5.64287 38.5899 7.26323 38.0199 7.26323 38.0199H7.91138V37.6499H7.74443C6.47761 36.7899 7.79353 35.7199 7.79353 35.7199C9.0309 34.7299 10.062 35.5999 10.4843 36.0699V37.5099L13.6857 39.4399L16.8675 37.5099V36.0599C17.2996 35.5799 18.321 34.7399 19.5387 35.7199C19.5387 35.7199 20.8546 36.7899 19.5878 37.6499H19.4208V38.0199H20.069C20.069 38.0199 21.6992 38.5899 21.6599 39.5499H21.3063C21.3063 39.5499 21.1983 39.4299 21.1099 39.3499C21.0805 39.3199 21.0412 39.3099 21.0117 39.2899C20.9921 39.2899 20.9233 39.2599 20.8448 39.2799C20.835 39.2799 20.8153 39.2799 20.8055 39.2899C20.6582 39.3799 20.8055 39.3099 20.9037 39.3799C20.9037 39.3799 20.9135 39.3799 20.9233 39.3899C20.9233 39.3899 20.9332 39.3999 20.943 39.4099C20.9626 39.4299 20.9724 39.4499 20.9823 39.4799C20.9921 39.5099 21.0019 39.5499 21.0019 39.5999L20.5207 39.7299L20.285 40.1099H20.668V40.6399H20.8448V40.4599H21.8366V40.6399H22.2098V40.4599H22.033V40.1099H22.3571V40.2499H22.7107V39.9199H22.3768V38.0199H22.5437V37.6599H22.3571V37.8299H21.8366L21.3653 37.1499H22.5339V36.7899H22.8874V35.7599L21.8366 34.5299V33.9999H22.0134V33.8299H22.5241V33.9899H22.7205L23.0347 34.5199H23.2017V34.0099H23.7221V33.8399H23.8989V33.1499H23.565L23.5257 33.1299ZM15.5025 32.4399H15.8953V33.6499H15.5025V32.4399ZM13.3813 32.5999C13.3813 32.5999 13.4893 32.4799 13.6956 32.4499L14.0687 32.4399V32.2599C14.0687 32.2599 14.3241 31.8599 14.7463 32.2599V34.1699H14.4026V34.5199H13.5483V34.3599L13.0474 34.2599C13.0474 34.2599 12.8216 33.8499 13.725 33.8199L14.0491 33.6599V33.2999H13.725V33.1199H13.8822V32.9199H13.3813V32.5999ZM13.4795 33.2199C13.4795 33.2799 13.4304 33.3199 13.3813 33.3199H12.8707C12.8216 33.3199 12.7725 33.2799 12.7725 33.2199C12.7725 33.1599 12.8216 33.1199 12.8707 33.1199H13.3813C13.4304 33.1199 13.4795 33.1599 13.4795 33.2199ZM11.3976 31.5499H11.7511V32.6299H11.3976V31.5499ZM11.378 33.9099L12.9099 31.8399C12.959 31.7699 13.0474 31.7599 13.1162 31.8099C13.1849 31.8599 13.1947 31.9499 13.1456 32.0199L11.9966 33.5799C11.9966 33.5799 12.0261 33.5799 12.0359 33.5799C12.3011 33.5599 12.5564 33.6699 12.8117 33.8999C12.8707 33.9599 12.8805 34.0499 12.8117 34.1099C12.7626 34.1699 12.6644 34.1699 12.6055 34.1099C12.4189 33.9399 12.2323 33.8599 12.0556 33.8699C11.7904 33.8899 11.6137 34.0899 11.6137 34.0999C11.5842 34.1399 11.5449 34.1499 11.4958 34.1499C11.4663 34.1499 11.4271 34.1399 11.4074 34.1199C11.3485 34.0699 11.3289 33.9799 11.378 33.9199V33.9099ZM13.018 36.9199C13.018 37.0099 12.9787 37.3699 12.6251 37.5399C12.6251 37.5399 12.6251 37.5399 12.6153 37.5399C12.0556 37.7499 11.9868 37.1099 11.9868 37.1099C12.1047 37.2199 12.2029 37.2399 12.3011 37.2299C12.5564 37.1399 12.6251 36.9199 12.6448 36.7699C12.6448 36.7699 12.6448 36.7599 12.6448 36.7499C12.6448 36.7399 12.6448 36.7199 12.6448 36.7099C12.6448 36.6699 12.6448 36.6399 12.6448 36.6099C12.6251 36.2799 12.4975 36.2399 12.4975 36.2399H12.5171C12.5171 36.2399 12.6742 35.5699 13.2144 35.5299H13.6759V36.2399H13.0278V36.8999L13.018 36.9199ZM13.9902 38.6999H13.5974V37.4899H13.9902V38.6999ZM16.1899 34.4799C16.1212 34.5599 16.0525 34.6099 15.9739 34.6499C15.915 34.7399 15.8855 34.8299 15.8855 34.8299C15.8069 34.7399 15.7284 34.6999 15.6793 34.6699C15.6695 34.6699 15.6596 34.6699 15.6498 34.6699C15.64 34.6699 15.6302 34.6699 15.6204 34.6699C15.5025 34.6199 15.4043 34.5499 15.3454 34.4999C15.1293 34.6299 15.0999 34.6999 15.0999 34.7199C15.0999 34.7699 15.1883 34.8499 15.2668 34.9199C15.4436 35.0699 15.6793 35.2799 15.6105 35.6399C15.6105 35.6499 15.6105 35.6599 15.6105 35.6599C15.4239 36.0399 15.1293 36.1499 14.874 36.1499C14.8151 36.1499 14.7562 36.1399 14.6972 36.1299V36.4599C14.6972 36.4599 16.023 37.0299 15.3061 37.6799C15.3061 37.6799 15.0704 37.8099 14.7463 37.8399C14.7463 37.8399 15.915 37.0799 14.5205 36.8499C14.5205 36.8499 14.0982 36.7999 14.108 36.1099V35.4899C14.108 35.4899 14.0393 35.4299 14 35.3999C13.9214 35.3499 13.8429 35.2999 13.7643 35.2399C13.6857 35.1899 13.5875 35.1599 13.509 35.1199C13.4599 35.0999 13.4206 35.0999 13.3715 35.0799C13.3224 35.0599 13.2831 35.0499 13.234 35.0599H13.0867C13.0867 35.0599 12.9885 35.0599 12.9394 35.0599C12.851 35.0599 12.7528 35.0999 12.6644 35.1299C12.576 35.1699 12.4877 35.1999 12.4091 35.2399C12.3305 35.2799 12.252 35.3299 12.1832 35.3599C12.1636 35.3699 12.144 35.3899 12.1243 35.3999C12.1931 35.4799 12.2716 35.5899 12.3207 35.7299C12.3502 35.8099 12.3207 35.8899 12.2422 35.9299C12.2225 35.9299 12.2029 35.9399 12.1832 35.9399C12.1243 35.9399 12.0752 35.8999 12.0457 35.8499C11.8886 35.4699 11.6431 35.4299 11.6333 35.4299C11.5744 35.4299 11.5351 35.3899 11.5154 35.3299C11.4958 35.2799 11.5154 35.2199 11.5449 35.1799L12.0065 34.6599C12.0556 34.5999 12.1538 34.5899 12.2127 34.6499C12.2716 34.6999 12.2716 34.7999 12.2225 34.8599L11.9083 35.2199C11.9083 35.2199 11.9672 35.2599 11.9966 35.2799C12.0163 35.2599 12.0359 35.2299 12.0654 35.2099C12.1243 35.1499 12.1931 35.0799 12.2814 35.0199C12.36 34.9599 12.4582 34.8999 12.5564 34.8499C12.6055 34.8199 12.6644 34.7999 12.7234 34.7799C12.7823 34.7599 12.8314 34.7399 12.9001 34.7299C12.959 34.7299 13.0278 34.7099 13.0867 34.6999H13.2733C13.342 34.6999 13.401 34.7299 13.4599 34.7399C13.5188 34.7599 13.5777 34.7699 13.6366 34.7899C13.6857 34.8199 13.7348 34.8399 13.7741 34.8699H14.4321C14.4321 34.8699 14.4616 35.4799 14.8642 35.9199C15.0508 35.9199 15.2865 35.8599 15.4436 35.5499C15.4829 35.3199 15.3257 35.1799 15.1686 35.0399C15.041 34.9299 14.9133 34.8199 14.9329 34.6699C14.9526 34.5299 15.0704 34.4099 15.3454 34.2599C15.3847 34.2399 15.4338 34.2499 15.4632 34.2799C15.4632 34.2799 15.6596 34.4999 15.8659 34.4799C15.9837 34.4599 16.0917 34.3699 16.1801 34.1999C16.2096 34.1499 16.2685 34.1299 16.3078 34.1599C16.3471 34.1799 16.3569 34.2199 16.3569 34.2699C16.3569 34.2699 16.3569 34.3999 16.2292 34.4799H16.1899Z" fill="white"/>
<path d="M6.68387 40.11H7.06686L6.83117 39.72L6.34998 39.59" fill="white"/>
</g>
<defs>
<clipPath id="clip0_2586_361">
<rect width="114.751" height="51.25" fill="white" transform="translate(0.222046)"/>
</clipPath>
</defs>
</svg>
