<svg width="88" height="49" viewBox="0 0 88 49" fill="none" xmlns="http://www.w3.org/2000/svg">
<path d="M38.2601 14.8043C38.2601 14.8577 38.2569 14.9096 38.2553 14.963H33.2026C32.7477 14.963 32.3056 14.7476 32.0645 14.3574C31.8748 14.0481 31.8699 13.8537 31.8555 13.2675C31.8973 11.9509 32.3667 11.0262 33.2669 10.4967C33.6865 10.2489 34.1688 10.1307 34.6543 10.1161C37.2827 10.0287 38.4852 11.5914 38.2601 14.8043Z" fill="#FF6600"/>
<path d="M42.465 20.8931C42.5181 20.8931 42.5695 20.8964 42.6226 20.898V25.9862C42.6226 26.4444 42.4088 26.8914 42.0214 27.1327C41.7143 27.3254 41.5214 27.3303 40.9394 27.3432C39.6309 27.3027 38.7145 26.8282 38.1888 25.923C37.9429 25.5003 37.8255 25.0145 37.8111 24.5255C37.7243 21.8777 39.2756 20.6664 42.465 20.8931Z" fill="#FF6600"/>
<path d="M39.3694 16.498H42.6232V19.5474C38.8743 19.2543 36.8407 20.5449 36.5224 23.4161C36.3906 24.6096 36.6124 25.8306 37.2619 26.8379C38.2506 28.3731 39.8453 28.9496 42.0429 28.5674C42.6875 28.4541 43.2936 28.1464 43.7115 27.6379C43.7148 27.633 43.7196 27.6266 43.7244 27.6217C44.0073 27.2703 44.1472 26.8233 44.1472 26.3715V21.1716C44.7211 21.3724 45.2034 21.6834 45.5908 22.1028C45.75 22.2744 45.832 22.506 45.832 22.7392V31.2637C45.8062 31.2686 45.7821 31.2735 45.7564 31.2767C41.0124 32.0087 35.9967 30.5334 32.3427 26.8525C30.3123 24.8072 28.9587 22.3408 28.2803 19.7304H36.1334C36.4211 19.7304 36.7089 19.7012 36.9838 19.6203C38.1879 19.264 38.982 18.2243 39.3694 16.498Z" fill="#FF6600"/>
<path d="M42.6214 11.6852V14.9629H39.5959C39.8853 11.1865 38.6056 9.13792 35.7538 8.81728C34.5706 8.68449 33.3585 8.90797 32.3585 9.56221C30.8346 10.5581 30.2622 12.1646 30.6416 14.3783C30.7526 15.0277 31.0596 15.6382 31.5644 16.0592C31.5692 16.0625 31.574 16.0673 31.5805 16.0722C31.9277 16.3572 32.373 16.4981 32.8215 16.4981H37.9835C37.7826 17.0762 37.4755 17.562 37.0575 17.9523C36.8871 18.1126 36.6589 18.1952 36.4258 18.1952H27.9618C27.957 18.1693 27.9521 18.1418 27.9489 18.1159C27.2255 13.337 28.69 8.28612 32.3425 4.60684C34.3729 2.56154 36.8244 1.19638 39.4143 0.516235V8.42701C39.4143 8.71526 39.4416 9.00513 39.5236 9.28205C39.8756 10.495 40.9093 11.295 42.6214 11.6852Z" fill="#FF6600"/>
<path d="M44.304 10.5678C44.251 10.5678 44.1995 10.5645 44.1465 10.5629V5.47315C44.1465 5.01486 44.3603 4.56952 44.7461 4.32661C45.0532 4.13552 45.2477 4.13066 45.828 4.11609C47.1366 4.15819 48.0545 4.63106 48.5802 5.53792C48.8246 5.96059 48.9419 6.44641 48.958 6.93546C49.0432 9.58318 47.4919 10.7945 44.304 10.5678Z" fill="#FF6600"/>
<path d="M58.4876 11.7306H50.6345C50.3483 11.7306 50.0606 11.7597 49.7841 11.8407C48.5816 12.1953 47.7858 13.2366 47.3984 14.9613H44.1462V11.9136C47.8952 12.205 49.9288 10.916 50.2455 8.04319C50.3773 6.85131 50.1554 5.63028 49.5076 4.62301C48.5173 3.08782 46.9242 2.51132 44.7266 2.8935C44.082 3.00523 43.4743 3.31454 43.0579 3.82303C43.0531 3.82789 43.0483 3.83275 43.0451 3.83923C42.7605 4.18902 42.6206 4.63759 42.6206 5.0894V10.2893C42.0467 10.0869 41.5645 9.77757 41.1786 9.35652C41.0195 9.18486 40.9375 8.95491 40.9375 8.7201V0.195576C40.9632 0.190718 40.9873 0.185859 41.0131 0.18262C45.7571 -0.550968 50.7727 0.925925 54.4268 4.60682C56.4556 6.65212 57.8124 9.12171 58.4876 11.7306Z" fill="#FF6600"/>
<path d="M48.51 16.6567C48.51 16.6033 48.5132 16.5515 48.5148 16.498H53.5659C54.0208 16.498 54.4645 16.7134 54.7041 17.1021C54.8954 17.4114 54.9002 17.6073 54.9131 18.1919C54.8729 19.5101 54.4018 20.4348 53.5032 20.9644C53.0836 21.2105 52.6013 21.3287 52.1158 21.3449C49.4874 21.4307 48.2849 19.868 48.51 16.6567Z" fill="#FF6600"/>
<path d="M54.427 26.8526C52.3966 28.8963 49.9451 30.2631 47.3552 30.9432V23.0341C47.3552 22.7458 47.3263 22.456 47.2459 22.1774C46.8923 20.9661 45.8602 20.1645 44.1465 19.7742V16.4982H47.1736C46.8826 20.2746 48.1639 22.3232 51.0141 22.6422C52.1989 22.775 53.411 22.5531 54.4094 21.8989C55.935 20.9013 56.5073 19.2965 56.1279 17.0828C56.0153 16.4334 55.7099 15.8213 55.2051 15.4019C55.2003 15.397 55.1939 15.3921 55.189 15.3889C54.8402 15.1023 54.3965 14.9614 53.948 14.9614H48.786C48.9853 14.3833 49.294 13.8974 49.7104 13.5088C49.8808 13.3485 50.1107 13.2659 50.3421 13.2659H58.8061C58.8109 13.2918 58.8158 13.3161 58.819 13.342C59.5456 18.1208 58.0811 23.1717 54.427 26.8526Z" fill="#FF6600"/>
<path d="M1.11334 38.4089C1.24288 38.4089 1.34983 38.367 1.43539 38.2844C1.51976 38.2006 1.56254 38.0941 1.56254 37.9636C1.56254 37.8331 1.51976 37.7194 1.43539 37.6332C1.35102 37.5482 1.24406 37.5051 1.11334 37.5051C0.982625 37.5051 0.870919 37.5482 0.785357 37.6332C0.700984 37.7182 0.658203 37.8283 0.658203 37.9636C0.658203 38.0989 0.699796 38.2018 0.785357 38.2844C0.869731 38.367 0.97906 38.4089 1.11334 38.4089Z" fill="#898989"/>
<path d="M2.13971 38.4089C2.26924 38.4089 2.3762 38.367 2.45819 38.2844C2.54019 38.2006 2.58178 38.0941 2.58178 37.9636C2.58178 37.8331 2.54019 37.7194 2.45819 37.6332C2.37501 37.5482 2.26924 37.5051 2.13971 37.5051C2.01018 37.5051 1.89729 37.5482 1.81172 37.6332C1.72735 37.7182 1.68457 37.8283 1.68457 37.9636C1.68457 38.0989 1.72616 38.2018 1.81172 38.2844C1.8961 38.367 2.00543 38.4089 2.13971 38.4089Z" fill="#898989"/>
<path d="M0.518124 41.9092C0.679741 42.0325 0.863937 42.1235 1.07309 42.1821C1.28105 42.242 1.49971 42.2707 1.72787 42.2707C1.93584 42.2707 2.14499 42.2456 2.35295 42.1965C2.48961 42.1642 2.62152 42.1199 2.74748 42.066C2.84255 42.1725 2.95188 42.2635 3.07785 42.3365C3.31433 42.4718 3.59716 42.5388 3.92753 42.5388H4.4706C4.80097 42.5352 5.08261 42.4658 5.31672 42.3305C5.39515 42.2851 5.46645 42.23 5.533 42.1713C5.60192 42.2324 5.67441 42.2898 5.75641 42.3365C5.99289 42.4718 6.27572 42.5388 6.60608 42.5388H8.74751V39.4192H7.72077V41.3394H6.60608C6.45635 41.3394 6.34108 41.325 6.26146 41.2951C6.18065 41.2651 6.12599 41.2149 6.09628 41.143C6.06657 41.0712 6.05231 40.9707 6.05231 40.8402V39.4192H5.02557V40.8402C5.02557 40.9707 5.01012 41.0724 4.97803 41.143C4.94595 41.2149 4.89128 41.2651 4.81285 41.2951C4.73442 41.325 4.62034 41.3394 4.4706 41.3394H3.92753C3.77779 41.3394 3.66252 41.325 3.5829 41.2951C3.50209 41.2651 3.44743 41.2149 3.41772 41.143C3.38801 41.0712 3.37375 40.9707 3.37375 40.8402V38.92H2.34701V39.114C2.03685 39.1259 1.74451 39.1654 1.47356 39.2349C1.17885 39.3103 0.920978 39.418 0.701131 39.5593C0.481285 39.6993 0.308973 39.8765 0.185384 40.0884C0.0617947 40.3003 0 40.5433 0 40.8162C0 41.058 0.046346 41.2699 0.139038 41.4519C0.23173 41.6338 0.357696 41.7871 0.519313 41.9092H0.518124ZM1.11943 40.5385C1.18242 40.4535 1.2763 40.3805 1.39989 40.3182C1.52348 40.2572 1.67321 40.2093 1.8479 40.1758C1.99644 40.1471 2.16281 40.1303 2.34582 40.1231V40.839C2.34582 40.9383 2.35176 41.0341 2.36246 41.1263C2.28046 41.161 2.19609 41.1909 2.11052 41.2137C1.98812 41.246 1.8574 41.2615 1.7148 41.2615C1.56507 41.2615 1.43791 41.2448 1.33453 41.2113C1.22995 41.1778 1.15271 41.1275 1.10161 41.0592C1.05051 40.9922 1.02437 40.9132 1.02437 40.821C1.02437 40.7181 1.05526 40.6235 1.11825 40.5385H1.11943Z" fill="#898989"/>
<path d="M4.95408 43.068C4.82455 43.068 4.7176 43.1099 4.63204 43.1961C4.54766 43.2811 4.50488 43.3888 4.50488 43.5205C4.50488 43.6522 4.54648 43.7587 4.63204 43.8449C4.71641 43.9299 4.82336 43.973 4.95408 43.973C5.0848 43.973 5.19175 43.9299 5.2785 43.8449C5.36525 43.7599 5.40804 43.6522 5.40804 43.5205C5.40804 43.3888 5.36525 43.2823 5.2785 43.1961C5.19175 43.1111 5.08361 43.068 4.95408 43.068Z" fill="#898989"/>
<path d="M5.65938 43.1949C5.57501 43.2799 5.53223 43.3876 5.53223 43.5193C5.53223 43.651 5.57501 43.7575 5.65938 43.8437C5.74375 43.9299 5.85071 43.9718 5.98143 43.9718C6.11215 43.9718 6.21791 43.9287 6.30347 43.8437C6.38784 43.7587 6.43063 43.651 6.43063 43.5193C6.43063 43.3876 6.38784 43.2811 6.30347 43.1949C6.2191 43.1087 6.11215 43.0668 5.98143 43.0668C5.85071 43.0668 5.74494 43.1087 5.65938 43.1949Z" fill="#898989"/>
<path d="M8.23384 38.7645C8.40259 38.7645 8.53925 38.7106 8.64382 38.604C8.7484 38.4975 8.80069 38.3598 8.80069 38.1934C8.80069 38.0271 8.7484 37.8906 8.64382 37.7828C8.53925 37.6763 8.40259 37.6224 8.23384 37.6224C8.06509 37.6224 7.93318 37.6763 7.82623 37.7828C7.72047 37.8894 7.66699 38.0271 7.66699 38.1934C7.66699 38.3598 7.72047 38.4963 7.82623 38.604C7.932 38.7106 8.06866 38.7645 8.23384 38.7645Z" fill="#898989"/>
<path d="M16.3751 42.381C16.4524 42.3391 16.5237 42.2864 16.5902 42.2266C16.6413 42.2661 16.6948 42.3032 16.753 42.3355C16.9895 42.4708 17.2723 42.5378 17.6027 42.5378H19.7501V39.4182H18.7233V41.3383H17.6027C17.453 41.3383 17.3389 41.324 17.2605 41.2941C17.182 41.2641 17.1262 41.2139 17.0953 41.142C17.0632 41.0702 17.0477 40.9696 17.0477 40.8392V39.4182H16.021V40.8392C16.021 41.0211 15.9711 41.1576 15.8701 41.2462C15.7703 41.3348 15.6562 41.3802 15.5314 41.3802C15.4138 41.3802 15.3032 41.3383 15.201 41.2522C15.1511 41.2103 15.1131 41.16 15.087 41.0989C15.087 41.0834 15.0893 41.069 15.0893 41.0522V39.7091H14.0626V40.838C14.0626 41.0199 14.0127 41.1564 13.9117 41.245C13.8118 41.3336 13.6978 41.3791 13.573 41.3791C13.4553 41.3791 13.3448 41.3372 13.2426 41.251C13.1749 41.1947 13.1297 41.1205 13.1036 41.0307C13.1083 40.9673 13.1119 40.905 13.1119 40.838V40H12.0911V40.838C12.0911 40.9684 12.0757 41.0702 12.0436 41.1408C12.0115 41.2127 11.9568 41.2629 11.8784 41.2929C11.8 41.3228 11.6835 41.3372 11.5302 41.3372H10.5629V37.2838H9.53613V42.5378H11.5302C11.8641 42.5378 12.1481 42.4708 12.3823 42.3355C12.5308 42.2505 12.6544 42.138 12.759 42.0039C12.879 42.1751 13.0216 42.3068 13.1903 42.3918C13.3805 42.4887 13.5801 42.5378 13.7893 42.5378C14.0091 42.5378 14.2183 42.4852 14.4143 42.3798C14.551 42.3068 14.6687 42.205 14.7709 42.077C14.8778 42.2134 15.0038 42.3188 15.1487 42.3918C15.3389 42.4887 15.5385 42.5378 15.7477 42.5378C15.9675 42.5378 16.1767 42.4852 16.3728 42.3798L16.3751 42.381Z" fill="#898989"/>
<path d="M19.2368 38.7645C19.4055 38.7645 19.5422 38.7106 19.6468 38.604C19.7513 38.4975 19.8036 38.3598 19.8036 38.1934C19.8036 38.0271 19.7513 37.8906 19.6468 37.7828C19.5422 37.6763 19.4055 37.6224 19.2368 37.6224C19.068 37.6224 18.9361 37.6763 18.8292 37.7828C18.7234 37.8894 18.6699 38.0271 18.6699 38.1934C18.6699 38.3598 18.7234 38.4963 18.8292 38.604C18.9349 38.7106 19.0716 38.7645 19.2368 38.7645Z" fill="#898989"/>
<path d="M22.4056 42.5389H23.5083H24.5351V41.3383V37.2849H23.5083V41.3383H22.4056V38.8723H21.3788V41.3383H20.541V42.5389H21.3788H22.4056Z" fill="#898989"/>
<path d="M21.8007 43.9802C21.7116 43.9347 21.6676 43.8856 21.6676 43.8341C21.6676 43.7791 21.7116 43.7276 21.8007 43.6821C21.8886 43.6366 22.0075 43.6139 22.1572 43.6139C22.2047 43.6139 22.2558 43.6175 22.3105 43.6259C22.3652 43.6342 22.4163 43.6414 22.4638 43.6498L22.6825 43.1746C22.5957 43.1267 22.5042 43.092 22.408 43.0704C22.3117 43.0489 22.2119 43.0381 22.1097 43.0381C21.9445 43.0381 21.79 43.0692 21.6462 43.1303C21.5024 43.1913 21.3872 43.2787 21.298 43.3912C21.2089 43.5038 21.1649 43.6378 21.1649 43.7923C21.1649 43.888 21.1863 43.9718 21.222 44.0472H21.0176V44.629H22.7692V44.0472H22.162C22.0087 44.0472 21.8875 44.0245 21.7995 43.979L21.8007 43.9802Z" fill="#898989"/>
<path d="M26.4115 37.2849H25.3848V42.5389H26.4115V37.2849Z" fill="#898989"/>
<path d="M40.275 42.5389H42.8941V39.4192H41.8674V41.3394H40.275V41.0006C40.275 40.7277 40.2346 40.4679 40.1537 40.2225C40.0729 39.9771 39.9517 39.758 39.7913 39.5653C39.6297 39.3726 39.4265 39.2217 39.1805 39.1104C38.9345 38.9991 38.6422 38.944 38.3047 38.944C37.9672 38.944 37.6938 38.9943 37.4407 39.096C37.1876 39.1966 36.9666 39.3331 36.78 39.503C36.5934 39.673 36.4366 39.8658 36.3106 40.08C36.1846 40.2943 36.0812 40.517 36.0004 40.7492C35.9422 40.9168 35.9006 41.0784 35.8673 41.2388C35.8376 41.2125 35.8151 41.1814 35.7996 41.1442C35.7699 41.0724 35.7556 40.9719 35.7556 40.8414V39.7125H34.7289V40.8414C34.7289 40.9719 34.7134 41.0736 34.6814 41.1442C34.6493 41.2161 34.5946 41.2664 34.5162 41.2963C34.4377 41.3262 34.3237 41.3406 34.1739 41.3406H33.6427C33.4894 41.3406 33.373 41.3262 33.2945 41.2963C33.2161 41.2664 33.1603 41.2161 33.1294 41.1442C33.0973 41.0724 33.0818 40.9719 33.0818 40.8414V37.2872H32.061V41.1562C32.061 41.4687 32.0111 41.732 31.9101 41.9439C31.8103 42.1558 31.6677 42.3138 31.4823 42.4191C31.2969 42.5245 31.0771 42.576 30.8216 42.576C30.5661 42.576 30.3581 42.5221 30.187 42.4156C30.0159 42.309 29.8899 42.1498 29.8091 41.9403C29.7283 41.7308 29.6879 41.4711 29.6879 41.1622C29.6879 41.0593 29.6914 40.9527 29.6998 40.8414C29.7081 40.7301 29.7235 40.6199 29.7473 40.5086L28.7562 40.3183C28.7241 40.4607 28.7015 40.6032 28.6849 40.7456C28.6695 40.8881 28.6611 41.0365 28.6611 41.1909C28.6611 41.6111 28.7206 41.9822 28.8406 42.3054C28.9606 42.6286 29.1234 42.9004 29.3278 43.123C29.5322 43.3445 29.7675 43.5121 30.0325 43.6246C30.2975 43.7371 30.5744 43.7946 30.862 43.7946C31.1496 43.7946 31.4312 43.7371 31.6962 43.6222C31.9612 43.5073 32.1989 43.3373 32.4068 43.1147C32.5958 42.9111 32.7467 42.6634 32.8632 42.3749C33.0818 42.4838 33.3397 42.5412 33.6392 42.5412H34.1704C34.5007 42.5412 34.7824 42.4742 35.0165 42.3389C35.1436 42.2659 35.2541 42.1737 35.3492 42.0648C35.4253 42.1737 35.5144 42.2659 35.6178 42.3389C35.8079 42.4742 36.0373 42.5412 36.3047 42.5412H40.269L40.275 42.5389ZM36.7527 41.3382C36.8204 41.155 36.9083 40.9874 37.0189 40.839C37.1365 40.681 37.2708 40.5481 37.4205 40.4404C37.5703 40.3338 37.7271 40.25 37.8923 40.1902C38.0575 40.1303 38.2191 40.1016 38.376 40.1016C38.5447 40.1016 38.6956 40.1339 38.8275 40.1997C38.9594 40.2656 39.0628 40.3637 39.1377 40.4966C39.2126 40.6295 39.2494 40.7971 39.2494 40.9994V41.3382H36.7527Z" fill="#898989"/>
<path d="M42.9063 38.8841C43.0358 38.8841 43.1428 38.8422 43.2248 38.7597C43.308 38.6759 43.3484 38.5693 43.3484 38.4388C43.3484 38.3083 43.3068 38.1946 43.2248 38.1084C43.1428 38.0234 43.0358 37.9803 42.9063 37.9803C42.7768 37.9803 42.6639 38.0234 42.5783 38.1084C42.4928 38.1934 42.4512 38.3036 42.4512 38.4388C42.4512 38.5741 42.494 38.6771 42.5783 38.7597C42.6627 38.8434 42.772 38.8841 42.9063 38.8841Z" fill="#898989"/>
<path d="M41.8799 38.8841C42.0095 38.8841 42.1164 38.8422 42.202 38.7597C42.2864 38.6759 42.3291 38.5693 42.3291 38.4388C42.3291 38.3083 42.2864 38.1946 42.202 38.1084C42.1176 38.0234 42.0107 37.9803 41.8799 37.9803C41.7492 37.9803 41.6375 38.0234 41.552 38.1084C41.4676 38.1934 41.4248 38.3036 41.4248 38.4388C41.4248 38.5741 41.4664 38.6771 41.552 38.7597C41.6363 38.8434 41.7457 38.8841 41.8799 38.8841Z" fill="#898989"/>
<path d="M45.7556 43.1206C45.96 43.3421 46.1953 43.5097 46.4603 43.6222C46.7253 43.7347 47.0022 43.7922 47.2898 43.7922C47.5774 43.7922 47.859 43.7347 48.124 43.6198C48.389 43.5049 48.6267 43.3349 48.8347 43.1122C49.0236 42.9087 49.1745 42.6609 49.291 42.3724C49.5096 42.4814 49.7675 42.5388 50.067 42.5388H50.5982C50.9285 42.5388 51.2102 42.4718 51.4443 42.3365C51.5714 42.2635 51.682 42.1713 51.777 42.0624C51.8531 42.1713 51.9422 42.2635 52.0456 42.3365C52.2357 42.4718 52.4651 42.5388 52.7325 42.5388H56.6968V40.9994C56.6968 40.7264 56.6564 40.4667 56.5756 40.2213C56.4948 39.9759 56.3736 39.7568 56.2132 39.5641C56.0516 39.3713 55.8483 39.2205 55.6024 39.1092C55.3564 38.9978 55.064 38.9428 54.7265 38.9428C54.389 38.9428 54.1157 38.9931 53.8626 39.0948C53.6095 39.1966 53.3884 39.3318 53.2019 39.5018C53.0153 39.6718 52.8584 39.8645 52.7325 40.0788C52.6065 40.2931 52.5031 40.5158 52.4223 40.748C52.3641 40.9156 52.3225 41.0772 52.2892 41.2376C52.2595 41.2113 52.2369 41.1801 52.2215 41.143C52.1918 41.0712 52.1775 40.9706 52.1775 40.8402V39.7113H51.1508V40.8402C51.1508 40.9706 51.1353 41.0724 51.1032 41.143C51.0711 41.2149 51.0165 41.2651 50.938 41.2951C50.8596 41.325 50.7455 41.3393 50.5958 41.3393H50.0646C49.9113 41.3393 49.7948 41.325 49.7164 41.2951C49.638 41.2651 49.5821 41.2149 49.5512 41.143C49.5192 41.0712 49.5037 40.9706 49.5037 40.8402V37.286H48.4829V41.155C48.4829 41.4674 48.433 41.7308 48.332 41.9427C48.2322 42.1546 48.0896 42.3126 47.9042 42.4179C47.7188 42.5233 47.4989 42.5747 47.2434 42.5747C46.9879 42.5747 46.78 42.5209 46.6089 42.4143C46.4377 42.3078 46.3118 42.1486 46.231 41.9391C46.1502 41.7296 46.1097 41.4698 46.1097 41.161C46.1097 41.058 46.1133 40.9515 46.1216 40.8402C46.13 40.7288 46.1454 40.6187 46.1692 40.5074L45.1781 40.317C45.146 40.4595 45.1234 40.6019 45.1068 40.7444C45.0913 40.8869 45.083 41.0353 45.083 41.1897C45.083 41.6099 45.1424 41.981 45.2625 42.3042C45.3825 42.6274 45.5453 42.8992 45.7497 43.1218L45.7556 43.1206ZM53.4431 40.839C53.5608 40.681 53.695 40.5481 53.8448 40.4403C53.9945 40.3338 54.1514 40.25 54.3166 40.1901C54.4817 40.1303 54.6434 40.1016 54.8002 40.1016C54.969 40.1016 55.1199 40.1339 55.2518 40.1997C55.3837 40.2656 55.4871 40.3637 55.562 40.4966C55.6368 40.6295 55.6737 40.7971 55.6737 40.9994V41.3382H53.1769C53.2447 41.155 53.3326 40.9874 53.4431 40.839Z" fill="#898989"/>
<path d="M58.9889 39.2816C58.7452 39.2816 58.5183 39.3235 58.3079 39.4061C58.0976 39.4899 57.9122 39.6048 57.753 39.7533C57.5937 39.9017 57.469 40.0753 57.3786 40.2728C57.2883 40.4715 57.2432 40.6882 57.2432 40.9264C57.2432 41.2197 57.3145 41.4878 57.4583 41.7321C57.602 41.9763 57.8029 42.1714 58.0631 42.3174C58.3222 42.4647 58.63 42.5377 58.9829 42.5377H59.2539V42.6035C59.2539 42.7496 59.2016 42.8645 59.097 42.9459C58.9924 43.0273 58.7987 43.068 58.5159 43.068H57.507V44.2687H58.5159C58.8736 44.2687 59.1849 44.2016 59.4476 44.0664C59.7114 43.9311 59.9146 43.7396 60.0584 43.4894C60.2022 43.2404 60.2735 42.9447 60.2735 42.6035V39.6084C60.1 39.5294 59.9015 39.4552 59.6781 39.3858C59.4535 39.3163 59.2242 39.2816 58.9877 39.2816H58.9889ZM58.9829 41.4448C58.8261 41.4448 58.6941 41.4196 58.5872 41.3705C58.4814 41.3215 58.4018 41.2568 58.3483 41.1778C58.2949 41.0988 58.2687 41.0174 58.2687 40.9336C58.2687 40.8426 58.2984 40.754 58.3567 40.669C58.4161 40.584 58.4981 40.5134 58.605 40.4584C58.7108 40.4033 58.8391 40.3746 58.9889 40.3746C59.0732 40.3746 59.1612 40.3865 59.2539 40.4093V41.4448H58.9829Z" fill="#898989"/>
<path d="M64.5577 38.4089C64.6872 38.4089 64.7942 38.367 64.8762 38.2844C64.9582 38.2006 64.9997 38.0941 64.9997 37.9636C64.9997 37.8331 64.9582 37.7194 64.8762 37.6332C64.7942 37.5482 64.6872 37.5051 64.5577 37.5051C64.4282 37.5051 64.3153 37.5482 64.2297 37.6332C64.1441 37.7182 64.1025 37.8283 64.1025 37.9636C64.1025 38.0989 64.1453 38.2018 64.2297 38.2844C64.3141 38.367 64.4234 38.4089 64.5577 38.4089Z" fill="#898989"/>
<path d="M63.5313 38.4089C63.6608 38.4089 63.7678 38.367 63.8534 38.2844C63.9377 38.2006 63.9805 38.0941 63.9805 37.9636C63.9805 37.8331 63.9377 37.7194 63.8534 37.6332C63.769 37.5482 63.662 37.5051 63.5313 37.5051C63.4006 37.5051 63.2889 37.5482 63.2033 37.6332C63.119 37.7182 63.0762 37.8283 63.0762 37.9636C63.0762 38.0989 63.1178 38.2018 63.2033 38.2844C63.2877 38.367 63.397 38.4089 63.5313 38.4089Z" fill="#898989"/>
<path d="M78.8162 41.8937C78.9422 41.6734 79.0052 41.3933 79.0052 41.0533V39.4193H77.9784V40.8402C77.9784 41.0222 77.9285 41.1587 77.8275 41.2473C77.7277 41.3358 77.6136 41.3813 77.4888 41.3813C77.3712 41.3813 77.2606 41.3394 77.1584 41.2532C77.1085 41.2113 77.0705 41.1611 77.0444 41.1C77.0444 41.0845 77.0467 41.0701 77.0467 41.0533V39.7102H76.02V40.839C76.02 41.021 75.9701 41.1575 75.8691 41.2461C75.7693 41.3346 75.6552 41.3801 75.5304 41.3801C75.4127 41.3801 75.3022 41.3382 75.2 41.252C75.1323 41.1958 75.0883 41.1216 75.061 41.0318C75.0658 40.9683 75.0693 40.9061 75.0693 40.839V40.0011H74.0485V40.839C74.0485 40.9695 74.0331 41.0713 74.001 41.1419C73.9689 41.2137 73.9142 41.264 73.8358 41.2939C73.7574 41.3239 73.6409 41.3382 73.4876 41.3382H72.9505C72.8007 41.3382 72.6867 41.3239 72.6082 41.2939C72.5298 41.264 72.4739 41.2137 72.443 41.1419C72.411 41.0701 72.3955 40.9695 72.3955 40.839V39.4181H71.3688V40.839C71.3688 41.021 71.3189 41.1575 71.2178 41.2461C71.118 41.3346 71.0039 41.3801 70.878 41.3801C70.7603 41.3801 70.6498 41.3382 70.5476 41.252C70.4977 41.2101 70.4597 41.1599 70.4335 41.0988C70.4335 41.0833 70.4359 41.0689 70.4359 41.0521V39.709H69.4092V40.8379C69.4092 41.0198 69.3593 41.1563 69.2582 41.2449C69.1584 41.3334 69.0443 41.3789 68.9196 41.3789C68.8019 41.3789 68.6914 41.337 68.5892 41.2508C68.5215 41.1946 68.4763 41.1204 68.4502 41.0306C68.4549 40.9671 68.4585 40.9049 68.4585 40.8379V39.9999H67.4377V40.8379C67.4377 40.9683 67.4222 41.0701 67.3901 41.1407C67.3581 41.2113 67.3034 41.2628 67.225 41.2927C67.1465 41.3227 67.0301 41.337 66.8768 41.337H66.3396C66.1899 41.337 66.0746 41.3227 65.995 41.2927C65.9154 41.2628 65.8595 41.2125 65.8298 41.1407C65.8001 41.0689 65.7859 40.9683 65.7859 40.8379V38.9177H64.7591V39.1117C64.449 39.1236 64.1566 39.1631 63.8857 39.2326C63.591 39.308 63.3331 39.4157 63.1132 39.557C62.8934 39.697 62.7211 39.8742 62.5975 40.0861C62.4739 40.298 62.4121 40.541 62.4121 40.8139C62.4121 41.0557 62.4585 41.2676 62.5511 41.4496C62.6438 41.6315 62.7698 41.7847 62.9314 41.9069C63.093 42.0302 63.2772 42.1211 63.4864 42.1798C63.6943 42.2396 63.913 42.2684 64.1412 42.2684C64.3491 42.2684 64.5583 42.2432 64.7662 42.1942C64.9029 42.1618 65.0348 42.1175 65.1608 42.0637C65.2559 42.1702 65.3652 42.2612 65.4911 42.3342C65.7276 42.4695 66.0105 42.5365 66.3408 42.5365H66.878C67.2119 42.5365 67.4959 42.4695 67.73 42.3342C67.8786 42.2492 68.0021 42.1367 68.1067 42.0026C68.2267 42.1738 68.3693 42.3055 68.5381 42.3905C68.7282 42.4874 68.9279 42.5365 69.137 42.5365C69.3569 42.5365 69.566 42.4838 69.7621 42.3785C69.8988 42.3055 70.0164 42.2037 70.1186 42.0756C70.2256 42.2121 70.3515 42.3175 70.4965 42.3905C70.6866 42.4874 70.8863 42.5365 71.0954 42.5365C71.3153 42.5365 71.5244 42.4838 71.7205 42.3785C71.7978 42.3366 71.8691 42.2839 71.9356 42.2241C71.9867 42.2636 72.0402 42.3007 72.0984 42.333C72.3349 42.4683 72.6177 42.5353 72.9481 42.5353H73.4852C73.8192 42.5353 74.1032 42.4683 74.3373 42.333C74.4858 42.248 74.6094 42.1355 74.714 42.0014C74.834 42.1726 74.9766 42.3043 75.1454 42.3893C75.3355 42.4862 75.5352 42.5353 75.7443 42.5353C75.9641 42.5353 76.1733 42.4827 76.3694 42.3773C76.506 42.3043 76.6237 42.2025 76.7259 42.0744C76.8328 42.2109 76.9588 42.3163 77.1038 42.3893C77.2951 42.4862 77.4936 42.5353 77.7027 42.5353C77.9226 42.5353 78.1317 42.4827 78.3278 42.3773C78.5239 42.272 78.6855 42.1104 78.8115 41.8901L78.8162 41.8937ZM64.5274 41.2137C64.405 41.2461 64.2743 41.2616 64.1317 41.2616C63.9819 41.2616 63.8548 41.2449 63.7514 41.2113C63.6468 41.1778 63.5696 41.1275 63.5185 41.0593C63.4674 40.9923 63.4412 40.9133 63.4412 40.8211C63.4412 40.7181 63.4733 40.6236 63.5351 40.5386C63.5981 40.4536 63.692 40.3806 63.8156 40.3183C63.9391 40.2573 64.0889 40.2094 64.2636 40.1759C64.4121 40.1471 64.5785 40.1304 64.7615 40.1232V40.839C64.7615 40.9384 64.7674 41.0342 64.7781 41.1264C64.6961 41.1611 64.6118 41.191 64.5262 41.2137H64.5274Z" fill="#898989"/>
<path d="M81.9726 38.0103H81.3653C81.212 38.0103 81.0908 37.9876 81.0029 37.9421C80.9149 37.8966 80.8698 37.8475 80.8698 37.7961C80.8698 37.741 80.9137 37.6907 81.0029 37.644C81.0908 37.5985 81.2108 37.5758 81.3594 37.5758C81.4069 37.5758 81.458 37.5794 81.5127 37.5878C81.5673 37.5961 81.6184 37.6033 81.666 37.6117L81.8846 37.1365C81.7979 37.0886 81.7064 37.0539 81.6101 37.0323C81.5139 37.0108 81.414 37 81.3118 37C81.1466 37 80.9922 37.0311 80.8484 37.0922C80.7046 37.1532 80.5893 37.2406 80.5002 37.3531C80.4111 37.4657 80.3671 37.5997 80.3671 37.7542C80.3671 37.8499 80.3885 37.9337 80.4241 38.0091H80.2197V38.5909H81.9714V38.0091L81.9726 38.0103Z" fill="#898989"/>
<path d="M86.1892 42.7196C86.4863 42.7496 86.8368 42.7519 87.2421 42.728C87.3407 42.5137 87.4167 42.2791 87.4726 42.0241C87.5273 41.7691 87.5558 41.5261 87.5558 41.2963C87.5558 41.0234 87.5237 40.7708 87.4583 40.5409C87.393 40.3111 87.2991 40.1124 87.1755 39.9436C87.0519 39.7748 86.901 39.6431 86.7239 39.5485C86.5469 39.454 86.346 39.4061 86.1226 39.4061C85.8992 39.4061 85.6912 39.4444 85.5118 39.5186C85.3324 39.594 85.1707 39.6934 85.0246 39.8191C84.8796 39.9436 84.7477 40.0801 84.6288 40.2261C84.51 40.3721 84.4007 40.517 84.2985 40.6594C84.188 40.8222 84.0846 40.9539 83.9859 41.0545C83.8873 41.155 83.7827 41.2281 83.6698 41.2712C83.5581 41.3142 83.4227 41.337 83.2658 41.337H82.5813V39.6072C82.4078 39.5282 82.2094 39.454 81.9859 39.3845C81.7613 39.3151 81.532 39.2804 81.2955 39.2804C81.059 39.2804 80.8249 39.3223 80.6146 39.4049C80.4042 39.4887 80.2189 39.6036 80.0596 39.752C79.9004 39.9005 79.7756 40.0741 79.6853 40.2716C79.595 40.4703 79.5498 40.687 79.5498 40.9252C79.5498 41.2185 79.6211 41.4866 79.7649 41.7308C79.9087 41.975 80.1095 42.1702 80.3698 42.3162C80.6288 42.4635 80.9366 42.5365 81.2896 42.5365H81.5605V42.6023C81.5605 42.7484 81.5082 42.8633 81.4036 42.9447C81.2991 43.0261 81.1054 43.0668 80.8225 43.0668H79.8136V44.2675H80.8225C81.1802 44.2675 81.4916 44.2004 81.7542 44.0652C82.018 43.9299 82.2212 43.7383 82.365 43.4882C82.5088 43.2392 82.5801 42.9435 82.5801 42.6023V42.5365H83.2646C83.5356 42.5365 83.7744 42.4958 83.9812 42.4144C84.1797 42.3366 84.3674 42.2157 84.5445 42.0552C84.6324 42.1319 84.7215 42.2037 84.8166 42.2683C84.9901 42.3868 85.1874 42.4838 85.4096 42.5592C85.6318 42.6346 85.8909 42.6873 86.188 42.7172L86.1892 42.7196ZM81.2896 41.4447C81.1327 41.4447 81.0008 41.4196 80.8938 41.3705C80.7881 41.3214 80.7085 41.2568 80.655 41.1778C80.6015 41.0988 80.5754 41.0174 80.5754 40.9336C80.5754 40.8426 80.6051 40.754 80.6645 40.669C80.7239 40.584 80.8059 40.5134 80.9129 40.4583C81.0186 40.4033 81.147 40.3745 81.2967 40.3745C81.3811 40.3745 81.469 40.3865 81.5617 40.4092V41.4447H81.2908H81.2896ZM85.8113 40.675C85.9158 40.6175 86.0133 40.5888 86.1036 40.5888C86.2367 40.5888 86.3413 40.6451 86.4161 40.7588C86.491 40.8713 86.5278 41.0509 86.5278 41.2963C86.5278 41.3801 86.5219 41.4651 86.5112 41.5489C86.4019 41.5489 86.2949 41.5489 86.1975 41.5465C85.9182 41.5381 85.6817 41.5046 85.4868 41.4423C85.374 41.4064 85.2718 41.3573 85.1814 41.2963C85.286 41.1538 85.3882 41.0317 85.4845 40.9348C85.5985 40.8199 85.7079 40.7337 85.8125 40.6762L85.8113 40.675Z" fill="#898989"/>
<path d="M4.20709 45.7327L3.65926 47.8958L3.10311 45.7327H2.20709L1.6545 47.897L1.09954 45.7327H0.119141L1.15658 48.8499H2.09657L2.63371 46.8531L3.15658 48.8499H4.10133L5.14827 45.7327H4.20709Z" fill="#898989"/>
<path d="M6.24771 46.3947C6.12412 46.3947 5.99815 46.403 5.86981 46.421C5.74147 46.4389 5.61312 46.4665 5.48359 46.506C5.35406 46.5443 5.22334 46.591 5.09024 46.6436L5.31128 47.2398C5.44319 47.1835 5.57272 47.1404 5.69987 47.1105C5.82584 47.0806 5.93873 47.0662 6.03499 47.0662C6.17046 47.0662 6.27385 47.095 6.34396 47.1512C6.41408 47.2075 6.44973 47.2865 6.44973 47.387V47.3954H5.86268C5.56202 47.399 5.33267 47.4625 5.17343 47.5893C5.01419 47.715 4.93457 47.8958 4.93457 48.1292C4.93457 48.2801 4.96666 48.4129 5.03202 48.5279C5.09619 48.6416 5.18888 48.7314 5.31009 48.7948C5.4313 48.8583 5.57628 48.8906 5.74741 48.8906C5.95299 48.8906 6.12531 48.8451 6.26434 48.7553C6.33802 48.7074 6.39863 48.6488 6.44973 48.5805V48.8511H7.32436V47.2805C7.32436 46.9992 7.22929 46.7813 7.03915 46.6269C6.84902 46.4725 6.5852 46.3959 6.24652 46.3959L6.24771 46.3947ZM6.35822 48.1855C6.31663 48.2226 6.27029 48.2513 6.21681 48.2729C6.16333 48.2944 6.10629 48.304 6.0445 48.304C5.95894 48.304 5.89239 48.2825 5.84604 48.2394C5.79851 48.1963 5.77593 48.1376 5.77593 48.0634C5.77593 47.9892 5.79851 47.9293 5.84485 47.8922C5.89001 47.8551 5.95775 47.8371 6.04569 47.8371H6.4521V48.055C6.4319 48.1053 6.401 48.1496 6.35941 48.1867L6.35822 48.1855Z" fill="#898989"/>
<path d="M8.57185 47.0243C8.60513 47.0051 8.64909 46.9955 8.70257 46.9955C8.79645 46.9955 8.91053 47.0171 9.04482 47.0602C9.1791 47.1033 9.32646 47.1667 9.48808 47.2493L9.78398 46.6843C9.62236 46.5861 9.45124 46.5131 9.2718 46.464C9.09235 46.4149 8.91172 46.391 8.72872 46.391C8.52551 46.391 8.34725 46.4233 8.19395 46.4892C8.04066 46.555 7.92063 46.646 7.83388 46.7645C7.74713 46.883 7.70316 47.0278 7.70316 47.2002C7.70316 47.3367 7.73287 47.4492 7.7911 47.5378C7.84933 47.6264 7.92538 47.6994 8.01808 47.7557C8.11077 47.8119 8.21059 47.8574 8.31635 47.8909C8.42212 47.9257 8.52194 47.9544 8.61463 47.9771C8.70732 48.0011 8.78338 48.0274 8.84161 48.0573C8.89984 48.0873 8.92955 48.1244 8.92955 48.1687C8.92955 48.1926 8.92123 48.213 8.90578 48.2285C8.89033 48.2441 8.86656 48.2573 8.83686 48.2668C8.80715 48.2752 8.7715 48.28 8.73109 48.28C8.598 48.28 8.45777 48.2549 8.30922 48.2046C8.16068 48.1543 8.01095 48.0801 7.86121 47.9819L7.58789 48.5469C7.74357 48.6595 7.91825 48.7445 8.11077 48.8031C8.30328 48.8606 8.50649 48.8893 8.71802 48.8893C8.92955 48.8893 9.11018 48.857 9.26823 48.7912C9.42509 48.7253 9.54987 48.6343 9.639 48.5158C9.72812 48.3973 9.77328 48.2549 9.77328 48.0885C9.77328 47.9496 9.74357 47.8347 9.68297 47.7461C9.62236 47.6575 9.54512 47.5833 9.44886 47.5258C9.3526 47.4684 9.25278 47.4229 9.14702 47.3906C9.04125 47.3582 8.94024 47.3283 8.84517 47.302C8.74892 47.2756 8.67167 47.2481 8.61107 47.2194C8.55046 47.1906 8.52075 47.1547 8.52075 47.1104C8.52075 47.0721 8.53739 47.0434 8.57185 47.0231V47.0243Z" fill="#898989"/>
<path d="M11.952 46.5802C11.7607 46.4605 11.5242 46.4006 11.2414 46.4006C10.9883 46.4006 10.7672 46.4521 10.5771 46.5563C10.387 46.6604 10.2396 46.8053 10.1338 46.992C10.0281 47.1787 9.97461 47.3978 9.97461 47.6504C9.97461 47.903 10.0269 48.1125 10.1315 48.298C10.236 48.4836 10.3846 48.6272 10.5771 48.729C10.7696 48.8307 11.0002 48.8822 11.2675 48.8822C11.4945 48.8822 11.6977 48.8439 11.8795 48.7685C12.0602 48.6931 12.2123 48.5853 12.3371 48.4465L11.8736 47.988C11.7144 48.1424 11.5385 48.219 11.3436 48.219C11.2438 48.219 11.1558 48.1951 11.081 48.146C11.0061 48.0969 10.9467 48.0263 10.9039 47.9353C10.8932 47.9126 10.8885 47.885 10.8801 47.8599H12.4916C12.5094 47.563 12.4714 47.3056 12.3787 47.0878C12.286 46.8699 12.1434 46.7011 11.952 46.5802ZM10.8576 47.4182C10.8659 47.3763 10.8742 47.3356 10.8885 47.2985C10.9205 47.2099 10.9669 47.1392 11.0275 47.0878C11.0881 47.0363 11.1618 47.01 11.2509 47.01C11.3246 47.01 11.3888 47.0267 11.4446 47.0614C11.5005 47.0961 11.5432 47.1428 11.573 47.2039C11.6027 47.2649 11.6157 47.3368 11.6122 47.4194H10.8576V47.4182Z" fill="#898989"/>
<path d="M13.7636 45.5508H12.8711V48.8512H13.7636V45.5508Z" fill="#898989"/>
<path d="M17.9965 45.7327H15.2764V46.4713H16.1724V48.8499H17.0957V46.4713H17.9965V45.7327Z" fill="#898989"/>
<path d="M19.2145 46.3947C19.0909 46.3947 18.9649 46.403 18.8366 46.421C18.7083 46.4389 18.5799 46.4665 18.4504 46.506C18.3209 46.5443 18.1901 46.591 18.057 46.6436L18.2781 47.2398C18.41 47.1835 18.5395 47.1404 18.6667 47.1105C18.7926 47.0806 18.9055 47.0662 19.0018 47.0662C19.1373 47.0662 19.2406 47.095 19.3108 47.1512C19.3809 47.2075 19.4165 47.2865 19.4165 47.387V47.3954H18.8295C18.5288 47.399 18.2995 47.4625 18.1402 47.5893C17.981 47.715 17.9014 47.8958 17.9014 48.1292C17.9014 48.2801 17.9335 48.4129 17.9988 48.5279C18.063 48.6416 18.1557 48.7314 18.2769 48.7948C18.3981 48.8583 18.5431 48.8906 18.7142 48.8906C18.9198 48.8906 19.0921 48.8451 19.2311 48.7553C19.3048 48.7074 19.3654 48.6488 19.4165 48.5805V48.8511H20.2912V47.2805C20.2912 46.9992 20.1961 46.7813 20.0059 46.6269C19.8158 46.4725 19.552 46.3959 19.2133 46.3959L19.2145 46.3947ZM19.325 48.1855C19.2834 48.2226 19.2371 48.2513 19.1836 48.2729C19.1301 48.2944 19.0731 48.304 19.0113 48.304C18.9257 48.304 18.8592 48.2825 18.8128 48.2394C18.7653 48.1963 18.7427 48.1376 18.7427 48.0634C18.7427 47.9892 18.7653 47.9293 18.8117 47.8922C18.8568 47.8551 18.9245 47.8371 19.0125 47.8371H19.4189V48.055C19.3987 48.1053 19.3678 48.1496 19.3262 48.1867L19.325 48.1855Z" fill="#898989"/>
<path d="M21.5386 47.0243C21.5719 47.0051 21.6159 46.9955 21.6694 46.9955C21.7632 46.9955 21.8773 47.0171 22.0116 47.0602C22.1459 47.1033 22.2933 47.1667 22.4549 47.2493L22.7508 46.6843C22.5892 46.5861 22.418 46.5131 22.2386 46.464C22.0591 46.4149 21.8785 46.391 21.6955 46.391C21.4923 46.391 21.314 46.4233 21.1607 46.4892C21.0075 46.555 20.8874 46.646 20.8007 46.7645C20.7139 46.883 20.67 47.0278 20.67 47.2002C20.67 47.3367 20.6997 47.4492 20.7579 47.5378C20.8173 47.6264 20.8922 47.6994 20.9849 47.7557C21.0776 47.8119 21.1774 47.8574 21.2832 47.8909C21.3889 47.9257 21.4887 47.9544 21.5814 47.9771C21.6741 48.0011 21.7502 48.0274 21.8084 48.0573C21.8666 48.0873 21.8963 48.1244 21.8963 48.1687C21.8963 48.1926 21.888 48.213 21.8726 48.2285C21.8559 48.2453 21.8334 48.2573 21.8037 48.2668C21.7739 48.2752 21.7383 48.28 21.6979 48.28C21.566 48.28 21.4246 48.2549 21.276 48.2046C21.1275 48.1543 20.9777 48.0801 20.828 47.9819L20.5547 48.5469C20.7104 48.6595 20.8851 48.7445 21.0776 48.8031C21.2701 48.8606 21.4733 48.8893 21.6848 48.8893C21.8963 48.8893 22.077 48.857 22.235 48.7912C22.3931 48.7253 22.5167 48.6343 22.6058 48.5158C22.6961 48.3973 22.7401 48.2549 22.7401 48.0885C22.7401 47.9496 22.7104 47.8347 22.6498 47.7461C22.5892 47.6575 22.5119 47.5833 22.4157 47.5258C22.3194 47.4684 22.2196 47.4229 22.1126 47.3906C22.0057 47.3582 21.9059 47.3283 21.8108 47.302C21.7145 47.2756 21.6373 47.2481 21.5767 47.2194C21.5161 47.1906 21.4864 47.1547 21.4864 47.1104C21.4864 47.0721 21.503 47.0434 21.5375 47.0231L21.5386 47.0243Z" fill="#898989"/>
<path d="M24.9188 46.5802C24.7275 46.4605 24.491 46.4006 24.2082 46.4006C23.9551 46.4006 23.734 46.4521 23.5439 46.5563C23.3538 46.6604 23.2064 46.8053 23.1006 46.992C22.9949 47.1787 22.9414 47.3978 22.9414 47.6504C22.9414 47.903 22.9937 48.1125 23.0983 48.298C23.2028 48.4836 23.3514 48.6272 23.5439 48.729C23.7364 48.8307 23.967 48.8822 24.2343 48.8822C24.4613 48.8822 24.6645 48.8439 24.8463 48.7685C25.027 48.6931 25.1791 48.5853 25.3039 48.4465L24.8404 47.988C24.6812 48.1424 24.5053 48.219 24.3104 48.219C24.2106 48.219 24.1226 48.1951 24.0478 48.146C23.9729 48.0969 23.9135 48.0263 23.8707 47.9353C23.86 47.9126 23.8553 47.885 23.8469 47.8599H25.4583C25.4762 47.563 25.4381 47.3056 25.3455 47.0878C25.2528 46.8699 25.1102 46.7011 24.9188 46.5802ZM23.8244 47.4182C23.8327 47.3763 23.841 47.3356 23.8553 47.2985C23.8873 47.2099 23.9337 47.1392 23.9943 47.0878C24.0549 47.0363 24.1286 47.01 24.2177 47.01C24.2914 47.01 24.3556 47.0267 24.4126 47.0614C24.4684 47.0961 24.5112 47.1428 24.5409 47.2039C24.5706 47.2649 24.5837 47.3368 24.5802 47.4194H23.8255L23.8244 47.4182Z" fill="#898989"/>
<path d="M26.7303 45.5508H25.8379V48.8512H26.7303V45.5508Z" fill="#898989"/>
<path d="M30.4954 46.9776H29.3961V45.7327H28.4775V48.8499H29.3961V47.6899H30.4954V48.8499H31.414V45.7327H30.4954V46.9776Z" fill="#898989"/>
<path d="M33.4634 47.6276C33.4634 47.7665 33.4301 47.8802 33.3636 47.9652C33.297 48.0514 33.2067 48.0957 33.0915 48.0981C32.994 48.0981 32.9168 48.0634 32.8573 47.9939C32.7979 47.9245 32.7694 47.8299 32.7694 47.7114V46.4305H31.877V47.9652C31.877 48.152 31.9126 48.3148 31.9827 48.4524C32.0528 48.5901 32.1527 48.6978 32.281 48.7744C32.4093 48.8511 32.5567 48.8906 32.7243 48.8906C32.918 48.8906 33.0855 48.8403 33.2257 48.7397C33.3184 48.6727 33.3969 48.5841 33.4622 48.4788V48.8511H34.3547V46.4317H33.4622V47.6276H33.4634Z" fill="#898989"/>
<path d="M38.5832 46.506C38.4549 46.4318 38.3063 46.3947 38.1352 46.3947C37.9379 46.3947 37.768 46.4437 37.6254 46.5419C37.497 46.6305 37.396 46.7574 37.3212 46.9202C37.3093 46.8879 37.2962 46.8567 37.2808 46.8268C37.2083 46.6879 37.1084 46.5802 36.9801 46.506C36.8518 46.4318 36.702 46.3947 36.5321 46.3947C36.3372 46.3947 36.1696 46.4437 36.027 46.5419C35.932 46.6077 35.8523 46.6951 35.787 46.8017V46.4306H34.8945V48.8499H35.787V47.654C35.787 47.5151 35.8215 47.4014 35.8904 47.3164C35.9593 47.2302 36.052 47.1859 36.1661 47.1835C36.2659 47.1835 36.3467 47.2183 36.4061 47.2877C36.4667 47.3571 36.4964 47.4529 36.4964 47.575V48.8511H37.3889V47.6552C37.3889 47.5163 37.4222 47.4026 37.4899 47.3176C37.5576 47.2314 37.6491 47.1871 37.7632 47.1847C37.8631 47.1847 37.9439 47.2194 38.0033 47.2889C38.0639 47.3583 38.0936 47.4541 38.0936 47.5762V48.8523H38.986V47.3176C38.986 47.1309 38.9504 46.9681 38.8803 46.828C38.8102 46.6891 38.7104 46.5814 38.582 46.5072L38.5832 46.506Z" fill="#898989"/>
<path d="M40.5895 46.3947C40.4659 46.3947 40.3399 46.403 40.2116 46.421C40.0833 46.4389 39.9549 46.4665 39.8254 46.506C39.6959 46.5443 39.5651 46.591 39.432 46.6436L39.6531 47.2398C39.7862 47.1835 39.9157 47.1404 40.0417 47.1105C40.1676 47.0806 40.2805 47.0662 40.3768 47.0662C40.5123 47.0662 40.6156 47.095 40.6858 47.1512C40.7559 47.2075 40.7915 47.2865 40.7915 47.387V47.3954H40.2045C39.9038 47.399 39.6745 47.4625 39.5152 47.5893C39.356 47.715 39.2764 47.8958 39.2764 48.1292C39.2764 48.2801 39.3085 48.4129 39.3738 48.5279C39.438 48.6416 39.5307 48.7314 39.6519 48.7948C39.7731 48.8583 39.9181 48.8906 40.0892 48.8906C40.2948 48.8906 40.4671 48.8451 40.6061 48.7553C40.6798 48.7074 40.7404 48.6488 40.7915 48.5805V48.8511H41.6662V47.2805C41.6662 46.9992 41.5711 46.7813 41.3809 46.6269C41.1908 46.4725 40.927 46.3959 40.5883 46.3959L40.5895 46.3947ZM40.7 48.1855C40.6584 48.2226 40.6121 48.2513 40.5586 48.2729C40.5051 48.2944 40.4481 48.304 40.3863 48.304C40.3007 48.304 40.2342 48.2825 40.1878 48.2394C40.1403 48.1963 40.1165 48.1376 40.1165 48.0634C40.1165 47.9892 40.1391 47.9293 40.1855 47.8922C40.2306 47.8551 40.2984 47.8371 40.3863 47.8371H40.7927V48.055C40.7725 48.1053 40.7416 48.1496 40.7 48.1867V48.1855Z" fill="#898989"/>
<path d="M44.248 46.506C44.1173 46.4318 43.9664 46.3947 43.7952 46.3947C43.5944 46.3947 43.4233 46.4437 43.2783 46.5419C43.1797 46.6089 43.0989 46.6987 43.0311 46.8076V46.4306H42.1387V48.8499H43.0311V47.654C43.0311 47.5151 43.0668 47.4014 43.1369 47.3164C43.207 47.2314 43.3033 47.1859 43.4245 47.1835C43.5279 47.1835 43.611 47.2183 43.674 47.2877C43.737 47.3571 43.7691 47.4529 43.7691 47.575V48.8511H44.6616V47.3164C44.6616 47.1297 44.6259 46.9669 44.5534 46.8268C44.4809 46.6879 44.3799 46.5802 44.2492 46.506H44.248Z" fill="#898989"/>
<path d="M45.5839 45.2789C45.452 45.2789 45.3415 45.3232 45.2547 45.4106C45.168 45.498 45.124 45.6081 45.124 45.7422C45.124 45.8763 45.1668 45.99 45.2547 46.0762C45.3415 46.1624 45.4508 46.2055 45.5839 46.2055C45.717 46.2055 45.8299 46.1624 45.9155 46.0762C46.001 45.99 46.0438 45.8787 46.0438 45.7422C46.0438 45.6057 46.001 45.498 45.9155 45.4106C45.8299 45.3232 45.7194 45.2789 45.5839 45.2789Z" fill="#898989"/>
<path d="M46.0262 46.4305H45.1338V48.8499H46.0262V46.4305Z" fill="#898989"/>
<path d="M47.8976 48.1675C47.8501 48.1807 47.8097 48.1878 47.774 48.1878C47.7122 48.1878 47.6623 48.1687 47.6255 48.1304C47.5886 48.0921 47.5708 48.0346 47.5708 47.9568V47.1296H48.1626V46.5562H47.5708V45.8846H46.6831V46.5562H46.3516V47.1296H46.6831V48.0945C46.6831 48.2609 46.7188 48.4033 46.7913 48.5242C46.8637 48.6439 46.9636 48.7361 47.0919 48.7984C47.2203 48.8606 47.3688 48.8917 47.5399 48.8917C47.6635 48.8917 47.7847 48.8774 47.9047 48.8498C48.0236 48.8211 48.1246 48.784 48.2078 48.7361L48.0485 48.1172C47.9951 48.1376 47.9451 48.1555 47.8988 48.1687L47.8976 48.1675Z" fill="#898989"/>
<path d="M49.6764 46.3947C49.5528 46.3947 49.4269 46.403 49.2985 46.421C49.1702 46.4389 49.0418 46.4665 48.9123 46.506C48.7828 46.5443 48.6521 46.591 48.519 46.6436L48.74 47.2398C48.8731 47.1835 49.0026 47.1404 49.1286 47.1105C49.2546 47.0806 49.3674 47.0662 49.4637 47.0662C49.5992 47.0662 49.7026 47.095 49.7727 47.1512C49.8428 47.2075 49.8784 47.2865 49.8784 47.387V47.3954H49.2914C48.9907 47.399 48.7614 47.4625 48.6021 47.5893C48.4429 47.715 48.3633 47.8958 48.3633 48.1292C48.3633 48.2801 48.3954 48.4129 48.4607 48.5279C48.5249 48.6416 48.6176 48.7314 48.7388 48.7948C48.86 48.8583 49.005 48.8906 49.1761 48.8906C49.3817 48.8906 49.554 48.8451 49.6931 48.7553C49.7667 48.7074 49.8273 48.6488 49.8784 48.5805V48.8511H50.7531V47.2805C50.7531 46.9992 50.658 46.7813 50.4679 46.6269C50.2777 46.4725 50.0139 46.3959 49.6752 46.3959L49.6764 46.3947ZM49.7869 48.1855C49.7453 48.2226 49.699 48.2513 49.6455 48.2729C49.592 48.2944 49.535 48.304 49.4732 48.304C49.3876 48.304 49.3211 48.2825 49.2748 48.2394C49.2272 48.1963 49.2035 48.1376 49.2035 48.0634C49.2035 47.9892 49.226 47.9293 49.2724 47.8922C49.3175 47.8551 49.3853 47.8371 49.4732 47.8371H49.8796V48.055C49.8594 48.1053 49.8285 48.1496 49.7869 48.1867V48.1855Z" fill="#898989"/>
<path d="M52.1178 46.816V46.4306H51.2266V48.8499H52.1178V47.6935C52.1178 47.575 52.1487 47.4768 52.2105 47.3978C52.2723 47.3188 52.3603 47.2625 52.4731 47.2266C52.586 47.1907 52.7191 47.1835 52.8724 47.2039V46.3947C52.6775 46.3947 52.5088 46.4449 52.365 46.5455C52.2664 46.6137 52.1856 46.7047 52.1178 46.8148V46.816Z" fill="#898989"/>
<path d="M54.079 46.4305H53.1865V48.8499H54.079V46.4305Z" fill="#898989"/>
<path d="M53.6367 45.2789C53.5047 45.2789 53.3942 45.3232 53.3075 45.4106C53.2207 45.498 53.1768 45.6081 53.1768 45.7422C53.1768 45.8763 53.2195 45.99 53.3075 46.0762C53.3942 46.1624 53.5036 46.2055 53.6367 46.2055C53.7697 46.2055 53.8826 46.1624 53.9682 46.0762C54.0538 45.99 54.0965 45.8787 54.0965 45.7422C54.0965 45.6057 54.0538 45.498 53.9682 45.4106C53.8826 45.3232 53.7721 45.2789 53.6367 45.2789Z" fill="#898989"/>
<path d="M55.7477 46.3947C55.6241 46.3947 55.4982 46.403 55.3698 46.421C55.2415 46.4389 55.1131 46.4665 54.9836 46.506C54.8541 46.5443 54.7233 46.591 54.5902 46.6436L54.8113 47.2398C54.9432 47.1835 55.0727 47.1404 55.1999 47.1105C55.327 47.0806 55.4387 47.0662 55.535 47.0662C55.6705 47.0662 55.7739 47.095 55.844 47.1512C55.9141 47.2075 55.9497 47.2865 55.9497 47.387V47.3954H55.3627C55.062 47.399 54.8327 47.4625 54.6734 47.5893C54.5142 47.715 54.4346 47.8958 54.4346 48.1292C54.4346 48.2801 54.4667 48.4129 54.532 48.5279C54.5962 48.6416 54.6889 48.7314 54.8101 48.7948C54.9313 48.8583 55.0763 48.8906 55.2474 48.8906C55.453 48.8906 55.6253 48.8451 55.7643 48.7553C55.838 48.7074 55.8986 48.6488 55.9497 48.5805V48.8511H56.8244V47.2805C56.8244 46.9992 56.7293 46.7813 56.5392 46.6269C56.349 46.4725 56.0852 46.3959 55.7465 46.3959L55.7477 46.3947ZM55.8582 48.1855C55.8166 48.2226 55.7703 48.2513 55.7168 48.2729C55.6633 48.2932 55.6063 48.304 55.5445 48.304C55.4589 48.304 55.3924 48.2825 55.346 48.2394C55.2985 48.1963 55.2747 48.1376 55.2747 48.0634C55.2747 47.9892 55.2973 47.9293 55.3437 47.8922C55.3888 47.8551 55.4566 47.8371 55.5445 47.8371H55.9509V48.055C55.9307 48.1053 55.8998 48.1496 55.8582 48.1867V48.1855Z" fill="#898989"/>
<path d="M59.405 46.506C59.2743 46.4318 59.1234 46.3947 58.9523 46.3947C58.7514 46.3947 58.5803 46.4437 58.4353 46.5419C58.3367 46.6089 58.2559 46.6987 58.1881 46.8076V46.4306H57.2969V48.8499H58.1881V47.654C58.1881 47.5151 58.2238 47.4014 58.2939 47.3164C58.364 47.2314 58.4603 47.1859 58.5815 47.1835C58.6849 47.1835 58.7681 47.2183 58.831 47.2877C58.894 47.3571 58.9261 47.4529 58.9261 47.575V48.8511H59.8174V47.3164C59.8174 47.1297 59.7817 46.9669 59.7092 46.8268C59.6368 46.6879 59.5357 46.5802 59.405 46.506Z" fill="#898989"/>
<path d="M61.4746 48.8499H62.3932V47.7785H63.7705V47.0662H62.3932V46.4437H63.8763V45.7327H61.4746V48.8499Z" fill="#898989"/>
<path d="M66.0714 46.5526C65.8718 46.4509 65.6377 46.3994 65.3691 46.3994C65.1006 46.3994 64.8629 46.4509 64.6632 46.5526C64.4636 46.6544 64.3079 46.7992 64.1974 46.9836C64.0869 47.1691 64.0322 47.3882 64.0322 47.6396C64.0322 47.891 64.0869 48.1065 64.1974 48.2932C64.3079 48.48 64.4636 48.6248 64.6632 48.7266C64.8629 48.8283 65.0994 48.8798 65.3691 48.8798C65.6389 48.8798 65.8706 48.8283 66.0714 48.7266C66.2723 48.6236 66.4268 48.48 66.5373 48.2932C66.6478 48.1065 66.7025 47.8886 66.7025 47.6396C66.7025 47.3906 66.6478 47.1691 66.5373 46.9836C66.4268 46.798 66.2711 46.6544 66.0714 46.5526ZM65.7482 47.9341C65.7126 48.0143 65.6627 48.0765 65.5985 48.1208C65.5331 48.1651 65.4571 48.1879 65.3691 48.1879C65.2812 48.1879 65.2039 48.1651 65.1374 48.1208C65.0709 48.0765 65.0209 48.0143 64.9853 47.9341C64.9496 47.8539 64.9318 47.7593 64.9318 47.6492C64.9318 47.539 64.9496 47.4481 64.9853 47.3667C65.0209 47.2853 65.0709 47.2218 65.1374 47.1775C65.2039 47.1332 65.2812 47.1105 65.3691 47.1105C65.4571 47.1105 65.5343 47.1332 65.5985 47.1775C65.6627 47.2218 65.7138 47.2853 65.7482 47.3667C65.7827 47.4481 65.8017 47.5426 65.8017 47.6492C65.8017 47.7557 65.7839 47.8539 65.7482 47.9341Z" fill="#898989"/>
<path d="M68.5736 47.6276C68.5736 47.7665 68.5403 47.8802 68.4737 47.9652C68.4072 48.0514 68.3169 48.0957 68.2028 48.0981C68.1053 48.0981 68.0281 48.0634 67.9687 47.9939C67.9093 47.9245 67.8807 47.8299 67.8807 47.7114V46.4305H66.9883V47.9652C66.9883 48.152 67.0239 48.3148 67.094 48.4524C67.1642 48.5901 67.264 48.6978 67.3923 48.7744C67.5207 48.8511 67.668 48.8906 67.8356 48.8906C68.0293 48.8906 68.1968 48.8403 68.3371 48.7397C68.4298 48.6727 68.5082 48.5841 68.5736 48.4788V48.8511H69.466V46.4317H68.5736V47.6276Z" fill="#898989"/>
<path d="M72.1121 46.506C71.9813 46.4318 71.8304 46.3947 71.6593 46.3947C71.4585 46.3947 71.2873 46.4437 71.1424 46.5419C71.0437 46.6089 70.9629 46.6987 70.8952 46.8076V46.4306H70.0039V48.8499H70.8952V47.654C70.8952 47.5151 70.9308 47.4014 71.0009 47.3164C71.0711 47.2314 71.1673 47.1859 71.2885 47.1835C71.3919 47.1835 71.4751 47.2183 71.5381 47.2877C71.6011 47.3571 71.6331 47.4529 71.6331 47.575V48.8511H72.5244V47.3164C72.5244 47.1297 72.4888 46.9669 72.4163 46.8268C72.3438 46.6879 72.2428 46.5802 72.1121 46.506Z" fill="#898989"/>
<path d="M74.5829 46.7144C74.5318 46.6521 74.4748 46.5958 74.4106 46.5503C74.2692 46.4498 74.1005 46.3995 73.9032 46.3995C73.6857 46.3995 73.4944 46.451 73.3292 46.5527C73.164 46.6545 73.0369 46.7969 72.9478 46.9801C72.8574 47.1621 72.8135 47.3787 72.8135 47.6277C72.8135 47.8767 72.8598 48.1006 72.9525 48.2909C73.0452 48.4801 73.1747 48.6261 73.3411 48.729C73.5075 48.8308 73.7024 48.8823 73.9258 48.8823C74.1171 48.8823 74.2823 48.8308 74.4225 48.729C74.4819 48.6848 74.5354 48.6321 74.5841 48.5722V48.8512H75.4754V45.5508H74.5841V46.7155L74.5829 46.7144ZM74.5307 47.9342C74.495 48.0144 74.4451 48.0778 74.3809 48.1233C74.3168 48.1688 74.2395 48.1928 74.1516 48.1928C74.0636 48.1928 73.9864 48.17 73.9198 48.1233C73.8533 48.0778 73.8034 48.0144 73.7677 47.9342C73.7321 47.854 73.7143 47.7594 73.7143 47.6493C73.7143 47.5391 73.7321 47.4482 73.7677 47.3668C73.8034 47.2854 73.8533 47.2219 73.9198 47.1776C73.9864 47.1333 74.0636 47.1106 74.1516 47.1106C74.2395 47.1106 74.3168 47.1333 74.3809 47.1776C74.4451 47.2219 74.4962 47.2854 74.5307 47.3668C74.5651 47.4482 74.5841 47.5427 74.5841 47.6493C74.5841 47.7558 74.5663 47.854 74.5307 47.9342Z" fill="#898989"/>
<path d="M77.1667 46.3947C77.0431 46.3947 76.9171 46.403 76.7888 46.421C76.6604 46.4389 76.5321 46.4665 76.4025 46.506C76.273 46.5443 76.1423 46.591 76.0092 46.6436L76.2302 47.2398C76.3621 47.1835 76.4917 47.1404 76.6188 47.1105C76.7448 47.0806 76.8577 47.0662 76.9539 47.0662C77.0894 47.0662 77.1928 47.095 77.2629 47.1512C77.333 47.2075 77.3687 47.2865 77.3687 47.387V47.3954H76.7816C76.481 47.399 76.2516 47.4625 76.0924 47.5893C75.9331 47.715 75.8535 47.8958 75.8535 48.1292C75.8535 48.2801 75.8856 48.4129 75.951 48.5279C76.0151 48.6416 76.1078 48.7314 76.229 48.7948C76.3502 48.8583 76.4952 48.8906 76.6663 48.8906C76.8719 48.8906 77.0443 48.8451 77.1833 48.7553C77.257 48.7074 77.3176 48.6488 77.3687 48.5805V48.8511H78.2433V47.2805C78.2433 46.9992 78.1482 46.7813 77.9581 46.6269C77.768 46.4725 77.5041 46.3959 77.1655 46.3959L77.1667 46.3947ZM77.2772 48.1855C77.2356 48.2226 77.1892 48.2513 77.1358 48.2729C77.0823 48.2932 77.0252 48.304 76.9634 48.304C76.8779 48.304 76.8113 48.2825 76.765 48.2394C76.7175 48.1963 76.6949 48.1376 76.6949 48.0634C76.6949 47.9892 76.7174 47.9293 76.7638 47.8922C76.809 47.8551 76.8767 47.8371 76.9646 47.8371H77.3711V48.055C77.3508 48.1053 77.3199 48.1496 77.2784 48.1867L77.2772 48.1855Z" fill="#898989"/>
<path d="M80.0488 48.1675C80.0012 48.1807 79.9608 48.1878 79.9252 48.1878C79.8634 48.1878 79.8135 48.1687 79.7778 48.1304C79.741 48.0921 79.7232 48.0346 79.7232 47.9568V47.1296H80.315V46.5562H79.7232V45.8846H78.8355V46.5562H78.5039V47.1296H78.8355V48.0945C78.8355 48.2609 78.8711 48.4033 78.9436 48.5242C79.0161 48.6451 79.1159 48.7361 79.2443 48.7984C79.3726 48.8606 79.5211 48.8917 79.6923 48.8917C79.8159 48.8917 79.9371 48.8774 80.0559 48.8498C80.1747 48.8211 80.2757 48.784 80.3589 48.7361L80.1997 48.1172C80.1462 48.1376 80.0963 48.1555 80.05 48.1687L80.0488 48.1675Z" fill="#898989"/>
<path d="M81.1484 45.2789C81.0165 45.2789 80.9059 45.3232 80.8192 45.4106C80.7324 45.498 80.6885 45.6081 80.6885 45.7422C80.6885 45.8763 80.7313 45.99 80.8192 46.0762C80.9059 46.1624 81.0153 46.2055 81.1484 46.2055C81.2815 46.2055 81.3944 46.1624 81.4799 46.0762C81.5655 45.99 81.6083 45.8787 81.6083 45.7422C81.6083 45.6057 81.5655 45.498 81.4799 45.4106C81.3944 45.3232 81.2838 45.2789 81.1484 45.2789Z" fill="#898989"/>
<path d="M81.5895 46.4305H80.6982V48.8499H81.5895V46.4305Z" fill="#898989"/>
<path d="M83.9826 46.5526C83.7829 46.4509 83.5488 46.3994 83.2803 46.3994C83.0117 46.3994 82.774 46.4509 82.5744 46.5526C82.3735 46.6544 82.2191 46.7992 82.1085 46.9836C81.998 47.1691 81.9434 47.3882 81.9434 47.6396C81.9434 47.891 81.998 48.1065 82.1085 48.2932C82.2191 48.48 82.3747 48.6248 82.5744 48.7266C82.774 48.8283 83.0093 48.8798 83.2803 48.8798C83.5512 48.8798 83.7817 48.8283 83.9826 48.7266C84.1822 48.6236 84.3379 48.48 84.4484 48.2932C84.5589 48.1065 84.6136 47.8886 84.6136 47.6396C84.6136 47.3906 84.5589 47.1691 84.4484 46.9836C84.3379 46.798 84.1822 46.6544 83.9826 46.5526ZM83.6605 47.9341C83.6249 48.0143 83.575 48.0765 83.5108 48.1208C83.4466 48.1651 83.3694 48.1879 83.2815 48.1879C83.1935 48.1879 83.1163 48.1651 83.0497 48.1208C82.9832 48.0765 82.9333 48.0143 82.8976 47.9341C82.862 47.8539 82.8441 47.7593 82.8441 47.6492C82.8441 47.539 82.862 47.4481 82.8976 47.3667C82.9333 47.2853 82.9832 47.2218 83.0497 47.1775C83.1163 47.1332 83.1935 47.1105 83.2815 47.1105C83.3694 47.1105 83.4466 47.1332 83.5108 47.1775C83.5762 47.2218 83.6261 47.2853 83.6605 47.3667C83.695 47.4481 83.714 47.5426 83.714 47.6492C83.714 47.7557 83.6962 47.8539 83.6605 47.9341Z" fill="#898989"/>
<path d="M87.0761 46.506C86.9454 46.4318 86.7945 46.3947 86.6234 46.3947C86.4237 46.3947 86.2514 46.4437 86.1064 46.5419C86.0078 46.6089 85.927 46.6987 85.8593 46.8076V46.4306H84.9668V48.8499H85.8593V47.654C85.8593 47.5151 85.8949 47.4014 85.965 47.3164C86.0351 47.2314 86.1314 47.1859 86.2514 47.1835C86.3548 47.1835 86.438 47.2183 86.501 47.2877C86.5639 47.3571 86.596 47.4529 86.596 47.575V48.8511H87.4885V47.3164C87.4885 47.1297 87.4528 46.9669 87.3804 46.8268C87.3079 46.6879 87.2069 46.5802 87.0761 46.506Z" fill="#898989"/>
</svg>
