<svg width="50" height="51" viewBox="0 0 50 51" fill="none" xmlns="http://www.w3.org/2000/svg">
<path d="M16.9224 23.6092C16.9224 23.6945 16.9173 23.7771 16.9147 23.8623H8.85696C8.13142 23.8623 7.4264 23.5188 7.04184 22.8964C6.73932 22.4032 6.73163 22.0933 6.70856 21.1584C6.77521 19.0588 7.52381 17.5841 8.9595 16.7396C9.62863 16.3445 10.3977 16.156 11.172 16.1327C15.3637 15.9933 17.2813 18.4854 16.9224 23.6092Z" fill="#FF6600"/>
<path d="M23.6291 33.3195C23.7137 33.3195 23.7958 33.3247 23.8804 33.3272V41.4416C23.8804 42.1725 23.5394 42.8853 22.9215 43.2701C22.4319 43.5774 22.1242 43.5851 21.1962 43.6058C19.1093 43.5412 17.648 42.7845 16.8096 41.3409C16.4174 40.6668 16.2302 39.8921 16.2072 39.1121C16.0687 34.8897 18.5427 32.9579 23.6291 33.3195Z" fill="#FF6600"/>
<path d="M18.6914 26.3104H23.8803V31.1734C17.9017 30.7059 14.6586 32.7642 14.151 37.3431C13.9408 39.2464 14.2946 41.1937 15.3303 42.8C16.907 45.2483 19.4502 46.1677 22.9548 45.5582C23.9829 45.3774 24.9494 44.8867 25.616 44.0758C25.6211 44.0681 25.6288 44.0577 25.6365 44.05C26.0877 43.4896 26.3107 42.7768 26.3107 42.0562V33.7637C27.226 34.0839 27.9951 34.5798 28.613 35.2486C28.8668 35.5224 28.9975 35.8917 28.9975 36.2636V49.8581C28.9565 49.8659 28.918 49.8736 28.877 49.8788C21.3115 51.0461 13.3127 48.6934 7.48535 42.8233C4.24737 39.5615 2.08873 35.6283 1.00684 31.4652H13.5306C13.9895 31.4652 14.4484 31.4187 14.8868 31.2896C16.807 30.7214 18.0735 29.0634 18.6914 26.3104Z" fill="#FF6600"/>
<path d="M23.8778 18.6351V23.8622H19.0529C19.5143 17.8397 17.4736 14.5728 12.9256 14.0614C11.0387 13.8496 9.10563 14.206 7.511 15.2494C5.08059 16.8376 4.16791 19.3995 4.77295 22.9299C4.94984 23.9655 5.43951 24.9391 6.24452 25.6106C6.25221 25.6157 6.2599 25.6235 6.27015 25.6312C6.82391 26.0858 7.53407 26.3104 8.24935 26.3104H16.4815C16.161 27.2324 15.6713 28.0072 15.0047 28.6296C14.733 28.8853 14.3689 29.017 13.9972 29.017H0.499214C0.491523 28.9756 0.483843 28.9317 0.478715 28.8904C-0.674959 21.2693 1.66058 13.2143 7.48535 7.34677C10.7233 4.08501 14.633 1.90791 18.7632 0.823242V13.439C18.7632 13.8987 18.8068 14.361 18.9375 14.8026C19.499 16.7369 21.1474 18.0127 23.8778 18.6351Z" fill="#FF6600"/>
<path d="M26.562 16.8531C26.4774 16.8531 26.3953 16.8479 26.3107 16.8453V8.72839C26.3107 7.99753 26.6517 7.28732 27.267 6.89994C27.7567 6.5952 28.0669 6.58745 28.9924 6.56421C31.0793 6.63136 32.5431 7.38546 33.3815 8.83169C33.7712 9.50574 33.9583 10.2805 33.984 11.0604C34.1198 15.2829 31.6458 17.2147 26.562 16.8531Z" fill="#FF6600"/>
<path d="M49.1817 18.7074H36.658C36.2016 18.7074 35.7427 18.7539 35.3017 18.883C33.3841 19.4486 32.1151 21.1092 31.4972 23.8596H26.3108V18.9992C32.2894 19.4641 35.5325 17.4084 36.0375 12.8269C36.2478 10.9262 35.894 8.97894 34.8608 7.37259C33.2815 4.92433 30.7409 4.00495 27.2363 4.61443C26.2082 4.79262 25.2392 5.28589 24.5752 6.09681C24.5675 6.10456 24.5598 6.11231 24.5546 6.12264C24.1009 6.68047 23.8778 7.39584 23.8778 8.11637V16.4089C22.9626 16.0861 22.1935 15.5929 21.5782 14.9214C21.3244 14.6476 21.1936 14.2809 21.1936 13.9064V0.311896C21.2346 0.304148 21.2731 0.296401 21.3141 0.291236C28.8796 -0.87866 36.8784 1.47663 42.7058 7.34677C45.9412 10.6085 48.105 14.5469 49.1817 18.7074Z" fill="#FF6600"/>
<path d="M33.2686 26.5635C33.2686 26.4783 33.2738 26.3956 33.2763 26.3104H41.3315C42.0571 26.3104 42.7647 26.6539 43.1467 27.2737C43.4517 27.767 43.4594 28.0795 43.4799 29.0118C43.4158 31.114 42.6647 32.5886 41.2316 33.4331C40.5624 33.8257 39.7933 34.0142 39.0191 34.04C34.8274 34.1769 32.9097 31.6847 33.2686 26.5635Z" fill="#FF6600"/>
<path d="M42.7057 42.8234C39.4677 46.0826 35.5581 48.2622 31.4279 49.3469V36.7337C31.4279 36.274 31.3818 35.8117 31.2536 35.3675C30.6896 33.4358 29.0437 32.1574 26.3107 31.535V26.3105H31.1382C30.6742 32.333 32.7175 35.6 37.2629 36.1087C39.1524 36.3205 41.0855 35.9667 42.6775 34.9233C45.1105 33.3325 46.0232 30.7732 45.4181 27.2428C45.2387 26.2072 44.7516 25.231 43.9466 24.5621C43.9389 24.5544 43.9286 24.5467 43.9209 24.5415C43.3646 24.0844 42.657 23.8597 41.9417 23.8597H33.7096C34.0275 22.9377 34.5198 22.163 35.1838 21.5431C35.4555 21.2875 35.8221 21.1558 36.1913 21.1558H49.6893C49.697 21.1971 49.7047 21.2358 49.7098 21.2771C50.8686 28.8983 48.5331 36.9532 42.7057 42.8234Z" fill="#FF6600"/>
</svg>
