<svg xmlns="http://www.w3.org/2000/svg" width="244" height="51" viewBox="0 0 244 51" fill="none">
  <path d="M210.922 23.6092C210.922 23.6945 210.917 23.7771 210.915 23.8623H202.857C202.131 23.8623 201.426 23.5188 201.042 22.8964C200.739 22.4032 200.732 22.0933 200.709 21.1584C200.775 19.0588 201.524 17.5841 202.959 16.7396C203.629 16.3445 204.398 16.156 205.172 16.1327C209.364 15.9933 211.281 18.4854 210.922 23.6092Z" fill="white"/>
  <path d="M217.629 33.3196C217.714 33.3196 217.796 33.3248 217.88 33.3274V41.4417C217.88 42.1726 217.539 42.8854 216.922 43.2702C216.432 43.5775 216.124 43.5853 215.196 43.6059C213.109 43.5413 211.648 42.7847 210.81 41.341C210.417 40.667 210.23 39.8922 210.207 39.1123C210.069 34.8898 212.543 32.9581 217.629 33.3196Z" fill="white"/>
  <path d="M212.691 26.3103H217.88V31.1732C211.902 30.7058 208.659 32.7641 208.151 37.343C207.941 39.2463 208.295 41.1935 209.33 42.7999C210.907 45.2482 213.45 46.1675 216.955 45.5581C217.983 45.3773 218.949 44.8866 219.616 44.0757C219.621 44.0679 219.629 44.0576 219.636 44.0499C220.088 43.4894 220.311 42.7767 220.311 42.0561V33.7635C221.226 34.0838 221.995 34.5796 222.613 35.2485C222.867 35.5223 222.998 35.8916 222.998 36.2635V49.858C222.957 49.8658 222.918 49.8735 222.877 49.8787C215.311 51.046 207.313 48.6933 201.485 42.8231C198.247 39.5614 196.089 35.6281 195.007 31.4651H207.531C207.99 31.4651 208.448 31.4186 208.887 31.2895C210.807 30.7213 212.074 29.0633 212.691 26.3103Z" fill="white"/>
  <path d="M217.878 18.6351V23.8622H213.053C213.514 17.8397 211.474 14.5728 206.926 14.0614C205.039 13.8496 203.106 14.206 201.511 15.2494C199.081 16.8376 198.168 19.3995 198.773 22.9299C198.95 23.9655 199.44 24.9391 200.245 25.6106C200.252 25.6157 200.26 25.6235 200.27 25.6312C200.824 26.0858 201.534 26.3104 202.249 26.3104H210.481C210.161 27.2324 209.671 28.0072 209.005 28.6296C208.733 28.8853 208.369 29.017 207.997 29.017H194.499C194.492 28.9756 194.484 28.9317 194.479 28.8904C193.325 21.2693 195.661 13.2143 201.485 7.34677C204.723 4.08501 208.633 1.90791 212.763 0.823242V13.439C212.763 13.8987 212.807 14.361 212.938 14.8026C213.499 16.7369 215.147 18.0127 217.878 18.6351Z" fill="white"/>
  <path d="M220.562 16.8531C220.477 16.8531 220.395 16.8479 220.311 16.8453V8.72839C220.311 7.99753 220.652 7.28732 221.267 6.89994C221.757 6.5952 222.067 6.58745 222.992 6.56421C225.079 6.63136 226.543 7.38546 227.381 8.83169C227.771 9.50574 227.958 10.2805 227.984 11.0604C228.12 15.2829 225.646 17.2147 220.562 16.8531Z" fill="white"/>
  <path d="M243.182 18.7074H230.658C230.202 18.7074 229.743 18.7539 229.302 18.883C227.384 19.4486 226.115 21.1092 225.497 23.8596H220.311V18.9992C226.289 19.4641 229.532 17.4084 230.038 12.8269C230.248 10.9262 229.894 8.97894 228.861 7.37259C227.282 4.92433 224.741 4.00495 221.236 4.61443C220.208 4.79262 219.239 5.28589 218.575 6.09681C218.567 6.10456 218.56 6.11231 218.555 6.12264C218.101 6.68047 217.878 7.39584 217.878 8.11637V16.4089C216.963 16.0861 216.193 15.5929 215.578 14.9214C215.324 14.6476 215.194 14.2809 215.194 13.9064V0.311896C215.235 0.304148 215.273 0.296401 215.314 0.291236C222.88 -0.87866 230.878 1.47663 236.706 7.34677C239.941 10.6085 242.105 14.5469 243.182 18.7074Z" fill="white"/>
  <path d="M227.269 26.5634C227.269 26.4782 227.274 26.3955 227.276 26.3103H235.332C236.057 26.3103 236.765 26.6538 237.147 27.2736C237.452 27.7669 237.459 28.0794 237.48 29.0117C237.416 31.1138 236.665 32.5885 235.232 33.433C234.562 33.8255 233.793 34.0141 233.019 34.0399C228.827 34.1768 226.91 31.6846 227.269 26.5634Z" fill="white"/>
  <path d="M236.706 42.8234C233.468 46.0826 229.558 48.2622 225.428 49.3469V36.7337C225.428 36.274 225.382 35.8117 225.254 35.3675C224.69 33.4358 223.044 32.1574 220.311 31.535V26.3105H225.138C224.674 32.333 226.717 35.6 231.263 36.1087C233.152 36.3205 235.085 35.9667 236.678 34.9233C239.11 33.3325 240.023 30.7732 239.418 27.2428C239.239 26.2072 238.752 25.231 237.947 24.5621C237.939 24.5544 237.929 24.5467 237.921 24.5415C237.365 24.0844 236.657 23.8597 235.942 23.8597H227.71C228.028 22.9377 228.52 22.163 229.184 21.5431C229.456 21.2875 229.822 21.1558 230.191 21.1558H243.689C243.697 21.1971 243.705 21.2358 243.71 21.2771C244.869 28.8983 242.533 36.9532 236.706 42.8234Z" fill="white"/>
  <path d="M2.40219 14.7819C2.68164 14.7819 2.91237 14.6915 3.09696 14.5133C3.27899 14.3325 3.37128 14.1026 3.37128 13.8211C3.37128 13.5397 3.27899 13.2943 3.09696 13.1084C2.91494 12.925 2.6842 12.832 2.40219 12.832C2.12018 12.832 1.87919 12.925 1.69461 13.1084C1.51258 13.2917 1.42029 13.5293 1.42029 13.8211C1.42029 14.113 1.51002 14.3351 1.69461 14.5133C1.87663 14.6915 2.11249 14.7819 2.40219 14.7819Z" fill="white"/>
  <path d="M4.61725 14.7819C4.8967 14.7819 5.12743 14.6915 5.30433 14.5133C5.48122 14.3325 5.57095 14.1026 5.57095 13.8211C5.57095 13.5397 5.48122 13.2943 5.30433 13.1084C5.12487 12.925 4.8967 12.832 4.61725 12.832C4.33781 12.832 4.09425 12.925 3.90966 13.1084C3.72764 13.2917 3.63535 13.5293 3.63535 13.8211C3.63535 14.113 3.72508 14.3351 3.90966 14.5133C4.09169 14.6915 4.32755 14.7819 4.61725 14.7819Z" fill="white"/>
  <path d="M1.11778 22.3332C1.46645 22.5992 1.86382 22.7954 2.31504 22.922C2.76369 23.0511 3.23541 23.1131 3.72765 23.1131C4.1763 23.1131 4.62751 23.0589 5.07617 22.953C5.37099 22.8832 5.65557 22.7877 5.92732 22.6715C6.13242 22.9013 6.36828 23.0976 6.64004 23.2551C7.15022 23.547 7.76038 23.6916 8.4731 23.6916H9.64472C10.3574 23.6838 10.965 23.534 11.4701 23.2422C11.6393 23.1441 11.7931 23.0253 11.9367 22.8987C12.0854 23.0304 12.2418 23.1544 12.4187 23.2551C12.9288 23.547 13.539 23.6916 14.2517 23.6916H18.8715V16.9614H16.6565V21.1039H14.2517C13.9287 21.1039 13.68 21.0729 13.5082 21.0083C13.3339 20.9437 13.216 20.8353 13.1519 20.6803C13.0878 20.5254 13.057 20.3084 13.057 20.0269V16.9614H10.842V20.0269C10.842 20.3084 10.8086 20.528 10.7394 20.6803C10.6702 20.8353 10.5523 20.9437 10.3831 21.0083C10.2139 21.0729 9.96775 21.1039 9.64472 21.1039H8.4731C8.15007 21.1039 7.90139 21.0729 7.72962 21.0083C7.55528 20.9437 7.43735 20.8353 7.37326 20.6803C7.30917 20.5254 7.2784 20.3084 7.2784 20.0269V15.8845H5.06335V16.3029C4.39422 16.3287 3.76354 16.4139 3.17901 16.5637C2.54321 16.7264 1.98688 16.9589 1.51259 17.2636C1.03831 17.5658 0.666567 17.948 0.39994 18.4051C0.133313 18.8622 0 19.3865 0 19.9753C0 20.497 0.0999851 20.9541 0.299955 21.3466C0.499925 21.7392 0.77168 22.0697 1.12035 22.3332H1.11778ZM2.41502 19.3761C2.5509 19.1928 2.75344 19.0352 3.02006 18.9009C3.28669 18.7692 3.60972 18.6659 3.98659 18.5936C4.30705 18.5316 4.66597 18.4955 5.06078 18.48V20.0244C5.06078 20.2387 5.0736 20.4453 5.09668 20.6442C4.91978 20.7191 4.73776 20.7836 4.55317 20.8327C4.2891 20.9024 4.00709 20.936 3.69945 20.936C3.37642 20.936 3.1021 20.8998 2.87906 20.8275C2.65345 20.7552 2.48681 20.6467 2.37657 20.4995C2.26633 20.3549 2.20993 20.1845 2.20993 19.9856C2.20993 19.7635 2.27658 19.5595 2.41246 19.3761H2.41502Z" fill="white"/>
  <path d="M10.6881 24.833C10.4087 24.833 10.178 24.9234 9.99337 25.1093C9.81135 25.2927 9.71906 25.5251 9.71906 25.8092C9.71906 26.0933 9.80879 26.3231 9.99337 26.5091C10.1754 26.6924 10.4061 26.7854 10.6881 26.7854C10.9702 26.7854 11.2009 26.6924 11.388 26.5091C11.5752 26.3257 11.6675 26.0933 11.6675 25.8092C11.6675 25.5251 11.5752 25.2953 11.388 25.1093C11.2009 24.926 10.9676 24.833 10.6881 24.833Z" fill="white"/>
  <path d="M12.2085 25.1069C12.0264 25.2903 11.9341 25.5227 11.9341 25.8068C11.9341 26.0909 12.0264 26.3207 12.2085 26.5066C12.3905 26.6926 12.6212 26.783 12.9032 26.783C13.1852 26.783 13.4134 26.69 13.598 26.5066C13.78 26.3233 13.8723 26.0909 13.8723 25.8068C13.8723 25.5227 13.78 25.2928 13.598 25.1069C13.416 24.921 13.1852 24.8306 12.9032 24.8306C12.6212 24.8306 12.393 24.921 12.2085 25.1069Z" fill="white"/>
  <path d="M17.764 15.5487C18.1281 15.5487 18.4229 15.4325 18.6485 15.2027C18.8741 14.9728 18.9869 14.6758 18.9869 14.3168C18.9869 13.9579 18.8741 13.6635 18.6485 13.431C18.4229 13.2012 18.1281 13.085 17.764 13.085C17.4 13.085 17.1154 13.2012 16.8846 13.431C16.6565 13.6609 16.5411 13.9579 16.5411 14.3168C16.5411 14.6758 16.6565 14.9702 16.8846 15.2027C17.1128 15.4325 17.4076 15.5487 17.764 15.5487Z" fill="white"/>
  <path d="M35.3281 23.351C35.4947 23.2606 35.6485 23.147 35.7921 23.0178C35.9023 23.1031 36.0177 23.1831 36.1433 23.2529C36.6535 23.5447 37.2637 23.6893 37.9764 23.6893H42.609V16.9592H40.394V21.1016H37.9764C37.6534 21.1016 37.4072 21.0706 37.238 21.006C37.0688 20.9415 36.9483 20.833 36.8817 20.6781C36.8125 20.5231 36.7791 20.3062 36.7791 20.0247V16.9592H34.5641V20.0247C34.5641 20.4172 34.4564 20.7116 34.2385 20.9027C34.0231 21.0938 33.777 21.192 33.5078 21.192C33.254 21.192 33.0156 21.1016 32.7951 20.9157C32.6874 20.8253 32.6054 20.7168 32.549 20.5851C32.549 20.5515 32.5541 20.5205 32.5541 20.4844V17.5867H30.3391V20.0221C30.3391 20.4146 30.2314 20.709 30.0135 20.9002C29.7981 21.0913 29.552 21.1894 29.2828 21.1894C29.029 21.1894 28.7906 21.099 28.5701 20.9131C28.424 20.7917 28.3265 20.6316 28.2701 20.4379C28.2804 20.301 28.2881 20.1667 28.2881 20.0221V18.2143H26.0859V20.0221C26.0859 20.3036 26.0525 20.5231 25.9833 20.6755C25.9141 20.8304 25.7962 20.9389 25.6269 21.0035C25.4577 21.068 25.2065 21.099 24.8758 21.099H22.7889V12.3545H20.5739V23.6893H24.8758C25.5962 23.6893 26.2089 23.5447 26.714 23.2529C27.0344 23.0695 27.3011 22.8267 27.5267 22.5375C27.7856 22.9068 28.0932 23.1909 28.4573 23.3742C28.8675 23.5834 29.2982 23.6893 29.7494 23.6893C30.2237 23.6893 30.6749 23.5757 31.0979 23.3484C31.3928 23.1909 31.6466 22.9714 31.867 22.695C32.0978 22.9894 32.3695 23.2167 32.6823 23.3742C33.0925 23.5834 33.5232 23.6893 33.9744 23.6893C34.4487 23.6893 34.8999 23.5757 35.3229 23.3484L35.3281 23.351Z" fill="white"/>
  <path d="M41.5015 15.5487C41.8656 15.5487 42.1604 15.4325 42.386 15.2027C42.6116 14.9728 42.7244 14.6758 42.7244 14.3168C42.7244 13.9579 42.6116 13.6635 42.386 13.431C42.1604 13.2012 41.8656 13.085 41.5015 13.085C41.1375 13.085 40.8529 13.2012 40.6222 13.431C40.394 13.6609 40.2786 13.9579 40.2786 14.3168C40.2786 14.6758 40.394 14.9702 40.6222 15.2027C40.8503 15.4325 41.1452 15.5487 41.5015 15.5487Z" fill="white"/>
  <path d="M48.3364 23.6918H50.7155H52.9306V21.1015V12.3569H50.7155V21.1015H48.3364V15.7814H46.1213V21.1015H44.3139V23.6918H46.1213H48.3364Z" fill="white"/>
  <path d="M47.0314 26.801C46.8392 26.7029 46.7443 26.597 46.7443 26.486C46.7443 26.3672 46.8392 26.2561 47.0314 26.158C47.2212 26.0598 47.4775 26.0108 47.8006 26.0108C47.9031 26.0108 48.0133 26.0185 48.1313 26.0366C48.2492 26.0547 48.3594 26.0702 48.462 26.0882L48.9337 25.063C48.7466 24.9597 48.5492 24.8848 48.3415 24.8383C48.1338 24.7918 47.9185 24.7686 47.698 24.7686C47.3417 24.7686 47.0084 24.8357 46.6982 24.9674C46.3879 25.0991 46.1393 25.2876 45.947 25.5304C45.7547 25.7732 45.6599 26.0624 45.6599 26.3956C45.6599 26.6022 45.706 26.7829 45.7829 26.9456H45.3419V28.2008H49.1209V26.9456H47.8108C47.4801 26.9456 47.2186 26.8966 47.0289 26.7984L47.0314 26.801Z" fill="white"/>
  <path d="M56.9787 12.3569H54.7636V23.6918H56.9787V12.3569Z" fill="white"/>
  <path d="M86.8871 23.6915H92.5375V16.9613H90.3224V21.1038H86.8871V20.3729C86.8871 19.7841 86.7999 19.2237 86.6256 18.6942C86.4512 18.1648 86.1897 17.6922 85.8436 17.2764C85.495 16.8606 85.0566 16.5352 84.5259 16.295C83.9952 16.0549 83.3645 15.9361 82.6364 15.9361C81.9083 15.9361 81.3187 16.0445 80.7726 16.2641C80.2265 16.481 79.7497 16.7754 79.3472 17.1421C78.9447 17.5088 78.6062 17.9246 78.3345 18.3869C78.0627 18.8492 77.8397 19.3295 77.6654 19.8306C77.5397 20.1921 77.45 20.5408 77.3782 20.8868C77.3141 20.83 77.2654 20.7629 77.2321 20.6828C77.168 20.5278 77.1372 20.3109 77.1372 20.0294V17.5941H74.9222V20.0294C74.9222 20.3109 74.8888 20.5304 74.8196 20.6828C74.7504 20.8378 74.6325 20.9462 74.4633 21.0108C74.2941 21.0753 74.0479 21.1063 73.7249 21.1063H72.5789C72.2482 21.1063 71.997 21.0753 71.8278 21.0108C71.6586 20.9462 71.5381 20.8378 71.4714 20.6828C71.4022 20.5278 71.3689 20.3109 71.3689 20.0294V12.3618H69.1666V20.7086C69.1666 21.3827 69.0589 21.9508 68.841 22.4079C68.6257 22.8651 68.318 23.206 67.9181 23.4332C67.5181 23.6605 67.0439 23.7715 66.4927 23.7715C65.9415 23.7715 65.4928 23.6553 65.1236 23.4255C64.7545 23.1956 64.4827 22.8521 64.3084 22.4002C64.134 21.9482 64.0469 21.3878 64.0469 20.7215C64.0469 20.4994 64.0546 20.2696 64.0725 20.0294C64.0905 19.7892 64.1238 19.5516 64.1751 19.3115L62.0369 18.9008C61.9677 19.2082 61.919 19.5155 61.8831 19.8228C61.8498 20.1301 61.8318 20.4504 61.8318 20.7835C61.8318 21.69 61.96 22.4906 62.2189 23.1879C62.4779 23.8852 62.8291 24.4714 63.2701 24.9518C63.711 25.4295 64.2186 25.7911 64.7903 26.0338C65.3621 26.2766 65.9594 26.4006 66.5798 26.4006C67.2002 26.4006 67.8079 26.2766 68.3796 26.0287C68.9513 25.7808 69.464 25.414 69.9127 24.9337C70.3203 24.4946 70.6459 23.9601 70.8971 23.3377C71.3689 23.5727 71.9252 23.6966 72.5712 23.6966H73.7172C74.4299 23.6966 75.0375 23.552 75.5426 23.2602C75.8169 23.1026 76.0553 22.9038 76.2604 22.6688C76.4245 22.9038 76.6168 23.1026 76.8398 23.2602C77.25 23.552 77.7448 23.6966 78.3217 23.6966H86.8742L86.8871 23.6915ZM79.2882 21.1012C79.4343 20.706 79.624 20.3445 79.8625 20.0242C80.1163 19.6834 80.406 19.3967 80.729 19.1643C81.052 18.9344 81.3904 18.7536 81.7468 18.6245C82.1032 18.4954 82.4518 18.4334 82.7902 18.4334C83.1543 18.4334 83.4799 18.5031 83.7644 18.6452C84.049 18.7872 84.2721 18.999 84.4336 19.2856C84.5951 19.5723 84.6746 19.9339 84.6746 20.3703V21.1012H79.2882Z" fill="white"/>
  <path d="M92.5657 15.807C92.8452 15.807 93.0759 15.7166 93.2528 15.5384C93.4322 15.3576 93.5194 15.1278 93.5194 14.8463C93.5194 14.5648 93.4297 14.3195 93.2528 14.1335C93.0759 13.9501 92.8452 13.8572 92.5657 13.8572C92.2863 13.8572 92.0427 13.9501 91.8581 14.1335C91.6735 14.3169 91.5838 14.5545 91.5838 14.8463C91.5838 15.1381 91.6761 15.3602 91.8581 15.5384C92.0401 15.7192 92.276 15.807 92.5657 15.807Z" fill="white"/>
  <path d="M90.3506 15.807C90.6301 15.807 90.8608 15.7166 91.0454 15.5384C91.2274 15.3576 91.3197 15.1278 91.3197 14.8463C91.3197 14.5648 91.2274 14.3195 91.0454 14.1335C90.8634 13.9501 90.6326 13.8572 90.3506 13.8572C90.0686 13.8572 89.8276 13.9501 89.643 14.1335C89.461 14.3169 89.3687 14.5545 89.3687 14.8463C89.3687 15.1381 89.4584 15.3602 89.643 15.5384C89.8251 15.7192 90.0609 15.807 90.3506 15.807Z" fill="white"/>
  <path d="M98.7109 24.9467C99.1519 25.4245 99.6595 25.7861 100.231 26.0288C100.803 26.2716 101.4 26.3955 102.021 26.3955C102.641 26.3955 103.249 26.2716 103.82 26.0237C104.392 25.7757 104.905 25.409 105.353 24.9287C105.761 24.4896 106.087 23.955 106.338 23.3326C106.81 23.5677 107.366 23.6916 108.012 23.6916H109.158C109.871 23.6916 110.478 23.547 110.983 23.2552C111.258 23.0976 111.496 22.8988 111.701 22.6638C111.865 22.8988 112.058 23.0976 112.281 23.2552C112.691 23.547 113.186 23.6916 113.762 23.6916H122.315V20.3705C122.315 19.7816 122.228 19.2212 122.054 18.6918C121.879 18.1624 121.618 17.6898 121.272 17.274C120.923 16.8582 120.485 16.5328 119.954 16.2926C119.423 16.0524 118.793 15.9336 118.064 15.9336C117.336 15.9336 116.747 16.0421 116.201 16.2616C115.655 16.4811 115.178 16.773 114.775 17.1397C114.373 17.5064 114.034 17.9222 113.762 18.3845C113.491 18.8467 113.268 19.3271 113.093 19.8281C112.968 20.1897 112.878 20.5383 112.806 20.8844C112.742 20.8276 112.693 20.7604 112.66 20.6804C112.596 20.5254 112.565 20.3085 112.565 20.027V17.5916H110.35V20.027C110.35 20.3085 110.317 20.528 110.248 20.6804C110.178 20.8353 110.06 20.9438 109.891 21.0083C109.722 21.0729 109.476 21.1039 109.153 21.1039H108.007C107.676 21.1039 107.425 21.0729 107.256 21.0083C107.087 20.9438 106.966 20.8353 106.899 20.6804C106.83 20.5254 106.797 20.3085 106.797 20.027V12.3594H104.595V20.7062C104.595 21.3802 104.487 21.9484 104.269 22.4055C104.054 22.8626 103.746 23.2035 103.346 23.4308C102.946 23.658 102.472 23.7691 101.921 23.7691C101.369 23.7691 100.921 23.6529 100.552 23.423C100.182 23.1932 99.9107 22.8497 99.7364 22.3978C99.562 21.9458 99.4749 21.3854 99.4749 20.7191C99.4749 20.497 99.4826 20.2672 99.5005 20.027C99.5185 19.7868 99.5518 19.5492 99.6031 19.309L97.4649 18.8984C97.3957 19.2057 97.347 19.513 97.3111 19.8204C97.2778 20.1277 97.2598 20.4479 97.2598 20.7811C97.2598 21.6876 97.388 22.4881 97.647 23.1854C97.9059 23.8827 98.2571 24.469 98.6981 24.9493L98.7109 24.9467ZM115.296 20.0244C115.549 19.6835 115.839 19.3968 116.162 19.1644C116.485 18.9346 116.824 18.7538 117.18 18.6246C117.536 18.4955 117.885 18.4335 118.223 18.4335C118.587 18.4335 118.913 18.5033 119.198 18.6453C119.482 18.7873 119.705 18.9991 119.867 19.2858C120.028 19.5724 120.108 19.934 120.108 20.3705V21.1013H114.721C114.867 20.7062 115.057 20.3446 115.296 20.0244Z" fill="white"/>
  <path d="M127.26 16.6646C126.735 16.6646 126.245 16.7549 125.791 16.9331C125.338 17.1139 124.938 17.3618 124.594 17.6821C124.251 18.0023 123.981 18.3768 123.787 18.8029C123.592 19.2316 123.494 19.699 123.494 20.213C123.494 20.8457 123.648 21.4242 123.958 21.951C124.269 22.4779 124.702 22.8988 125.263 23.2139C125.822 23.5316 126.486 23.6891 127.248 23.6891H127.832V23.8311C127.832 24.1462 127.719 24.3941 127.494 24.5697C127.268 24.7454 126.85 24.8332 126.24 24.8332H124.064V27.4235H126.24C127.012 27.4235 127.684 27.2788 128.25 26.987C128.819 26.6952 129.258 26.282 129.568 25.7422C129.878 25.2051 130.032 24.5672 130.032 23.8311V17.3696C129.658 17.1991 129.229 17.039 128.747 16.8892C128.263 16.7394 127.768 16.6646 127.258 16.6646H127.26ZM127.248 21.3312C126.909 21.3312 126.625 21.277 126.394 21.1711C126.166 21.0652 125.994 20.9258 125.879 20.7553C125.763 20.5849 125.707 20.4093 125.707 20.2285C125.707 20.0322 125.771 19.8411 125.897 19.6577C126.025 19.4744 126.202 19.322 126.432 19.2032C126.661 19.0844 126.937 19.0224 127.26 19.0224C127.443 19.0224 127.632 19.0482 127.832 19.0973V21.3312H127.248Z" fill="white"/>
  <path d="M139.274 14.7819C139.554 14.7819 139.784 14.6915 139.961 14.5133C140.138 14.3325 140.228 14.1026 140.228 13.8211C140.228 13.5397 140.138 13.2943 139.961 13.1084C139.784 12.925 139.554 12.832 139.274 12.832C138.995 12.832 138.751 12.925 138.566 13.1084C138.382 13.2917 138.292 13.5293 138.292 13.8211C138.292 14.113 138.384 14.3351 138.566 14.5133C138.749 14.6915 138.984 14.7819 139.274 14.7819Z" fill="white"/>
  <path d="M137.059 14.7819C137.339 14.7819 137.569 14.6915 137.754 14.5133C137.936 14.3325 138.028 14.1026 138.028 13.8211C138.028 13.5397 137.936 13.2943 137.754 13.1084C137.572 12.925 137.341 12.832 137.059 12.832C136.777 12.832 136.536 12.925 136.351 13.1084C136.169 13.2917 136.077 13.5293 136.077 13.8211C136.077 14.113 136.167 14.3351 136.351 14.5133C136.533 14.6915 136.769 14.7819 137.059 14.7819Z" fill="white"/>
  <path d="M170.036 22.2996C170.308 21.8244 170.444 21.2201 170.444 20.4867V16.9615H168.229V20.027C168.229 20.4195 168.121 20.7139 167.903 20.905C167.688 21.0961 167.442 21.1943 167.173 21.1943C166.919 21.1943 166.68 21.1039 166.46 20.918C166.352 20.8276 166.27 20.7191 166.214 20.5874C166.214 20.5538 166.219 20.5228 166.219 20.4867V17.589H164.004V20.0244C164.004 20.4169 163.896 20.7113 163.678 20.9025C163.463 21.0936 163.217 21.1917 162.948 21.1917C162.694 21.1917 162.455 21.1013 162.235 20.9154C162.089 20.794 161.994 20.6339 161.935 20.4402C161.945 20.3033 161.953 20.169 161.953 20.0244V18.2166H159.751V20.0244C159.751 20.3059 159.717 20.5254 159.648 20.6778C159.579 20.8327 159.461 20.9412 159.292 21.0058C159.122 21.0703 158.871 21.1013 158.54 21.1013H157.382C157.059 21.1013 156.813 21.0703 156.643 21.0058C156.474 20.9412 156.354 20.8327 156.287 20.6778C156.218 20.5228 156.184 20.3059 156.184 20.0244V16.9589H153.969V20.0244C153.969 20.4169 153.862 20.7113 153.644 20.9025C153.428 21.0936 153.182 21.1917 152.911 21.1917C152.657 21.1917 152.418 21.1013 152.198 20.9154C152.09 20.825 152.008 20.7165 151.952 20.5848C151.952 20.5512 151.957 20.5202 151.957 20.4841V17.5865H149.742V20.0218C149.742 20.4144 149.634 20.7088 149.416 20.8999C149.201 21.091 148.955 21.1891 148.686 21.1891C148.432 21.1891 148.193 21.0987 147.973 20.9128C147.827 20.7914 147.729 20.6313 147.673 20.4376C147.683 20.3007 147.691 20.1664 147.691 20.0218V18.214H145.489V20.0218C145.489 20.3033 145.455 20.5228 145.386 20.6752C145.317 20.8276 145.199 20.9386 145.03 21.0032C144.86 21.0677 144.609 21.0987 144.279 21.0987H143.12C142.797 21.0987 142.548 21.0677 142.376 21.0032C142.204 20.9386 142.084 20.8301 142.02 20.6752C141.956 20.5202 141.925 20.3033 141.925 20.0218V15.8794H139.71V16.2978C139.041 16.3236 138.41 16.4088 137.826 16.5586C137.19 16.7213 136.633 16.9537 136.159 17.2585C135.685 17.5606 135.313 17.9429 135.047 18.4C134.78 18.8571 134.647 19.3813 134.647 19.9702C134.647 20.4918 134.747 20.9489 134.947 21.3415C135.147 21.734 135.418 22.0646 135.767 22.328C136.116 22.594 136.513 22.7903 136.964 22.9168C137.413 23.046 137.885 23.108 138.377 23.108C138.825 23.108 139.277 23.0537 139.725 22.9478C140.02 22.8781 140.305 22.7826 140.576 22.6663C140.782 22.8962 141.017 23.0925 141.289 23.25C141.799 23.5418 142.41 23.6864 143.122 23.6864H144.281C145.001 23.6864 145.614 23.5418 146.119 23.25C146.44 23.0666 146.706 22.8239 146.932 22.5346C147.191 22.9039 147.499 23.188 147.863 23.3714C148.273 23.5806 148.703 23.6864 149.155 23.6864C149.629 23.6864 150.08 23.5728 150.503 23.3456C150.798 23.188 151.052 22.9685 151.272 22.6922C151.503 22.9866 151.775 23.2138 152.088 23.3714C152.498 23.5806 152.928 23.6864 153.38 23.6864C153.854 23.6864 154.305 23.5728 154.728 23.3456C154.895 23.2552 155.049 23.1415 155.192 23.0124C155.302 23.0976 155.418 23.1777 155.543 23.2474C156.054 23.5392 156.664 23.6839 157.377 23.6839H158.535C159.256 23.6839 159.868 23.5392 160.374 23.2474C160.694 23.0641 160.961 22.8213 161.186 22.532C161.445 22.9014 161.753 23.1854 162.117 23.3688C162.527 23.578 162.958 23.6839 163.409 23.6839C163.883 23.6839 164.334 23.5702 164.757 23.343C165.052 23.1854 165.306 22.9659 165.527 22.6896C165.757 22.984 166.029 23.2113 166.342 23.3688C166.755 23.578 167.183 23.6839 167.634 23.6839C168.108 23.6839 168.559 23.5702 168.983 23.343C169.406 23.1157 169.754 22.7671 170.026 22.2919L170.036 22.2996ZM139.21 20.8327C138.946 20.9025 138.664 20.936 138.356 20.936C138.033 20.936 137.759 20.8999 137.536 20.8276C137.31 20.7553 137.144 20.6468 137.033 20.4996C136.923 20.355 136.867 20.1845 136.867 19.9857C136.867 19.7636 136.936 19.5595 137.069 19.3762C137.205 19.1928 137.408 19.0353 137.674 18.901C137.941 18.7693 138.264 18.666 138.641 18.5937C138.961 18.5317 139.32 18.4955 139.715 18.48V20.0244C139.715 20.2387 139.728 20.4453 139.751 20.6442C139.574 20.7191 139.392 20.7837 139.207 20.8327H139.21Z" fill="white"/>
  <path d="M176.845 13.9219H175.535C175.205 13.9219 174.943 13.8728 174.753 13.7747C174.564 13.6765 174.466 13.5706 174.466 13.4596C174.466 13.3408 174.561 13.2323 174.753 13.1316C174.943 13.0335 175.202 12.9844 175.523 12.9844C175.625 12.9844 175.735 12.9921 175.853 13.0102C175.971 13.0283 176.081 13.0438 176.184 13.0619L176.656 12.0366C176.469 11.9333 176.271 11.8584 176.063 11.8119C175.856 11.7654 175.64 11.7422 175.42 11.7422C175.064 11.7422 174.73 11.8093 174.42 11.941C174.11 12.0728 173.861 12.2613 173.669 12.504C173.477 12.7468 173.382 13.036 173.382 13.3692C173.382 13.5758 173.428 13.7566 173.505 13.9193H173.064V15.1744H176.843V13.9193L176.845 13.9219Z" fill="white"/>
  <path d="M185.941 24.0815C186.582 24.1461 187.339 24.1513 188.213 24.0996C188.426 23.6373 188.59 23.1312 188.71 22.5811C188.828 22.031 188.89 21.5067 188.89 21.0109C188.89 20.4221 188.821 19.8771 188.68 19.3813C188.539 18.8854 188.336 18.4567 188.069 18.0926C187.803 17.7285 187.477 17.4444 187.095 17.2404C186.713 17.0363 186.28 16.933 185.798 16.933C185.316 16.933 184.867 17.0157 184.48 17.1758C184.093 17.3385 183.744 17.5528 183.429 17.824C183.116 18.0926 182.832 18.387 182.575 18.7021C182.319 19.0172 182.083 19.3296 181.863 19.637C181.624 19.9882 181.401 20.2723 181.188 20.4892C180.976 20.7061 180.75 20.8637 180.506 20.9567C180.265 21.0496 179.973 21.0987 179.635 21.0987H178.158V17.3669C177.784 17.1965 177.356 17.0363 176.874 16.8865C176.389 16.7368 175.894 16.6619 175.384 16.6619C174.874 16.6619 174.369 16.7523 173.915 16.9305C173.461 17.1112 173.061 17.3592 172.718 17.6794C172.374 17.9996 172.105 18.3741 171.91 18.8002C171.715 19.2289 171.618 19.6964 171.618 20.2103C171.618 20.843 171.772 21.4215 172.082 21.9483C172.392 22.4752 172.825 22.8961 173.387 23.2112C173.946 23.5289 174.61 23.6864 175.371 23.6864H175.956V23.8284C175.956 24.1435 175.843 24.3914 175.617 24.5671C175.392 24.7427 174.974 24.8305 174.364 24.8305H172.187V27.4208H174.364C175.135 27.4208 175.807 27.2762 176.374 26.9843C176.943 26.6925 177.381 26.2793 177.691 25.7395C178.002 25.2024 178.155 24.5645 178.155 23.8284V23.6864H179.632C180.217 23.6864 180.732 23.5986 181.178 23.423C181.606 23.2551 182.011 22.9943 182.393 22.6482C182.583 22.8135 182.775 22.9685 182.98 23.1079C183.355 23.3636 183.78 23.5728 184.26 23.7355C184.739 23.8982 185.298 24.0118 185.939 24.0764L185.941 24.0815ZM175.371 21.3311C175.033 21.3311 174.748 21.2769 174.518 21.171C174.289 21.0651 174.118 20.9257 174.002 20.7552C173.887 20.5848 173.83 20.4091 173.83 20.2284C173.83 20.0321 173.895 19.841 174.023 19.6576C174.151 19.4743 174.328 19.3219 174.559 19.2031C174.787 19.0843 175.064 19.0223 175.387 19.0223C175.569 19.0223 175.758 19.0481 175.958 19.0972V21.3311H175.374H175.371ZM185.126 19.6705C185.352 19.5466 185.562 19.4846 185.757 19.4846C186.044 19.4846 186.27 19.606 186.431 19.8513C186.593 20.0941 186.672 20.4815 186.672 21.0109C186.672 21.1917 186.659 21.375 186.636 21.5558C186.4 21.5558 186.17 21.5558 185.959 21.5506C185.357 21.5326 184.847 21.4602 184.426 21.326C184.183 21.2485 183.962 21.1426 183.767 21.0109C183.993 20.7036 184.214 20.4401 184.421 20.231C184.667 19.983 184.903 19.7971 185.129 19.6731L185.126 19.6705Z" fill="white"/>
  <path d="M9.07814 30.582L7.89626 35.2487L6.69644 30.582H4.7634L3.57127 35.2513L2.37401 30.582H0.258942L2.49707 37.307H4.52497L5.68377 32.9993L6.81181 37.307H8.84997L11.1086 30.582H9.07814Z" fill="white"/>
  <path d="M13.4801 32.01C13.2134 32.01 12.9417 32.0281 12.6648 32.0668C12.3879 32.1056 12.111 32.165 11.8316 32.2502C11.5521 32.3328 11.2701 32.4335 10.983 32.5472L11.4599 33.8333C11.7444 33.7119 12.0239 33.6189 12.2982 33.5544C12.5699 33.4898 12.8135 33.4588 13.0212 33.4588C13.3134 33.4588 13.5365 33.5208 13.6877 33.6422C13.839 33.7636 13.9159 33.934 13.9159 34.1509V34.169H12.6494C12.0008 34.1768 11.506 34.3136 11.1625 34.5874C10.8189 34.8586 10.6472 35.2485 10.6472 35.7521C10.6472 36.0775 10.7164 36.3642 10.8574 36.6121C10.9958 36.8575 11.1958 37.0512 11.4573 37.188C11.7188 37.3249 12.0316 37.3946 12.4007 37.3946C12.8443 37.3946 13.216 37.2965 13.516 37.1028C13.6749 36.9995 13.8057 36.873 13.9159 36.7258V37.3094H15.8028V33.9211C15.8028 33.3142 15.5977 32.8442 15.1875 32.511C14.7773 32.1779 14.2082 32.0126 13.4775 32.0126L13.4801 32.01ZM13.7185 35.8735C13.6288 35.9536 13.5288 36.0155 13.4134 36.062C13.298 36.1085 13.175 36.1292 13.0417 36.1292C12.8571 36.1292 12.7135 36.0827 12.6135 35.9897C12.511 35.8968 12.4623 35.7702 12.4623 35.6101C12.4623 35.45 12.511 35.3208 12.611 35.2408C12.7084 35.1607 12.8545 35.122 13.0442 35.122H13.921V35.592C13.8774 35.7005 13.8108 35.796 13.7211 35.8761L13.7185 35.8735Z" fill="white"/>
  <path d="M18.4947 33.3684C18.5665 33.327 18.6613 33.3064 18.7767 33.3064C18.9792 33.3064 19.2253 33.3529 19.515 33.4458C19.8047 33.5388 20.1226 33.6757 20.4713 33.8539L21.1097 32.6349C20.761 32.4232 20.3918 32.2656 20.0047 32.1597C19.6176 32.0538 19.2279 32.0022 18.8331 32.0022C18.3947 32.0022 18.0101 32.0719 17.6794 32.214C17.3487 32.356 17.0898 32.5523 16.9026 32.808C16.7155 33.0636 16.6206 33.3761 16.6206 33.748C16.6206 34.0424 16.6847 34.2852 16.8103 34.4763C16.9359 34.6674 17.1 34.8249 17.3 34.9463C17.5 35.0677 17.7153 35.1658 17.9435 35.2381C18.1716 35.313 18.387 35.375 18.587 35.4241C18.7869 35.4757 18.951 35.5325 19.0766 35.5971C19.2023 35.6617 19.2664 35.7417 19.2664 35.8373C19.2664 35.8889 19.2484 35.9328 19.2151 35.9664C19.1818 36 19.1305 36.0284 19.0664 36.0491C19.0023 36.0671 18.9254 36.0775 18.8382 36.0775C18.5511 36.0775 18.2486 36.0232 17.9281 35.9148C17.6076 35.8063 17.2846 35.6462 16.9616 35.4344L16.3719 36.6534C16.7078 36.8961 17.0846 37.0795 17.5 37.206C17.9153 37.33 18.3537 37.392 18.81 37.392C19.2664 37.392 19.656 37.3223 19.997 37.1802C20.3354 37.0382 20.6046 36.8419 20.7969 36.5862C20.9892 36.3306 21.0866 36.0232 21.0866 35.6643C21.0866 35.3647 21.0225 35.1168 20.8918 34.9256C20.761 34.7345 20.5944 34.5744 20.3867 34.4505C20.179 34.3265 19.9637 34.2284 19.7355 34.1586C19.5073 34.0889 19.2894 34.0243 19.0843 33.9675C18.8767 33.9107 18.71 33.8513 18.5793 33.7893C18.4485 33.7273 18.3844 33.6499 18.3844 33.5543C18.3844 33.4717 18.4203 33.4097 18.4947 33.3658V33.3684Z" fill="white"/>
  <path d="M25.7859 32.4103C25.3731 32.1521 24.863 32.0229 24.2528 32.0229C23.7067 32.0229 23.2299 32.134 22.8197 32.3587C22.4095 32.5834 22.0916 32.8959 21.8634 33.2987C21.6352 33.7016 21.5199 34.1742 21.5199 34.7191C21.5199 35.2641 21.6327 35.716 21.8583 36.1163C22.0839 36.5166 22.4044 36.8265 22.8197 37.046C23.235 37.2655 23.7324 37.3766 24.3092 37.3766C24.7989 37.3766 25.2373 37.2939 25.6295 37.1312C26.0192 36.9685 26.3474 36.7361 26.6165 36.4365L25.6167 35.4474C25.2732 35.7806 24.8937 35.9458 24.4733 35.9458C24.2579 35.9458 24.0682 35.8942 23.9067 35.7883C23.7452 35.6824 23.617 35.5301 23.5247 35.3338C23.5016 35.2847 23.4914 35.2253 23.4734 35.1711H26.9498C26.9883 34.5306 26.9062 33.9754 26.7063 33.5053C26.5063 33.0353 26.1987 32.6712 25.7859 32.4103ZM23.4247 34.2181C23.4427 34.1277 23.4606 34.0399 23.4914 33.9599C23.5606 33.7688 23.6606 33.6164 23.7913 33.5053C23.9221 33.3943 24.081 33.3375 24.2733 33.3375C24.4323 33.3375 24.5707 33.3736 24.6912 33.4485C24.8117 33.5234 24.904 33.6241 24.9681 33.7558C25.0322 33.8876 25.0604 34.0425 25.0527 34.2207H23.4247V34.2181Z" fill="white"/>
  <path d="M29.693 30.1895H27.7676V37.3095H29.693V30.1895Z" fill="white"/>
  <path d="M38.8275 30.582H32.9592V32.1755H34.8922V37.307H36.8842V32.1755H38.8275V30.582Z" fill="white"/>
  <path d="M41.4553 32.01C41.1887 32.01 40.917 32.0281 40.6401 32.0668C40.3632 32.1056 40.0863 32.165 39.8069 32.2502C39.5274 32.3328 39.2454 32.4335 38.9583 32.5472L39.4351 33.8333C39.7197 33.7119 39.9992 33.6189 40.2735 33.5544C40.5452 33.4898 40.7888 33.4588 40.9964 33.4588C41.2887 33.4588 41.5117 33.5208 41.663 33.6422C41.8143 33.7636 41.8912 33.934 41.8912 34.1509V34.169H40.6247C39.9761 34.1768 39.4813 34.3136 39.1377 34.5874C38.7942 34.8586 38.6224 35.2485 38.6224 35.7521C38.6224 36.0775 38.6917 36.3642 38.8327 36.6121C38.9711 36.8575 39.1711 37.0512 39.4326 37.188C39.6941 37.3249 40.0068 37.3946 40.376 37.3946C40.8195 37.3946 41.1913 37.2965 41.4912 37.1028C41.6502 36.9995 41.7809 36.873 41.8912 36.7258V37.3094H43.7781V33.9211C43.7781 33.3142 43.573 32.8442 43.1628 32.511C42.7526 32.1779 42.1834 32.0126 41.4528 32.0126L41.4553 32.01ZM41.6938 35.8735C41.604 35.9536 41.5041 36.0155 41.3887 36.062C41.2733 36.1085 41.1503 36.1292 41.017 36.1292C40.8324 36.1292 40.6888 36.0827 40.5888 35.9897C40.4863 35.8968 40.4376 35.7702 40.4376 35.6101C40.4376 35.45 40.4863 35.3208 40.5862 35.2408C40.6837 35.1607 40.8298 35.122 41.0195 35.122H41.8963V35.592C41.8527 35.7005 41.7861 35.796 41.6963 35.8761L41.6938 35.8735Z" fill="white"/>
  <path d="M46.47 33.3684C46.5418 33.327 46.6366 33.3064 46.752 33.3064C46.9545 33.3064 47.2006 33.3529 47.4903 33.4458C47.78 33.5388 48.0979 33.6757 48.4466 33.8539L49.085 32.6349C48.7363 32.4232 48.3671 32.2656 47.98 32.1597C47.5929 32.0538 47.2032 32.0022 46.8084 32.0022C46.37 32.0022 45.9854 32.0719 45.6547 32.214C45.324 32.356 45.0651 32.5523 44.8779 32.808C44.6908 33.0636 44.5959 33.3761 44.5959 33.748C44.5959 34.0424 44.66 34.2852 44.7856 34.4763C44.9138 34.6674 45.0753 34.8249 45.2753 34.9463C45.4753 35.0677 45.6906 35.1658 45.9188 35.2381C46.147 35.313 46.3623 35.375 46.5623 35.4241C46.7623 35.4757 46.9263 35.5325 47.052 35.5971C47.1776 35.6617 47.2417 35.7417 47.2417 35.8373C47.2417 35.8889 47.2237 35.9328 47.1904 35.9664C47.1545 36.0026 47.1058 36.0284 47.0417 36.0491C46.9776 36.0671 46.9007 36.0775 46.8135 36.0775C46.529 36.0775 46.2239 36.0232 45.9034 35.9148C45.5829 35.8063 45.2599 35.6462 44.9369 35.4344L44.3472 36.6534C44.6831 36.8961 45.0599 37.0795 45.4753 37.206C45.8906 37.33 46.329 37.392 46.7853 37.392C47.2417 37.392 47.6314 37.3223 47.9723 37.1802C48.3133 37.0382 48.5799 36.8419 48.7722 36.5862C48.9671 36.3306 49.0619 36.0232 49.0619 35.6643C49.0619 35.3647 48.9978 35.1168 48.8671 34.9256C48.7363 34.7345 48.5697 34.5744 48.362 34.4505C48.1544 34.3265 47.939 34.2284 47.7083 34.1586C47.4775 34.0889 47.2622 34.0243 47.0571 33.9675C46.8494 33.9107 46.6828 33.8513 46.552 33.7893C46.4213 33.7273 46.3572 33.6499 46.3572 33.5543C46.3572 33.4717 46.3931 33.4097 46.4674 33.3658L46.47 33.3684Z" fill="white"/>
  <path d="M53.7612 32.4103C53.3485 32.1521 52.8383 32.0229 52.2281 32.0229C51.682 32.0229 51.2052 32.134 50.795 32.3587C50.3848 32.5834 50.0669 32.8959 49.8387 33.2987C49.6105 33.7016 49.4952 34.1742 49.4952 34.7191C49.4952 35.2641 49.608 35.716 49.8336 36.1163C50.0592 36.5166 50.3797 36.8265 50.795 37.046C51.2103 37.2655 51.7077 37.3766 52.2845 37.3766C52.7742 37.3766 53.2126 37.2939 53.6048 37.1312C53.9945 36.9685 54.3227 36.7361 54.5919 36.4365L53.592 35.4474C53.2485 35.7806 52.869 35.9458 52.4486 35.9458C52.2332 35.9458 52.0435 35.8942 51.882 35.7883C51.7205 35.6824 51.5923 35.5301 51.5 35.3338C51.4769 35.2847 51.4667 35.2253 51.4487 35.1711H54.9251C54.9636 34.5306 54.8816 33.9754 54.6816 33.5053C54.4816 33.0353 54.174 32.6712 53.7612 32.4103ZM51.4 34.2181C51.418 34.1277 51.4359 34.0399 51.4667 33.9599C51.5359 33.7688 51.6359 33.6164 51.7666 33.5053C51.8974 33.3943 52.0563 33.3375 52.2486 33.3375C52.4076 33.3375 52.546 33.3736 52.6691 33.4485C52.7896 33.5234 52.8819 33.6241 52.9459 33.7558C53.01 33.8876 53.0382 34.0425 53.0305 34.2207H51.4026L51.4 34.2181Z" fill="white"/>
  <path d="M57.6683 30.1895H55.743V37.3095H57.6683V30.1895Z" fill="white"/>
  <path d="M65.7928 33.2679H63.4213V30.582H61.4396V37.307H63.4213V34.8045H65.7928V37.307H67.7745V30.582H65.7928V33.2679Z" fill="white"/>
  <path d="M72.1944 34.67C72.1944 34.9695 72.1226 35.2149 71.979 35.3982C71.8354 35.5842 71.6406 35.6797 71.3919 35.6849C71.1817 35.6849 71.015 35.61 70.8869 35.4602C70.7587 35.3104 70.6971 35.1064 70.6971 34.8507V32.0874H68.7718V35.3982C68.7718 35.8011 68.8487 36.1523 69 36.4493C69.1512 36.7463 69.3666 36.9788 69.6435 37.144C69.9203 37.3093 70.2382 37.3945 70.5997 37.3945C71.0176 37.3945 71.3791 37.2861 71.6816 37.0691C71.8816 36.9245 72.0508 36.7334 72.1918 36.5061V37.3093H74.1171V32.09H72.1918V34.67H72.1944Z" fill="white"/>
  <path d="M83.2389 32.2502C82.962 32.0901 82.6415 32.01 82.2723 32.01C81.8468 32.01 81.4801 32.1159 81.1725 32.3277C80.8956 32.5188 80.6777 32.7925 80.5162 33.1437C80.4906 33.074 80.4623 33.0069 80.429 32.9423C80.2726 32.6427 80.0573 32.4103 79.7804 32.2502C79.5035 32.0901 79.1805 32.01 78.8139 32.01C78.3934 32.01 78.0319 32.1159 77.7243 32.3277C77.5192 32.4697 77.3474 32.6582 77.2064 32.8881V32.0875H75.2811V37.3068H77.2064V34.7269C77.2064 34.4273 77.2808 34.1819 77.4295 33.9986C77.5782 33.8126 77.7781 33.7171 78.0243 33.7119C78.2396 33.7119 78.4139 33.7868 78.5421 33.9366C78.6729 34.0864 78.737 34.293 78.737 34.5564V37.3094H80.6623V34.7294C80.6623 34.4299 80.7341 34.1845 80.8802 34.0012C81.0264 33.8152 81.2238 33.7197 81.4699 33.7145C81.6852 33.7145 81.8596 33.7894 81.9878 33.9392C82.1185 34.089 82.1826 34.2956 82.1826 34.559V37.312H84.108V34.0012C84.108 33.5983 84.031 33.2471 83.8798 32.9449C83.7285 32.6453 83.5132 32.4129 83.2363 32.2528L83.2389 32.2502Z" fill="white"/>
  <path d="M87.569 32.01C87.3024 32.01 87.0306 32.0281 86.7537 32.0668C86.4768 32.1056 86.2 32.165 85.9205 32.2502C85.6411 32.3328 85.3591 32.4335 85.0719 32.5472L85.5488 33.8333C85.8359 33.7119 86.1154 33.6189 86.3871 33.5544C86.6589 33.4898 86.9024 33.4588 87.1101 33.4588C87.4024 33.4588 87.6254 33.5208 87.7767 33.6422C87.9279 33.7636 88.0048 33.934 88.0048 34.1509V34.169H86.7383C86.0897 34.1768 85.5949 34.3136 85.2514 34.5874C84.9079 34.8586 84.7361 35.2485 84.7361 35.7521C84.7361 36.0775 84.8053 36.3642 84.9463 36.6121C85.0848 36.8575 85.2847 37.0512 85.5462 37.188C85.8077 37.3249 86.1205 37.3946 86.4897 37.3946C86.9332 37.3946 87.3049 37.2965 87.6049 37.1028C87.7638 36.9995 87.8946 36.873 88.0048 36.7258V37.3094H89.8917V33.9211C89.8917 33.3142 89.6866 32.8442 89.2764 32.511C88.8662 32.1779 88.2971 32.0126 87.5664 32.0126L87.569 32.01ZM87.8074 35.8735C87.7177 35.9536 87.6177 36.0155 87.5023 36.062C87.387 36.1085 87.2639 36.1292 87.1306 36.1292C86.946 36.1292 86.8024 36.0827 86.7025 35.9897C86.5999 35.8968 86.5486 35.7702 86.5486 35.6101C86.5486 35.45 86.5973 35.3208 86.6973 35.2408C86.7947 35.1607 86.9409 35.122 87.1306 35.122H88.0074V35.592C87.9638 35.7005 87.8972 35.796 87.8074 35.8761V35.8735Z" fill="white"/>
  <path d="M95.4601 32.2502C95.1781 32.0901 94.8525 32.01 94.4834 32.01C94.0501 32.01 93.6809 32.1159 93.3682 32.3277C93.1554 32.4723 92.981 32.666 92.8349 32.901V32.0875H90.9095V37.3068H92.8349V34.7269C92.8349 34.4273 92.9118 34.1819 93.0631 33.9986C93.2143 33.8152 93.422 33.7171 93.6835 33.7119C93.9065 33.7119 94.086 33.7868 94.2219 33.9366C94.3578 34.0864 94.427 34.293 94.427 34.5564V37.3094H96.3523V33.9986C96.3523 33.5957 96.2754 33.2445 96.119 32.9423C95.9626 32.6427 95.7447 32.4103 95.4627 32.2502H95.4601Z" fill="white"/>
  <path d="M98.3417 29.603C98.0572 29.603 97.8187 29.6986 97.6316 29.8871C97.4444 30.0756 97.3496 30.3132 97.3496 30.6025C97.3496 30.8917 97.4419 31.1371 97.6316 31.323C97.8187 31.509 98.0546 31.6019 98.3417 31.6019C98.6289 31.6019 98.8724 31.509 99.057 31.323C99.2416 31.1371 99.3339 30.8969 99.3339 30.6025C99.3339 30.3081 99.2416 30.0756 99.057 29.8871C98.8724 29.6986 98.634 29.603 98.3417 29.603Z" fill="white"/>
  <path d="M99.2954 32.0874H97.3701V37.3067H99.2954V32.0874Z" fill="white"/>
  <path d="M103.333 35.8348C103.231 35.8632 103.144 35.8787 103.067 35.8787C102.933 35.8787 102.826 35.8374 102.746 35.7548C102.667 35.6721 102.628 35.5482 102.628 35.3803V33.5958H103.905V32.3587H102.628V30.9099H100.713V32.3587H99.9979V33.5958H100.713V35.6773C100.713 36.0363 100.79 36.3436 100.946 36.6044C101.103 36.8627 101.318 37.0615 101.595 37.1958C101.872 37.3301 102.192 37.3973 102.562 37.3973C102.828 37.3973 103.09 37.3663 103.349 37.3069C103.605 37.2449 103.823 37.1649 104.002 37.0615L103.659 35.7264C103.544 35.7703 103.436 35.809 103.336 35.8374L103.333 35.8348Z" fill="white"/>
  <path d="M107.171 32.01C106.905 32.01 106.633 32.0281 106.356 32.0668C106.079 32.1056 105.802 32.165 105.523 32.2502C105.243 32.3328 104.961 32.4335 104.674 32.5472L105.151 33.8333C105.438 33.7119 105.718 33.6189 105.989 33.5544C106.261 33.4898 106.505 33.4588 106.712 33.4588C107.005 33.4588 107.228 33.5208 107.379 33.6422C107.53 33.7636 107.607 33.934 107.607 34.1509V34.169H106.341C105.692 34.1768 105.197 34.3136 104.854 34.5874C104.51 34.8586 104.338 35.2485 104.338 35.7521C104.338 36.0775 104.408 36.3642 104.549 36.6121C104.687 36.8575 104.887 37.0512 105.148 37.188C105.41 37.3249 105.723 37.3946 106.092 37.3946C106.535 37.3946 106.907 37.2965 107.207 37.1028C107.366 36.9995 107.497 36.873 107.607 36.7258V37.3094H109.494V33.9211C109.494 33.3142 109.289 32.8442 108.879 32.511C108.468 32.1779 107.899 32.0126 107.169 32.0126L107.171 32.01ZM107.41 35.8735C107.32 35.9536 107.22 36.0155 107.105 36.062C106.989 36.1085 106.866 36.1292 106.733 36.1292C106.548 36.1292 106.405 36.0827 106.305 35.9897C106.202 35.8968 106.151 35.7702 106.151 35.6101C106.151 35.45 106.2 35.3208 106.3 35.2408C106.397 35.1607 106.543 35.122 106.733 35.122H107.61V35.592C107.566 35.7005 107.499 35.796 107.41 35.8761V35.8735Z" fill="white"/>
  <path d="M112.44 32.9191V32.0875H110.517V37.3068H112.44V34.8121C112.44 34.5564 112.506 34.3446 112.64 34.1742C112.773 34.0037 112.963 33.8824 113.206 33.8049C113.45 33.7274 113.737 33.7119 114.068 33.7558V32.01C113.647 32.01 113.283 32.1185 112.973 32.3354C112.76 32.4826 112.586 32.6789 112.44 32.9165V32.9191Z" fill="white"/>
  <path d="M116.67 32.0874H114.744V37.3067H116.67V32.0874Z" fill="white"/>
  <path d="M115.716 29.603C115.432 29.603 115.193 29.6986 115.006 29.8871C114.819 30.0756 114.724 30.3132 114.724 30.6025C114.724 30.8917 114.816 31.1371 115.006 31.323C115.193 31.509 115.429 31.6019 115.716 31.6019C116.003 31.6019 116.247 31.509 116.431 31.323C116.616 31.1371 116.708 30.8969 116.708 30.6025C116.708 30.3081 116.616 30.0756 116.431 29.8871C116.247 29.6986 116.008 29.603 115.716 29.603Z" fill="white"/>
  <path d="M120.269 32.01C120.003 32.01 119.731 32.0281 119.454 32.0668C119.177 32.1056 118.9 32.165 118.621 32.2502C118.341 32.3328 118.059 32.4335 117.772 32.5472L118.249 33.8333C118.534 33.7119 118.813 33.6189 119.087 33.5544C119.362 33.4898 119.603 33.4588 119.81 33.4588C120.103 33.4588 120.326 33.5208 120.477 33.6422C120.628 33.7636 120.705 33.934 120.705 34.1509V34.169H119.439C118.79 34.1768 118.295 34.3136 117.952 34.5874C117.608 34.8586 117.436 35.2485 117.436 35.7521C117.436 36.0775 117.506 36.3642 117.647 36.6121C117.785 36.8575 117.985 37.0512 118.246 37.188C118.508 37.3249 118.821 37.3946 119.19 37.3946C119.633 37.3946 120.005 37.2965 120.305 37.1028C120.464 36.9995 120.595 36.873 120.705 36.7258V37.3094H122.592V33.9211C122.592 33.3142 122.387 32.8442 121.977 32.511C121.566 32.1779 120.997 32.0126 120.267 32.0126L120.269 32.01ZM120.508 35.8735C120.418 35.9536 120.318 36.0155 120.203 36.062C120.087 36.1059 119.964 36.1292 119.831 36.1292C119.646 36.1292 119.503 36.0827 119.403 35.9897C119.3 35.8968 119.249 35.7702 119.249 35.6101C119.249 35.45 119.298 35.3208 119.398 35.2408C119.495 35.1607 119.641 35.122 119.831 35.122H120.708V35.592C120.664 35.7005 120.597 35.796 120.508 35.8761V35.8735Z" fill="white"/>
  <path d="M128.16 32.2502C127.878 32.0901 127.553 32.01 127.184 32.01C126.75 32.01 126.381 32.1159 126.068 32.3277C125.856 32.4723 125.681 32.666 125.535 32.901V32.0875H123.612V37.3068H125.535V34.7269C125.535 34.4273 125.612 34.1819 125.763 33.9986C125.915 33.8152 126.122 33.7171 126.384 33.7119C126.607 33.7119 126.786 33.7868 126.922 33.9366C127.058 34.0864 127.127 34.293 127.127 34.5564V37.3094H129.05V33.9986C129.05 33.5957 128.973 33.2445 128.817 32.9423C128.66 32.6427 128.442 32.4103 128.16 32.2502Z" fill="white"/>
  <path d="M132.624 37.307H134.606V34.9956H137.577V33.459H134.606V32.1161H137.805V30.582H132.624V37.307Z" fill="white"/>
  <path d="M142.54 32.3508C142.11 32.1313 141.605 32.0203 141.025 32.0203C140.446 32.0203 139.933 32.1313 139.502 32.3508C139.072 32.5703 138.736 32.8828 138.497 33.2805C138.259 33.6808 138.141 34.1535 138.141 34.6958C138.141 35.2381 138.259 35.703 138.497 36.1059C138.736 36.5087 139.072 36.8212 139.502 37.0407C139.933 37.2603 140.443 37.3713 141.025 37.3713C141.607 37.3713 142.107 37.2603 142.54 37.0407C142.974 36.8186 143.307 36.5087 143.545 36.1059C143.784 35.703 143.902 35.233 143.902 34.6958C143.902 34.1586 143.784 33.6808 143.545 33.2805C143.307 32.8803 142.971 32.5703 142.54 32.3508ZM141.843 35.3311C141.766 35.5041 141.658 35.6384 141.52 35.734C141.379 35.8295 141.215 35.8786 141.025 35.8786C140.835 35.8786 140.669 35.8295 140.525 35.734C140.382 35.6384 140.274 35.5041 140.197 35.3311C140.12 35.1581 140.082 34.954 140.082 34.7164C140.082 34.4789 140.12 34.2826 140.197 34.107C140.274 33.9314 140.382 33.7945 140.525 33.6989C140.669 33.6034 140.835 33.5543 141.025 33.5543C141.215 33.5543 141.381 33.6034 141.52 33.6989C141.658 33.7945 141.769 33.9314 141.843 34.107C141.917 34.2826 141.958 34.4866 141.958 34.7164C141.958 34.9463 141.92 35.1581 141.843 35.3311Z" fill="white"/>
  <path d="M147.94 34.67C147.94 34.9695 147.868 35.2149 147.724 35.3982C147.581 35.5842 147.386 35.6797 147.14 35.6849C146.929 35.6849 146.763 35.61 146.635 35.4602C146.506 35.3104 146.445 35.1064 146.445 34.8507V32.0874H144.52V35.3982C144.52 35.8011 144.596 36.1523 144.748 36.4493C144.899 36.7463 145.114 36.9788 145.391 37.144C145.668 37.3093 145.986 37.3945 146.347 37.3945C146.765 37.3945 147.127 37.2861 147.429 37.0691C147.629 36.9245 147.799 36.7334 147.94 36.5061V37.3093H149.865V32.09H147.94V34.67Z" fill="white"/>
  <path d="M155.574 32.2502C155.292 32.0901 154.967 32.01 154.597 32.01C154.164 32.01 153.795 32.1159 153.482 32.3277C153.269 32.4723 153.095 32.666 152.949 32.901V32.0875H151.026V37.3068H152.949V34.7269C152.949 34.4273 153.026 34.1819 153.177 33.9986C153.328 33.8152 153.536 33.7171 153.798 33.7119C154.021 33.7119 154.2 33.7868 154.336 33.9366C154.472 34.0864 154.541 34.293 154.541 34.5564V37.3094H156.464V33.9986C156.464 33.5957 156.387 33.2445 156.23 32.9423C156.074 32.6427 155.856 32.4103 155.574 32.2502Z" fill="white"/>
  <path d="M160.904 32.6997C160.794 32.5654 160.671 32.444 160.532 32.3459C160.227 32.1289 159.863 32.0205 159.438 32.0205C158.969 32.0205 158.556 32.1315 158.2 32.351C157.843 32.5706 157.569 32.8779 157.377 33.273C157.182 33.6656 157.087 34.133 157.087 34.6702C157.087 35.2074 157.187 35.6903 157.387 36.1009C157.587 36.509 157.866 36.824 158.225 37.0461C158.584 37.2656 159.005 37.3767 159.486 37.3767C159.899 37.3767 160.256 37.2656 160.558 37.0461C160.686 36.9506 160.802 36.8369 160.907 36.7078V37.3095H162.83V30.1895H160.907V32.7023L160.904 32.6997ZM160.791 35.3313C160.715 35.5043 160.607 35.6412 160.468 35.7394C160.33 35.8375 160.163 35.8891 159.974 35.8891C159.784 35.8891 159.617 35.8401 159.474 35.7394C159.33 35.6412 159.222 35.5043 159.146 35.3313C159.069 35.1583 159.03 34.9543 159.03 34.7167C159.03 34.4791 159.069 34.2828 159.146 34.1072C159.222 33.9316 159.33 33.7947 159.474 33.6991C159.617 33.6036 159.784 33.5545 159.974 33.5545C160.163 33.5545 160.33 33.6036 160.468 33.6991C160.607 33.7947 160.717 33.9316 160.791 34.1072C160.866 34.2828 160.907 34.4868 160.907 34.7167C160.907 34.9465 160.868 35.1583 160.791 35.3313Z" fill="white"/>
  <path d="M166.478 32.01C166.211 32.01 165.939 32.0281 165.662 32.0668C165.386 32.1056 165.109 32.165 164.829 32.2502C164.55 32.3328 164.268 32.4335 163.981 32.5472L164.458 33.8333C164.742 33.7119 165.022 33.6189 165.296 33.5544C165.568 33.4898 165.811 33.4588 166.019 33.4588C166.311 33.4588 166.534 33.5208 166.685 33.6422C166.837 33.7636 166.914 33.934 166.914 34.1509V34.169H165.647C164.998 34.1768 164.504 34.3136 164.16 34.5874C163.817 34.8586 163.645 35.2485 163.645 35.7521C163.645 36.0775 163.714 36.3642 163.855 36.6121C163.994 36.8575 164.193 37.0512 164.455 37.188C164.716 37.3249 165.029 37.3946 165.398 37.3946C165.842 37.3946 166.214 37.2965 166.514 37.1028C166.673 36.9995 166.803 36.873 166.914 36.7258V37.3094H168.8V33.9211C168.8 33.3142 168.595 32.8442 168.185 32.511C167.775 32.1779 167.206 32.0126 166.475 32.0126L166.478 32.01ZM166.716 35.8735C166.626 35.9536 166.526 36.0155 166.411 36.062C166.296 36.1059 166.173 36.1292 166.039 36.1292C165.855 36.1292 165.711 36.0827 165.611 35.9897C165.509 35.8968 165.46 35.7702 165.46 35.6101C165.46 35.45 165.509 35.3208 165.609 35.2408C165.706 35.1607 165.852 35.122 166.042 35.122H166.919V35.592C166.875 35.7005 166.808 35.796 166.719 35.8761L166.716 35.8735Z" fill="white"/>
  <path d="M172.697 35.8348C172.595 35.8632 172.508 35.8787 172.431 35.8787C172.297 35.8787 172.19 35.8374 172.113 35.7548C172.033 35.6721 171.995 35.5482 171.995 35.3803V33.5958H173.272V32.3587H171.995V30.9099H170.08V32.3587H169.365V33.5958H170.08V35.6773C170.08 36.0363 170.157 36.3436 170.313 36.6044C170.469 36.8653 170.685 37.0615 170.962 37.1958C171.239 37.3301 171.559 37.3973 171.928 37.3973C172.195 37.3973 172.456 37.3663 172.713 37.3069C172.969 37.2449 173.187 37.1649 173.366 37.0615L173.023 35.7264C172.908 35.7703 172.8 35.809 172.7 35.8374L172.697 35.8348Z" fill="white"/>
  <path d="M175.069 29.603C174.784 29.603 174.546 29.6986 174.359 29.8871C174.171 30.0756 174.077 30.3132 174.077 30.6025C174.077 30.8917 174.169 31.1371 174.359 31.323C174.546 31.509 174.782 31.6019 175.069 31.6019C175.356 31.6019 175.599 31.509 175.784 31.323C175.969 31.1371 176.061 30.8969 176.061 30.6025C176.061 30.3081 175.969 30.0756 175.784 29.8871C175.599 29.6986 175.361 29.603 175.069 29.603Z" fill="white"/>
  <path d="M176.02 32.0874H174.097V37.3067H176.02V32.0874Z" fill="white"/>
  <path d="M181.183 32.3508C180.753 32.1313 180.248 32.0203 179.668 32.0203C179.089 32.0203 178.576 32.1313 178.145 32.3508C177.712 32.5703 177.379 32.8828 177.14 33.2805C176.902 33.6808 176.784 34.1535 176.784 34.6958C176.784 35.2381 176.902 35.703 177.14 36.1059C177.379 36.5087 177.715 36.8212 178.145 37.0407C178.576 37.2603 179.084 37.3713 179.668 37.3713C180.253 37.3713 180.75 37.2603 181.183 37.0407C181.614 36.8186 181.95 36.5087 182.188 36.1059C182.427 35.703 182.545 35.233 182.545 34.6958C182.545 34.1586 182.427 33.6808 182.188 33.2805C181.95 32.8803 181.614 32.5703 181.183 32.3508ZM180.489 35.3311C180.412 35.5041 180.304 35.6384 180.165 35.734C180.027 35.8295 179.86 35.8786 179.671 35.8786C179.481 35.8786 179.314 35.8295 179.171 35.734C179.027 35.6384 178.92 35.5041 178.843 35.3311C178.766 35.1581 178.727 34.954 178.727 34.7164C178.727 34.4789 178.766 34.2826 178.843 34.107C178.92 33.9314 179.027 33.7945 179.171 33.6989C179.314 33.6034 179.481 33.5543 179.671 33.5543C179.86 33.5543 180.027 33.6034 180.165 33.6989C180.306 33.7945 180.414 33.9314 180.489 34.107C180.563 34.2826 180.604 34.4866 180.604 34.7164C180.604 34.9463 180.565 35.1581 180.489 35.3311Z" fill="white"/>
  <path d="M187.857 32.2502C187.575 32.0901 187.249 32.01 186.88 32.01C186.449 32.01 186.077 32.1159 185.765 32.3277C185.552 32.4723 185.378 32.666 185.231 32.901V32.0875H183.306V37.3068H185.231V34.7269C185.231 34.4273 185.308 34.1819 185.46 33.9986C185.611 33.8152 185.818 33.7171 186.077 33.7119C186.3 33.7119 186.48 33.7868 186.616 33.9366C186.752 34.0864 186.821 34.293 186.821 34.5564V37.3094H188.746V33.9986C188.746 33.5957 188.669 33.2445 188.513 32.9423C188.357 32.6427 188.139 32.4103 187.857 32.2502Z" fill="white"/>
</svg>