<svg xmlns="http://www.w3.org/2000/svg" width="246" height="51" viewBox="0 0 246 51" fill="none">
  <path d="M16.7298 23.6092C16.7298 23.6945 16.7247 23.7771 16.7221 23.8623H8.66433C7.9388 23.8623 7.23377 23.5188 6.84921 22.8964C6.54669 22.4032 6.539 22.0933 6.51593 21.1584C6.58259 19.0588 7.33119 17.5841 8.76687 16.7396C9.436 16.3445 10.2051 16.156 10.9794 16.1327C15.171 15.9933 17.0887 18.4854 16.7298 23.6092Z" fill="white"/>
  <path d="M23.4365 33.3196C23.5211 33.3196 23.6031 33.3248 23.6877 33.3274V41.4417C23.6877 42.1726 23.3468 42.8854 22.7289 43.2702C22.2392 43.5775 21.9316 43.5853 21.0035 43.6059C18.9167 43.5413 17.4553 42.7847 16.617 41.341C16.2248 40.667 16.0376 39.8922 16.0145 39.1123C15.8761 34.8898 18.3501 32.9581 23.4365 33.3196Z" fill="white"/>
  <path d="M18.4987 26.3103H23.6877V31.1732C17.7091 30.7058 14.466 32.7641 13.9584 37.343C13.7482 39.2463 14.102 41.1935 15.1377 42.7999C16.7144 45.2482 19.2576 46.1675 22.7622 45.5581C23.7903 45.3773 24.7568 44.8866 25.4234 44.0757C25.4285 44.0679 25.4362 44.0576 25.4439 44.0499C25.8951 43.4894 26.1181 42.7767 26.1181 42.0561V33.7635C27.0334 34.0838 27.8025 34.5796 28.4203 35.2485C28.6742 35.5223 28.8049 35.8916 28.8049 36.2635V49.858C28.7639 49.8658 28.7254 49.8735 28.6844 49.8787C21.1189 51.046 13.1201 48.6933 7.29272 42.8231C4.05474 39.5614 1.8961 35.6281 0.814209 31.4651H13.338C13.7969 31.4651 14.2558 31.4186 14.6942 31.2895C16.6144 30.7213 17.8809 29.0633 18.4987 26.3103Z" fill="white"/>
  <path d="M23.6852 18.6351V23.8622H18.8602C19.3217 17.8397 17.281 14.5728 12.7329 14.0614C10.846 13.8496 8.91301 14.206 7.31837 15.2494C4.88796 16.8376 3.97528 19.3995 4.58032 22.9299C4.75722 23.9655 5.24688 24.9391 6.05189 25.6106C6.05958 25.6157 6.06727 25.6235 6.07752 25.6312C6.63129 26.0858 7.34145 26.3104 8.05672 26.3104H16.2888C15.9684 27.2324 15.4787 28.0072 14.8121 28.6296C14.5404 28.8853 14.1763 29.017 13.8046 29.017H0.306587C0.298896 28.9756 0.291216 28.9317 0.286088 28.8904C-0.867586 21.2693 1.46795 13.2143 7.29273 7.34677C10.5307 4.08501 14.4404 1.90791 18.5705 0.823242V13.439C18.5705 13.8987 18.6141 14.361 18.7449 14.8026C19.3063 16.7369 20.9548 18.0127 23.6852 18.6351Z" fill="white"/>
  <path d="M26.3694 16.8531C26.2848 16.8531 26.2027 16.8479 26.1181 16.8453V8.72839C26.1181 7.99753 26.4591 7.28732 27.0744 6.89994C27.5641 6.5952 27.8743 6.58745 28.7998 6.56421C30.8866 6.63136 32.3505 7.38546 33.1888 8.83169C33.5785 9.50574 33.7657 10.2805 33.7913 11.0604C33.9272 15.2829 31.4532 17.2147 26.3694 16.8531Z" fill="white"/>
  <path d="M48.9891 18.7074H36.4653C36.009 18.7074 35.5501 18.7539 35.1091 18.883C33.1915 19.4486 31.9224 21.1092 31.3046 23.8596H26.1182V18.9992C32.0967 19.4641 35.3399 17.4084 35.8449 12.8269C36.0551 10.9262 35.7013 8.97894 34.6682 7.37259C33.0889 4.92433 30.5483 4.00495 27.0437 4.61443C26.0156 4.79262 25.0465 5.28589 24.3825 6.09681C24.3748 6.10456 24.3671 6.11231 24.362 6.12264C23.9082 6.68047 23.6852 7.39584 23.6852 8.11637V16.4089C22.7699 16.0861 22.0008 15.5929 21.3855 14.9214C21.1317 14.6476 21.001 14.2809 21.001 13.9064V0.311896C21.042 0.304148 21.0804 0.296401 21.1215 0.291236C28.687 -0.87866 36.6858 1.47663 42.5131 7.34677C45.7486 10.6085 47.9123 14.5469 48.9891 18.7074Z" fill="white"/>
  <path d="M33.076 26.5634C33.076 26.4782 33.0811 26.3955 33.0837 26.3103H41.1389C41.8644 26.3103 42.572 26.6538 42.954 27.2736C43.2591 27.7669 43.2668 28.0794 43.2873 29.0117C43.2232 31.1138 42.472 32.5885 41.0389 33.433C40.3698 33.8255 39.6007 34.0141 38.8264 34.0399C34.6348 34.1768 32.7171 31.6846 33.076 26.5634Z" fill="white"/>
  <path d="M42.5131 42.8234C39.2751 46.0826 35.3654 48.2622 31.2353 49.3469V36.7337C31.2353 36.274 31.1891 35.8117 31.061 35.3675C30.4969 33.4358 28.851 32.1574 26.1181 31.535V26.3105H30.9456C30.4816 32.333 32.5248 35.6 37.0703 36.1087C38.9598 36.3205 40.8928 35.9667 42.4849 34.9233C44.9179 33.3325 45.8306 30.7732 45.2255 27.2428C45.0461 26.2072 44.559 25.231 43.7539 24.5621C43.7463 24.5544 43.736 24.5467 43.7283 24.5415C43.172 24.0844 42.4644 23.8597 41.7491 23.8597H33.517C33.8349 22.9377 34.3271 22.163 34.9911 21.5431C35.2629 21.2875 35.6295 21.1558 35.9987 21.1558H49.4967C49.5044 21.1971 49.5121 21.2358 49.5172 21.2771C50.676 28.8983 48.3404 36.9532 42.5131 42.8234Z" fill="white"/>
  <path d="M59.4022 14.7819C59.6816 14.7819 59.9124 14.6915 60.097 14.5133C60.279 14.3325 60.3713 14.1026 60.3713 13.8211C60.3713 13.5397 60.279 13.2943 60.097 13.1084C59.9149 12.925 59.6842 12.832 59.4022 12.832C59.1202 12.832 58.8792 12.925 58.6946 13.1084C58.5126 13.2917 58.4203 13.5293 58.4203 13.8211C58.4203 14.113 58.51 14.3351 58.6946 14.5133C58.8766 14.6915 59.1125 14.7819 59.4022 14.7819Z" fill="white"/>
  <path d="M61.6173 14.7819C61.8967 14.7819 62.1274 14.6915 62.3043 14.5133C62.4812 14.3325 62.571 14.1026 62.571 13.8211C62.571 13.5397 62.4812 13.2943 62.3043 13.1084C62.1249 12.925 61.8967 12.832 61.6173 12.832C61.3378 12.832 61.0943 12.925 60.9097 13.1084C60.7276 13.2917 60.6353 13.5293 60.6353 13.8211C60.6353 14.113 60.7251 14.3351 60.9097 14.5133C61.0917 14.6915 61.3276 14.7819 61.6173 14.7819Z" fill="white"/>
  <path d="M58.1178 22.3332C58.4664 22.5992 58.8638 22.7954 59.315 22.922C59.7637 23.0511 60.2354 23.1131 60.7276 23.1131C61.1763 23.1131 61.6275 23.0589 62.0762 22.953C62.371 22.8832 62.6556 22.7877 62.9273 22.6715C63.1324 22.9013 63.3683 23.0976 63.64 23.2551C64.1502 23.547 64.7604 23.6916 65.4731 23.6916H66.6447C67.3574 23.6838 67.965 23.534 68.4701 23.2422C68.6393 23.1441 68.7931 23.0253 68.9367 22.8987C69.0854 23.0304 69.2418 23.1544 69.4187 23.2551C69.9288 23.547 70.539 23.6916 71.2517 23.6916H75.8715V16.9614H73.6565V21.1039H71.2517C70.9287 21.1039 70.68 21.0729 70.5082 21.0083C70.3339 20.9437 70.216 20.8353 70.1519 20.6803C70.0878 20.5254 70.057 20.3084 70.057 20.0269V16.9614H67.842V20.0269C67.842 20.3084 67.8086 20.528 67.7394 20.6803C67.6702 20.8353 67.5523 20.9437 67.3831 21.0083C67.2139 21.0729 66.9677 21.1039 66.6447 21.1039H65.4731C65.1501 21.1039 64.9014 21.0729 64.7296 21.0083C64.5553 20.9437 64.4374 20.8353 64.3733 20.6803C64.3092 20.5254 64.2784 20.3084 64.2784 20.0269V15.8845H62.0633V16.3029C61.3942 16.3287 60.7635 16.4139 60.179 16.5637C59.5432 16.7264 58.9869 16.9589 58.5126 17.2636C58.0383 17.5658 57.6666 17.948 57.3999 18.4051C57.1333 18.8622 57 19.3865 57 19.9753C57 20.497 57.1 20.9541 57.3 21.3466C57.4999 21.7392 57.7717 22.0697 58.1203 22.3332H58.1178ZM59.415 19.3761C59.5509 19.1928 59.7534 19.0352 60.0201 18.9009C60.2867 18.7692 60.6097 18.6659 60.9866 18.5936C61.3071 18.5316 61.666 18.4955 62.0608 18.48V20.0244C62.0608 20.2387 62.0736 20.4453 62.0967 20.6442C61.9198 20.7191 61.7378 20.7836 61.5532 20.8327C61.2891 20.9024 61.0071 20.936 60.6994 20.936C60.3764 20.936 60.1021 20.8998 59.8791 20.8275C59.6535 20.7552 59.4868 20.6467 59.3766 20.4995C59.2663 20.3549 59.2099 20.1845 59.2099 19.9856C59.2099 19.7635 59.2766 19.5595 59.4125 19.3761H59.415Z" fill="white"/>
  <path d="M67.6881 24.833C67.4087 24.833 67.178 24.9234 66.9934 25.1093C66.8114 25.2927 66.7191 25.5251 66.7191 25.8092C66.7191 26.0933 66.8088 26.3231 66.9934 26.5091C67.1754 26.6924 67.4061 26.7854 67.6881 26.7854C67.9702 26.7854 68.2009 26.6924 68.388 26.5091C68.5752 26.3257 68.6675 26.0933 68.6675 25.8092C68.6675 25.5251 68.5752 25.2953 68.388 25.1093C68.2009 24.926 67.9676 24.833 67.6881 24.833Z" fill="white"/>
  <path d="M69.2085 25.1069C69.0264 25.2903 68.9341 25.5227 68.9341 25.8068C68.9341 26.0909 69.0264 26.3207 69.2085 26.5066C69.3905 26.6926 69.6212 26.783 69.9032 26.783C70.1852 26.783 70.4134 26.69 70.598 26.5066C70.78 26.3233 70.8723 26.0909 70.8723 25.8068C70.8723 25.5227 70.78 25.2928 70.598 25.1069C70.416 24.921 70.1852 24.8306 69.9032 24.8306C69.6212 24.8306 69.393 24.921 69.2085 25.1069Z" fill="white"/>
  <path d="M74.764 15.5487C75.1281 15.5487 75.4229 15.4325 75.6485 15.2027C75.8741 14.9728 75.9869 14.6758 75.9869 14.3168C75.9869 13.9579 75.8741 13.6635 75.6485 13.431C75.4229 13.2012 75.1281 13.085 74.764 13.085C74.4 13.085 74.1154 13.2012 73.8846 13.431C73.6565 13.6609 73.5411 13.9579 73.5411 14.3168C73.5411 14.6758 73.6565 14.9702 73.8846 15.2027C74.1128 15.4325 74.4076 15.5487 74.764 15.5487Z" fill="white"/>
  <path d="M92.3281 23.351C92.4947 23.2606 92.6485 23.147 92.7921 23.0178C92.9023 23.1031 93.0177 23.1831 93.1433 23.2529C93.6535 23.5447 94.2637 23.6893 94.9764 23.6893H99.609V16.9592H97.394V21.1016H94.9764C94.6534 21.1016 94.4072 21.0706 94.238 21.006C94.0688 20.9415 93.9483 20.833 93.8817 20.6781C93.8125 20.5231 93.7791 20.3062 93.7791 20.0247V16.9592H91.5641V20.0247C91.5641 20.4172 91.4564 20.7116 91.2385 20.9027C91.0231 21.0938 90.777 21.192 90.5078 21.192C90.254 21.192 90.0156 21.1016 89.7951 20.9157C89.6874 20.8253 89.6054 20.7168 89.549 20.5851C89.549 20.5515 89.5541 20.5205 89.5541 20.4844V17.5867H87.3391V20.0221C87.3391 20.4146 87.2314 20.709 87.0135 20.9002C86.7981 21.0913 86.552 21.1894 86.2828 21.1894C86.029 21.1894 85.7906 21.099 85.5701 20.9131C85.424 20.7917 85.3265 20.6316 85.2701 20.4379C85.2804 20.301 85.2881 20.1667 85.2881 20.0221V18.2143H83.0859V20.0221C83.0859 20.3036 83.0525 20.5231 82.9833 20.6755C82.9141 20.8304 82.7962 20.9389 82.6269 21.0035C82.4577 21.068 82.2065 21.099 81.8758 21.099H79.7889V12.3545H77.5739V23.6893H81.8758C82.5962 23.6893 83.2089 23.5447 83.714 23.2529C84.0344 23.0695 84.3011 22.8267 84.5267 22.5375C84.7856 22.9068 85.0932 23.1909 85.4573 23.3742C85.8675 23.5834 86.2982 23.6893 86.7494 23.6893C87.2237 23.6893 87.6749 23.5757 88.0979 23.3484C88.3928 23.1909 88.6466 22.9714 88.867 22.695C89.0978 22.9894 89.3695 23.2167 89.6823 23.3742C90.0925 23.5834 90.5232 23.6893 90.9744 23.6893C91.4487 23.6893 91.8999 23.5757 92.3229 23.3484L92.3281 23.351Z" fill="white"/>
  <path d="M98.5015 15.5487C98.8656 15.5487 99.1604 15.4325 99.386 15.2027C99.6116 14.9728 99.7244 14.6758 99.7244 14.3168C99.7244 13.9579 99.6116 13.6635 99.386 13.431C99.1604 13.2012 98.8656 13.085 98.5015 13.085C98.1375 13.085 97.8529 13.2012 97.6222 13.431C97.394 13.6609 97.2786 13.9579 97.2786 14.3168C97.2786 14.6758 97.394 14.9702 97.6222 15.2027C97.8503 15.4325 98.1452 15.5487 98.5015 15.5487Z" fill="white"/>
  <path d="M105.336 23.6918H107.716H109.931V21.1015V12.3569H107.716V21.1015H105.336V15.7814H103.121V21.1015H101.314V23.6918H103.121H105.336Z" fill="white"/>
  <path d="M104.031 26.801C103.839 26.7029 103.744 26.597 103.744 26.486C103.744 26.3672 103.839 26.2561 104.031 26.158C104.221 26.0598 104.478 26.0108 104.801 26.0108C104.903 26.0108 105.013 26.0185 105.131 26.0366C105.249 26.0547 105.359 26.0702 105.462 26.0882L105.934 25.063C105.747 24.9597 105.549 24.8848 105.342 24.8383C105.134 24.7918 104.918 24.7686 104.698 24.7686C104.342 24.7686 104.008 24.8357 103.698 24.9674C103.388 25.0991 103.139 25.2876 102.947 25.5304C102.755 25.7732 102.66 26.0624 102.66 26.3956C102.66 26.6022 102.706 26.7829 102.783 26.9456H102.342V28.2008H106.121V26.9456H104.811C104.48 26.9456 104.219 26.8966 104.029 26.7984L104.031 26.801Z" fill="white"/>
  <path d="M113.979 12.3569H111.764V23.6918H113.979V12.3569Z" fill="white"/>
  <path d="M143.887 23.6915H149.537V16.9613H147.322V21.1038H143.887V20.3729C143.887 19.7841 143.8 19.2237 143.626 18.6942C143.451 18.1648 143.19 17.6922 142.844 17.2764C142.495 16.8606 142.057 16.5352 141.526 16.295C140.995 16.0549 140.365 15.9361 139.636 15.9361C138.908 15.9361 138.319 16.0445 137.773 16.2641C137.227 16.481 136.75 16.7754 136.347 17.1421C135.945 17.5088 135.606 17.9246 135.334 18.3869C135.063 18.8492 134.84 19.3295 134.665 19.8306C134.54 20.1921 134.45 20.5408 134.378 20.8868C134.314 20.83 134.265 20.7629 134.232 20.6828C134.168 20.5278 134.137 20.3109 134.137 20.0294V17.5941H131.922V20.0294C131.922 20.3109 131.889 20.5304 131.82 20.6828C131.75 20.8378 131.632 20.9462 131.463 21.0108C131.294 21.0753 131.048 21.1063 130.725 21.1063H129.579C129.248 21.1063 128.997 21.0753 128.828 21.0108C128.659 20.9462 128.538 20.8378 128.471 20.6828C128.402 20.5278 128.369 20.3109 128.369 20.0294V12.3618H126.167V20.7086C126.167 21.3827 126.059 21.9508 125.841 22.4079C125.626 22.8651 125.318 23.206 124.918 23.4332C124.518 23.6605 124.044 23.7715 123.493 23.7715C122.941 23.7715 122.493 23.6553 122.124 23.4255C121.754 23.1956 121.483 22.8521 121.308 22.4002C121.134 21.9482 121.047 21.3878 121.047 20.7215C121.047 20.4994 121.055 20.2696 121.073 20.0294C121.09 19.7892 121.124 19.5516 121.175 19.3115L119.037 18.9008C118.968 19.2082 118.919 19.5155 118.883 19.8228C118.85 20.1301 118.832 20.4504 118.832 20.7835C118.832 21.69 118.96 22.4906 119.219 23.1879C119.478 23.8852 119.829 24.4714 120.27 24.9518C120.711 25.4295 121.219 25.7911 121.79 26.0338C122.362 26.2766 122.959 26.4006 123.58 26.4006C124.2 26.4006 124.808 26.2766 125.38 26.0287C125.951 25.7808 126.464 25.414 126.913 24.9337C127.32 24.4946 127.646 23.9601 127.897 23.3377C128.369 23.5727 128.925 23.6966 129.571 23.6966H130.717C131.43 23.6966 132.038 23.552 132.543 23.2602C132.817 23.1026 133.055 22.9038 133.26 22.6688C133.425 22.9038 133.617 23.1026 133.84 23.2602C134.25 23.552 134.745 23.6966 135.322 23.6966H143.874L143.887 23.6915ZM136.288 21.1012C136.434 20.706 136.624 20.3445 136.862 20.0242C137.116 19.6834 137.406 19.3967 137.729 19.1643C138.052 18.9344 138.39 18.7536 138.747 18.6245C139.103 18.4954 139.452 18.4334 139.79 18.4334C140.154 18.4334 140.48 18.5031 140.764 18.6452C141.049 18.7872 141.272 18.999 141.434 19.2856C141.595 19.5723 141.675 19.9339 141.675 20.3703V21.1012H136.288Z" fill="white"/>
  <path d="M149.566 15.807C149.845 15.807 150.076 15.7166 150.253 15.5384C150.432 15.3576 150.519 15.1278 150.519 14.8463C150.519 14.5648 150.43 14.3195 150.253 14.1335C150.076 13.9501 149.845 13.8572 149.566 13.8572C149.286 13.8572 149.043 13.9501 148.858 14.1335C148.674 14.3169 148.584 14.5545 148.584 14.8463C148.584 15.1381 148.676 15.3602 148.858 15.5384C149.04 15.7192 149.276 15.807 149.566 15.807Z" fill="white"/>
  <path d="M147.351 15.807C147.63 15.807 147.861 15.7166 148.045 15.5384C148.227 15.3576 148.32 15.1278 148.32 14.8463C148.32 14.5648 148.227 14.3195 148.045 14.1335C147.863 13.9501 147.633 13.8572 147.351 13.8572C147.069 13.8572 146.828 13.9501 146.643 14.1335C146.461 14.3169 146.369 14.5545 146.369 14.8463C146.369 15.1381 146.458 15.3602 146.643 15.5384C146.825 15.7192 147.061 15.807 147.351 15.807Z" fill="white"/>
  <path d="M155.711 24.9467C156.152 25.4245 156.659 25.7861 157.231 26.0288C157.803 26.2716 158.4 26.3955 159.021 26.3955C159.641 26.3955 160.249 26.2716 160.82 26.0237C161.392 25.7757 161.905 25.409 162.353 24.9287C162.761 24.4896 163.087 23.955 163.338 23.3326C163.81 23.5677 164.366 23.6916 165.012 23.6916H166.158C166.871 23.6916 167.478 23.547 167.983 23.2552C168.258 23.0976 168.496 22.8988 168.701 22.6638C168.865 22.8988 169.058 23.0976 169.281 23.2552C169.691 23.547 170.186 23.6916 170.762 23.6916H179.315V20.3705C179.315 19.7816 179.228 19.2212 179.054 18.6918C178.879 18.1624 178.618 17.6898 178.272 17.274C177.923 16.8582 177.485 16.5328 176.954 16.2926C176.423 16.0524 175.793 15.9336 175.064 15.9336C174.336 15.9336 173.747 16.0421 173.201 16.2616C172.655 16.4811 172.178 16.773 171.775 17.1397C171.373 17.5064 171.034 17.9222 170.762 18.3845C170.491 18.8467 170.268 19.3271 170.093 19.8281C169.968 20.1897 169.878 20.5383 169.806 20.8844C169.742 20.8276 169.693 20.7604 169.66 20.6804C169.596 20.5254 169.565 20.3085 169.565 20.027V17.5916H167.35V20.027C167.35 20.3085 167.317 20.528 167.248 20.6804C167.178 20.8353 167.06 20.9438 166.891 21.0083C166.722 21.0729 166.476 21.1039 166.153 21.1039H165.007C164.676 21.1039 164.425 21.0729 164.256 21.0083C164.087 20.9438 163.966 20.8353 163.899 20.6804C163.83 20.5254 163.797 20.3085 163.797 20.027V12.3594H161.595V20.7062C161.595 21.3802 161.487 21.9484 161.269 22.4055C161.054 22.8626 160.746 23.2035 160.346 23.4308C159.946 23.658 159.472 23.7691 158.921 23.7691C158.369 23.7691 157.921 23.6529 157.552 23.423C157.182 23.1932 156.911 22.8497 156.736 22.3978C156.562 21.9458 156.475 21.3854 156.475 20.7191C156.475 20.497 156.483 20.2672 156.501 20.027C156.518 19.7868 156.552 19.5492 156.603 19.309L154.465 18.8984C154.396 19.2057 154.347 19.513 154.311 19.8204C154.278 20.1277 154.26 20.4479 154.26 20.7811C154.26 21.6876 154.388 22.4881 154.647 23.1854C154.906 23.8827 155.257 24.469 155.698 24.9493L155.711 24.9467ZM172.296 20.0244C172.549 19.6835 172.839 19.3968 173.162 19.1644C173.485 18.9346 173.824 18.7538 174.18 18.6246C174.536 18.4955 174.885 18.4335 175.223 18.4335C175.587 18.4335 175.913 18.5033 176.198 18.6453C176.482 18.7873 176.705 18.9991 176.867 19.2858C177.028 19.5724 177.108 19.934 177.108 20.3705V21.1013H171.721C171.867 20.7062 172.057 20.3446 172.296 20.0244Z" fill="white"/>
  <path d="M184.26 16.6646C183.735 16.6646 183.245 16.7549 182.791 16.9331C182.338 17.1139 181.938 17.3618 181.594 17.6821C181.251 18.0023 180.981 18.3768 180.787 18.8029C180.592 19.2316 180.494 19.699 180.494 20.213C180.494 20.8457 180.648 21.4242 180.958 21.951C181.269 22.4779 181.702 22.8988 182.263 23.2139C182.822 23.5316 183.486 23.6891 184.248 23.6891H184.832V23.8311C184.832 24.1462 184.719 24.3941 184.494 24.5697C184.268 24.7454 183.85 24.8332 183.24 24.8332H181.064V27.4235H183.24C184.012 27.4235 184.684 27.2788 185.25 26.987C185.819 26.6952 186.258 26.282 186.568 25.7422C186.878 25.2051 187.032 24.5672 187.032 23.8311V17.3696C186.658 17.1991 186.229 17.039 185.747 16.8892C185.263 16.7394 184.768 16.6646 184.258 16.6646H184.26ZM184.248 21.3312C183.909 21.3312 183.625 21.277 183.394 21.1711C183.166 21.0652 182.994 20.9258 182.879 20.7553C182.763 20.5849 182.707 20.4093 182.707 20.2285C182.707 20.0322 182.771 19.8411 182.897 19.6577C183.025 19.4744 183.202 19.322 183.432 19.2032C183.661 19.0844 183.937 19.0224 184.26 19.0224C184.443 19.0224 184.632 19.0482 184.832 19.0973V21.3312H184.248Z" fill="white"/>
  <path d="M196.274 14.7819C196.554 14.7819 196.784 14.6915 196.961 14.5133C197.138 14.3325 197.228 14.1026 197.228 13.8211C197.228 13.5397 197.138 13.2943 196.961 13.1084C196.784 12.925 196.554 12.832 196.274 12.832C195.995 12.832 195.751 12.925 195.566 13.1084C195.382 13.2917 195.292 13.5293 195.292 13.8211C195.292 14.113 195.384 14.3351 195.566 14.5133C195.749 14.6915 195.984 14.7819 196.274 14.7819Z" fill="white"/>
  <path d="M194.059 14.7819C194.339 14.7819 194.569 14.6915 194.754 14.5133C194.936 14.3325 195.028 14.1026 195.028 13.8211C195.028 13.5397 194.936 13.2943 194.754 13.1084C194.572 12.925 194.341 12.832 194.059 12.832C193.777 12.832 193.536 12.925 193.351 13.1084C193.169 13.2917 193.077 13.5293 193.077 13.8211C193.077 14.113 193.167 14.3351 193.351 14.5133C193.533 14.6915 193.769 14.7819 194.059 14.7819Z" fill="white"/>
  <path d="M227.036 22.2996C227.308 21.8244 227.444 21.2201 227.444 20.4867V16.9615H225.229V20.027C225.229 20.4195 225.121 20.7139 224.903 20.905C224.688 21.0961 224.442 21.1943 224.173 21.1943C223.919 21.1943 223.68 21.1039 223.46 20.918C223.352 20.8276 223.27 20.7191 223.214 20.5874C223.214 20.5538 223.219 20.5228 223.219 20.4867V17.589H221.004V20.0244C221.004 20.4169 220.896 20.7113 220.678 20.9025C220.463 21.0936 220.217 21.1917 219.948 21.1917C219.694 21.1917 219.455 21.1013 219.235 20.9154C219.089 20.794 218.994 20.6339 218.935 20.4402C218.945 20.3033 218.953 20.169 218.953 20.0244V18.2166H216.751V20.0244C216.751 20.3059 216.717 20.5254 216.648 20.6778C216.579 20.8327 216.461 20.9412 216.292 21.0058C216.122 21.0703 215.871 21.1013 215.54 21.1013H214.382C214.059 21.1013 213.813 21.0703 213.643 21.0058C213.474 20.9412 213.354 20.8327 213.287 20.6778C213.218 20.5228 213.184 20.3059 213.184 20.0244V16.9589H210.969V20.0244C210.969 20.4169 210.862 20.7113 210.644 20.9025C210.428 21.0936 210.182 21.1917 209.911 21.1917C209.657 21.1917 209.418 21.1013 209.198 20.9154C209.09 20.825 209.008 20.7165 208.952 20.5848C208.952 20.5512 208.957 20.5202 208.957 20.4841V17.5865H206.742V20.0218C206.742 20.4144 206.634 20.7088 206.416 20.8999C206.201 21.091 205.955 21.1891 205.686 21.1891C205.432 21.1891 205.193 21.0987 204.973 20.9128C204.827 20.7914 204.729 20.6313 204.673 20.4376C204.683 20.3007 204.691 20.1664 204.691 20.0218V18.214H202.489V20.0218C202.489 20.3033 202.455 20.5228 202.386 20.6752C202.317 20.8276 202.199 20.9386 202.03 21.0032C201.86 21.0677 201.609 21.0987 201.279 21.0987H200.12C199.797 21.0987 199.548 21.0677 199.376 21.0032C199.204 20.9386 199.084 20.8301 199.02 20.6752C198.956 20.5202 198.925 20.3033 198.925 20.0218V15.8794H196.71V16.2978C196.041 16.3236 195.41 16.4088 194.826 16.5586C194.19 16.7213 193.633 16.9537 193.159 17.2585C192.685 17.5606 192.313 17.9429 192.047 18.4C191.78 18.8571 191.647 19.3813 191.647 19.9702C191.647 20.4918 191.747 20.9489 191.947 21.3415C192.147 21.734 192.418 22.0646 192.767 22.328C193.116 22.594 193.513 22.7903 193.964 22.9168C194.413 23.046 194.885 23.108 195.377 23.108C195.825 23.108 196.277 23.0537 196.725 22.9478C197.02 22.8781 197.305 22.7826 197.576 22.6663C197.782 22.8962 198.017 23.0925 198.289 23.25C198.799 23.5418 199.41 23.6864 200.122 23.6864H201.281C202.001 23.6864 202.614 23.5418 203.119 23.25C203.44 23.0666 203.706 22.8239 203.932 22.5346C204.191 22.9039 204.499 23.188 204.863 23.3714C205.273 23.5806 205.703 23.6864 206.155 23.6864C206.629 23.6864 207.08 23.5728 207.503 23.3456C207.798 23.188 208.052 22.9685 208.272 22.6922C208.503 22.9866 208.775 23.2138 209.088 23.3714C209.498 23.5806 209.928 23.6864 210.38 23.6864C210.854 23.6864 211.305 23.5728 211.728 23.3456C211.895 23.2552 212.049 23.1415 212.192 23.0124C212.302 23.0976 212.418 23.1777 212.543 23.2474C213.054 23.5392 213.664 23.6839 214.377 23.6839H215.535C216.256 23.6839 216.868 23.5392 217.374 23.2474C217.694 23.0641 217.961 22.8213 218.186 22.532C218.445 22.9014 218.753 23.1854 219.117 23.3688C219.527 23.578 219.958 23.6839 220.409 23.6839C220.883 23.6839 221.334 23.5702 221.757 23.343C222.052 23.1854 222.306 22.9659 222.527 22.6896C222.757 22.984 223.029 23.2113 223.342 23.3688C223.755 23.578 224.183 23.6839 224.634 23.6839C225.108 23.6839 225.559 23.5702 225.983 23.343C226.406 23.1157 226.754 22.7671 227.026 22.2919L227.036 22.2996ZM196.21 20.8327C195.946 20.9025 195.664 20.936 195.356 20.936C195.033 20.936 194.759 20.8999 194.536 20.8276C194.31 20.7553 194.144 20.6468 194.033 20.4996C193.923 20.355 193.867 20.1845 193.867 19.9857C193.867 19.7636 193.936 19.5595 194.069 19.3762C194.205 19.1928 194.408 19.0353 194.674 18.901C194.941 18.7693 195.264 18.666 195.641 18.5937C195.961 18.5317 196.32 18.4955 196.715 18.48V20.0244C196.715 20.2387 196.728 20.4453 196.751 20.6442C196.574 20.7191 196.392 20.7837 196.207 20.8327H196.21Z" fill="white"/>
  <path d="M233.845 13.9219H232.535C232.205 13.9219 231.943 13.8728 231.753 13.7747C231.564 13.6765 231.466 13.5706 231.466 13.4596C231.466 13.3408 231.561 13.2323 231.753 13.1316C231.943 13.0335 232.202 12.9844 232.523 12.9844C232.625 12.9844 232.735 12.9921 232.853 13.0102C232.971 13.0283 233.081 13.0438 233.184 13.0619L233.656 12.0366C233.469 11.9333 233.271 11.8584 233.063 11.8119C232.856 11.7654 232.64 11.7422 232.42 11.7422C232.064 11.7422 231.73 11.8093 231.42 11.941C231.11 12.0728 230.861 12.2613 230.669 12.504C230.477 12.7468 230.382 13.036 230.382 13.3692C230.382 13.5758 230.428 13.7566 230.505 13.9193H230.064V15.1744H233.843V13.9193L233.845 13.9219Z" fill="white"/>
  <path d="M242.941 24.0815C243.582 24.1461 244.339 24.1513 245.213 24.0996C245.426 23.6373 245.59 23.1312 245.71 22.5811C245.828 22.031 245.89 21.5067 245.89 21.0109C245.89 20.4221 245.821 19.8771 245.68 19.3813C245.539 18.8854 245.336 18.4567 245.069 18.0926C244.803 17.7285 244.477 17.4444 244.095 17.2404C243.713 17.0363 243.28 16.933 242.798 16.933C242.316 16.933 241.867 17.0157 241.48 17.1758C241.093 17.3385 240.744 17.5528 240.429 17.824C240.116 18.0926 239.832 18.387 239.575 18.7021C239.319 19.0172 239.083 19.3296 238.863 19.637C238.624 19.9882 238.401 20.2723 238.188 20.4892C237.976 20.7061 237.75 20.8637 237.506 20.9567C237.265 21.0496 236.973 21.0987 236.635 21.0987H235.158V17.3669C234.784 17.1965 234.356 17.0363 233.874 16.8865C233.389 16.7368 232.894 16.6619 232.384 16.6619C231.874 16.6619 231.369 16.7523 230.915 16.9305C230.461 17.1112 230.061 17.3592 229.718 17.6794C229.374 17.9996 229.105 18.3741 228.91 18.8002C228.715 19.2289 228.618 19.6964 228.618 20.2103C228.618 20.843 228.772 21.4215 229.082 21.9483C229.392 22.4752 229.825 22.8961 230.387 23.2112C230.946 23.5289 231.61 23.6864 232.371 23.6864H232.956V23.8284C232.956 24.1435 232.843 24.3914 232.617 24.5671C232.392 24.7427 231.974 24.8305 231.364 24.8305H229.187V27.4208H231.364C232.135 27.4208 232.807 27.2762 233.374 26.9843C233.943 26.6925 234.381 26.2793 234.691 25.7395C235.002 25.2024 235.155 24.5645 235.155 23.8284V23.6864H236.632C237.217 23.6864 237.732 23.5986 238.178 23.423C238.606 23.2551 239.011 22.9943 239.393 22.6482C239.583 22.8135 239.775 22.9685 239.98 23.1079C240.355 23.3636 240.78 23.5728 241.26 23.7355C241.739 23.8982 242.298 24.0118 242.939 24.0764L242.941 24.0815ZM232.371 21.3311C232.033 21.3311 231.748 21.2769 231.518 21.171C231.289 21.0651 231.118 20.9257 231.002 20.7552C230.887 20.5848 230.83 20.4091 230.83 20.2284C230.83 20.0321 230.895 19.841 231.023 19.6576C231.151 19.4743 231.328 19.3219 231.559 19.2031C231.787 19.0843 232.064 19.0223 232.387 19.0223C232.569 19.0223 232.758 19.0481 232.958 19.0972V21.3311H232.374H232.371ZM242.126 19.6705C242.352 19.5466 242.562 19.4846 242.757 19.4846C243.044 19.4846 243.27 19.606 243.431 19.8513C243.593 20.0941 243.672 20.4815 243.672 21.0109C243.672 21.1917 243.659 21.375 243.636 21.5558C243.4 21.5558 243.17 21.5558 242.959 21.5506C242.357 21.5326 241.847 21.4602 241.426 21.326C241.183 21.2485 240.962 21.1426 240.767 21.0109C240.993 20.7036 241.214 20.4401 241.421 20.231C241.667 19.983 241.903 19.7971 242.129 19.6731L242.126 19.6705Z" fill="white"/>
  <path d="M66.0781 30.582L64.8963 35.2487L63.6964 30.582H61.7634L60.5713 35.2513L59.374 30.582H57.2589L59.4971 37.307H61.525L62.6838 32.9993L63.8118 37.307H65.85L68.1086 30.582H66.0781Z" fill="white"/>
  <path d="M70.4801 32.01C70.2134 32.01 69.9417 32.0281 69.6648 32.0668C69.3879 32.1056 69.111 32.165 68.8316 32.2502C68.5521 32.3328 68.2701 32.4335 67.983 32.5472L68.4599 33.8333C68.7444 33.7119 69.0239 33.6189 69.2982 33.5544C69.5699 33.4898 69.8135 33.4588 70.0212 33.4588C70.3134 33.4588 70.5365 33.5208 70.6877 33.6422C70.839 33.7636 70.9159 33.934 70.9159 34.1509V34.169H69.6494C69.0008 34.1768 68.506 34.3136 68.1625 34.5874C67.8189 34.8586 67.6472 35.2485 67.6472 35.7521C67.6472 36.0775 67.7164 36.3642 67.8574 36.6121C67.9958 36.8575 68.1958 37.0512 68.4573 37.188C68.7188 37.3249 69.0316 37.3946 69.4007 37.3946C69.8443 37.3946 70.216 37.2965 70.516 37.1028C70.6749 36.9995 70.8057 36.873 70.9159 36.7258V37.3094H72.8028V33.9211C72.8028 33.3142 72.5977 32.8442 72.1875 32.511C71.7773 32.1779 71.2082 32.0126 70.4775 32.0126L70.4801 32.01ZM70.7185 35.8735C70.6288 35.9536 70.5288 36.0155 70.4134 36.062C70.298 36.1085 70.175 36.1292 70.0417 36.1292C69.8571 36.1292 69.7135 36.0827 69.6135 35.9897C69.511 35.8968 69.4623 35.7702 69.4623 35.6101C69.4623 35.45 69.511 35.3208 69.611 35.2408C69.7084 35.1607 69.8545 35.122 70.0442 35.122H70.921V35.592C70.8774 35.7005 70.8108 35.796 70.7211 35.8761L70.7185 35.8735Z" fill="white"/>
  <path d="M75.4947 33.3684C75.5665 33.327 75.6613 33.3064 75.7767 33.3064C75.9792 33.3064 76.2253 33.3529 76.515 33.4458C76.8047 33.5388 77.1226 33.6757 77.4713 33.8539L78.1097 32.6349C77.761 32.4232 77.3918 32.2656 77.0047 32.1597C76.6176 32.0538 76.2279 32.0022 75.8331 32.0022C75.3947 32.0022 75.0101 32.0719 74.6794 32.214C74.3487 32.356 74.0898 32.5523 73.9026 32.808C73.7155 33.0636 73.6206 33.3761 73.6206 33.748C73.6206 34.0424 73.6847 34.2852 73.8103 34.4763C73.9359 34.6674 74.1 34.8249 74.3 34.9463C74.5 35.0677 74.7153 35.1658 74.9435 35.2381C75.1716 35.313 75.387 35.375 75.587 35.4241C75.7869 35.4757 75.951 35.5325 76.0766 35.5971C76.2023 35.6617 76.2664 35.7417 76.2664 35.8373C76.2664 35.8889 76.2484 35.9328 76.2151 35.9664C76.1818 36 76.1305 36.0284 76.0664 36.0491C76.0023 36.0671 75.9254 36.0775 75.8382 36.0775C75.5511 36.0775 75.2486 36.0232 74.9281 35.9148C74.6076 35.8063 74.2846 35.6462 73.9616 35.4344L73.3719 36.6534C73.7078 36.8961 74.0846 37.0795 74.5 37.206C74.9153 37.33 75.3537 37.392 75.81 37.392C76.2664 37.392 76.656 37.3223 76.997 37.1802C77.3354 37.0382 77.6046 36.8419 77.7969 36.5862C77.9892 36.3306 78.0866 36.0232 78.0866 35.6643C78.0866 35.3647 78.0225 35.1168 77.8918 34.9256C77.761 34.7345 77.5944 34.5744 77.3867 34.4505C77.179 34.3265 76.9637 34.2284 76.7355 34.1586C76.5073 34.0889 76.2894 34.0243 76.0843 33.9675C75.8767 33.9107 75.71 33.8513 75.5793 33.7893C75.4485 33.7273 75.3844 33.6499 75.3844 33.5543C75.3844 33.4717 75.4203 33.4097 75.4947 33.3658V33.3684Z" fill="white"/>
  <path d="M82.7859 32.4103C82.3731 32.1521 81.863 32.0229 81.2528 32.0229C80.7067 32.0229 80.2299 32.134 79.8197 32.3587C79.4095 32.5834 79.0916 32.8959 78.8634 33.2987C78.6352 33.7016 78.5199 34.1742 78.5199 34.7191C78.5199 35.2641 78.6327 35.716 78.8583 36.1163C79.0839 36.5166 79.4044 36.8265 79.8197 37.046C80.235 37.2655 80.7324 37.3766 81.3092 37.3766C81.7989 37.3766 82.2373 37.2939 82.6295 37.1312C83.0192 36.9685 83.3474 36.7361 83.6165 36.4365L82.6167 35.4474C82.2732 35.7806 81.8937 35.9458 81.4733 35.9458C81.2579 35.9458 81.0682 35.8942 80.9067 35.7883C80.7452 35.6824 80.617 35.5301 80.5247 35.3338C80.5016 35.2847 80.4914 35.2253 80.4734 35.1711H83.9498C83.9883 34.5306 83.9062 33.9754 83.7063 33.5053C83.5063 33.0353 83.1987 32.6712 82.7859 32.4103ZM80.4247 34.2181C80.4427 34.1277 80.4606 34.0399 80.4914 33.9599C80.5606 33.7688 80.6606 33.6164 80.7913 33.5053C80.9221 33.3943 81.081 33.3375 81.2733 33.3375C81.4323 33.3375 81.5707 33.3736 81.6912 33.4485C81.8117 33.5234 81.904 33.6241 81.9681 33.7558C82.0322 33.8876 82.0604 34.0425 82.0527 34.2207H80.4247V34.2181Z" fill="white"/>
  <path d="M86.693 30.1895H84.7676V37.3095H86.693V30.1895Z" fill="white"/>
  <path d="M95.8275 30.582H89.9592V32.1755H91.8922V37.307H93.8842V32.1755H95.8275V30.582Z" fill="white"/>
  <path d="M98.4553 32.01C98.1887 32.01 97.917 32.0281 97.6401 32.0668C97.3632 32.1056 97.0863 32.165 96.8069 32.2502C96.5274 32.3328 96.2454 32.4335 95.9583 32.5472L96.4351 33.8333C96.7197 33.7119 96.9992 33.6189 97.2735 33.5544C97.5452 33.4898 97.7888 33.4588 97.9964 33.4588C98.2887 33.4588 98.5117 33.5208 98.663 33.6422C98.8143 33.7636 98.8912 33.934 98.8912 34.1509V34.169H97.6247C96.9761 34.1768 96.4813 34.3136 96.1377 34.5874C95.7942 34.8586 95.6224 35.2485 95.6224 35.7521C95.6224 36.0775 95.6917 36.3642 95.8327 36.6121C95.9711 36.8575 96.1711 37.0512 96.4326 37.188C96.6941 37.3249 97.0068 37.3946 97.376 37.3946C97.8195 37.3946 98.1913 37.2965 98.4912 37.1028C98.6502 36.9995 98.7809 36.873 98.8912 36.7258V37.3094H100.778V33.9211C100.778 33.3142 100.573 32.8442 100.163 32.511C99.7526 32.1779 99.1834 32.0126 98.4528 32.0126L98.4553 32.01ZM98.6938 35.8735C98.604 35.9536 98.5041 36.0155 98.3887 36.062C98.2733 36.1085 98.1503 36.1292 98.017 36.1292C97.8324 36.1292 97.6888 36.0827 97.5888 35.9897C97.4863 35.8968 97.4376 35.7702 97.4376 35.6101C97.4376 35.45 97.4863 35.3208 97.5862 35.2408C97.6837 35.1607 97.8298 35.122 98.0195 35.122H98.8963V35.592C98.8527 35.7005 98.7861 35.796 98.6963 35.8761L98.6938 35.8735Z" fill="white"/>
  <path d="M103.47 33.3684C103.542 33.327 103.637 33.3064 103.752 33.3064C103.955 33.3064 104.201 33.3529 104.49 33.4458C104.78 33.5388 105.098 33.6757 105.447 33.8539L106.085 32.6349C105.736 32.4232 105.367 32.2656 104.98 32.1597C104.593 32.0538 104.203 32.0022 103.808 32.0022C103.37 32.0022 102.985 32.0719 102.655 32.214C102.324 32.356 102.065 32.5523 101.878 32.808C101.691 33.0636 101.596 33.3761 101.596 33.748C101.596 34.0424 101.66 34.2852 101.786 34.4763C101.914 34.6674 102.075 34.8249 102.275 34.9463C102.475 35.0677 102.691 35.1658 102.919 35.2381C103.147 35.313 103.362 35.375 103.562 35.4241C103.762 35.4757 103.926 35.5325 104.052 35.5971C104.178 35.6617 104.242 35.7417 104.242 35.8373C104.242 35.8889 104.224 35.9328 104.19 35.9664C104.155 36.0026 104.106 36.0284 104.042 36.0491C103.978 36.0671 103.901 36.0775 103.814 36.0775C103.529 36.0775 103.224 36.0232 102.903 35.9148C102.583 35.8063 102.26 35.6462 101.937 35.4344L101.347 36.6534C101.683 36.8961 102.06 37.0795 102.475 37.206C102.891 37.33 103.329 37.392 103.785 37.392C104.242 37.392 104.631 37.3223 104.972 37.1802C105.313 37.0382 105.58 36.8419 105.772 36.5862C105.967 36.3306 106.062 36.0232 106.062 35.6643C106.062 35.3647 105.998 35.1168 105.867 34.9256C105.736 34.7345 105.57 34.5744 105.362 34.4505C105.154 34.3265 104.939 34.2284 104.708 34.1586C104.478 34.0889 104.262 34.0243 104.057 33.9675C103.849 33.9107 103.683 33.8513 103.552 33.7893C103.421 33.7273 103.357 33.6499 103.357 33.5543C103.357 33.4717 103.393 33.4097 103.467 33.3658L103.47 33.3684Z" fill="white"/>
  <path d="M110.761 32.4103C110.348 32.1521 109.838 32.0229 109.228 32.0229C108.682 32.0229 108.205 32.134 107.795 32.3587C107.385 32.5834 107.067 32.8959 106.839 33.2987C106.611 33.7016 106.495 34.1742 106.495 34.7191C106.495 35.2641 106.608 35.716 106.834 36.1163C107.059 36.5166 107.38 36.8265 107.795 37.046C108.21 37.2655 108.708 37.3766 109.285 37.3766C109.774 37.3766 110.213 37.2939 110.605 37.1312C110.995 36.9685 111.323 36.7361 111.592 36.4365L110.592 35.4474C110.248 35.7806 109.869 35.9458 109.449 35.9458C109.233 35.9458 109.044 35.8942 108.882 35.7883C108.72 35.6824 108.592 35.5301 108.5 35.3338C108.477 35.2847 108.467 35.2253 108.449 35.1711H111.925C111.964 34.5306 111.882 33.9754 111.682 33.5053C111.482 33.0353 111.174 32.6712 110.761 32.4103ZM108.4 34.2181C108.418 34.1277 108.436 34.0399 108.467 33.9599C108.536 33.7688 108.636 33.6164 108.767 33.5053C108.897 33.3943 109.056 33.3375 109.249 33.3375C109.408 33.3375 109.546 33.3736 109.669 33.4485C109.79 33.5234 109.882 33.6241 109.946 33.7558C110.01 33.8876 110.038 34.0425 110.031 34.2207H108.403L108.4 34.2181Z" fill="white"/>
  <path d="M114.668 30.1895H112.743V37.3095H114.668V30.1895Z" fill="white"/>
  <path d="M122.793 33.2679H120.421V30.582H118.44V37.307H120.421V34.8045H122.793V37.307H124.775V30.582H122.793V33.2679Z" fill="white"/>
  <path d="M129.194 34.67C129.194 34.9695 129.123 35.2149 128.979 35.3982C128.835 35.5842 128.641 35.6797 128.392 35.6849C128.182 35.6849 128.015 35.61 127.887 35.4602C127.759 35.3104 127.697 35.1064 127.697 34.8507V32.0874H125.772V35.3982C125.772 35.8011 125.849 36.1523 126 36.4493C126.151 36.7463 126.367 36.9788 126.643 37.144C126.92 37.3093 127.238 37.3945 127.6 37.3945C128.018 37.3945 128.379 37.2861 128.682 37.0691C128.882 36.9245 129.051 36.7334 129.192 36.5061V37.3093H131.117V32.09H129.192V34.67H129.194Z" fill="white"/>
  <path d="M140.239 32.2502C139.962 32.0901 139.642 32.01 139.272 32.01C138.847 32.01 138.48 32.1159 138.172 32.3277C137.896 32.5188 137.678 32.7925 137.516 33.1437C137.491 33.074 137.462 33.0069 137.429 32.9423C137.273 32.6427 137.057 32.4103 136.78 32.2502C136.504 32.0901 136.18 32.01 135.814 32.01C135.393 32.01 135.032 32.1159 134.724 32.3277C134.519 32.4697 134.347 32.6582 134.206 32.8881V32.0875H132.281V37.3068H134.206V34.7269C134.206 34.4273 134.281 34.1819 134.429 33.9986C134.578 33.8126 134.778 33.7171 135.024 33.7119C135.24 33.7119 135.414 33.7868 135.542 33.9366C135.673 34.0864 135.737 34.293 135.737 34.5564V37.3094H137.662V34.7294C137.662 34.4299 137.734 34.1845 137.88 34.0012C138.026 33.8152 138.224 33.7197 138.47 33.7145C138.685 33.7145 138.86 33.7894 138.988 33.9392C139.119 34.089 139.183 34.2956 139.183 34.559V37.312H141.108V34.0012C141.108 33.5983 141.031 33.2471 140.88 32.9449C140.729 32.6453 140.513 32.4129 140.236 32.2528L140.239 32.2502Z" fill="white"/>
  <path d="M144.569 32.01C144.302 32.01 144.031 32.0281 143.754 32.0668C143.477 32.1056 143.2 32.165 142.921 32.2502C142.641 32.3328 142.359 32.4335 142.072 32.5472L142.549 33.8333C142.836 33.7119 143.115 33.6189 143.387 33.5544C143.659 33.4898 143.902 33.4588 144.11 33.4588C144.402 33.4588 144.625 33.5208 144.777 33.6422C144.928 33.7636 145.005 33.934 145.005 34.1509V34.169H143.738C143.09 34.1768 142.595 34.3136 142.251 34.5874C141.908 34.8586 141.736 35.2485 141.736 35.7521C141.736 36.0775 141.805 36.3642 141.946 36.6121C142.085 36.8575 142.285 37.0512 142.546 37.188C142.808 37.3249 143.12 37.3946 143.49 37.3946C143.933 37.3946 144.305 37.2965 144.605 37.1028C144.764 36.9995 144.895 36.873 145.005 36.7258V37.3094H146.892V33.9211C146.892 33.3142 146.687 32.8442 146.276 32.511C145.866 32.1779 145.297 32.0126 144.566 32.0126L144.569 32.01ZM144.807 35.8735C144.718 35.9536 144.618 36.0155 144.502 36.062C144.387 36.1085 144.264 36.1292 144.131 36.1292C143.946 36.1292 143.802 36.0827 143.702 35.9897C143.6 35.8968 143.549 35.7702 143.549 35.6101C143.549 35.45 143.597 35.3208 143.697 35.2408C143.795 35.1607 143.941 35.122 144.131 35.122H145.007V35.592C144.964 35.7005 144.897 35.796 144.807 35.8761V35.8735Z" fill="white"/>
  <path d="M152.46 32.2502C152.178 32.0901 151.853 32.01 151.483 32.01C151.05 32.01 150.681 32.1159 150.368 32.3277C150.155 32.4723 149.981 32.666 149.835 32.901V32.0875H147.91V37.3068H149.835V34.7269C149.835 34.4273 149.912 34.1819 150.063 33.9986C150.214 33.8152 150.422 33.7171 150.683 33.7119C150.907 33.7119 151.086 33.7868 151.222 33.9366C151.358 34.0864 151.427 34.293 151.427 34.5564V37.3094H153.352V33.9986C153.352 33.5957 153.275 33.2445 153.119 32.9423C152.963 32.6427 152.745 32.4103 152.463 32.2502H152.46Z" fill="white"/>
  <path d="M155.342 29.603C155.057 29.603 154.819 29.6986 154.632 29.8871C154.444 30.0756 154.35 30.3132 154.35 30.6025C154.35 30.8917 154.442 31.1371 154.632 31.323C154.819 31.509 155.055 31.6019 155.342 31.6019C155.629 31.6019 155.872 31.509 156.057 31.323C156.242 31.1371 156.334 30.8969 156.334 30.6025C156.334 30.3081 156.242 30.0756 156.057 29.8871C155.872 29.6986 155.634 29.603 155.342 29.603Z" fill="white"/>
  <path d="M156.295 32.0874H154.37V37.3067H156.295V32.0874Z" fill="white"/>
  <path d="M160.333 35.8348C160.231 35.8632 160.144 35.8787 160.067 35.8787C159.933 35.8787 159.826 35.8374 159.746 35.7548C159.667 35.6721 159.628 35.5482 159.628 35.3803V33.5958H160.905V32.3587H159.628V30.9099H157.713V32.3587H156.998V33.5958H157.713V35.6773C157.713 36.0363 157.79 36.3436 157.946 36.6044C158.103 36.8627 158.318 37.0615 158.595 37.1958C158.872 37.3301 159.192 37.3973 159.562 37.3973C159.828 37.3973 160.09 37.3663 160.349 37.3069C160.605 37.2449 160.823 37.1649 161.002 37.0615L160.659 35.7264C160.544 35.7703 160.436 35.809 160.336 35.8374L160.333 35.8348Z" fill="white"/>
  <path d="M164.171 32.01C163.905 32.01 163.633 32.0281 163.356 32.0668C163.079 32.1056 162.802 32.165 162.523 32.2502C162.243 32.3328 161.961 32.4335 161.674 32.5472L162.151 33.8333C162.438 33.7119 162.718 33.6189 162.989 33.5544C163.261 33.4898 163.505 33.4588 163.712 33.4588C164.005 33.4588 164.228 33.5208 164.379 33.6422C164.53 33.7636 164.607 33.934 164.607 34.1509V34.169H163.341C162.692 34.1768 162.197 34.3136 161.854 34.5874C161.51 34.8586 161.338 35.2485 161.338 35.7521C161.338 36.0775 161.408 36.3642 161.549 36.6121C161.687 36.8575 161.887 37.0512 162.148 37.188C162.41 37.3249 162.723 37.3946 163.092 37.3946C163.535 37.3946 163.907 37.2965 164.207 37.1028C164.366 36.9995 164.497 36.873 164.607 36.7258V37.3094H166.494V33.9211C166.494 33.3142 166.289 32.8442 165.879 32.511C165.468 32.1779 164.899 32.0126 164.169 32.0126L164.171 32.01ZM164.41 35.8735C164.32 35.9536 164.22 36.0155 164.105 36.062C163.989 36.1085 163.866 36.1292 163.733 36.1292C163.548 36.1292 163.405 36.0827 163.305 35.9897C163.202 35.8968 163.151 35.7702 163.151 35.6101C163.151 35.45 163.2 35.3208 163.3 35.2408C163.397 35.1607 163.543 35.122 163.733 35.122H164.61V35.592C164.566 35.7005 164.499 35.796 164.41 35.8761V35.8735Z" fill="white"/>
  <path d="M169.44 32.9191V32.0875H167.517V37.3068H169.44V34.8121C169.44 34.5564 169.506 34.3446 169.64 34.1742C169.773 34.0037 169.963 33.8824 170.206 33.8049C170.45 33.7274 170.737 33.7119 171.068 33.7558V32.01C170.647 32.01 170.283 32.1185 169.973 32.3354C169.76 32.4826 169.586 32.6789 169.44 32.9165V32.9191Z" fill="white"/>
  <path d="M173.67 32.0874H171.744V37.3067H173.67V32.0874Z" fill="white"/>
  <path d="M172.716 29.603C172.432 29.603 172.193 29.6986 172.006 29.8871C171.819 30.0756 171.724 30.3132 171.724 30.6025C171.724 30.8917 171.816 31.1371 172.006 31.323C172.193 31.509 172.429 31.6019 172.716 31.6019C173.003 31.6019 173.247 31.509 173.431 31.323C173.616 31.1371 173.708 30.8969 173.708 30.6025C173.708 30.3081 173.616 30.0756 173.431 29.8871C173.247 29.6986 173.008 29.603 172.716 29.603Z" fill="white"/>
  <path d="M177.269 32.01C177.003 32.01 176.731 32.0281 176.454 32.0668C176.177 32.1056 175.9 32.165 175.621 32.2502C175.341 32.3328 175.059 32.4335 174.772 32.5472L175.249 33.8333C175.534 33.7119 175.813 33.6189 176.087 33.5544C176.362 33.4898 176.603 33.4588 176.81 33.4588C177.103 33.4588 177.326 33.5208 177.477 33.6422C177.628 33.7636 177.705 33.934 177.705 34.1509V34.169H176.439C175.79 34.1768 175.295 34.3136 174.952 34.5874C174.608 34.8586 174.436 35.2485 174.436 35.7521C174.436 36.0775 174.506 36.3642 174.647 36.6121C174.785 36.8575 174.985 37.0512 175.246 37.188C175.508 37.3249 175.821 37.3946 176.19 37.3946C176.633 37.3946 177.005 37.2965 177.305 37.1028C177.464 36.9995 177.595 36.873 177.705 36.7258V37.3094H179.592V33.9211C179.592 33.3142 179.387 32.8442 178.977 32.511C178.566 32.1779 177.997 32.0126 177.267 32.0126L177.269 32.01ZM177.508 35.8735C177.418 35.9536 177.318 36.0155 177.203 36.062C177.087 36.1059 176.964 36.1292 176.831 36.1292C176.646 36.1292 176.503 36.0827 176.403 35.9897C176.3 35.8968 176.249 35.7702 176.249 35.6101C176.249 35.45 176.298 35.3208 176.398 35.2408C176.495 35.1607 176.641 35.122 176.831 35.122H177.708V35.592C177.664 35.7005 177.597 35.796 177.508 35.8761V35.8735Z" fill="white"/>
  <path d="M185.16 32.2502C184.878 32.0901 184.553 32.01 184.184 32.01C183.75 32.01 183.381 32.1159 183.068 32.3277C182.856 32.4723 182.681 32.666 182.535 32.901V32.0875H180.612V37.3068H182.535V34.7269C182.535 34.4273 182.612 34.1819 182.763 33.9986C182.915 33.8152 183.122 33.7171 183.384 33.7119C183.607 33.7119 183.786 33.7868 183.922 33.9366C184.058 34.0864 184.127 34.293 184.127 34.5564V37.3094H186.05V33.9986C186.05 33.5957 185.973 33.2445 185.817 32.9423C185.66 32.6427 185.442 32.4103 185.16 32.2502Z" fill="white"/>
  <path d="M189.624 37.307H191.606V34.9956H194.577V33.459H191.606V32.1161H194.805V30.582H189.624V37.307Z" fill="white"/>
  <path d="M199.54 32.3508C199.11 32.1313 198.605 32.0203 198.025 32.0203C197.446 32.0203 196.933 32.1313 196.502 32.3508C196.072 32.5703 195.736 32.8828 195.497 33.2805C195.259 33.6808 195.141 34.1535 195.141 34.6958C195.141 35.2381 195.259 35.703 195.497 36.1059C195.736 36.5087 196.072 36.8212 196.502 37.0407C196.933 37.2603 197.443 37.3713 198.025 37.3713C198.607 37.3713 199.107 37.2603 199.54 37.0407C199.974 36.8186 200.307 36.5087 200.545 36.1059C200.784 35.703 200.902 35.233 200.902 34.6958C200.902 34.1586 200.784 33.6808 200.545 33.2805C200.307 32.8803 199.971 32.5703 199.54 32.3508ZM198.843 35.3311C198.766 35.5041 198.658 35.6384 198.52 35.734C198.379 35.8295 198.215 35.8786 198.025 35.8786C197.835 35.8786 197.669 35.8295 197.525 35.734C197.382 35.6384 197.274 35.5041 197.197 35.3311C197.12 35.1581 197.082 34.954 197.082 34.7164C197.082 34.4789 197.12 34.2826 197.197 34.107C197.274 33.9314 197.382 33.7945 197.525 33.6989C197.669 33.6034 197.835 33.5543 198.025 33.5543C198.215 33.5543 198.381 33.6034 198.52 33.6989C198.658 33.7945 198.769 33.9314 198.843 34.107C198.917 34.2826 198.958 34.4866 198.958 34.7164C198.958 34.9463 198.92 35.1581 198.843 35.3311Z" fill="white"/>
  <path d="M204.94 34.67C204.94 34.9695 204.868 35.2149 204.724 35.3982C204.581 35.5842 204.386 35.6797 204.14 35.6849C203.929 35.6849 203.763 35.61 203.635 35.4602C203.506 35.3104 203.445 35.1064 203.445 34.8507V32.0874H201.52V35.3982C201.52 35.8011 201.596 36.1523 201.748 36.4493C201.899 36.7463 202.114 36.9788 202.391 37.144C202.668 37.3093 202.986 37.3945 203.347 37.3945C203.765 37.3945 204.127 37.2861 204.429 37.0691C204.629 36.9245 204.799 36.7334 204.94 36.5061V37.3093H206.865V32.09H204.94V34.67Z" fill="white"/>
  <path d="M212.574 32.2502C212.292 32.0901 211.967 32.01 211.597 32.01C211.164 32.01 210.795 32.1159 210.482 32.3277C210.269 32.4723 210.095 32.666 209.949 32.901V32.0875H208.026V37.3068H209.949V34.7269C209.949 34.4273 210.026 34.1819 210.177 33.9986C210.328 33.8152 210.536 33.7171 210.798 33.7119C211.021 33.7119 211.2 33.7868 211.336 33.9366C211.472 34.0864 211.541 34.293 211.541 34.5564V37.3094H213.464V33.9986C213.464 33.5957 213.387 33.2445 213.23 32.9423C213.074 32.6427 212.856 32.4103 212.574 32.2502Z" fill="white"/>
  <path d="M217.904 32.6997C217.794 32.5654 217.671 32.444 217.532 32.3459C217.227 32.1289 216.863 32.0205 216.438 32.0205C215.969 32.0205 215.556 32.1315 215.2 32.351C214.843 32.5706 214.569 32.8779 214.377 33.273C214.182 33.6656 214.087 34.133 214.087 34.6702C214.087 35.2074 214.187 35.6903 214.387 36.1009C214.587 36.509 214.866 36.824 215.225 37.0461C215.584 37.2656 216.005 37.3767 216.486 37.3767C216.899 37.3767 217.256 37.2656 217.558 37.0461C217.686 36.9506 217.802 36.8369 217.907 36.7078V37.3095H219.83V30.1895H217.907V32.7023L217.904 32.6997ZM217.791 35.3313C217.715 35.5043 217.607 35.6412 217.468 35.7394C217.33 35.8375 217.163 35.8891 216.974 35.8891C216.784 35.8891 216.617 35.8401 216.474 35.7394C216.33 35.6412 216.222 35.5043 216.146 35.3313C216.069 35.1583 216.03 34.9543 216.03 34.7167C216.03 34.4791 216.069 34.2828 216.146 34.1072C216.222 33.9316 216.33 33.7947 216.474 33.6991C216.617 33.6036 216.784 33.5545 216.974 33.5545C217.163 33.5545 217.33 33.6036 217.468 33.6991C217.607 33.7947 217.717 33.9316 217.791 34.1072C217.866 34.2828 217.907 34.4868 217.907 34.7167C217.907 34.9465 217.868 35.1583 217.791 35.3313Z" fill="white"/>
  <path d="M223.478 32.01C223.211 32.01 222.939 32.0281 222.662 32.0668C222.386 32.1056 222.109 32.165 221.829 32.2502C221.55 32.3328 221.268 32.4335 220.981 32.5472L221.458 33.8333C221.742 33.7119 222.022 33.6189 222.296 33.5544C222.568 33.4898 222.811 33.4588 223.019 33.4588C223.311 33.4588 223.534 33.5208 223.685 33.6422C223.837 33.7636 223.914 33.934 223.914 34.1509V34.169H222.647C221.998 34.1768 221.504 34.3136 221.16 34.5874C220.817 34.8586 220.645 35.2485 220.645 35.7521C220.645 36.0775 220.714 36.3642 220.855 36.6121C220.994 36.8575 221.193 37.0512 221.455 37.188C221.716 37.3249 222.029 37.3946 222.398 37.3946C222.842 37.3946 223.214 37.2965 223.514 37.1028C223.673 36.9995 223.803 36.873 223.914 36.7258V37.3094H225.8V33.9211C225.8 33.3142 225.595 32.8442 225.185 32.511C224.775 32.1779 224.206 32.0126 223.475 32.0126L223.478 32.01ZM223.716 35.8735C223.626 35.9536 223.526 36.0155 223.411 36.062C223.296 36.1059 223.173 36.1292 223.039 36.1292C222.855 36.1292 222.711 36.0827 222.611 35.9897C222.509 35.8968 222.46 35.7702 222.46 35.6101C222.46 35.45 222.509 35.3208 222.609 35.2408C222.706 35.1607 222.852 35.122 223.042 35.122H223.919V35.592C223.875 35.7005 223.808 35.796 223.719 35.8761L223.716 35.8735Z" fill="white"/>
  <path d="M229.697 35.8348C229.595 35.8632 229.508 35.8787 229.431 35.8787C229.297 35.8787 229.19 35.8374 229.113 35.7548C229.033 35.6721 228.995 35.5482 228.995 35.3803V33.5958H230.272V32.3587H228.995V30.9099H227.08V32.3587H226.365V33.5958H227.08V35.6773C227.08 36.0363 227.157 36.3436 227.313 36.6044C227.469 36.8653 227.685 37.0615 227.962 37.1958C228.239 37.3301 228.559 37.3973 228.928 37.3973C229.195 37.3973 229.456 37.3663 229.713 37.3069C229.969 37.2449 230.187 37.1649 230.366 37.0615L230.023 35.7264C229.908 35.7703 229.8 35.809 229.7 35.8374L229.697 35.8348Z" fill="white"/>
  <path d="M232.069 29.603C231.784 29.603 231.546 29.6986 231.359 29.8871C231.171 30.0756 231.077 30.3132 231.077 30.6025C231.077 30.8917 231.169 31.1371 231.359 31.323C231.546 31.509 231.782 31.6019 232.069 31.6019C232.356 31.6019 232.599 31.509 232.784 31.323C232.969 31.1371 233.061 30.8969 233.061 30.6025C233.061 30.3081 232.969 30.0756 232.784 29.8871C232.599 29.6986 232.361 29.603 232.069 29.603Z" fill="white"/>
  <path d="M233.02 32.0874H231.097V37.3067H233.02V32.0874Z" fill="white"/>
  <path d="M238.183 32.3508C237.753 32.1313 237.248 32.0203 236.668 32.0203C236.089 32.0203 235.576 32.1313 235.145 32.3508C234.712 32.5703 234.379 32.8828 234.14 33.2805C233.902 33.6808 233.784 34.1535 233.784 34.6958C233.784 35.2381 233.902 35.703 234.14 36.1059C234.379 36.5087 234.715 36.8212 235.145 37.0407C235.576 37.2603 236.084 37.3713 236.668 37.3713C237.253 37.3713 237.75 37.2603 238.183 37.0407C238.614 36.8186 238.95 36.5087 239.188 36.1059C239.427 35.703 239.545 35.233 239.545 34.6958C239.545 34.1586 239.427 33.6808 239.188 33.2805C238.95 32.8803 238.614 32.5703 238.183 32.3508ZM237.489 35.3311C237.412 35.5041 237.304 35.6384 237.165 35.734C237.027 35.8295 236.86 35.8786 236.671 35.8786C236.481 35.8786 236.314 35.8295 236.171 35.734C236.027 35.6384 235.92 35.5041 235.843 35.3311C235.766 35.1581 235.727 34.954 235.727 34.7164C235.727 34.4789 235.766 34.2826 235.843 34.107C235.92 33.9314 236.027 33.7945 236.171 33.6989C236.314 33.6034 236.481 33.5543 236.671 33.5543C236.86 33.5543 237.027 33.6034 237.165 33.6989C237.306 33.7945 237.414 33.9314 237.489 34.107C237.563 34.2826 237.604 34.4866 237.604 34.7164C237.604 34.9463 237.565 35.1581 237.489 35.3311Z" fill="white"/>
  <path d="M244.857 32.2502C244.575 32.0901 244.249 32.01 243.88 32.01C243.449 32.01 243.077 32.1159 242.765 32.3277C242.552 32.4723 242.378 32.666 242.231 32.901V32.0875H240.306V37.3068H242.231V34.7269C242.231 34.4273 242.308 34.1819 242.46 33.9986C242.611 33.8152 242.818 33.7171 243.077 33.7119C243.3 33.7119 243.48 33.7868 243.616 33.9366C243.752 34.0864 243.821 34.293 243.821 34.5564V37.3094H245.746V33.9986C245.746 33.5957 245.669 33.2445 245.513 32.9423C245.357 32.6427 245.139 32.4103 244.857 32.2502Z" fill="white"/>
</svg>