<svg xmlns="http://www.w3.org/2000/svg" width="255" height="51" viewBox="0 0 255 51" fill="none">
  <path d="M16.7298 23.6092C16.7298 23.6945 16.7247 23.7771 16.7221 23.8623H8.66433C7.9388 23.8623 7.23377 23.5188 6.84921 22.8964C6.54669 22.4032 6.539 22.0933 6.51593 21.1584C6.58259 19.0588 7.33119 17.5841 8.76687 16.7396C9.436 16.3445 10.2051 16.156 10.9794 16.1327C15.171 15.9933 17.0887 18.4854 16.7298 23.6092Z" fill="#FF6600"/>
  <path d="M23.4365 33.3195C23.5211 33.3195 23.6031 33.3247 23.6877 33.3272V41.4416C23.6877 42.1725 23.3468 42.8853 22.7289 43.2701C22.2392 43.5774 21.9316 43.5851 21.0035 43.6058C18.9167 43.5412 17.4553 42.7845 16.617 41.3409C16.2248 40.6668 16.0376 39.8921 16.0145 39.1121C15.8761 34.8897 18.3501 32.9579 23.4365 33.3195Z" fill="#FF6600"/>
  <path d="M18.4987 26.3104H23.6877V31.1734C17.7091 30.7059 14.466 32.7642 13.9584 37.3431C13.7482 39.2464 14.102 41.1937 15.1377 42.8C16.7144 45.2483 19.2576 46.1677 22.7622 45.5582C23.7903 45.3774 24.7568 44.8867 25.4234 44.0758C25.4285 44.0681 25.4362 44.0577 25.4439 44.05C25.8951 43.4896 26.1181 42.7768 26.1181 42.0562V33.7637C27.0334 34.0839 27.8025 34.5798 28.4203 35.2486C28.6742 35.5224 28.8049 35.8917 28.8049 36.2636V49.8581C28.7639 49.8659 28.7254 49.8736 28.6844 49.8788C21.1189 51.0461 13.1201 48.6934 7.29272 42.8233C4.05474 39.5615 1.8961 35.6283 0.814209 31.4652H13.338C13.7969 31.4652 14.2558 31.4187 14.6942 31.2896C16.6144 30.7214 17.8809 29.0634 18.4987 26.3104Z" fill="#FF6600"/>
  <path d="M23.6852 18.6351V23.8622H18.8602C19.3217 17.8397 17.281 14.5728 12.7329 14.0614C10.846 13.8496 8.91301 14.206 7.31837 15.2494C4.88796 16.8376 3.97528 19.3995 4.58032 22.9299C4.75722 23.9655 5.24688 24.9391 6.05189 25.6106C6.05958 25.6157 6.06727 25.6235 6.07752 25.6312C6.63129 26.0858 7.34145 26.3104 8.05672 26.3104H16.2888C15.9684 27.2324 15.4787 28.0072 14.8121 28.6296C14.5404 28.8853 14.1763 29.017 13.8046 29.017H0.306587C0.298896 28.9756 0.291216 28.9317 0.286088 28.8904C-0.867586 21.2693 1.46795 13.2143 7.29273 7.34677C10.5307 4.08501 14.4404 1.90791 18.5705 0.823242V13.439C18.5705 13.8987 18.6141 14.361 18.7449 14.8026C19.3063 16.7369 20.9548 18.0127 23.6852 18.6351Z" fill="#FF6600"/>
  <path d="M26.3694 16.8531C26.2848 16.8531 26.2027 16.8479 26.1181 16.8453V8.72839C26.1181 7.99753 26.4591 7.28732 27.0744 6.89994C27.5641 6.5952 27.8743 6.58745 28.7998 6.56421C30.8866 6.63136 32.3505 7.38546 33.1888 8.83169C33.5785 9.50574 33.7657 10.2805 33.7913 11.0604C33.9272 15.2829 31.4532 17.2147 26.3694 16.8531Z" fill="#FF6600"/>
  <path d="M48.9891 18.7074H36.4653C36.009 18.7074 35.5501 18.7539 35.1091 18.883C33.1915 19.4486 31.9224 21.1092 31.3046 23.8596H26.1182V18.9992C32.0967 19.4641 35.3399 17.4084 35.8449 12.8269C36.0551 10.9262 35.7013 8.97894 34.6682 7.37259C33.0889 4.92433 30.5483 4.00495 27.0437 4.61443C26.0156 4.79262 25.0465 5.28589 24.3825 6.09681C24.3748 6.10456 24.3671 6.11231 24.362 6.12264C23.9082 6.68047 23.6852 7.39584 23.6852 8.11637V16.4089C22.7699 16.0861 22.0008 15.5929 21.3855 14.9214C21.1317 14.6476 21.001 14.2809 21.001 13.9064V0.311896C21.042 0.304148 21.0804 0.296401 21.1215 0.291236C28.687 -0.87866 36.6858 1.47663 42.5131 7.34677C45.7486 10.6085 47.9123 14.5469 48.9891 18.7074Z" fill="#FF6600"/>
  <path d="M33.076 26.5635C33.076 26.4783 33.0811 26.3956 33.0837 26.3104H41.1389C41.8644 26.3104 42.572 26.6539 42.954 27.2737C43.2591 27.767 43.2668 28.0795 43.2873 29.0118C43.2232 31.114 42.472 32.5886 41.0389 33.4331C40.3698 33.8257 39.6007 34.0142 38.8264 34.04C34.6348 34.1769 32.7171 31.6847 33.076 26.5635Z" fill="#FF6600"/>
  <path d="M42.5131 42.8234C39.2751 46.0826 35.3654 48.2622 31.2353 49.3469V36.7337C31.2353 36.274 31.1891 35.8117 31.061 35.3675C30.4969 33.4358 28.851 32.1574 26.1181 31.535V26.3105H30.9456C30.4816 32.333 32.5248 35.6 37.0703 36.1087C38.9598 36.3205 40.8928 35.9667 42.4849 34.9233C44.9179 33.3325 45.8306 30.7732 45.2255 27.2428C45.0461 26.2072 44.559 25.231 43.7539 24.5621C43.7463 24.5544 43.736 24.5467 43.7283 24.5415C43.172 24.0844 42.4644 23.8597 41.7491 23.8597H33.517C33.8349 22.9377 34.3271 22.163 34.9911 21.5431C35.2629 21.2875 35.6295 21.1558 35.9987 21.1558H49.4967C49.5044 21.1971 49.5121 21.2358 49.5172 21.2771C50.676 28.8983 48.3404 36.9532 42.5131 42.8234Z" fill="#FF6600"/>
  <path d="M68.2096 14.7817C68.489 14.7817 68.7197 14.6913 68.9043 14.5132C69.0864 14.3324 69.1787 14.1025 69.1787 13.821C69.1787 13.5395 69.0864 13.2942 68.9043 13.1082C68.7223 12.9249 68.4916 12.8319 68.2096 12.8319C67.9276 12.8319 67.6866 12.9249 67.502 13.1082C67.32 13.2916 67.2277 13.5292 67.2277 13.821C67.2277 14.1129 67.3174 14.335 67.502 14.5132C67.684 14.6913 67.9199 14.7817 68.2096 14.7817Z" fill="#898989"/>
  <path d="M70.4247 14.7817C70.7041 14.7817 70.9348 14.6913 71.1117 14.5132C71.2886 14.3324 71.3784 14.1025 71.3784 13.821C71.3784 13.5395 71.2886 13.2942 71.1117 13.1082C70.9323 12.9249 70.7041 12.8319 70.4247 12.8319C70.1452 12.8319 69.9017 12.9249 69.7171 13.1082C69.535 13.2916 69.4427 13.5292 69.4427 13.821C69.4427 14.1129 69.5325 14.335 69.7171 14.5132C69.8991 14.6913 70.135 14.7817 70.4247 14.7817Z" fill="#898989"/>
  <path d="M66.9252 22.3332C67.2738 22.5992 67.6712 22.7954 68.1224 22.922C68.5711 23.0511 69.0428 23.1131 69.535 23.1131C69.9837 23.1131 70.4349 23.0589 70.8835 22.953C71.1784 22.8832 71.4629 22.7877 71.7347 22.6715C71.9398 22.9013 72.1757 23.0976 72.4474 23.2551C72.9576 23.547 73.5678 23.6916 74.2805 23.6916H75.4521C76.1648 23.6838 76.7724 23.534 77.2775 23.2422C77.4467 23.1441 77.6005 23.0253 77.7441 22.8987C77.8928 23.0304 78.0491 23.1544 78.226 23.2551C78.7362 23.547 79.3464 23.6916 80.0591 23.6916H84.6789V16.9614H82.4639V21.1039H80.0591C79.7361 21.1039 79.4874 21.0729 79.3156 21.0083C79.1413 20.9437 79.0234 20.8353 78.9593 20.6803C78.8952 20.5254 78.8644 20.3084 78.8644 20.0269V16.9614H76.6493V20.0269C76.6493 20.3084 76.616 20.528 76.5468 20.6803C76.4776 20.8353 76.3596 20.9437 76.1904 21.0083C76.0212 21.0729 75.7751 21.1039 75.4521 21.1039H74.2805C73.9574 21.1039 73.7088 21.0729 73.537 21.0083C73.3627 20.9437 73.2447 20.8353 73.1806 20.6803C73.1165 20.5254 73.0858 20.3084 73.0858 20.0269V15.8845H70.8707V16.3029C70.2016 16.3287 69.5709 16.4139 68.9864 16.5637C68.3506 16.7264 67.7943 16.9589 67.32 17.2636C66.8457 17.5658 66.4739 17.948 66.2073 18.4051C65.9407 18.8622 65.8074 19.3865 65.8074 19.9753C65.8074 20.497 65.9074 20.9541 66.1073 21.3466C66.3073 21.7392 66.5791 22.0697 66.9277 22.3332H66.9252ZM68.2224 19.3761C68.3583 19.1928 68.5608 19.0352 68.8274 18.9009C69.0941 18.7692 69.4171 18.6659 69.794 18.5936C70.1144 18.5316 70.4733 18.4955 70.8682 18.48V20.0244C70.8682 20.2387 70.881 20.4453 70.904 20.6442C70.7272 20.7191 70.5451 20.7836 70.3605 20.8327C70.0965 20.9024 69.8145 20.936 69.5068 20.936C69.1838 20.936 68.9095 20.8998 68.6864 20.8275C68.4608 20.7552 68.2942 20.6467 68.1839 20.4995C68.0737 20.3549 68.0173 20.1845 68.0173 19.9856C68.0173 19.7635 68.084 19.5595 68.2198 19.3761H68.2224Z" fill="#898989"/>
  <path d="M76.4955 24.8331C76.2161 24.8331 75.9853 24.9235 75.8007 25.1095C75.6187 25.2928 75.5264 25.5253 75.5264 25.8093C75.5264 26.0934 75.6162 26.3233 75.8007 26.5092C75.9828 26.6926 76.2135 26.7855 76.4955 26.7855C76.7775 26.7855 77.0083 26.6926 77.1954 26.5092C77.3826 26.3258 77.4749 26.0934 77.4749 25.8093C77.4749 25.5253 77.3826 25.2954 77.1954 25.1095C77.0083 24.9261 76.775 24.8331 76.4955 24.8331Z" fill="#898989"/>
  <path d="M78.0158 25.1068C77.8338 25.2901 77.7415 25.5226 77.7415 25.8066C77.7415 26.0907 77.8338 26.3206 78.0158 26.5065C78.1979 26.6925 78.4286 26.7829 78.7106 26.7829C78.9926 26.7829 79.2208 26.6899 79.4054 26.5065C79.5874 26.3232 79.6797 26.0907 79.6797 25.8066C79.6797 25.5226 79.5874 25.2927 79.4054 25.1068C79.2233 24.9208 78.9926 24.8304 78.7106 24.8304C78.4286 24.8304 78.2004 24.9208 78.0158 25.1068Z" fill="#898989"/>
  <path d="M83.5714 15.5488C83.9355 15.5488 84.2303 15.4326 84.4559 15.2028C84.6815 14.9729 84.7943 14.6759 84.7943 14.317C84.7943 13.958 84.6815 13.6636 84.4559 13.4311C84.2303 13.2013 83.9355 13.0851 83.5714 13.0851C83.2074 13.0851 82.9228 13.2013 82.6921 13.4311C82.4639 13.661 82.3485 13.958 82.3485 14.317C82.3485 14.6759 82.4639 14.9703 82.6921 15.2028C82.9202 15.4326 83.215 15.5488 83.5714 15.5488Z" fill="#898989"/>
  <path d="M101.135 23.3509C101.302 23.2605 101.456 23.1469 101.599 23.0177C101.71 23.103 101.825 23.183 101.951 23.2527C102.461 23.5446 103.071 23.6892 103.784 23.6892H108.416V16.9591H106.201V21.1015H103.784C103.461 21.1015 103.215 21.0705 103.045 21.0059C102.876 20.9414 102.756 20.8329 102.689 20.6779C102.62 20.523 102.587 20.306 102.587 20.0245V16.9591H100.371V20.0245C100.371 20.4171 100.264 20.7115 100.046 20.9026C99.8305 21.0937 99.5844 21.1919 99.3152 21.1919C99.0614 21.1919 98.823 21.1015 98.6025 20.9155C98.4948 20.8251 98.4128 20.7167 98.3564 20.585C98.3564 20.5514 98.3615 20.5204 98.3615 20.4842V17.5866H96.1464V20.022C96.1464 20.4145 96.0388 20.7089 95.8208 20.9C95.6055 21.0911 95.3594 21.1893 95.0902 21.1893C94.8364 21.1893 94.5979 21.0989 94.3775 20.9129C94.2313 20.7916 94.1339 20.6314 94.0775 20.4378C94.0878 20.3009 94.0955 20.1666 94.0955 20.022V18.2142H91.8932V20.022C91.8932 20.3035 91.8599 20.523 91.7907 20.6754C91.7215 20.8303 91.6035 20.9388 91.4343 21.0033C91.2651 21.0679 91.0139 21.0989 90.6831 21.0989H88.5963V12.3544H86.3812V23.6892H90.6831C91.4036 23.6892 92.0163 23.5446 92.5213 23.2527C92.8418 23.0694 93.1084 22.8266 93.334 22.5374C93.593 22.9067 93.9006 23.1908 94.2647 23.3741C94.6749 23.5833 95.1056 23.6892 95.5568 23.6892C96.0311 23.6892 96.4823 23.5756 96.9053 23.3483C97.2001 23.1908 97.4539 22.9712 97.6744 22.6949C97.9051 22.9893 98.1769 23.2166 98.4897 23.3741C98.8999 23.5833 99.3306 23.6892 99.7818 23.6892C100.256 23.6892 100.707 23.5756 101.13 23.3483L101.135 23.3509Z" fill="#898989"/>
  <path d="M107.309 15.5488C107.673 15.5488 107.968 15.4326 108.193 15.2028C108.419 14.9729 108.532 14.6759 108.532 14.317C108.532 13.958 108.419 13.6636 108.193 13.4311C107.968 13.2013 107.673 13.0851 107.309 13.0851C106.945 13.0851 106.66 13.2013 106.43 13.4311C106.201 13.661 106.086 13.958 106.086 14.317C106.086 14.6759 106.201 14.9703 106.43 15.2028C106.658 15.4326 106.953 15.5488 107.309 15.5488Z" fill="#898989"/>
  <path d="M114.144 23.6916H116.523H118.738V21.1013V12.3568H116.523V21.1013H114.144V15.7813H111.929V21.1013H110.121V23.6916H111.929H114.144Z" fill="#898989"/>
  <path d="M112.839 26.801C112.647 26.7029 112.552 26.597 112.552 26.486C112.552 26.3672 112.647 26.2561 112.839 26.158C113.029 26.0598 113.285 26.0108 113.608 26.0108C113.71 26.0108 113.821 26.0185 113.939 26.0366C114.057 26.0547 114.167 26.0702 114.269 26.0882L114.741 25.063C114.554 24.9597 114.357 24.8848 114.149 24.8383C113.941 24.7918 113.726 24.7686 113.505 24.7686C113.149 24.7686 112.816 24.8357 112.506 24.9674C112.195 25.0991 111.947 25.2876 111.754 25.5304C111.562 25.7732 111.467 26.0624 111.467 26.3956C111.467 26.6022 111.513 26.7829 111.59 26.9456H111.149V28.2008H114.928V26.9456H113.618C113.287 26.9456 113.026 26.8966 112.836 26.7984L112.839 26.801Z" fill="#898989"/>
  <path d="M122.786 12.3568H120.571V23.6916H122.786V12.3568Z" fill="#898989"/>
  <path d="M152.694 23.6916H158.345V16.9615H156.13V21.1039H152.694V20.373C152.694 19.7842 152.607 19.2238 152.433 18.6944C152.259 18.1649 151.997 17.6923 151.651 17.2765C151.302 16.8607 150.864 16.5353 150.333 16.2952C149.803 16.055 149.172 15.9362 148.444 15.9362C147.716 15.9362 147.126 16.0447 146.58 16.2642C146.034 16.4811 145.557 16.7755 145.155 17.1422C144.752 17.509 144.414 17.9248 144.142 18.387C143.87 18.8493 143.647 19.3297 143.473 19.8307C143.347 20.1922 143.257 20.5409 143.186 20.8869C143.121 20.8301 143.073 20.763 143.039 20.6829C142.975 20.528 142.945 20.311 142.945 20.0295V17.5942H140.73V20.0295C140.73 20.311 140.696 20.5305 140.627 20.6829C140.558 20.8379 140.44 20.9463 140.271 21.0109C140.101 21.0755 139.855 21.1065 139.532 21.1065H138.386C138.056 21.1065 137.804 21.0755 137.635 21.0109C137.466 20.9463 137.345 20.8379 137.279 20.6829C137.21 20.528 137.176 20.311 137.176 20.0295V12.3619H134.974V20.7087C134.974 21.3828 134.866 21.951 134.648 22.4081C134.433 22.8652 134.125 23.2061 133.725 23.4333C133.326 23.6606 132.851 23.7717 132.3 23.7717C131.749 23.7717 131.3 23.6554 130.931 23.4256C130.562 23.1957 130.29 22.8523 130.116 22.4003C129.941 21.9484 129.854 21.388 129.854 20.7217C129.854 20.4996 129.862 20.2697 129.88 20.0295C129.898 19.7894 129.931 19.5518 129.982 19.3116L127.844 18.901C127.775 19.2083 127.726 19.5156 127.69 19.8229C127.657 20.1303 127.639 20.4505 127.639 20.7836C127.639 21.6901 127.767 22.4907 128.026 23.188C128.285 23.8853 128.636 24.4715 129.077 24.9519C129.518 25.4297 130.026 25.7912 130.598 26.034C131.169 26.2767 131.767 26.4007 132.387 26.4007C133.008 26.4007 133.615 26.2767 134.187 26.0288C134.759 25.7809 135.271 25.4142 135.72 24.9338C136.128 24.4948 136.453 23.9602 136.705 23.3378C137.176 23.5728 137.733 23.6968 138.379 23.6968H139.525C140.237 23.6968 140.845 23.5521 141.35 23.2603C141.624 23.1028 141.863 22.9039 142.068 22.6689C142.232 22.9039 142.424 23.1028 142.647 23.2603C143.057 23.5521 143.552 23.6968 144.129 23.6968H152.682L152.694 23.6916ZM145.096 21.1013C145.242 20.7062 145.431 20.3446 145.67 20.0244C145.924 19.6835 146.213 19.3968 146.536 19.1644C146.859 18.9345 147.198 18.7538 147.554 18.6246C147.911 18.4955 148.259 18.4335 148.598 18.4335C148.962 18.4335 149.287 18.5032 149.572 18.6453C149.856 18.7873 150.079 18.9991 150.241 19.2858C150.402 19.5724 150.482 19.934 150.482 20.3704V21.1013H145.096Z" fill="#898989"/>
  <path d="M158.373 15.807C158.653 15.807 158.883 15.7166 159.06 15.5384C159.24 15.3576 159.327 15.1278 159.327 14.8463C159.327 14.5648 159.237 14.3195 159.06 14.1335C158.883 13.9501 158.653 13.8572 158.373 13.8572C158.094 13.8572 157.85 13.9501 157.665 14.1335C157.481 14.3169 157.391 14.5545 157.391 14.8463C157.391 15.1381 157.483 15.3602 157.665 15.5384C157.848 15.7192 158.083 15.807 158.373 15.807Z" fill="#898989"/>
  <path d="M156.158 15.807C156.437 15.807 156.668 15.7166 156.853 15.5384C157.035 15.3576 157.127 15.1278 157.127 14.8463C157.127 14.5648 157.035 14.3195 156.853 14.1335C156.671 13.9501 156.44 13.8572 156.158 13.8572C155.876 13.8572 155.635 13.9501 155.45 14.1335C155.268 14.3169 155.176 14.5545 155.176 14.8463C155.176 15.1381 155.266 15.3602 155.45 15.5384C155.632 15.7192 155.868 15.807 156.158 15.807Z" fill="#898989"/>
  <path d="M164.518 24.9467C164.959 25.4245 165.467 25.7861 166.039 26.0288C166.61 26.2716 167.208 26.3955 167.828 26.3955C168.448 26.3955 169.056 26.2716 169.628 26.0237C170.199 25.7757 170.712 25.409 171.161 24.9287C171.568 24.4896 171.894 23.955 172.145 23.3326C172.617 23.5677 173.173 23.6916 173.819 23.6916H174.965C175.678 23.6916 176.286 23.547 176.791 23.2552C177.065 23.0976 177.304 22.8988 177.509 22.6638C177.673 22.8988 177.865 23.0976 178.088 23.2552C178.498 23.547 178.993 23.6916 179.57 23.6916H188.122V20.3705C188.122 19.7816 188.035 19.2212 187.861 18.6918C187.687 18.1624 187.425 17.6898 187.079 17.274C186.73 16.8582 186.292 16.5328 185.761 16.2926C185.231 16.0524 184.6 15.9336 183.872 15.9336C183.144 15.9336 182.554 16.0421 182.008 16.2616C181.462 16.4811 180.985 16.773 180.583 17.1397C180.18 17.5064 179.842 17.9222 179.57 18.3845C179.298 18.8467 179.075 19.3271 178.901 19.8281C178.775 20.1897 178.685 20.5383 178.614 20.8844C178.55 20.8276 178.501 20.7604 178.467 20.6804C178.403 20.5254 178.373 20.3085 178.373 20.027V17.5916H176.158V20.027C176.158 20.3085 176.124 20.528 176.055 20.6804C175.986 20.8353 175.868 20.9438 175.699 21.0083C175.529 21.0729 175.283 21.1039 174.96 21.1039H173.814C173.484 21.1039 173.232 21.0729 173.063 21.0083C172.894 20.9438 172.773 20.8353 172.707 20.6804C172.638 20.5254 172.604 20.3085 172.604 20.027V12.3594H170.402V20.7062C170.402 21.3802 170.294 21.9484 170.076 22.4055C169.861 22.8626 169.553 23.2035 169.153 23.4308C168.754 23.658 168.279 23.7691 167.728 23.7691C167.177 23.7691 166.728 23.6529 166.359 23.423C165.99 23.1932 165.718 22.8497 165.544 22.3978C165.369 21.9458 165.282 21.3854 165.282 20.7191C165.282 20.497 165.29 20.2672 165.308 20.027C165.326 19.7868 165.359 19.5492 165.41 19.309L163.272 18.8984C163.203 19.2057 163.154 19.513 163.118 19.8204C163.085 20.1277 163.067 20.4479 163.067 20.7811C163.067 21.6876 163.195 22.4881 163.454 23.1854C163.713 23.8827 164.064 24.469 164.505 24.9493L164.518 24.9467ZM181.103 20.0244C181.357 19.6835 181.646 19.3968 181.97 19.1644C182.293 18.9346 182.631 18.7538 182.987 18.6246C183.344 18.4955 183.692 18.4335 184.031 18.4335C184.395 18.4335 184.72 18.5033 185.005 18.6453C185.29 18.7873 185.513 18.9991 185.674 19.2858C185.836 19.5724 185.915 19.934 185.915 20.3705V21.1013H180.529C180.675 20.7062 180.865 20.3446 181.103 20.0244Z" fill="#898989"/>
  <path d="M193.068 16.6646C192.542 16.6646 192.053 16.7549 191.599 16.9331C191.145 17.1139 190.745 17.3618 190.402 17.6821C190.058 18.0023 189.789 18.3768 189.594 18.8029C189.399 19.2316 189.302 19.699 189.302 20.213C189.302 20.8457 189.456 21.4242 189.766 21.951C190.076 22.4779 190.509 22.8988 191.071 23.2139C191.63 23.5316 192.294 23.6891 193.055 23.6891H193.64V23.8311C193.64 24.1462 193.527 24.3941 193.301 24.5697C193.076 24.7454 192.658 24.8332 192.048 24.8332H189.871V27.4235H192.048C192.819 27.4235 193.491 27.2788 194.057 26.987C194.627 26.6952 195.065 26.282 195.375 25.7422C195.685 25.2051 195.839 24.5672 195.839 23.8311V17.3696C195.465 17.1991 195.037 17.039 194.555 16.8892C194.07 16.7394 193.575 16.6646 193.065 16.6646H193.068ZM193.055 21.3312C192.717 21.3312 192.432 21.277 192.201 21.1711C191.973 21.0652 191.801 20.9258 191.686 20.7553C191.571 20.5849 191.514 20.4093 191.514 20.2285C191.514 20.0322 191.578 19.8411 191.704 19.6577C191.832 19.4744 192.009 19.322 192.24 19.2032C192.468 19.0844 192.745 19.0224 193.068 19.0224C193.25 19.0224 193.44 19.0482 193.64 19.0973V21.3312H193.055Z" fill="#898989"/>
  <path d="M205.081 14.7817C205.361 14.7817 205.592 14.6913 205.769 14.5132C205.945 14.3324 206.035 14.1025 206.035 13.821C206.035 13.5395 205.945 13.2942 205.769 13.1082C205.592 12.9249 205.361 12.8319 205.081 12.8319C204.802 12.8319 204.558 12.9249 204.374 13.1082C204.189 13.2916 204.1 13.5292 204.1 13.821C204.1 14.1129 204.192 14.335 204.374 14.5132C204.556 14.6913 204.792 14.7817 205.081 14.7817Z" fill="#898989"/>
  <path d="M202.866 14.7817C203.146 14.7817 203.377 14.6913 203.561 14.5132C203.743 14.3324 203.836 14.1025 203.836 13.821C203.836 13.5395 203.743 13.2942 203.561 13.1082C203.379 12.9249 203.148 12.8319 202.866 12.8319C202.584 12.8319 202.343 12.9249 202.159 13.1082C201.977 13.2916 201.885 13.5292 201.885 13.821C201.885 14.1129 201.974 14.335 202.159 14.5132C202.341 14.6913 202.577 14.7817 202.866 14.7817Z" fill="#898989"/>
  <path d="M235.844 22.2996C236.115 21.8244 236.251 21.2201 236.251 20.4867V16.9615H234.036V20.027C234.036 20.4195 233.928 20.7139 233.711 20.905C233.495 21.0961 233.249 21.1943 232.98 21.1943C232.726 21.1943 232.488 21.1039 232.267 20.918C232.16 20.8276 232.077 20.7191 232.021 20.5874C232.021 20.5538 232.026 20.5228 232.026 20.4867V17.589H229.811V20.0244C229.811 20.4169 229.703 20.7113 229.486 20.9025C229.27 21.0936 229.024 21.1917 228.755 21.1917C228.501 21.1917 228.263 21.1013 228.042 20.9154C227.896 20.794 227.801 20.6339 227.742 20.4402C227.752 20.3033 227.76 20.169 227.76 20.0244V18.2166H225.558V20.0244C225.558 20.3059 225.525 20.5254 225.455 20.6778C225.386 20.8327 225.268 20.9412 225.099 21.0058C224.93 21.0703 224.679 21.1013 224.348 21.1013H223.189C222.866 21.1013 222.62 21.0703 222.451 21.0058C222.281 20.9412 222.161 20.8327 222.094 20.6778C222.025 20.5228 221.992 20.3059 221.992 20.0244V16.9589H219.777V20.0244C219.777 20.4169 219.669 20.7113 219.451 20.9025C219.236 21.0936 218.99 21.1917 218.718 21.1917C218.464 21.1917 218.226 21.1013 218.005 20.9154C217.898 20.825 217.815 20.7165 217.759 20.5848C217.759 20.5512 217.764 20.5202 217.764 20.4841V17.5865H215.549V20.0218C215.549 20.4144 215.441 20.7088 215.224 20.8999C215.008 21.091 214.762 21.1891 214.493 21.1891C214.239 21.1891 214.001 21.0987 213.78 20.9128C213.634 20.7914 213.537 20.6313 213.48 20.4376C213.49 20.3007 213.498 20.1664 213.498 20.0218V18.214H211.296V20.0218C211.296 20.3033 211.263 20.5228 211.193 20.6752C211.124 20.8276 211.006 20.9386 210.837 21.0032C210.668 21.0677 210.417 21.0987 210.086 21.0987H208.927C208.604 21.0987 208.355 21.0677 208.184 21.0032C208.012 20.9386 207.891 20.8301 207.827 20.6752C207.763 20.5202 207.732 20.3033 207.732 20.0218V15.8794H205.517V16.2978C204.848 16.3236 204.218 16.4088 203.633 16.5586C202.997 16.7213 202.441 16.9537 201.967 17.2585C201.492 17.5606 201.121 17.9429 200.854 18.4C200.587 18.8571 200.454 19.3813 200.454 19.9702C200.454 20.4918 200.554 20.9489 200.754 21.3415C200.954 21.734 201.226 22.0646 201.574 22.328C201.923 22.594 202.32 22.7903 202.772 22.9168C203.22 23.046 203.692 23.108 204.184 23.108C204.633 23.108 205.084 23.0537 205.533 22.9478C205.828 22.8781 206.112 22.7826 206.384 22.6663C206.589 22.8962 206.825 23.0925 207.097 23.25C207.607 23.5418 208.217 23.6864 208.93 23.6864H210.088C210.809 23.6864 211.422 23.5418 211.927 23.25C212.247 23.0666 212.514 22.8239 212.739 22.5346C212.998 22.9039 213.306 23.188 213.67 23.3714C214.08 23.5806 214.511 23.6864 214.962 23.6864C215.436 23.6864 215.888 23.5728 216.311 23.3456C216.605 23.188 216.859 22.9685 217.08 22.6922C217.31 22.9866 217.582 23.2138 217.895 23.3714C218.305 23.5806 218.736 23.6864 219.187 23.6864C219.661 23.6864 220.113 23.5728 220.536 23.3456C220.702 23.2552 220.856 23.1415 221 23.0124C221.11 23.0976 221.225 23.1777 221.351 23.2474C221.861 23.5392 222.471 23.6839 223.184 23.6839H224.343C225.063 23.6839 225.676 23.5392 226.181 23.2474C226.501 23.0641 226.768 22.8213 226.994 22.532C227.253 22.9014 227.56 23.1854 227.924 23.3688C228.334 23.578 228.765 23.6839 229.216 23.6839C229.691 23.6839 230.142 23.5702 230.565 23.343C230.86 23.1854 231.113 22.9659 231.334 22.6896C231.565 22.984 231.836 23.2113 232.149 23.3688C232.562 23.578 232.99 23.6839 233.441 23.6839C233.916 23.6839 234.367 23.5702 234.79 23.343C235.213 23.1157 235.562 22.7671 235.833 22.2919L235.844 22.2996ZM205.017 20.8327C204.753 20.9025 204.471 20.936 204.164 20.936C203.841 20.936 203.566 20.8999 203.343 20.8276C203.118 20.7553 202.951 20.6468 202.841 20.4996C202.731 20.355 202.674 20.1845 202.674 19.9857C202.674 19.7636 202.743 19.5595 202.877 19.3762C203.013 19.1928 203.215 19.0353 203.482 18.901C203.748 18.7693 204.071 18.666 204.448 18.5937C204.769 18.5317 205.128 18.4955 205.522 18.48V20.0244C205.522 20.2387 205.535 20.4453 205.558 20.6442C205.381 20.7191 205.199 20.7837 205.015 20.8327H205.017Z" fill="#898989"/>
  <path d="M242.653 13.9219H241.343C241.012 13.9219 240.75 13.8728 240.561 13.7747C240.371 13.6765 240.274 13.5706 240.274 13.4596C240.274 13.3408 240.368 13.2323 240.561 13.1316C240.75 13.0335 241.009 12.9844 241.33 12.9844C241.432 12.9844 241.543 12.9921 241.661 13.0102C241.779 13.0283 241.889 13.0438 241.991 13.0619L242.463 12.0366C242.276 11.9333 242.078 11.8584 241.871 11.8119C241.663 11.7654 241.448 11.7422 241.227 11.7422C240.871 11.7422 240.538 11.8093 240.227 11.941C239.917 12.0728 239.669 12.2613 239.476 12.504C239.284 12.7468 239.189 13.036 239.189 13.3692C239.189 13.5758 239.235 13.7566 239.312 13.9193H238.871V15.1744H242.65V13.9193L242.653 13.9219Z" fill="#898989"/>
  <path d="M251.749 24.0815C252.39 24.1461 253.146 24.1513 254.02 24.0996C254.233 23.6373 254.397 23.1312 254.518 22.5811C254.636 22.031 254.697 21.5067 254.697 21.0109C254.697 20.4221 254.628 19.8771 254.487 19.3813C254.346 18.8854 254.143 18.4567 253.877 18.0926C253.61 17.7285 253.285 17.4444 252.903 17.2404C252.521 17.0363 252.087 16.933 251.605 16.933C251.123 16.933 250.675 17.0157 250.288 17.1758C249.9 17.3385 249.552 17.5528 249.236 17.824C248.924 18.0926 248.639 18.387 248.383 18.7021C248.126 19.0172 247.89 19.3296 247.67 19.637C247.432 19.9882 247.209 20.2723 246.996 20.4892C246.783 20.7061 246.557 20.8637 246.314 20.9567C246.073 21.0496 245.781 21.0987 245.442 21.0987H243.965V17.3669C243.591 17.1965 243.163 17.0363 242.681 16.8865C242.196 16.7368 241.702 16.6619 241.191 16.6619C240.681 16.6619 240.176 16.7523 239.722 16.9305C239.269 17.1112 238.869 17.3592 238.525 17.6794C238.182 17.9996 237.912 18.3741 237.718 18.8002C237.523 19.2289 237.425 19.6964 237.425 20.2103C237.425 20.843 237.579 21.4215 237.889 21.9483C238.2 22.4752 238.633 22.8961 239.194 23.2112C239.753 23.5289 240.417 23.6864 241.179 23.6864H241.763V23.8284C241.763 24.1435 241.65 24.3914 241.425 24.5671C241.199 24.7427 240.781 24.8305 240.171 24.8305H237.995V27.4208H240.171C240.943 27.4208 241.614 27.2762 242.181 26.9843C242.75 26.6925 243.189 26.2793 243.499 25.7395C243.809 25.2024 243.963 24.5645 243.963 23.8284V23.6864H245.44C246.024 23.6864 246.539 23.5986 246.985 23.423C247.414 23.2551 247.819 22.9943 248.201 22.6482C248.39 22.8135 248.583 22.9685 248.788 23.1079C249.162 23.3636 249.588 23.5728 250.067 23.7355C250.546 23.8982 251.105 24.0118 251.746 24.0764L251.749 24.0815ZM241.179 21.3311C240.84 21.3311 240.556 21.2769 240.325 21.171C240.097 21.0651 239.925 20.9257 239.81 20.7552C239.694 20.5848 239.638 20.4091 239.638 20.2284C239.638 20.0321 239.702 19.841 239.83 19.6576C239.958 19.4743 240.135 19.3219 240.366 19.2031C240.594 19.0843 240.871 19.0223 241.194 19.0223C241.376 19.0223 241.566 19.0481 241.766 19.0972V21.3311H241.181H241.179ZM250.934 19.6705C251.159 19.5466 251.369 19.4846 251.564 19.4846C251.851 19.4846 252.077 19.606 252.239 19.8513C252.4 20.0941 252.48 20.4815 252.48 21.0109C252.48 21.1917 252.467 21.375 252.444 21.5558C252.208 21.5558 251.977 21.5558 251.767 21.5506C251.164 21.5326 250.654 21.4602 250.234 21.326C249.99 21.2485 249.77 21.1426 249.575 21.0109C249.8 20.7036 250.021 20.4401 250.229 20.231C250.475 19.983 250.711 19.7971 250.936 19.6731L250.934 19.6705Z" fill="#898989"/>
  <path d="M74.8855 30.5819L73.7036 35.2486L72.5038 30.5819H70.5707L69.3786 35.2512L68.1814 30.5819H66.0663L68.3044 37.3069H70.3323L71.4911 32.9992L72.6192 37.3069H74.6573L76.9159 30.5819H74.8855Z" fill="#898989"/>
  <path d="M79.2874 32.01C79.0208 32.01 78.749 32.0281 78.4721 32.0668C78.1952 32.1056 77.9184 32.165 77.6389 32.2502C77.3595 32.3328 77.0775 32.4335 76.7903 32.5472L77.2672 33.8333C77.5517 33.7119 77.8312 33.6189 78.1055 33.5544C78.3773 33.4898 78.6208 33.4588 78.8285 33.4588C79.1207 33.4588 79.3438 33.5208 79.495 33.6422C79.6463 33.7636 79.7232 33.934 79.7232 34.1509V34.169H78.4567C77.8081 34.1768 77.3133 34.3136 76.9698 34.5874C76.6262 34.8586 76.4545 35.2485 76.4545 35.7521C76.4545 36.0775 76.5237 36.3642 76.6647 36.6121C76.8031 36.8575 77.0031 37.0512 77.2646 37.188C77.5261 37.3249 77.8389 37.3946 78.2081 37.3946C78.6516 37.3946 79.0233 37.2965 79.3233 37.1028C79.4822 36.9995 79.613 36.873 79.7232 36.7258V37.3094H81.6101V33.9211C81.6101 33.3142 81.405 32.8442 80.9948 32.511C80.5846 32.1779 80.0155 32.0126 79.2848 32.0126L79.2874 32.01ZM79.5258 35.8735C79.4361 35.9536 79.3361 36.0155 79.2207 36.062C79.1054 36.1085 78.9823 36.1292 78.849 36.1292C78.6644 36.1292 78.5208 36.0827 78.4208 35.9897C78.3183 35.8968 78.2696 35.7702 78.2696 35.6101C78.2696 35.45 78.3183 35.3208 78.4183 35.2408C78.5157 35.1607 78.6618 35.122 78.8515 35.122H79.7283V35.592C79.6848 35.7005 79.6181 35.796 79.5284 35.8761L79.5258 35.8735Z" fill="#898989"/>
  <path d="M84.302 33.3684C84.3738 33.327 84.4687 33.3064 84.584 33.3064C84.7866 33.3064 85.0327 33.3529 85.3224 33.4458C85.6121 33.5388 85.93 33.6757 86.2786 33.8539L86.917 32.6349C86.5683 32.4232 86.1992 32.2656 85.8121 32.1597C85.4249 32.0538 85.0352 32.0022 84.6404 32.0022C84.202 32.0022 83.8175 32.0719 83.4868 32.214C83.156 32.356 82.8971 32.5523 82.71 32.808C82.5228 33.0636 82.4279 33.3761 82.4279 33.748C82.4279 34.0424 82.492 34.2852 82.6177 34.4763C82.7433 34.6674 82.9074 34.8249 83.1073 34.9463C83.3073 35.0677 83.5227 35.1658 83.7508 35.2381C83.979 35.313 84.1943 35.375 84.3943 35.4241C84.5943 35.4757 84.7584 35.5325 84.884 35.5971C85.0096 35.6617 85.0737 35.7417 85.0737 35.8373C85.0737 35.8889 85.0558 35.9328 85.0224 35.9664C84.9891 36 84.9378 36.0284 84.8737 36.0491C84.8096 36.0671 84.7327 36.0775 84.6456 36.0775C84.3584 36.0775 84.0559 36.0232 83.7354 35.9148C83.415 35.8063 83.0919 35.6462 82.7689 35.4344L82.1793 36.6534C82.5151 36.8961 82.892 37.0795 83.3073 37.206C83.7226 37.33 84.161 37.392 84.6174 37.392C85.0737 37.392 85.4634 37.3223 85.8044 37.1802C86.1428 37.0382 86.412 36.8419 86.6042 36.5862C86.7965 36.3306 86.8939 36.0232 86.8939 35.6643C86.8939 35.3647 86.8298 35.1168 86.6991 34.9256C86.5683 34.7345 86.4017 34.5744 86.194 34.4505C85.9864 34.3265 85.771 34.2284 85.5429 34.1586C85.3147 34.0889 85.0968 34.0243 84.8917 33.9675C84.684 33.9107 84.5174 33.8513 84.3866 33.7893C84.2559 33.7273 84.1918 33.6499 84.1918 33.5543C84.1918 33.4717 84.2277 33.4097 84.302 33.3658V33.3684Z" fill="#898989"/>
  <path d="M91.5932 32.4103C91.1805 32.1521 90.6703 32.0229 90.0601 32.0229C89.5141 32.0229 89.0372 32.134 88.627 32.3587C88.2168 32.5834 87.8989 32.8959 87.6707 33.2987C87.4426 33.7016 87.3272 34.1742 87.3272 34.7191C87.3272 35.2641 87.44 35.716 87.6656 36.1163C87.8912 36.5166 88.2117 36.8265 88.627 37.046C89.0423 37.2655 89.5397 37.3766 90.1165 37.3766C90.6062 37.3766 91.0446 37.2939 91.4369 37.1312C91.8265 36.9685 92.1547 36.7361 92.4239 36.4365L91.424 35.4474C91.0805 35.7806 90.7011 35.9458 90.2806 35.9458C90.0653 35.9458 89.8755 35.8942 89.714 35.7883C89.5525 35.6824 89.4243 35.5301 89.332 35.3338C89.309 35.2847 89.2987 35.2253 89.2808 35.1711H92.7572C92.7956 34.5306 92.7136 33.9754 92.5136 33.5053C92.3136 33.0353 92.006 32.6712 91.5932 32.4103ZM89.2321 34.2181C89.25 34.1277 89.2679 34.0399 89.2987 33.9599C89.3679 33.7688 89.4679 33.6164 89.5987 33.5053C89.7294 33.3943 89.8884 33.3375 90.0806 33.3375C90.2396 33.3375 90.378 33.3736 90.4985 33.4485C90.619 33.5234 90.7113 33.6241 90.7754 33.7558C90.8395 33.8876 90.8677 34.0425 90.86 34.2207H89.2321V34.2181Z" fill="#898989"/>
  <path d="M95.5003 30.1893H93.575V37.3094H95.5003V30.1893Z" fill="#898989"/>
  <path d="M104.635 30.5819H98.7665V32.1753H100.7V37.3069H102.692V32.1753H104.635V30.5819Z" fill="#898989"/>
  <path d="M107.263 32.01C106.996 32.01 106.724 32.0281 106.447 32.0668C106.171 32.1056 105.894 32.165 105.614 32.2502C105.335 32.3328 105.053 32.4335 104.766 32.5472L105.243 33.8333C105.527 33.7119 105.807 33.6189 106.081 33.5544C106.353 33.4898 106.596 33.4588 106.804 33.4588C107.096 33.4588 107.319 33.5208 107.47 33.6422C107.622 33.7636 107.699 33.934 107.699 34.1509V34.169H106.432C105.783 34.1768 105.289 34.3136 104.945 34.5874C104.602 34.8586 104.43 35.2485 104.43 35.7521C104.43 36.0775 104.499 36.3642 104.64 36.6121C104.778 36.8575 104.978 37.0512 105.24 37.188C105.501 37.3249 105.814 37.3946 106.183 37.3946C106.627 37.3946 106.999 37.2965 107.299 37.1028C107.458 36.9995 107.588 36.873 107.699 36.7258V37.3094H109.585V33.9211C109.585 33.3142 109.38 32.8442 108.97 32.511C108.56 32.1779 107.991 32.0126 107.26 32.0126L107.263 32.01ZM107.501 35.8735C107.411 35.9536 107.311 36.0155 107.196 36.062C107.081 36.1085 106.958 36.1292 106.824 36.1292C106.64 36.1292 106.496 36.0827 106.396 35.9897C106.294 35.8968 106.245 35.7702 106.245 35.6101C106.245 35.45 106.294 35.3208 106.394 35.2408C106.491 35.1607 106.637 35.122 106.827 35.122H107.704V35.592C107.66 35.7005 107.593 35.796 107.504 35.8761L107.501 35.8735Z" fill="#898989"/>
  <path d="M112.277 33.3684C112.349 33.327 112.444 33.3064 112.559 33.3064C112.762 33.3064 113.008 33.3529 113.298 33.4458C113.587 33.5388 113.905 33.6757 114.254 33.8539L114.892 32.6349C114.544 32.4232 114.174 32.2656 113.787 32.1597C113.4 32.0538 113.011 32.0022 112.616 32.0022C112.177 32.0022 111.793 32.0719 111.462 32.214C111.131 32.356 110.872 32.5523 110.685 32.808C110.498 33.0636 110.403 33.3761 110.403 33.748C110.403 34.0424 110.467 34.2852 110.593 34.4763C110.721 34.6674 110.883 34.8249 111.083 34.9463C111.283 35.0677 111.498 35.1658 111.726 35.2381C111.954 35.313 112.17 35.375 112.37 35.4241C112.57 35.4757 112.734 35.5325 112.859 35.5971C112.985 35.6617 113.049 35.7417 113.049 35.8373C113.049 35.8889 113.031 35.9328 112.998 35.9664C112.962 36.0026 112.913 36.0284 112.849 36.0491C112.785 36.0671 112.708 36.0775 112.621 36.0775C112.336 36.0775 112.031 36.0232 111.711 35.9148C111.39 35.8063 111.067 35.6462 110.744 35.4344L110.155 36.6534C110.49 36.8961 110.867 37.0795 111.283 37.206C111.698 37.33 112.136 37.392 112.593 37.392C113.049 37.392 113.439 37.3223 113.78 37.1802C114.121 37.0382 114.387 36.8419 114.58 36.5862C114.774 36.3306 114.869 36.0232 114.869 35.6643C114.869 35.3647 114.805 35.1168 114.674 34.9256C114.544 34.7345 114.377 34.5744 114.169 34.4505C113.962 34.3265 113.746 34.2284 113.516 34.1586C113.285 34.0889 113.069 34.0243 112.864 33.9675C112.657 33.9107 112.49 33.8513 112.359 33.7893C112.229 33.7273 112.164 33.6499 112.164 33.5543C112.164 33.4717 112.2 33.4097 112.275 33.3658L112.277 33.3684Z" fill="#898989"/>
  <path d="M119.569 32.4103C119.156 32.1521 118.646 32.0229 118.035 32.0229C117.489 32.0229 117.012 32.134 116.602 32.3587C116.192 32.5834 115.874 32.8959 115.646 33.2987C115.418 33.7016 115.302 34.1742 115.302 34.7191C115.302 35.2641 115.415 35.716 115.641 36.1163C115.867 36.5166 116.187 36.8265 116.602 37.046C117.018 37.2655 117.515 37.3766 118.092 37.3766C118.581 37.3766 119.02 37.2939 119.412 37.1312C119.802 36.9685 120.13 36.7361 120.399 36.4365L119.399 35.4474C119.056 35.7806 118.676 35.9458 118.256 35.9458C118.041 35.9458 117.851 35.8942 117.689 35.7883C117.528 35.6824 117.4 35.5301 117.307 35.3338C117.284 35.2847 117.274 35.2253 117.256 35.1711H120.732C120.771 34.5306 120.689 33.9754 120.489 33.5053C120.289 33.0353 119.981 32.6712 119.569 32.4103ZM117.207 34.2181C117.225 34.1277 117.243 34.0399 117.274 33.9599C117.343 33.7688 117.443 33.6164 117.574 33.5053C117.705 33.3943 117.864 33.3375 118.056 33.3375C118.215 33.3375 118.353 33.3736 118.476 33.4485C118.597 33.5234 118.689 33.6241 118.753 33.7558C118.817 33.8876 118.846 34.0425 118.838 34.2207H117.21L117.207 34.2181Z" fill="#898989"/>
  <path d="M123.476 30.1893H121.55V37.3094H123.476V30.1893Z" fill="#898989"/>
  <path d="M131.6 33.2678H129.229V30.5819H127.247V37.3069H129.229V34.8044H131.6V37.3069H133.582V30.5819H131.6V33.2678Z" fill="#898989"/>
  <path d="M138.002 34.6701C138.002 34.9697 137.93 35.215 137.786 35.3984C137.643 35.5843 137.448 35.6799 137.199 35.685C136.989 35.685 136.822 35.6101 136.694 35.4603C136.566 35.3105 136.504 35.1065 136.504 34.8509V32.0875H134.579V35.3984C134.579 35.8012 134.656 36.1525 134.807 36.4495C134.959 36.7464 135.174 36.9789 135.451 37.1442C135.728 37.3094 136.046 37.3947 136.407 37.3947C136.825 37.3947 137.186 37.2862 137.489 37.0693C137.689 36.9246 137.858 36.7335 137.999 36.5063V37.3094H139.924V32.0901H137.999V34.6701H138.002Z" fill="#898989"/>
  <path d="M149.046 32.2502C148.769 32.0901 148.449 32.01 148.08 32.01C147.654 32.01 147.287 32.1159 146.98 32.3277C146.703 32.5188 146.485 32.7925 146.324 33.1437C146.298 33.074 146.27 33.0069 146.236 32.9423C146.08 32.6427 145.865 32.4103 145.588 32.2502C145.311 32.0901 144.988 32.01 144.621 32.01C144.201 32.01 143.839 32.1159 143.532 32.3277C143.327 32.4697 143.155 32.6582 143.014 32.8881V32.0875H141.088V37.3068H143.014V34.7269C143.014 34.4273 143.088 34.1819 143.237 33.9986C143.386 33.8126 143.585 33.7171 143.832 33.7119C144.047 33.7119 144.221 33.7868 144.349 33.9366C144.48 34.0864 144.544 34.293 144.544 34.5564V37.3094H146.47V34.7294C146.47 34.4299 146.541 34.1845 146.688 34.0012C146.834 33.8152 147.031 33.7197 147.277 33.7145C147.493 33.7145 147.667 33.7894 147.795 33.9392C147.926 34.089 147.99 34.2956 147.99 34.559V37.312H149.915V34.0012C149.915 33.5983 149.838 33.2471 149.687 32.9449C149.536 32.6453 149.321 32.4129 149.044 32.2528L149.046 32.2502Z" fill="#898989"/>
  <path d="M153.376 32.01C153.11 32.01 152.838 32.0281 152.561 32.0668C152.284 32.1056 152.007 32.165 151.728 32.2502C151.448 32.3328 151.166 32.4335 150.879 32.5472L151.356 33.8333C151.643 33.7119 151.923 33.6189 152.194 33.5544C152.466 33.4898 152.71 33.4588 152.917 33.4588C153.21 33.4588 153.433 33.5208 153.584 33.6422C153.735 33.7636 153.812 33.934 153.812 34.1509V34.169H152.546C151.897 34.1768 151.402 34.3136 151.059 34.5874C150.715 34.8586 150.543 35.2485 150.543 35.7521C150.543 36.0775 150.613 36.3642 150.754 36.6121C150.892 36.8575 151.092 37.0512 151.354 37.188C151.615 37.3249 151.928 37.3946 152.297 37.3946C152.741 37.3946 153.112 37.2965 153.412 37.1028C153.571 36.9995 153.702 36.873 153.812 36.7258V37.3094H155.699V33.9211C155.699 33.3142 155.494 32.8442 155.084 32.511C154.674 32.1779 154.104 32.0126 153.374 32.0126L153.376 32.01ZM153.615 35.8735C153.525 35.9536 153.425 36.0155 153.31 36.062C153.194 36.1085 153.071 36.1292 152.938 36.1292C152.753 36.1292 152.61 36.0827 152.51 35.9897C152.407 35.8968 152.356 35.7702 152.356 35.6101C152.356 35.45 152.405 35.3208 152.505 35.2408C152.602 35.1607 152.748 35.122 152.938 35.122H153.815V35.592C153.771 35.7005 153.704 35.796 153.615 35.8761V35.8735Z" fill="#898989"/>
  <path d="M161.267 32.2502C160.985 32.0901 160.66 32.01 160.291 32.01C159.857 32.01 159.488 32.1159 159.176 32.3277C158.963 32.4723 158.788 32.666 158.642 32.901V32.0875H156.717V37.3068H158.642V34.7269C158.642 34.4273 158.719 34.1819 158.87 33.9986C159.022 33.8152 159.229 33.7171 159.491 33.7119C159.714 33.7119 159.893 33.7868 160.029 33.9366C160.165 34.0864 160.234 34.293 160.234 34.5564V37.3094H162.16V33.9986C162.16 33.5957 162.083 33.2445 161.926 32.9423C161.77 32.6427 161.552 32.4103 161.27 32.2502H161.267Z" fill="#898989"/>
  <path d="M164.149 29.603C163.865 29.603 163.626 29.6986 163.439 29.8871C163.252 30.0756 163.157 30.3132 163.157 30.6025C163.157 30.8917 163.249 31.1371 163.439 31.323C163.626 31.509 163.862 31.6019 164.149 31.6019C164.436 31.6019 164.68 31.509 164.864 31.323C165.049 31.1371 165.141 30.8969 165.141 30.6025C165.141 30.3081 165.049 30.0756 164.864 29.8871C164.68 29.6986 164.441 29.603 164.149 29.603Z" fill="#898989"/>
  <path d="M165.103 32.0875H163.177V37.3069H165.103V32.0875Z" fill="#898989"/>
  <path d="M169.141 35.8348C169.038 35.8632 168.951 35.8787 168.874 35.8787C168.741 35.8787 168.633 35.8374 168.554 35.7548C168.474 35.6721 168.436 35.5482 168.436 35.3803V33.5958H169.712V32.3587H168.436V30.9099H166.521V32.3587H165.805V33.5958H166.521V35.6773C166.521 36.0363 166.597 36.3436 166.754 36.6044C166.91 36.8627 167.126 37.0615 167.402 37.1958C167.679 37.3301 168 37.3973 168.369 37.3973C168.636 37.3973 168.897 37.3663 169.156 37.3069C169.412 37.2449 169.63 37.1649 169.81 37.0615L169.466 35.7264C169.351 35.7703 169.243 35.809 169.143 35.8374L169.141 35.8348Z" fill="#898989"/>
  <path d="M172.979 32.01C172.712 32.01 172.44 32.0281 172.163 32.0668C171.886 32.1056 171.61 32.165 171.33 32.2502C171.051 32.3328 170.769 32.4335 170.482 32.5472L170.958 33.8333C171.245 33.7119 171.525 33.6189 171.797 33.5544C172.068 33.4898 172.312 33.4588 172.52 33.4588C172.812 33.4588 173.035 33.5208 173.186 33.6422C173.337 33.7636 173.414 33.934 173.414 34.1509V34.169H172.148C171.499 34.1768 171.005 34.3136 170.661 34.5874C170.317 34.8586 170.146 35.2485 170.146 35.7521C170.146 36.0775 170.215 36.3642 170.356 36.6121C170.494 36.8575 170.694 37.0512 170.956 37.188C171.217 37.3249 171.53 37.3946 171.899 37.3946C172.343 37.3946 172.715 37.2965 173.014 37.1028C173.173 36.9995 173.304 36.873 173.414 36.7258V37.3094H175.301V33.9211C175.301 33.3142 175.096 32.8442 174.686 32.511C174.276 32.1779 173.707 32.0126 172.976 32.0126L172.979 32.01ZM173.217 35.8735C173.127 35.9536 173.027 36.0155 172.912 36.062C172.797 36.1085 172.673 36.1292 172.54 36.1292C172.356 36.1292 172.212 36.0827 172.112 35.9897C172.009 35.8968 171.958 35.7702 171.958 35.6101C171.958 35.45 172.007 35.3208 172.107 35.2408C172.204 35.1607 172.35 35.122 172.54 35.122H173.417V35.592C173.373 35.7005 173.307 35.796 173.217 35.8761V35.8735Z" fill="#898989"/>
  <path d="M178.247 32.9191V32.0875H176.324V37.3068H178.247V34.8121C178.247 34.5564 178.314 34.3446 178.447 34.1742C178.58 34.0037 178.77 33.8824 179.014 33.8049C179.257 33.7274 179.544 33.7119 179.875 33.7558V32.01C179.454 32.01 179.09 32.1185 178.78 32.3354C178.567 32.4826 178.393 32.6789 178.247 32.9165V32.9191Z" fill="#898989"/>
  <path d="M182.477 32.0875H180.552V37.3069H182.477V32.0875Z" fill="#898989"/>
  <path d="M181.523 29.603C181.239 29.603 181 29.6986 180.813 29.8871C180.626 30.0756 180.531 30.3132 180.531 30.6025C180.531 30.8917 180.624 31.1371 180.813 31.323C181 31.509 181.236 31.6019 181.523 31.6019C181.811 31.6019 182.054 31.509 182.239 31.323C182.423 31.1371 182.516 30.8969 182.516 30.6025C182.516 30.3081 182.423 30.0756 182.239 29.8871C182.054 29.6986 181.816 29.603 181.523 29.603Z" fill="#898989"/>
  <path d="M186.077 32.01C185.81 32.01 185.538 32.0281 185.261 32.0668C184.984 32.1056 184.708 32.165 184.428 32.2502C184.149 32.3328 183.867 32.4335 183.579 32.5472L184.056 33.8333C184.341 33.7119 184.62 33.6189 184.895 33.5544C185.169 33.4898 185.41 33.4588 185.618 33.4588C185.91 33.4588 186.133 33.5208 186.284 33.6422C186.435 33.7636 186.512 33.934 186.512 34.1509V34.169H185.246C184.597 34.1768 184.102 34.3136 183.759 34.5874C183.415 34.8586 183.244 35.2485 183.244 35.7521C183.244 36.0775 183.313 36.3642 183.454 36.6121C183.592 36.8575 183.792 37.0512 184.054 37.188C184.315 37.3249 184.628 37.3946 184.997 37.3946C185.441 37.3946 185.812 37.2965 186.112 37.1028C186.271 36.9995 186.402 36.873 186.512 36.7258V37.3094H188.399V33.9211C188.399 33.3142 188.194 32.8442 187.784 32.511C187.374 32.1779 186.805 32.0126 186.074 32.0126L186.077 32.01ZM186.315 35.8735C186.225 35.9536 186.125 36.0155 186.01 36.062C185.895 36.1059 185.771 36.1292 185.638 36.1292C185.454 36.1292 185.31 36.0827 185.21 35.9897C185.107 35.8968 185.056 35.7702 185.056 35.6101C185.056 35.45 185.105 35.3208 185.205 35.2408C185.302 35.1607 185.448 35.122 185.638 35.122H186.515V35.592C186.471 35.7005 186.405 35.796 186.315 35.8761V35.8735Z" fill="#898989"/>
  <path d="M193.968 32.2502C193.686 32.0901 193.36 32.01 192.991 32.01C192.558 32.01 192.188 32.1159 191.876 32.3277C191.663 32.4723 191.489 32.666 191.342 32.901V32.0875H189.42V37.3068H191.342V34.7269C191.342 34.4273 191.419 34.1819 191.571 33.9986C191.722 33.8152 191.93 33.7171 192.191 33.7119C192.414 33.7119 192.594 33.7868 192.729 33.9366C192.865 34.0864 192.935 34.293 192.935 34.5564V37.3094H194.857V33.9986C194.857 33.5957 194.78 33.2445 194.624 32.9423C194.468 32.6427 194.25 32.4103 193.968 32.2502Z" fill="#898989"/>
  <path d="M198.431 37.3069H200.413V34.9955H203.384V33.4589H200.413V32.1159H203.612V30.5819H198.431V37.3069Z" fill="#898989"/>
  <path d="M208.348 32.3508C207.917 32.1313 207.412 32.0203 206.832 32.0203C206.253 32.0203 205.74 32.1313 205.31 32.3508C204.879 32.5703 204.543 32.8828 204.305 33.2805C204.066 33.6808 203.948 34.1535 203.948 34.6958C203.948 35.2381 204.066 35.703 204.305 36.1059C204.543 36.5087 204.879 36.8212 205.31 37.0407C205.74 37.2603 206.25 37.3713 206.832 37.3713C207.414 37.3713 207.914 37.2603 208.348 37.0407C208.781 36.8186 209.114 36.5087 209.353 36.1059C209.591 35.703 209.709 35.233 209.709 34.6958C209.709 34.1586 209.591 33.6808 209.353 33.2805C209.114 32.8803 208.778 32.5703 208.348 32.3508ZM207.65 35.3311C207.573 35.5041 207.466 35.6384 207.327 35.734C207.186 35.8295 207.022 35.8786 206.832 35.8786C206.643 35.8786 206.476 35.8295 206.333 35.734C206.189 35.6384 206.081 35.5041 206.004 35.3311C205.927 35.1581 205.889 34.954 205.889 34.7164C205.889 34.4789 205.927 34.2826 206.004 34.107C206.081 33.9314 206.189 33.7945 206.333 33.6989C206.476 33.6034 206.643 33.5543 206.832 33.5543C207.022 33.5543 207.189 33.6034 207.327 33.6989C207.466 33.7945 207.576 33.9314 207.65 34.107C207.725 34.2826 207.766 34.4866 207.766 34.7164C207.766 34.9463 207.727 35.1581 207.65 35.3311Z" fill="#898989"/>
  <path d="M213.747 34.6701C213.747 34.9697 213.675 35.215 213.532 35.3984C213.388 35.5843 213.193 35.6799 212.947 35.685C212.737 35.685 212.57 35.6101 212.442 35.4603C212.314 35.3105 212.252 35.1065 212.252 34.8509V32.0875H210.327V35.3984C210.327 35.8012 210.404 36.1525 210.555 36.4495C210.706 36.7464 210.922 36.9789 211.199 37.1442C211.475 37.3094 211.793 37.3947 212.155 37.3947C212.573 37.3947 212.934 37.2862 213.237 37.0693C213.437 36.9246 213.606 36.7335 213.747 36.5063V37.3094H215.672V32.0901H213.747V34.6701Z" fill="#898989"/>
  <path d="M221.382 32.2502C221.1 32.0901 220.774 32.01 220.405 32.01C219.971 32.01 219.602 32.1159 219.29 32.3277C219.077 32.4723 218.902 32.666 218.756 32.901V32.0875H216.833V37.3068H218.756V34.7269C218.756 34.4273 218.833 34.1819 218.984 33.9986C219.136 33.8152 219.343 33.7171 219.605 33.7119C219.828 33.7119 220.007 33.7868 220.143 33.9366C220.279 34.0864 220.348 34.293 220.348 34.5564V37.3094H222.271V33.9986C222.271 33.5957 222.194 33.2445 222.038 32.9423C221.881 32.6427 221.664 32.4103 221.382 32.2502Z" fill="#898989"/>
  <path d="M226.712 32.6996C226.601 32.5653 226.478 32.4439 226.34 32.3458C226.035 32.1288 225.671 32.0204 225.245 32.0204C224.776 32.0204 224.363 32.1314 224.007 32.3509C223.65 32.5704 223.376 32.8778 223.184 33.2729C222.989 33.6654 222.894 34.1329 222.894 34.6701C222.894 35.2072 222.994 35.6902 223.194 36.1008C223.394 36.5088 223.674 36.8239 224.032 37.046C224.391 37.2655 224.812 37.3766 225.294 37.3766C225.707 37.3766 226.063 37.2655 226.365 37.046C226.494 36.9505 226.609 36.8368 226.714 36.7077V37.3094H228.637V30.1893H226.714V32.7022L226.712 32.6996ZM226.599 35.3312C226.522 35.5042 226.414 35.6411 226.276 35.7392C226.137 35.8374 225.971 35.889 225.781 35.889C225.591 35.889 225.425 35.84 225.281 35.7392C225.137 35.6411 225.03 35.5042 224.953 35.3312C224.876 35.1582 224.837 34.9541 224.837 34.7165C224.837 34.4789 224.876 34.2827 224.953 34.1071C225.03 33.9315 225.137 33.7946 225.281 33.699C225.425 33.6035 225.591 33.5544 225.781 33.5544C225.971 33.5544 226.137 33.6035 226.276 33.699C226.414 33.7946 226.524 33.9315 226.599 34.1071C226.673 34.2827 226.714 34.4867 226.714 34.7165C226.714 34.9464 226.676 35.1582 226.599 35.3312Z" fill="#898989"/>
  <path d="M232.285 32.01C232.018 32.01 231.747 32.0281 231.47 32.0668C231.193 32.1056 230.916 32.165 230.637 32.2502C230.357 32.3328 230.075 32.4335 229.788 32.5472L230.265 33.8333C230.549 33.7119 230.829 33.6189 231.103 33.5544C231.375 33.4898 231.619 33.4588 231.826 33.4588C232.118 33.4588 232.341 33.5208 232.493 33.6422C232.644 33.7636 232.721 33.934 232.721 34.1509V34.169H231.454C230.806 34.1768 230.311 34.3136 229.967 34.5874C229.624 34.8586 229.452 35.2485 229.452 35.7521C229.452 36.0775 229.521 36.3642 229.662 36.6121C229.801 36.8575 230.001 37.0512 230.262 37.188C230.524 37.3249 230.837 37.3946 231.206 37.3946C231.649 37.3946 232.021 37.2965 232.321 37.1028C232.48 36.9995 232.611 36.873 232.721 36.7258V37.3094H234.608V33.9211C234.608 33.3142 234.403 32.8442 233.993 32.511C233.582 32.1779 233.013 32.0126 232.283 32.0126L232.285 32.01ZM232.524 35.8735C232.434 35.9536 232.334 36.0155 232.218 36.062C232.103 36.1059 231.98 36.1292 231.847 36.1292C231.662 36.1292 231.519 36.0827 231.419 35.9897C231.316 35.8968 231.267 35.7702 231.267 35.6101C231.267 35.45 231.316 35.3208 231.416 35.2408C231.513 35.1607 231.66 35.122 231.849 35.122H232.726V35.592C232.682 35.7005 232.616 35.796 232.526 35.8761L232.524 35.8735Z" fill="#898989"/>
  <path d="M238.505 35.8348C238.402 35.8632 238.315 35.8787 238.238 35.8787C238.105 35.8787 237.997 35.8374 237.92 35.7548C237.841 35.6721 237.802 35.5482 237.802 35.3803V33.5958H239.079V32.3587H237.802V30.9099H235.887V32.3587H235.172V33.5958H235.887V35.6773C235.887 36.0363 235.964 36.3436 236.12 36.6044C236.277 36.8653 236.492 37.0615 236.769 37.1958C237.046 37.3301 237.366 37.3973 237.736 37.3973C238.002 37.3973 238.264 37.3663 238.52 37.3069C238.776 37.2449 238.994 37.1649 239.174 37.0615L238.83 35.7264C238.715 35.7703 238.607 35.809 238.507 35.8374L238.505 35.8348Z" fill="#898989"/>
  <path d="M240.876 29.603C240.592 29.603 240.353 29.6986 240.166 29.8871C239.979 30.0756 239.884 30.3132 239.884 30.6025C239.884 30.8917 239.976 31.1371 240.166 31.323C240.353 31.509 240.589 31.6019 240.876 31.6019C241.163 31.6019 241.407 31.509 241.591 31.323C241.776 31.1371 241.868 30.8969 241.868 30.6025C241.868 30.3081 241.776 30.0756 241.591 29.8871C241.407 29.6986 241.168 29.603 240.876 29.603Z" fill="#898989"/>
  <path d="M241.827 32.0875H239.904V37.3069H241.827V32.0875Z" fill="#898989"/>
  <path d="M246.991 32.3508C246.56 32.1313 246.055 32.0203 245.475 32.0203C244.896 32.0203 244.383 32.1313 243.953 32.3508C243.519 32.5703 243.186 32.8828 242.948 33.2805C242.709 33.6808 242.591 34.1535 242.591 34.6958C242.591 35.2381 242.709 35.703 242.948 36.1059C243.186 36.5087 243.522 36.8212 243.953 37.0407C244.383 37.2603 244.891 37.3713 245.475 37.3713C246.06 37.3713 246.557 37.2603 246.991 37.0407C247.421 36.8186 247.757 36.5087 247.996 36.1059C248.234 35.703 248.352 35.233 248.352 34.6958C248.352 34.1586 248.234 33.6808 247.996 33.2805C247.757 32.8803 247.421 32.5703 246.991 32.3508ZM246.296 35.3311C246.219 35.5041 246.111 35.6384 245.973 35.734C245.834 35.8295 245.668 35.8786 245.478 35.8786C245.288 35.8786 245.122 35.8295 244.978 35.734C244.835 35.6384 244.727 35.5041 244.65 35.3311C244.573 35.1581 244.535 34.954 244.535 34.7164C244.535 34.4789 244.573 34.2826 244.65 34.107C244.727 33.9314 244.835 33.7945 244.978 33.6989C245.122 33.6034 245.288 33.5543 245.478 33.5543C245.668 33.5543 245.834 33.6034 245.973 33.6989C246.114 33.7945 246.222 33.9314 246.296 34.107C246.37 34.2826 246.411 34.4866 246.411 34.7164C246.411 34.9463 246.373 35.1581 246.296 35.3311Z" fill="#898989"/>
  <path d="M253.664 32.2502C253.382 32.0901 253.056 32.01 252.687 32.01C252.256 32.01 251.885 32.1159 251.572 32.3277C251.359 32.4723 251.185 32.666 251.039 32.901V32.0875H249.113V37.3068H251.039V34.7269C251.039 34.4273 251.116 34.1819 251.267 33.9986C251.418 33.8152 251.626 33.7171 251.885 33.7119C252.108 33.7119 252.287 33.7868 252.423 33.9366C252.559 34.0864 252.628 34.293 252.628 34.5564V37.3094H254.554V33.9986C254.554 33.5957 254.477 33.2445 254.32 32.9423C254.164 32.6427 253.946 32.4103 253.664 32.2502Z" fill="#898989"/>
</svg>