<svg width="244" height="51" viewBox="0 0 244 51" fill="none" xmlns="http://www.w3.org/2000/svg">
<path d="M210.922 23.6092C210.922 23.6945 210.917 23.7771 210.915 23.8623H202.857C202.131 23.8623 201.426 23.5188 201.042 22.8964C200.739 22.4032 200.732 22.0933 200.709 21.1584C200.775 19.0588 201.524 17.5841 202.959 16.7396C203.629 16.3445 204.398 16.156 205.172 16.1327C209.364 15.9933 211.281 18.4854 210.922 23.6092Z" fill="#FF6600"/>
<path d="M217.629 33.3195C217.714 33.3195 217.796 33.3247 217.88 33.3272V41.4416C217.88 42.1725 217.539 42.8853 216.922 43.2701C216.432 43.5774 216.124 43.5851 215.196 43.6058C213.109 43.5412 211.648 42.7845 210.81 41.3409C210.417 40.6668 210.23 39.8921 210.207 39.1121C210.069 34.8897 212.543 32.9579 217.629 33.3195Z" fill="#FF6600"/>
<path d="M212.691 26.3104H217.88V31.1734C211.902 30.7059 208.659 32.7642 208.151 37.3431C207.941 39.2464 208.295 41.1937 209.33 42.8C210.907 45.2483 213.45 46.1677 216.955 45.5582C217.983 45.3774 218.949 44.8867 219.616 44.0758C219.621 44.0681 219.629 44.0577 219.636 44.05C220.088 43.4896 220.311 42.7768 220.311 42.0562V33.7637C221.226 34.0839 221.995 34.5798 222.613 35.2486C222.867 35.5224 222.998 35.8917 222.998 36.2636V49.8581C222.957 49.8659 222.918 49.8736 222.877 49.8788C215.311 51.0461 207.313 48.6934 201.485 42.8233C198.247 39.5615 196.089 35.6283 195.007 31.4652H207.531C207.99 31.4652 208.448 31.4187 208.887 31.2896C210.807 30.7214 212.074 29.0634 212.691 26.3104Z" fill="#FF6600"/>
<path d="M217.878 18.6351V23.8622H213.053C213.514 17.8397 211.474 14.5728 206.926 14.0614C205.039 13.8496 203.106 14.206 201.511 15.2494C199.081 16.8376 198.168 19.3995 198.773 22.9299C198.95 23.9655 199.44 24.9391 200.245 25.6106C200.252 25.6157 200.26 25.6235 200.27 25.6312C200.824 26.0858 201.534 26.3104 202.249 26.3104H210.481C210.161 27.2324 209.671 28.0072 209.005 28.6296C208.733 28.8853 208.369 29.017 207.997 29.017H194.499C194.492 28.9756 194.484 28.9317 194.479 28.8904C193.325 21.2693 195.661 13.2143 201.485 7.34677C204.723 4.08501 208.633 1.90791 212.763 0.823242V13.439C212.763 13.8987 212.807 14.361 212.938 14.8026C213.499 16.7369 215.147 18.0127 217.878 18.6351Z" fill="#FF6600"/>
<path d="M220.562 16.8531C220.477 16.8531 220.395 16.8479 220.311 16.8453V8.72839C220.311 7.99753 220.652 7.28732 221.267 6.89994C221.757 6.5952 222.067 6.58745 222.992 6.56421C225.079 6.63136 226.543 7.38546 227.381 8.83169C227.771 9.50574 227.958 10.2805 227.984 11.0604C228.12 15.2829 225.646 17.2147 220.562 16.8531Z" fill="#FF6600"/>
<path d="M243.182 18.7074H230.658C230.202 18.7074 229.743 18.7539 229.302 18.883C227.384 19.4486 226.115 21.1092 225.497 23.8596H220.311V18.9992C226.289 19.4641 229.532 17.4084 230.038 12.8269C230.248 10.9262 229.894 8.97894 228.861 7.37259C227.282 4.92433 224.741 4.00495 221.236 4.61443C220.208 4.79262 219.239 5.28589 218.575 6.09681C218.567 6.10456 218.56 6.11231 218.555 6.12264C218.101 6.68047 217.878 7.39584 217.878 8.11637V16.4089C216.963 16.0861 216.193 15.5929 215.578 14.9214C215.324 14.6476 215.194 14.2809 215.194 13.9064V0.311896C215.235 0.304148 215.273 0.296401 215.314 0.291236C222.88 -0.87866 230.878 1.47663 236.706 7.34677C239.941 10.6085 242.105 14.5469 243.182 18.7074Z" fill="#FF6600"/>
<path d="M227.269 26.5635C227.269 26.4783 227.274 26.3956 227.276 26.3104H235.332C236.057 26.3104 236.765 26.6539 237.147 27.2737C237.452 27.767 237.459 28.0795 237.48 29.0118C237.416 31.114 236.665 32.5886 235.232 33.4331C234.562 33.8257 233.793 34.0142 233.019 34.04C228.827 34.1769 226.91 31.6847 227.269 26.5635Z" fill="#FF6600"/>
<path d="M236.706 42.8234C233.468 46.0826 229.558 48.2622 225.428 49.3469V36.7337C225.428 36.274 225.382 35.8117 225.254 35.3675C224.69 33.4358 223.044 32.1574 220.311 31.535V26.3105H225.138C224.674 32.333 226.717 35.6 231.263 36.1087C233.152 36.3205 235.085 35.9667 236.678 34.9233C239.11 33.3325 240.023 30.7732 239.418 27.2428C239.239 26.2072 238.752 25.231 237.947 24.5621C237.939 24.5544 237.929 24.5467 237.921 24.5415C237.365 24.0844 236.657 23.8597 235.942 23.8597H227.71C228.028 22.9377 228.52 22.163 229.184 21.5431C229.456 21.2875 229.822 21.1558 230.191 21.1558H243.689C243.697 21.1971 243.705 21.2358 243.71 21.2771C244.869 28.8983 242.533 36.9532 236.706 42.8234Z" fill="#FF6600"/>
<path d="M2.40219 14.7819C2.68164 14.7819 2.91237 14.6915 3.09696 14.5133C3.27899 14.3325 3.37128 14.1026 3.37128 13.8211C3.37128 13.5397 3.27899 13.2943 3.09696 13.1084C2.91494 12.925 2.6842 12.832 2.40219 12.832C2.12018 12.832 1.87919 12.925 1.69461 13.1084C1.51258 13.2917 1.42029 13.5293 1.42029 13.8211C1.42029 14.113 1.51002 14.3351 1.69461 14.5133C1.87663 14.6915 2.11249 14.7819 2.40219 14.7819Z" fill="#898989"/>
<path d="M4.61725 14.7819C4.8967 14.7819 5.12743 14.6915 5.30433 14.5133C5.48122 14.3325 5.57095 14.1026 5.57095 13.8211C5.57095 13.5397 5.48122 13.2943 5.30433 13.1084C5.12487 12.925 4.8967 12.832 4.61725 12.832C4.33781 12.832 4.09425 12.925 3.90966 13.1084C3.72764 13.2917 3.63535 13.5293 3.63535 13.8211C3.63535 14.113 3.72508 14.3351 3.90966 14.5133C4.09169 14.6915 4.32755 14.7819 4.61725 14.7819Z" fill="#898989"/>
<path d="M1.11778 22.3333C1.46645 22.5993 1.86382 22.7956 2.31504 22.9221C2.76369 23.0512 3.23541 23.1132 3.72765 23.1132C4.1763 23.1132 4.62751 23.059 5.07617 22.9531C5.37099 22.8834 5.65557 22.7878 5.92732 22.6716C6.13242 22.9014 6.36828 23.0977 6.64004 23.2552C7.15022 23.5471 7.76038 23.6917 8.4731 23.6917H9.64472C10.3574 23.6839 10.965 23.5342 11.4701 23.2423C11.6393 23.1442 11.7931 23.0254 11.9367 22.8989C12.0854 23.0306 12.2418 23.1545 12.4187 23.2552C12.9288 23.5471 13.539 23.6917 14.2517 23.6917H18.8715V16.9616H16.6565V21.104H14.2517C13.9287 21.104 13.68 21.073 13.5082 21.0084C13.3339 20.9439 13.216 20.8354 13.1519 20.6804C13.0878 20.5255 13.057 20.3086 13.057 20.0271V16.9616H10.842V20.0271C10.842 20.3086 10.8086 20.5281 10.7394 20.6804C10.6702 20.8354 10.5523 20.9439 10.3831 21.0084C10.2139 21.073 9.96775 21.104 9.64472 21.104H8.4731C8.15007 21.104 7.90139 21.073 7.72962 21.0084C7.55528 20.9439 7.43735 20.8354 7.37326 20.6804C7.30917 20.5255 7.2784 20.3086 7.2784 20.0271V15.8846H5.06335V16.303C4.39422 16.3288 3.76354 16.4141 3.17901 16.5639C2.54321 16.7266 1.98688 16.959 1.51259 17.2637C1.03831 17.5659 0.666567 17.9481 0.39994 18.4052C0.133313 18.8623 0 19.3866 0 19.9754C0 20.4971 0.0999851 20.9542 0.299955 21.3467C0.499925 21.7393 0.77168 22.0699 1.12035 22.3333H1.11778ZM2.41502 19.3763C2.5509 19.1929 2.75344 19.0354 3.02006 18.9011C3.28669 18.7694 3.60972 18.6661 3.98659 18.5937C4.30705 18.5318 4.66597 18.4956 5.06078 18.4801V20.0245C5.06078 20.2388 5.0736 20.4454 5.09668 20.6443C4.91978 20.7192 4.73776 20.7837 4.55317 20.8328C4.2891 20.9025 4.00709 20.9361 3.69945 20.9361C3.37642 20.9361 3.1021 20.9 2.87906 20.8276C2.65345 20.7553 2.48681 20.6469 2.37657 20.4997C2.26633 20.355 2.20993 20.1846 2.20993 19.9857C2.20993 19.7636 2.27658 19.5596 2.41246 19.3763H2.41502Z" fill="#898989"/>
<path d="M10.6881 24.8333C10.4087 24.8333 10.178 24.9236 9.99337 25.1096C9.81135 25.2929 9.71906 25.5254 9.71906 25.8095C9.71906 26.0935 9.80879 26.3234 9.99337 26.5093C10.1754 26.6927 10.4061 26.7857 10.6881 26.7857C10.9702 26.7857 11.2009 26.6927 11.388 26.5093C11.5752 26.326 11.6675 26.0935 11.6675 25.8095C11.6675 25.5254 11.5752 25.2955 11.388 25.1096C11.2009 24.9262 10.9676 24.8333 10.6881 24.8333Z" fill="#898989"/>
<path d="M12.2085 25.1069C12.0264 25.2903 11.9341 25.5227 11.9341 25.8068C11.9341 26.0909 12.0264 26.3207 12.2085 26.5066C12.3905 26.6926 12.6212 26.783 12.9032 26.783C13.1852 26.783 13.4134 26.69 13.598 26.5066C13.78 26.3233 13.8723 26.0909 13.8723 25.8068C13.8723 25.5227 13.78 25.2928 13.598 25.1069C13.416 24.921 13.1852 24.8306 12.9032 24.8306C12.6212 24.8306 12.393 24.921 12.2085 25.1069Z" fill="#898989"/>
<path d="M17.764 15.549C18.1281 15.549 18.4229 15.4327 18.6485 15.2029C18.8741 14.9731 18.9869 14.6761 18.9869 14.3171C18.9869 13.9581 18.8741 13.6637 18.6485 13.4313C18.4229 13.2014 18.1281 13.0852 17.764 13.0852C17.4 13.0852 17.1154 13.2014 16.8846 13.4313C16.6565 13.6611 16.5411 13.9581 16.5411 14.3171C16.5411 14.6761 16.6565 14.9705 16.8846 15.2029C17.1128 15.4327 17.4076 15.549 17.764 15.549Z" fill="#898989"/>
<path d="M35.3281 23.351C35.4947 23.2606 35.6485 23.147 35.7921 23.0178C35.9023 23.1031 36.0177 23.1831 36.1433 23.2529C36.6535 23.5447 37.2637 23.6893 37.9764 23.6893H42.609V16.9592H40.394V21.1016H37.9764C37.6534 21.1016 37.4072 21.0706 37.238 21.006C37.0688 20.9415 36.9483 20.833 36.8817 20.6781C36.8125 20.5231 36.7791 20.3062 36.7791 20.0247V16.9592H34.5641V20.0247C34.5641 20.4172 34.4564 20.7116 34.2385 20.9027C34.0231 21.0938 33.777 21.192 33.5078 21.192C33.254 21.192 33.0156 21.1016 32.7951 20.9157C32.6874 20.8253 32.6054 20.7168 32.549 20.5851C32.549 20.5515 32.5541 20.5205 32.5541 20.4844V17.5867H30.3391V20.0221C30.3391 20.4146 30.2314 20.709 30.0135 20.9002C29.7981 21.0913 29.552 21.1894 29.2828 21.1894C29.029 21.1894 28.7906 21.099 28.5701 20.9131C28.424 20.7917 28.3265 20.6316 28.2701 20.4379C28.2804 20.301 28.2881 20.1667 28.2881 20.0221V18.2143H26.0859V20.0221C26.0859 20.3036 26.0525 20.5231 25.9833 20.6755C25.9141 20.8304 25.7962 20.9389 25.6269 21.0035C25.4577 21.068 25.2065 21.099 24.8758 21.099H22.7889V12.3545H20.5739V23.6893H24.8758C25.5962 23.6893 26.2089 23.5447 26.714 23.2529C27.0344 23.0695 27.3011 22.8267 27.5267 22.5375C27.7856 22.9068 28.0932 23.1909 28.4573 23.3742C28.8675 23.5834 29.2982 23.6893 29.7494 23.6893C30.2237 23.6893 30.6749 23.5757 31.0979 23.3484C31.3928 23.1909 31.6466 22.9714 31.867 22.695C32.0978 22.9894 32.3695 23.2167 32.6823 23.3742C33.0925 23.5834 33.5232 23.6893 33.9744 23.6893C34.4487 23.6893 34.8999 23.5757 35.3229 23.3484L35.3281 23.351Z" fill="#898989"/>
<path d="M41.5015 15.549C41.8656 15.549 42.1604 15.4327 42.386 15.2029C42.6116 14.9731 42.7244 14.6761 42.7244 14.3171C42.7244 13.9581 42.6116 13.6637 42.386 13.4313C42.1604 13.2014 41.8656 13.0852 41.5015 13.0852C41.1375 13.0852 40.8529 13.2014 40.6222 13.4313C40.394 13.6611 40.2786 13.9581 40.2786 14.3171C40.2786 14.6761 40.394 14.9705 40.6222 15.2029C40.8503 15.4327 41.1452 15.549 41.5015 15.549Z" fill="#898989"/>
<path d="M48.3364 23.6918H50.7155H52.9306V21.1015V12.3569H50.7155V21.1015H48.3364V15.7814H46.1213V21.1015H44.3139V23.6918H46.1213H48.3364Z" fill="#898989"/>
<path d="M47.0314 26.8011C46.8392 26.703 46.7443 26.5971 46.7443 26.4861C46.7443 26.3673 46.8392 26.2562 47.0314 26.1581C47.2212 26.06 47.4775 26.0109 47.8006 26.0109C47.9031 26.0109 48.0133 26.0186 48.1313 26.0367C48.2492 26.0548 48.3594 26.0703 48.462 26.0884L48.9337 25.0631C48.7466 24.9598 48.5492 24.8849 48.3415 24.8384C48.1338 24.7919 47.9185 24.7687 47.698 24.7687C47.3417 24.7687 47.0084 24.8358 46.6982 24.9675C46.3879 25.0992 46.1393 25.2878 45.947 25.5305C45.7547 25.7733 45.6599 26.0625 45.6599 26.3957C45.6599 26.6023 45.706 26.7831 45.7829 26.9458H45.3419V28.2009H49.1209V26.9458H47.8108C47.4801 26.9458 47.2186 26.8967 47.0289 26.7986L47.0314 26.8011Z" fill="#898989"/>
<path d="M56.9787 12.3569H54.7636V23.6918H56.9787V12.3569Z" fill="#898989"/>
<path d="M86.8871 23.6917H92.5375V16.9616H90.3224V21.104H86.8871V20.3731C86.8871 19.7843 86.7999 19.2239 86.6256 18.6945C86.4512 18.1651 86.1897 17.6924 85.8436 17.2767C85.495 16.8609 85.0566 16.5355 84.5259 16.2953C83.9952 16.0551 83.3645 15.9363 82.6364 15.9363C81.9083 15.9363 81.3187 16.0448 80.7726 16.2643C80.2265 16.4812 79.7497 16.7756 79.3472 17.1424C78.9447 17.5091 78.6062 17.9249 78.3345 18.3872C78.0627 18.8494 77.8397 19.3298 77.6654 19.8308C77.5397 20.1924 77.45 20.541 77.3782 20.8871C77.3141 20.8302 77.2654 20.7631 77.2321 20.683C77.168 20.5281 77.1372 20.3112 77.1372 20.0297V17.5943H74.9222V20.0297C74.9222 20.3112 74.8888 20.5307 74.8196 20.683C74.7504 20.838 74.6325 20.9465 74.4633 21.011C74.2941 21.0756 74.0479 21.1066 73.7249 21.1066H72.5789C72.2482 21.1066 71.997 21.0756 71.8278 21.011C71.6586 20.9465 71.5381 20.838 71.4714 20.683C71.4022 20.5281 71.3689 20.3112 71.3689 20.0297V12.3621H69.1666V20.7089C69.1666 21.3829 69.0589 21.9511 68.841 22.4082C68.6257 22.8653 68.318 23.2062 67.9181 23.4335C67.5181 23.6607 67.0439 23.7718 66.4927 23.7718C65.9415 23.7718 65.4928 23.6556 65.1236 23.4257C64.7545 23.1959 64.4827 22.8524 64.3084 22.4004C64.134 21.9485 64.0469 21.3881 64.0469 20.7218C64.0469 20.4997 64.0546 20.2698 64.0725 20.0297C64.0905 19.7895 64.1238 19.5519 64.1751 19.3117L62.0369 18.9011C61.9677 19.2084 61.919 19.5157 61.8831 19.8231C61.8498 20.1304 61.8318 20.4506 61.8318 20.7838C61.8318 21.6902 61.96 22.4908 62.2189 23.1881C62.4779 23.8854 62.8291 24.4716 63.2701 24.952C63.711 25.4298 64.2186 25.7913 64.7903 26.0341C65.3621 26.2768 65.9594 26.4008 66.5798 26.4008C67.2002 26.4008 67.8079 26.2769 68.3796 26.0289C68.9513 25.781 69.464 25.4143 69.9127 24.9339C70.3203 24.4949 70.6459 23.9603 70.8971 23.3379C71.3689 23.5729 71.9252 23.6969 72.5712 23.6969H73.7172C74.4299 23.6969 75.0375 23.5523 75.5426 23.2604C75.8169 23.1029 76.0553 22.904 76.2604 22.669C76.4245 22.904 76.6168 23.1029 76.8398 23.2604C77.25 23.5523 77.7448 23.6969 78.3217 23.6969H86.8742L86.8871 23.6917ZM79.2882 21.1014C79.4343 20.7063 79.624 20.3447 79.8625 20.0245C80.1163 19.6836 80.406 19.3969 80.729 19.1645C81.052 18.9347 81.3904 18.7539 81.7468 18.6247C82.1032 18.4956 82.4518 18.4336 82.7902 18.4336C83.1543 18.4336 83.4799 18.5034 83.7644 18.6454C84.049 18.7874 84.2721 18.9992 84.4336 19.2859C84.5951 19.5725 84.6746 19.9341 84.6746 20.3706V21.1014H79.2882Z" fill="#898989"/>
<path d="M92.5657 15.8071C92.8452 15.8071 93.0759 15.7167 93.2528 15.5385C93.4322 15.3578 93.5194 15.1279 93.5194 14.8464C93.5194 14.5649 93.4297 14.3196 93.2528 14.1336C93.0759 13.9503 92.8452 13.8573 92.5657 13.8573C92.2863 13.8573 92.0427 13.9503 91.8581 14.1336C91.6735 14.317 91.5838 14.5546 91.5838 14.8464C91.5838 15.1382 91.6761 15.3603 91.8581 15.5385C92.0401 15.7193 92.276 15.8071 92.5657 15.8071Z" fill="#898989"/>
<path d="M90.3506 15.8071C90.6301 15.8071 90.8608 15.7167 91.0454 15.5385C91.2274 15.3578 91.3197 15.1279 91.3197 14.8464C91.3197 14.5649 91.2274 14.3196 91.0454 14.1336C90.8634 13.9503 90.6326 13.8573 90.3506 13.8573C90.0686 13.8573 89.8276 13.9503 89.643 14.1336C89.461 14.317 89.3687 14.5546 89.3687 14.8464C89.3687 15.1382 89.4584 15.3603 89.643 15.5385C89.8251 15.7193 90.0609 15.8071 90.3506 15.8071Z" fill="#898989"/>
<path d="M98.7109 24.9469C99.1519 25.4246 99.6595 25.7862 100.231 26.0289C100.803 26.2717 101.4 26.3957 102.021 26.3957C102.641 26.3957 103.249 26.2717 103.82 26.0238C104.392 25.7759 104.905 25.4091 105.353 24.9288C105.761 24.4897 106.087 23.9552 106.338 23.3328C106.81 23.5678 107.366 23.6917 108.012 23.6917H109.158C109.871 23.6917 110.478 23.5471 110.983 23.2553C111.258 23.0977 111.496 22.8989 111.701 22.6639C111.865 22.8989 112.058 23.0977 112.281 23.2553C112.691 23.5471 113.186 23.6917 113.762 23.6917H122.315V20.3706C122.315 19.7818 122.228 19.2213 122.054 18.6919C121.879 18.1625 121.618 17.6899 121.272 17.2741C120.923 16.8583 120.485 16.5329 119.954 16.2927C119.423 16.0525 118.793 15.9337 118.064 15.9337C117.336 15.9337 116.747 16.0422 116.201 16.2617C115.655 16.4813 115.178 16.7731 114.775 17.1398C114.373 17.5065 114.034 17.9223 113.762 18.3846C113.491 18.8469 113.268 19.3272 113.093 19.8282C112.968 20.1898 112.878 20.5384 112.806 20.8845C112.742 20.8277 112.693 20.7605 112.66 20.6805C112.596 20.5255 112.565 20.3086 112.565 20.0271V17.5917H110.35V20.0271C110.35 20.3086 110.317 20.5281 110.248 20.6805C110.178 20.8354 110.06 20.9439 109.891 21.0085C109.722 21.073 109.476 21.104 109.153 21.104H108.007C107.676 21.104 107.425 21.073 107.256 21.0085C107.087 20.9439 106.966 20.8354 106.899 20.6805C106.83 20.5255 106.797 20.3086 106.797 20.0271V12.3595H104.595V20.7063C104.595 21.3804 104.487 21.9485 104.269 22.4056C104.054 22.8627 103.746 23.2036 103.346 23.4309C102.946 23.6582 102.472 23.7692 101.921 23.7692C101.369 23.7692 100.921 23.653 100.552 23.4231C100.182 23.1933 99.9107 22.8498 99.7364 22.3979C99.562 21.9459 99.4749 21.3855 99.4749 20.7192C99.4749 20.4971 99.4826 20.2673 99.5005 20.0271C99.5185 19.7869 99.5518 19.5493 99.6031 19.3091L97.4649 18.8985C97.3957 19.2058 97.347 19.5132 97.3111 19.8205C97.2778 20.1278 97.2598 20.4481 97.2598 20.7812C97.2598 21.6877 97.388 22.4883 97.647 23.1856C97.9059 23.8828 98.2571 24.4691 98.6981 24.9494L98.7109 24.9469ZM115.296 20.0245C115.549 19.6836 115.839 19.397 116.162 19.1645C116.485 18.9347 116.824 18.7539 117.18 18.6248C117.536 18.4956 117.885 18.4337 118.223 18.4337C118.587 18.4337 118.913 18.5034 119.198 18.6454C119.482 18.7875 119.705 18.9992 119.867 19.2859C120.028 19.5726 120.108 19.9341 120.108 20.3706V21.1014H114.721C114.867 20.7063 115.057 20.3447 115.296 20.0245Z" fill="#898989"/>
<path d="M127.26 16.6647C126.735 16.6647 126.245 16.7551 125.791 16.9333C125.338 17.114 124.938 17.362 124.594 17.6822C124.251 18.0024 123.981 18.3769 123.787 18.803C123.592 19.2317 123.494 19.6992 123.494 20.2131C123.494 20.8458 123.648 21.4243 123.958 21.9512C124.269 22.478 124.702 22.899 125.263 23.214C125.822 23.5317 126.486 23.6892 127.248 23.6892H127.832V23.8313C127.832 24.1463 127.719 24.3943 127.494 24.5699C127.268 24.7455 126.85 24.8333 126.24 24.8333H124.064V27.4236H126.24C127.012 27.4236 127.684 27.279 128.25 26.9871C128.819 26.6953 129.258 26.2821 129.568 25.7423C129.878 25.2052 130.032 24.5673 130.032 23.8313V17.3697C129.658 17.1993 129.229 17.0391 128.747 16.8894C128.263 16.7396 127.768 16.6647 127.258 16.6647H127.26ZM127.248 21.3313C126.909 21.3313 126.625 21.2771 126.394 21.1712C126.166 21.0653 125.994 20.9259 125.879 20.7554C125.763 20.585 125.707 20.4094 125.707 20.2286C125.707 20.0323 125.771 19.8412 125.897 19.6579C126.025 19.4745 126.202 19.3221 126.432 19.2033C126.661 19.0845 126.937 19.0225 127.26 19.0225C127.443 19.0225 127.632 19.0484 127.832 19.0974V21.3313H127.248Z" fill="#898989"/>
<path d="M139.274 14.7819C139.554 14.7819 139.784 14.6915 139.961 14.5133C140.138 14.3325 140.228 14.1026 140.228 13.8211C140.228 13.5397 140.138 13.2943 139.961 13.1084C139.784 12.925 139.554 12.832 139.274 12.832C138.995 12.832 138.751 12.925 138.566 13.1084C138.382 13.2917 138.292 13.5293 138.292 13.8211C138.292 14.113 138.384 14.3351 138.566 14.5133C138.749 14.6915 138.984 14.7819 139.274 14.7819Z" fill="#898989"/>
<path d="M137.059 14.7819C137.339 14.7819 137.569 14.6915 137.754 14.5133C137.936 14.3325 138.028 14.1026 138.028 13.8211C138.028 13.5397 137.936 13.2943 137.754 13.1084C137.572 12.925 137.341 12.832 137.059 12.832C136.777 12.832 136.536 12.925 136.351 13.1084C136.169 13.2917 136.077 13.5293 136.077 13.8211C136.077 14.113 136.167 14.3351 136.351 14.5133C136.533 14.6915 136.769 14.7819 137.059 14.7819Z" fill="#898989"/>
<path d="M170.036 22.2997C170.308 21.8246 170.444 21.2202 170.444 20.4868V16.9616H168.229V20.0271C168.229 20.4196 168.121 20.7141 167.903 20.9052C167.688 21.0963 167.442 21.1944 167.173 21.1944C166.919 21.1944 166.68 21.104 166.46 20.9181C166.352 20.8277 166.27 20.7192 166.214 20.5875C166.214 20.5539 166.219 20.5229 166.219 20.4868V17.5892H164.004V20.0245C164.004 20.4171 163.896 20.7115 163.678 20.9026C163.463 21.0937 163.217 21.1918 162.948 21.1918C162.694 21.1918 162.455 21.1014 162.235 20.9155C162.089 20.7941 161.994 20.634 161.935 20.4403C161.945 20.3034 161.953 20.1691 161.953 20.0245V18.2167H159.751V20.0245C159.751 20.306 159.717 20.5255 159.648 20.6779C159.579 20.8329 159.461 20.9413 159.292 21.0059C159.122 21.0704 158.871 21.1014 158.54 21.1014H157.382C157.059 21.1014 156.813 21.0704 156.643 21.0059C156.474 20.9413 156.354 20.8329 156.287 20.6779C156.218 20.5229 156.184 20.306 156.184 20.0245V16.959H153.969V20.0245C153.969 20.4171 153.862 20.7115 153.644 20.9026C153.428 21.0937 153.182 21.1918 152.911 21.1918C152.657 21.1918 152.418 21.1014 152.198 20.9155C152.09 20.8251 152.008 20.7166 151.952 20.5849C151.952 20.5514 151.957 20.5204 151.957 20.4842V17.5866H149.742V20.0219C149.742 20.4145 149.634 20.7089 149.416 20.9C149.201 21.0911 148.955 21.1892 148.686 21.1892C148.432 21.1892 148.193 21.0989 147.973 20.9129C147.827 20.7915 147.729 20.6314 147.673 20.4377C147.683 20.3008 147.691 20.1666 147.691 20.0219V18.2141H145.489V20.0219C145.489 20.3034 145.455 20.5229 145.386 20.6753C145.317 20.8277 145.199 20.9387 145.03 21.0033C144.86 21.0679 144.609 21.0989 144.279 21.0989H143.12C142.797 21.0989 142.548 21.0679 142.376 21.0033C142.204 20.9387 142.084 20.8303 142.02 20.6753C141.956 20.5204 141.925 20.3034 141.925 20.0219V15.8795H139.71V16.2979C139.041 16.3237 138.41 16.4089 137.826 16.5587C137.19 16.7214 136.633 16.9539 136.159 17.2586C135.685 17.5608 135.313 17.943 135.047 18.4001C134.78 18.8572 134.647 19.3815 134.647 19.9703C134.647 20.492 134.747 20.9491 134.947 21.3416C135.147 21.7342 135.418 22.0647 135.767 22.3281C136.116 22.5942 136.513 22.7904 136.964 22.917C137.413 23.0461 137.885 23.1081 138.377 23.1081C138.825 23.1081 139.277 23.0538 139.725 22.948C140.02 22.8782 140.305 22.7827 140.576 22.6665C140.782 22.8963 141.017 23.0926 141.289 23.2501C141.799 23.5419 142.41 23.6866 143.122 23.6866H144.281C145.001 23.6866 145.614 23.5419 146.119 23.2501C146.44 23.0668 146.706 22.824 146.932 22.5348C147.191 22.9041 147.499 23.1881 147.863 23.3715C148.273 23.5807 148.703 23.6866 149.155 23.6866C149.629 23.6866 150.08 23.5729 150.503 23.3457C150.798 23.1881 151.052 22.9686 151.272 22.6923C151.503 22.9867 151.775 23.214 152.088 23.3715C152.498 23.5807 152.928 23.6866 153.38 23.6866C153.854 23.6866 154.305 23.5729 154.728 23.3457C154.895 23.2553 155.049 23.1417 155.192 23.0125C155.302 23.0977 155.418 23.1778 155.543 23.2475C156.054 23.5394 156.664 23.684 157.377 23.684H158.535C159.256 23.684 159.868 23.5394 160.374 23.2475C160.694 23.0642 160.961 22.8214 161.186 22.5322C161.445 22.9015 161.753 23.1856 162.117 23.3689C162.527 23.5781 162.958 23.684 163.409 23.684C163.883 23.684 164.334 23.5704 164.757 23.3431C165.052 23.1856 165.306 22.966 165.527 22.6897C165.757 22.9841 166.029 23.2114 166.342 23.3689C166.755 23.5781 167.183 23.684 167.634 23.684C168.108 23.684 168.559 23.5704 168.983 23.3431C169.406 23.1158 169.754 22.7672 170.026 22.292L170.036 22.2997ZM139.21 20.8328C138.946 20.9026 138.664 20.9362 138.356 20.9362C138.033 20.9362 137.759 20.9 137.536 20.8277C137.31 20.7554 137.144 20.6469 137.033 20.4997C136.923 20.3551 136.867 20.1846 136.867 19.9858C136.867 19.7637 136.936 19.5597 137.069 19.3763C137.205 19.1929 137.408 19.0354 137.674 18.9011C137.941 18.7694 138.264 18.6661 138.641 18.5938C138.961 18.5318 139.32 18.4956 139.715 18.4801V20.0245C139.715 20.2389 139.728 20.4455 139.751 20.6443C139.574 20.7192 139.392 20.7838 139.207 20.8328H139.21Z" fill="#898989"/>
<path d="M176.845 13.922H175.535C175.205 13.922 174.943 13.8729 174.753 13.7748C174.564 13.6766 174.466 13.5708 174.466 13.4597C174.466 13.3409 174.561 13.2324 174.753 13.1317C174.943 13.0336 175.202 12.9845 175.523 12.9845C175.625 12.9845 175.735 12.9923 175.853 13.0103C175.971 13.0284 176.081 13.0439 176.184 13.062L176.656 12.0367C176.469 11.9334 176.271 11.8585 176.063 11.812C175.856 11.7656 175.64 11.7423 175.42 11.7423C175.064 11.7423 174.73 11.8095 174.42 11.9412C174.11 12.0729 173.861 12.2614 173.669 12.5042C173.477 12.7469 173.382 13.0362 173.382 13.3693C173.382 13.5759 173.428 13.7567 173.505 13.9194H173.064V15.1745H176.843V13.9194L176.845 13.922Z" fill="#898989"/>
<path d="M185.941 24.0817C186.582 24.1462 187.339 24.1514 188.213 24.0997C188.426 23.6375 188.59 23.1313 188.71 22.5812C188.828 22.0311 188.89 21.5069 188.89 21.011C188.89 20.4222 188.821 19.8773 188.68 19.3814C188.539 18.8856 188.336 18.4569 188.069 18.0927C187.803 17.7286 187.477 17.4445 187.095 17.2405C186.713 17.0365 186.28 16.9332 185.798 16.9332C185.316 16.9332 184.867 17.0158 184.48 17.1759C184.093 17.3386 183.744 17.553 183.429 17.8241C183.116 18.0927 182.832 18.3871 182.575 18.7022C182.319 19.0173 182.083 19.3298 181.863 19.6371C181.624 19.9883 181.401 20.2724 181.188 20.4893C180.976 20.7063 180.75 20.8638 180.506 20.9568C180.265 21.0497 179.973 21.0988 179.635 21.0988H178.158V17.367C177.784 17.1966 177.356 17.0365 176.874 16.8867C176.389 16.7369 175.894 16.662 175.384 16.662C174.874 16.662 174.369 16.7524 173.915 16.9306C173.461 17.1114 173.061 17.3593 172.718 17.6795C172.374 17.9997 172.105 18.3742 171.91 18.8003C171.715 19.229 171.618 19.6965 171.618 20.2104C171.618 20.8431 171.772 21.4216 172.082 21.9485C172.392 22.4753 172.825 22.8963 173.387 23.2113C173.946 23.529 174.61 23.6865 175.371 23.6865H175.956V23.8286C175.956 24.1436 175.843 24.3916 175.617 24.5672C175.392 24.7428 174.974 24.8306 174.364 24.8306H172.187V27.4209H174.364C175.135 27.4209 175.807 27.2763 176.374 26.9844C176.943 26.6926 177.381 26.2794 177.691 25.7397C178.002 25.2025 178.155 24.5646 178.155 23.8286V23.6865H179.632C180.217 23.6865 180.732 23.5987 181.178 23.4231C181.606 23.2552 182.011 22.9944 182.393 22.6483C182.583 22.8136 182.775 22.9686 182.98 23.108C183.355 23.3637 183.78 23.5729 184.26 23.7356C184.739 23.8983 185.298 24.0119 185.939 24.0765L185.941 24.0817ZM175.371 21.3312C175.033 21.3312 174.748 21.277 174.518 21.1711C174.289 21.0652 174.118 20.9258 174.002 20.7553C173.887 20.5849 173.83 20.4093 173.83 20.2285C173.83 20.0322 173.895 19.8411 174.023 19.6577C174.151 19.4744 174.328 19.322 174.559 19.2032C174.787 19.0844 175.064 19.0224 175.387 19.0224C175.569 19.0224 175.758 19.0483 175.958 19.0973V21.3312H175.374H175.371ZM185.126 19.6707C185.352 19.5467 185.562 19.4847 185.757 19.4847C186.044 19.4847 186.27 19.6061 186.431 19.8514C186.593 20.0942 186.672 20.4816 186.672 21.011C186.672 21.1918 186.659 21.3751 186.636 21.5559C186.4 21.5559 186.17 21.5559 185.959 21.5508C185.357 21.5327 184.847 21.4604 184.426 21.3261C184.183 21.2486 183.962 21.1427 183.767 21.011C183.993 20.7037 184.214 20.4403 184.421 20.2311C184.667 19.9831 184.903 19.7972 185.129 19.6732L185.126 19.6707Z" fill="#898989"/>
<path d="M9.07814 30.582L7.89626 35.2487L6.69644 30.582H4.7634L3.57127 35.2513L2.37401 30.582H0.258942L2.49707 37.307H4.52497L5.68377 32.9993L6.81181 37.307H8.84997L11.1086 30.582H9.07814Z" fill="#898989"/>
<path d="M13.4801 32.0101C13.2134 32.0101 12.9417 32.0282 12.6648 32.0669C12.3879 32.1057 12.111 32.1651 11.8316 32.2503C11.5521 32.333 11.2701 32.4337 10.983 32.5473L11.4599 33.8334C11.7444 33.712 12.0239 33.6191 12.2982 33.5545C12.5699 33.4899 12.8135 33.4589 13.0212 33.4589C13.3134 33.4589 13.5365 33.5209 13.6877 33.6423C13.839 33.7637 13.9159 33.9341 13.9159 34.1511V34.1691H12.6494C12.0008 34.1769 11.506 34.3138 11.1625 34.5875C10.8189 34.8587 10.6472 35.2487 10.6472 35.7523C10.6472 36.0777 10.7164 36.3643 10.8574 36.6122C10.9958 36.8576 11.1958 37.0513 11.4573 37.1881C11.7188 37.325 12.0316 37.3948 12.4007 37.3948C12.8443 37.3948 13.216 37.2966 13.516 37.1029C13.6749 36.9996 13.8057 36.8731 13.9159 36.7259V37.3095H15.8028V33.9212C15.8028 33.3143 15.5977 32.8443 15.1875 32.5111C14.7773 32.178 14.2082 32.0127 13.4775 32.0127L13.4801 32.0101ZM13.7185 35.8736C13.6288 35.9537 13.5288 36.0157 13.4134 36.0622C13.298 36.1086 13.175 36.1293 13.0417 36.1293C12.8571 36.1293 12.7135 36.0828 12.6135 35.9898C12.511 35.8969 12.4623 35.7703 12.4623 35.6102C12.4623 35.4501 12.511 35.321 12.611 35.2409C12.7084 35.1608 12.8545 35.1221 13.0442 35.1221H13.921V35.5921C13.8774 35.7006 13.8108 35.7962 13.7211 35.8762L13.7185 35.8736Z" fill="#898989"/>
<path d="M18.4947 33.3685C18.5665 33.3272 18.6613 33.3065 18.7767 33.3065C18.9792 33.3065 19.2253 33.353 19.515 33.446C19.8047 33.5389 20.1226 33.6758 20.4713 33.854L21.1097 32.635C20.761 32.4233 20.3918 32.2657 20.0047 32.1599C19.6176 32.054 19.2279 32.0023 18.8331 32.0023C18.3947 32.0023 18.0101 32.072 17.6794 32.2141C17.3487 32.3561 17.0898 32.5524 16.9026 32.8081C16.7155 33.0637 16.6206 33.3762 16.6206 33.7481C16.6206 34.0425 16.6847 34.2853 16.8103 34.4764C16.9359 34.6675 17.1 34.8251 17.3 34.9464C17.5 35.0678 17.7153 35.1659 17.9435 35.2383C18.1716 35.3132 18.387 35.3751 18.587 35.4242C18.7869 35.4759 18.951 35.5327 19.0766 35.5972C19.2023 35.6618 19.2664 35.7419 19.2664 35.8374C19.2664 35.8891 19.2484 35.933 19.2151 35.9665C19.1818 36.0001 19.1305 36.0285 19.0664 36.0492C19.0023 36.0673 18.9254 36.0776 18.8382 36.0776C18.5511 36.0776 18.2486 36.0234 17.9281 35.9149C17.6076 35.8064 17.2846 35.6463 16.9616 35.4345L16.3719 36.6535C16.7078 36.8963 17.0846 37.0796 17.5 37.2062C17.9153 37.3301 18.3537 37.3921 18.81 37.3921C19.2664 37.3921 19.656 37.3224 19.997 37.1803C20.3354 37.0383 20.6046 36.842 20.7969 36.5863C20.9892 36.3307 21.0866 36.0234 21.0866 35.6644C21.0866 35.3648 21.0225 35.1169 20.8918 34.9258C20.761 34.7347 20.5944 34.5745 20.3867 34.4506C20.179 34.3266 19.9637 34.2285 19.7355 34.1588C19.5073 34.089 19.2894 34.0245 19.0843 33.9676C18.8767 33.9108 18.71 33.8514 18.5793 33.7894C18.4485 33.7275 18.3844 33.65 18.3844 33.5544C18.3844 33.4718 18.4203 33.4098 18.4947 33.3659V33.3685Z" fill="#898989"/>
<path d="M25.7859 32.4105C25.3731 32.1522 24.863 32.0231 24.2528 32.0231C23.7067 32.0231 23.2299 32.1341 22.8197 32.3588C22.4095 32.5835 22.0916 32.896 21.8634 33.2989C21.6352 33.7017 21.5199 34.1743 21.5199 34.7193C21.5199 35.2642 21.6327 35.7161 21.8583 36.1164C22.0839 36.5167 22.4044 36.8266 22.8197 37.0461C23.235 37.2657 23.7324 37.3767 24.3092 37.3767C24.7989 37.3767 25.2373 37.2941 25.6295 37.1314C26.0192 36.9687 26.3474 36.7362 26.6165 36.4367L25.6167 35.4475C25.2732 35.7807 24.8937 35.946 24.4733 35.946C24.2579 35.946 24.0682 35.8943 23.9067 35.7884C23.7452 35.6825 23.617 35.5302 23.5247 35.3339C23.5016 35.2848 23.4914 35.2254 23.4734 35.1712H26.9498C26.9883 34.5307 26.9062 33.9755 26.7063 33.5055C26.5063 33.0354 26.1987 32.6713 25.7859 32.4105ZM23.4247 34.2182C23.4427 34.1279 23.4606 34.04 23.4914 33.96C23.5606 33.7689 23.6606 33.6165 23.7913 33.5055C23.9221 33.3944 24.081 33.3376 24.2733 33.3376C24.4323 33.3376 24.5707 33.3737 24.6912 33.4486C24.8117 33.5235 24.904 33.6243 24.9681 33.756C25.0322 33.8877 25.0604 34.0426 25.0527 34.2208H23.4247V34.2182Z" fill="#898989"/>
<path d="M29.693 30.1895H27.7676V37.3095H29.693V30.1895Z" fill="#898989"/>
<path d="M38.8275 30.582H32.9592V32.1755H34.8922V37.307H36.8842V32.1755H38.8275V30.582Z" fill="#898989"/>
<path d="M41.4553 32.0101C41.1887 32.0101 40.917 32.0282 40.6401 32.0669C40.3632 32.1057 40.0863 32.1651 39.8069 32.2503C39.5274 32.333 39.2454 32.4337 38.9583 32.5473L39.4351 33.8334C39.7197 33.712 39.9992 33.6191 40.2735 33.5545C40.5452 33.4899 40.7888 33.4589 40.9964 33.4589C41.2887 33.4589 41.5117 33.5209 41.663 33.6423C41.8143 33.7637 41.8912 33.9341 41.8912 34.1511V34.1691H40.6247C39.9761 34.1769 39.4813 34.3138 39.1377 34.5875C38.7942 34.8587 38.6224 35.2487 38.6224 35.7523C38.6224 36.0777 38.6917 36.3643 38.8327 36.6122C38.9711 36.8576 39.1711 37.0513 39.4326 37.1881C39.6941 37.325 40.0068 37.3948 40.376 37.3948C40.8195 37.3948 41.1913 37.2966 41.4912 37.1029C41.6502 36.9996 41.7809 36.8731 41.8912 36.7259V37.3095H43.7781V33.9212C43.7781 33.3143 43.573 32.8443 43.1628 32.5111C42.7526 32.178 42.1834 32.0127 41.4528 32.0127L41.4553 32.0101ZM41.6938 35.8736C41.604 35.9537 41.5041 36.0157 41.3887 36.0622C41.2733 36.1086 41.1503 36.1293 41.017 36.1293C40.8324 36.1293 40.6888 36.0828 40.5888 35.9898C40.4863 35.8969 40.4376 35.7703 40.4376 35.6102C40.4376 35.4501 40.4863 35.321 40.5862 35.2409C40.6837 35.1608 40.8298 35.1221 41.0195 35.1221H41.8963V35.5921C41.8527 35.7006 41.7861 35.7962 41.6963 35.8762L41.6938 35.8736Z" fill="#898989"/>
<path d="M46.47 33.3685C46.5418 33.3272 46.6366 33.3065 46.752 33.3065C46.9545 33.3065 47.2006 33.353 47.4903 33.446C47.78 33.5389 48.0979 33.6758 48.4466 33.854L49.085 32.635C48.7363 32.4233 48.3671 32.2657 47.98 32.1599C47.5929 32.054 47.2032 32.0023 46.8084 32.0023C46.37 32.0023 45.9854 32.072 45.6547 32.2141C45.324 32.3561 45.0651 32.5524 44.8779 32.8081C44.6908 33.0637 44.5959 33.3762 44.5959 33.7481C44.5959 34.0425 44.66 34.2853 44.7856 34.4764C44.9138 34.6675 45.0753 34.8251 45.2753 34.9464C45.4753 35.0678 45.6906 35.1659 45.9188 35.2383C46.147 35.3132 46.3623 35.3751 46.5623 35.4242C46.7623 35.4759 46.9263 35.5327 47.052 35.5972C47.1776 35.6618 47.2417 35.7419 47.2417 35.8374C47.2417 35.8891 47.2237 35.933 47.1904 35.9665C47.1545 36.0027 47.1058 36.0285 47.0417 36.0492C46.9776 36.0673 46.9007 36.0776 46.8135 36.0776C46.529 36.0776 46.2239 36.0234 45.9034 35.9149C45.5829 35.8064 45.2599 35.6463 44.9369 35.4345L44.3472 36.6535C44.6831 36.8963 45.0599 37.0796 45.4753 37.2062C45.8906 37.3301 46.329 37.3921 46.7853 37.3921C47.2417 37.3921 47.6314 37.3224 47.9723 37.1803C48.3133 37.0383 48.5799 36.842 48.7722 36.5863C48.9671 36.3307 49.0619 36.0234 49.0619 35.6644C49.0619 35.3648 48.9978 35.1169 48.8671 34.9258C48.7363 34.7347 48.5697 34.5745 48.362 34.4506C48.1544 34.3266 47.939 34.2285 47.7083 34.1588C47.4775 34.089 47.2622 34.0245 47.0571 33.9676C46.8494 33.9108 46.6828 33.8514 46.552 33.7894C46.4213 33.7275 46.3572 33.65 46.3572 33.5544C46.3572 33.4718 46.3931 33.4098 46.4674 33.3659L46.47 33.3685Z" fill="#898989"/>
<path d="M53.7612 32.4105C53.3485 32.1522 52.8383 32.0231 52.2281 32.0231C51.682 32.0231 51.2052 32.1341 50.795 32.3588C50.3848 32.5835 50.0669 32.896 49.8387 33.2989C49.6105 33.7017 49.4952 34.1743 49.4952 34.7193C49.4952 35.2642 49.608 35.7161 49.8336 36.1164C50.0592 36.5167 50.3797 36.8266 50.795 37.0461C51.2103 37.2657 51.7077 37.3767 52.2845 37.3767C52.7742 37.3767 53.2126 37.2941 53.6048 37.1314C53.9945 36.9687 54.3227 36.7362 54.5919 36.4367L53.592 35.4475C53.2485 35.7807 52.869 35.946 52.4486 35.946C52.2332 35.946 52.0435 35.8943 51.882 35.7884C51.7205 35.6825 51.5923 35.5302 51.5 35.3339C51.4769 35.2848 51.4667 35.2254 51.4487 35.1712H54.9251C54.9636 34.5307 54.8816 33.9755 54.6816 33.5055C54.4816 33.0354 54.174 32.6713 53.7612 32.4105ZM51.4 34.2182C51.418 34.1279 51.4359 34.04 51.4667 33.96C51.5359 33.7689 51.6359 33.6165 51.7666 33.5055C51.8974 33.3944 52.0563 33.3376 52.2486 33.3376C52.4076 33.3376 52.546 33.3737 52.6691 33.4486C52.7896 33.5235 52.8819 33.6243 52.9459 33.756C53.01 33.8877 53.0382 34.0426 53.0305 34.2208H51.4026L51.4 34.2182Z" fill="#898989"/>
<path d="M57.6683 30.1895H55.743V37.3095H57.6683V30.1895Z" fill="#898989"/>
<path d="M65.7928 33.2679H63.4213V30.582H61.4396V37.307H63.4213V34.8045H65.7928V37.307H67.7745V30.582H65.7928V33.2679Z" fill="#898989"/>
<path d="M72.1944 34.6702C72.1944 34.9698 72.1226 35.2151 71.979 35.3985C71.8354 35.5844 71.6406 35.68 71.3919 35.6851C71.1817 35.6851 71.015 35.6102 70.8869 35.4605C70.7587 35.3107 70.6971 35.1066 70.6971 34.851V32.0876H68.7718V35.3985C68.7718 35.8014 68.8487 36.1526 69 36.4496C69.1512 36.7466 69.3666 36.979 69.6435 37.1443C69.9203 37.3096 70.2382 37.3948 70.5997 37.3948C71.0176 37.3948 71.3791 37.2863 71.6816 37.0694C71.8816 36.9248 72.0508 36.7337 72.1918 36.5064V37.3096H74.1171V32.0902H72.1918V34.6702H72.1944Z" fill="#898989"/>
<path d="M83.2389 32.2503C82.962 32.0902 82.6415 32.0101 82.2723 32.0101C81.8468 32.0101 81.4801 32.116 81.1725 32.3278C80.8956 32.5189 80.6777 32.7926 80.5162 33.1439C80.4906 33.0741 80.4623 33.007 80.429 32.9424C80.2726 32.6429 80.0573 32.4104 79.7804 32.2503C79.5035 32.0902 79.1805 32.0101 78.8139 32.0101C78.3934 32.0101 78.0319 32.116 77.7243 32.3278C77.5192 32.4698 77.3474 32.6584 77.2064 32.8882V32.0876H75.2811V37.3069H77.2064V34.727C77.2064 34.4274 77.2808 34.1821 77.4295 33.9987C77.5782 33.8128 77.7781 33.7172 78.0243 33.712C78.2396 33.712 78.4139 33.7869 78.5421 33.9367C78.6729 34.0865 78.737 34.2931 78.737 34.5565V37.3095H80.6623V34.7296C80.6623 34.43 80.7341 34.1846 80.8802 34.0013C81.0264 33.8153 81.2238 33.7198 81.4699 33.7146C81.6852 33.7146 81.8596 33.7895 81.9878 33.9393C82.1185 34.0891 82.1826 34.2957 82.1826 34.5591V37.3121H84.108V34.0013C84.108 33.5984 84.031 33.2472 83.8798 32.945C83.7285 32.6454 83.5132 32.413 83.2363 32.2529L83.2389 32.2503Z" fill="#898989"/>
<path d="M87.569 32.0101C87.3024 32.0101 87.0306 32.0282 86.7537 32.0669C86.4768 32.1057 86.2 32.1651 85.9205 32.2503C85.6411 32.333 85.3591 32.4337 85.0719 32.5473L85.5488 33.8334C85.8359 33.712 86.1154 33.6191 86.3871 33.5545C86.6589 33.4899 86.9024 33.4589 87.1101 33.4589C87.4024 33.4589 87.6254 33.5209 87.7767 33.6423C87.9279 33.7637 88.0048 33.9341 88.0048 34.1511V34.1691H86.7383C86.0897 34.1769 85.5949 34.3138 85.2514 34.5875C84.9079 34.8587 84.7361 35.2487 84.7361 35.7523C84.7361 36.0777 84.8053 36.3643 84.9463 36.6122C85.0848 36.8576 85.2847 37.0513 85.5462 37.1881C85.8077 37.325 86.1205 37.3948 86.4897 37.3948C86.9332 37.3948 87.3049 37.2966 87.6049 37.1029C87.7638 36.9996 87.8946 36.8731 88.0048 36.7259V37.3095H89.8917V33.9212C89.8917 33.3143 89.6866 32.8443 89.2764 32.5111C88.8662 32.178 88.2971 32.0127 87.5664 32.0127L87.569 32.0101ZM87.8074 35.8736C87.7177 35.9537 87.6177 36.0157 87.5023 36.0622C87.387 36.1086 87.2639 36.1293 87.1306 36.1293C86.946 36.1293 86.8024 36.0828 86.7025 35.9898C86.5999 35.8969 86.5486 35.7703 86.5486 35.6102C86.5486 35.4501 86.5973 35.321 86.6973 35.2409C86.7947 35.1608 86.9409 35.1221 87.1306 35.1221H88.0074V35.5921C87.9638 35.7006 87.8972 35.7962 87.8074 35.8762V35.8736Z" fill="#898989"/>
<path d="M95.4601 32.2503C95.1781 32.0902 94.8525 32.0101 94.4834 32.0101C94.0501 32.0101 93.6809 32.116 93.3682 32.3278C93.1554 32.4724 92.981 32.6661 92.8349 32.9011V32.0876H90.9095V37.3069H92.8349V34.727C92.8349 34.4274 92.9118 34.1821 93.0631 33.9987C93.2143 33.8153 93.422 33.7172 93.6835 33.712C93.9065 33.712 94.086 33.7869 94.2219 33.9367C94.3578 34.0865 94.427 34.2931 94.427 34.5565V37.3095H96.3523V33.9987C96.3523 33.5958 96.2754 33.2446 96.119 32.9424C95.9626 32.6429 95.7447 32.4104 95.4627 32.2503H95.4601Z" fill="#898989"/>
<path d="M98.3417 29.6031C98.0572 29.6031 97.8187 29.6987 97.6316 29.8872C97.4444 30.0758 97.3496 30.3134 97.3496 30.6026C97.3496 30.8918 97.4419 31.1372 97.6316 31.3231C97.8187 31.5091 98.0546 31.602 98.3417 31.602C98.6289 31.602 98.8724 31.5091 99.057 31.3231C99.2416 31.1372 99.3339 30.897 99.3339 30.6026C99.3339 30.3082 99.2416 30.0758 99.057 29.8872C98.8724 29.6987 98.634 29.6031 98.3417 29.6031Z" fill="#898989"/>
<path d="M99.2954 32.0876H97.3701V37.307H99.2954V32.0876Z" fill="#898989"/>
<path d="M103.333 35.835C103.231 35.8634 103.144 35.8789 103.067 35.8789C102.933 35.8789 102.826 35.8375 102.746 35.7549C102.667 35.6723 102.628 35.5483 102.628 35.3804V33.5959H103.905V32.3588H102.628V30.91H100.713V32.3588H99.9979V33.5959H100.713V35.6774C100.713 36.0364 100.79 36.3437 100.946 36.6046C101.103 36.8628 101.318 37.0617 101.595 37.196C101.872 37.3303 102.192 37.3974 102.562 37.3974C102.828 37.3974 103.09 37.3664 103.349 37.307C103.605 37.245 103.823 37.165 104.002 37.0617L103.659 35.7265C103.544 35.7704 103.436 35.8091 103.336 35.8375L103.333 35.835Z" fill="#898989"/>
<path d="M107.171 32.0101C106.905 32.0101 106.633 32.0282 106.356 32.0669C106.079 32.1057 105.802 32.1651 105.523 32.2503C105.243 32.333 104.961 32.4337 104.674 32.5473L105.151 33.8334C105.438 33.712 105.718 33.6191 105.989 33.5545C106.261 33.4899 106.505 33.4589 106.712 33.4589C107.005 33.4589 107.228 33.5209 107.379 33.6423C107.53 33.7637 107.607 33.9341 107.607 34.1511V34.1691H106.341C105.692 34.1769 105.197 34.3138 104.854 34.5875C104.51 34.8587 104.338 35.2487 104.338 35.7523C104.338 36.0777 104.408 36.3643 104.549 36.6122C104.687 36.8576 104.887 37.0513 105.148 37.1881C105.41 37.325 105.723 37.3948 106.092 37.3948C106.535 37.3948 106.907 37.2966 107.207 37.1029C107.366 36.9996 107.497 36.8731 107.607 36.7259V37.3095H109.494V33.9212C109.494 33.3143 109.289 32.8443 108.879 32.5111C108.468 32.178 107.899 32.0127 107.169 32.0127L107.171 32.0101ZM107.41 35.8736C107.32 35.9537 107.22 36.0157 107.105 36.0622C106.989 36.1086 106.866 36.1293 106.733 36.1293C106.548 36.1293 106.405 36.0828 106.305 35.9898C106.202 35.8969 106.151 35.7703 106.151 35.6102C106.151 35.4501 106.2 35.321 106.3 35.2409C106.397 35.1608 106.543 35.1221 106.733 35.1221H107.61V35.5921C107.566 35.7006 107.499 35.7962 107.41 35.8762V35.8736Z" fill="#898989"/>
<path d="M112.44 32.9192V32.0876H110.517V37.3069H112.44V34.8122C112.44 34.5565 112.506 34.3448 112.64 34.1743C112.773 34.0039 112.963 33.8825 113.206 33.805C113.45 33.7275 113.737 33.712 114.068 33.7559V32.0101C113.647 32.0101 113.283 32.1186 112.973 32.3355C112.76 32.4827 112.586 32.679 112.44 32.9166V32.9192Z" fill="#898989"/>
<path d="M116.67 32.0876H114.744V37.307H116.67V32.0876Z" fill="#898989"/>
<path d="M115.716 29.6031C115.432 29.6031 115.193 29.6987 115.006 29.8872C114.819 30.0758 114.724 30.3134 114.724 30.6026C114.724 30.8918 114.816 31.1372 115.006 31.3231C115.193 31.5091 115.429 31.602 115.716 31.602C116.003 31.602 116.247 31.5091 116.431 31.3231C116.616 31.1372 116.708 30.897 116.708 30.6026C116.708 30.3082 116.616 30.0758 116.431 29.8872C116.247 29.6987 116.008 29.6031 115.716 29.6031Z" fill="#898989"/>
<path d="M120.269 32.0101C120.003 32.0101 119.731 32.0282 119.454 32.0669C119.177 32.1057 118.9 32.1651 118.621 32.2503C118.341 32.333 118.059 32.4337 117.772 32.5473L118.249 33.8334C118.534 33.712 118.813 33.6191 119.087 33.5545C119.362 33.4899 119.603 33.4589 119.81 33.4589C120.103 33.4589 120.326 33.5209 120.477 33.6423C120.628 33.7637 120.705 33.9341 120.705 34.1511V34.1691H119.439C118.79 34.1769 118.295 34.3138 117.952 34.5875C117.608 34.8587 117.436 35.2487 117.436 35.7523C117.436 36.0777 117.506 36.3643 117.647 36.6122C117.785 36.8576 117.985 37.0513 118.246 37.1881C118.508 37.325 118.821 37.3948 119.19 37.3948C119.633 37.3948 120.005 37.2966 120.305 37.1029C120.464 36.9996 120.595 36.8731 120.705 36.7259V37.3095H122.592V33.9212C122.592 33.3143 122.387 32.8443 121.977 32.5111C121.566 32.178 120.997 32.0127 120.267 32.0127L120.269 32.0101ZM120.508 35.8736C120.418 35.9537 120.318 36.0157 120.203 36.0622C120.087 36.1061 119.964 36.1293 119.831 36.1293C119.646 36.1293 119.503 36.0828 119.403 35.9898C119.3 35.8969 119.249 35.7703 119.249 35.6102C119.249 35.4501 119.298 35.321 119.398 35.2409C119.495 35.1608 119.641 35.1221 119.831 35.1221H120.708V35.5921C120.664 35.7006 120.597 35.7962 120.508 35.8762V35.8736Z" fill="#898989"/>
<path d="M128.16 32.2503C127.878 32.0902 127.553 32.0101 127.184 32.0101C126.75 32.0101 126.381 32.116 126.068 32.3278C125.856 32.4724 125.681 32.6661 125.535 32.9011V32.0876H123.612V37.3069H125.535V34.727C125.535 34.4274 125.612 34.1821 125.763 33.9987C125.915 33.8153 126.122 33.7172 126.384 33.712C126.607 33.712 126.786 33.7869 126.922 33.9367C127.058 34.0865 127.127 34.2931 127.127 34.5565V37.3095H129.05V33.9987C129.05 33.5958 128.973 33.2446 128.817 32.9424C128.66 32.6429 128.442 32.4104 128.16 32.2503Z" fill="#898989"/>
<path d="M132.624 37.307H134.606V34.9956H137.577V33.459H134.606V32.1161H137.805V30.582H132.624V37.307Z" fill="#898989"/>
<path d="M142.54 32.351C142.11 32.1314 141.605 32.0204 141.025 32.0204C140.446 32.0204 139.933 32.1314 139.502 32.351C139.072 32.5705 138.736 32.883 138.497 33.2807C138.259 33.681 138.141 34.1536 138.141 34.6959C138.141 35.2382 138.259 35.7031 138.497 36.106C138.736 36.5089 139.072 36.8213 139.502 37.0409C139.933 37.2604 140.443 37.3714 141.025 37.3714C141.607 37.3714 142.107 37.2604 142.54 37.0409C142.974 36.8188 143.307 36.5089 143.545 36.106C143.784 35.7031 143.902 35.2331 143.902 34.6959C143.902 34.1587 143.784 33.681 143.545 33.2807C143.307 32.8804 142.971 32.5705 142.54 32.351ZM141.843 35.3312C141.766 35.5042 141.658 35.6385 141.52 35.7341C141.379 35.8296 141.215 35.8787 141.025 35.8787C140.835 35.8787 140.669 35.8296 140.525 35.7341C140.382 35.6385 140.274 35.5042 140.197 35.3312C140.12 35.1582 140.082 34.9542 140.082 34.7166C140.082 34.479 140.12 34.2827 140.197 34.1071C140.274 33.9315 140.382 33.7946 140.525 33.699C140.669 33.6035 140.835 33.5544 141.025 33.5544C141.215 33.5544 141.381 33.6035 141.52 33.699C141.658 33.7946 141.769 33.9315 141.843 34.1071C141.917 34.2827 141.958 34.4867 141.958 34.7166C141.958 34.9464 141.92 35.1582 141.843 35.3312Z" fill="#898989"/>
<path d="M147.94 34.6702C147.94 34.9698 147.868 35.2151 147.724 35.3985C147.581 35.5844 147.386 35.68 147.14 35.6851C146.929 35.6851 146.763 35.6102 146.635 35.4605C146.506 35.3107 146.445 35.1066 146.445 34.851V32.0876H144.52V35.3985C144.52 35.8014 144.596 36.1526 144.748 36.4496C144.899 36.7466 145.114 36.979 145.391 37.1443C145.668 37.3096 145.986 37.3948 146.347 37.3948C146.765 37.3948 147.127 37.2863 147.429 37.0694C147.629 36.9248 147.799 36.7337 147.94 36.5064V37.3096H149.865V32.0902H147.94V34.6702Z" fill="#898989"/>
<path d="M155.574 32.2503C155.292 32.0902 154.967 32.0101 154.597 32.0101C154.164 32.0101 153.795 32.116 153.482 32.3278C153.269 32.4724 153.095 32.6661 152.949 32.9011V32.0876H151.026V37.3069H152.949V34.727C152.949 34.4274 153.026 34.1821 153.177 33.9987C153.328 33.8153 153.536 33.7172 153.798 33.712C154.021 33.712 154.2 33.7869 154.336 33.9367C154.472 34.0865 154.541 34.2931 154.541 34.5565V37.3095H156.464V33.9987C156.464 33.5958 156.387 33.2446 156.23 32.9424C156.074 32.6429 155.856 32.4104 155.574 32.2503Z" fill="#898989"/>
<path d="M160.904 32.6997C160.794 32.5654 160.671 32.444 160.532 32.3459C160.227 32.1289 159.863 32.0205 159.438 32.0205C158.969 32.0205 158.556 32.1315 158.2 32.351C157.843 32.5706 157.569 32.8779 157.377 33.273C157.182 33.6656 157.087 34.133 157.087 34.6702C157.087 35.2074 157.187 35.6903 157.387 36.1009C157.587 36.509 157.866 36.824 158.225 37.0461C158.584 37.2656 159.005 37.3767 159.486 37.3767C159.899 37.3767 160.256 37.2656 160.558 37.0461C160.686 36.9506 160.802 36.8369 160.907 36.7078V37.3095H162.83V30.1895H160.907V32.7023L160.904 32.6997ZM160.791 35.3313C160.715 35.5043 160.607 35.6412 160.468 35.7394C160.33 35.8375 160.163 35.8891 159.974 35.8891C159.784 35.8891 159.617 35.8401 159.474 35.7394C159.33 35.6412 159.222 35.5043 159.146 35.3313C159.069 35.1583 159.03 34.9543 159.03 34.7167C159.03 34.4791 159.069 34.2828 159.146 34.1072C159.222 33.9316 159.33 33.7947 159.474 33.6991C159.617 33.6036 159.784 33.5545 159.974 33.5545C160.163 33.5545 160.33 33.6036 160.468 33.6991C160.607 33.7947 160.717 33.9316 160.791 34.1072C160.866 34.2828 160.907 34.4868 160.907 34.7167C160.907 34.9465 160.868 35.1583 160.791 35.3313Z" fill="#898989"/>
<path d="M166.478 32.0101C166.211 32.0101 165.939 32.0282 165.662 32.0669C165.386 32.1057 165.109 32.1651 164.829 32.2503C164.55 32.333 164.268 32.4337 163.981 32.5473L164.458 33.8334C164.742 33.712 165.022 33.6191 165.296 33.5545C165.568 33.4899 165.811 33.4589 166.019 33.4589C166.311 33.4589 166.534 33.5209 166.685 33.6423C166.837 33.7637 166.914 33.9341 166.914 34.1511V34.1691H165.647C164.998 34.1769 164.504 34.3138 164.16 34.5875C163.817 34.8587 163.645 35.2487 163.645 35.7523C163.645 36.0777 163.714 36.3643 163.855 36.6122C163.994 36.8576 164.193 37.0513 164.455 37.1881C164.716 37.325 165.029 37.3948 165.398 37.3948C165.842 37.3948 166.214 37.2966 166.514 37.1029C166.673 36.9996 166.803 36.8731 166.914 36.7259V37.3095H168.8V33.9212C168.8 33.3143 168.595 32.8443 168.185 32.5111C167.775 32.178 167.206 32.0127 166.475 32.0127L166.478 32.0101ZM166.716 35.8736C166.626 35.9537 166.526 36.0157 166.411 36.0622C166.296 36.1061 166.173 36.1293 166.039 36.1293C165.855 36.1293 165.711 36.0828 165.611 35.9898C165.509 35.8969 165.46 35.7703 165.46 35.6102C165.46 35.4501 165.509 35.321 165.609 35.2409C165.706 35.1608 165.852 35.1221 166.042 35.1221H166.919V35.5921C166.875 35.7006 166.808 35.7962 166.719 35.8762L166.716 35.8736Z" fill="#898989"/>
<path d="M172.697 35.835C172.595 35.8634 172.508 35.8789 172.431 35.8789C172.297 35.8789 172.19 35.8375 172.113 35.7549C172.033 35.6723 171.995 35.5483 171.995 35.3804V33.5959H173.272V32.3588H171.995V30.91H170.08V32.3588H169.365V33.5959H170.08V35.6774C170.08 36.0364 170.157 36.3437 170.313 36.6046C170.469 36.8654 170.685 37.0617 170.962 37.196C171.239 37.3303 171.559 37.3974 171.928 37.3974C172.195 37.3974 172.456 37.3664 172.713 37.307C172.969 37.245 173.187 37.165 173.366 37.0617L173.023 35.7265C172.908 35.7704 172.8 35.8091 172.7 35.8375L172.697 35.835Z" fill="#898989"/>
<path d="M175.069 29.6031C174.784 29.6031 174.546 29.6987 174.359 29.8872C174.171 30.0758 174.077 30.3134 174.077 30.6026C174.077 30.8918 174.169 31.1372 174.359 31.3231C174.546 31.5091 174.782 31.602 175.069 31.602C175.356 31.602 175.599 31.5091 175.784 31.3231C175.969 31.1372 176.061 30.897 176.061 30.6026C176.061 30.3082 175.969 30.0758 175.784 29.8872C175.599 29.6987 175.361 29.6031 175.069 29.6031Z" fill="#898989"/>
<path d="M176.02 32.0876H174.097V37.307H176.02V32.0876Z" fill="#898989"/>
<path d="M181.183 32.351C180.753 32.1314 180.248 32.0204 179.668 32.0204C179.089 32.0204 178.576 32.1314 178.145 32.351C177.712 32.5705 177.379 32.883 177.14 33.2807C176.902 33.681 176.784 34.1536 176.784 34.6959C176.784 35.2382 176.902 35.7031 177.14 36.106C177.379 36.5089 177.715 36.8213 178.145 37.0409C178.576 37.2604 179.084 37.3714 179.668 37.3714C180.253 37.3714 180.75 37.2604 181.183 37.0409C181.614 36.8188 181.95 36.5089 182.188 36.106C182.427 35.7031 182.545 35.2331 182.545 34.6959C182.545 34.1587 182.427 33.681 182.188 33.2807C181.95 32.8804 181.614 32.5705 181.183 32.351ZM180.489 35.3312C180.412 35.5042 180.304 35.6385 180.165 35.7341C180.027 35.8296 179.86 35.8787 179.671 35.8787C179.481 35.8787 179.314 35.8296 179.171 35.7341C179.027 35.6385 178.92 35.5042 178.843 35.3312C178.766 35.1582 178.727 34.9542 178.727 34.7166C178.727 34.479 178.766 34.2827 178.843 34.1071C178.92 33.9315 179.027 33.7946 179.171 33.699C179.314 33.6035 179.481 33.5544 179.671 33.5544C179.86 33.5544 180.027 33.6035 180.165 33.699C180.306 33.7946 180.414 33.9315 180.489 34.1071C180.563 34.2827 180.604 34.4867 180.604 34.7166C180.604 34.9464 180.565 35.1582 180.489 35.3312Z" fill="#898989"/>
<path d="M187.857 32.2503C187.575 32.0902 187.249 32.0101 186.88 32.0101C186.449 32.0101 186.077 32.116 185.765 32.3278C185.552 32.4724 185.378 32.6661 185.231 32.9011V32.0876H183.306V37.3069H185.231V34.727C185.231 34.4274 185.308 34.1821 185.46 33.9987C185.611 33.8153 185.818 33.7172 186.077 33.712C186.3 33.712 186.48 33.7869 186.616 33.9367C186.752 34.0865 186.821 34.2931 186.821 34.5565V37.3095H188.746V33.9987C188.746 33.5958 188.669 33.2446 188.513 32.9424C188.357 32.6429 188.139 32.4104 187.857 32.2503Z" fill="#898989"/>
</svg>
